<?xml version="1.0" standalone="no"?>
<!DOCTYPE svg PUBLIC "-//W3C//DTD SVG 20010904//EN"
 "http://www.w3.org/TR/2001/REC-SVG-20010904/DTD/svg10.dtd">
<svg version="1.0" xmlns="http://www.w3.org/2000/svg"
 width="700.000000pt" height="700.000000pt" viewBox="0 0 700.000000 700.000000"
 preserveAspectRatio="xMidYMid meet">
<metadata>
Created by potrace 1.11, written by Peter Selinger 2001-2013
</metadata>
<g transform="translate(0.000000,700.000000) scale(0.100000,-0.100000)"
fill="#000000" stroke="none">
<path d="M3278 6996 c-1 -2 -42 -6 -89 -10 -47 -4 -95 -8 -105 -10 -10 -2 -46
-7 -79 -11 -32 -4 -68 -9 -80 -11 -11 -2 -45 -9 -75 -15 -30 -5 -66 -12 -80
-15 -41 -8 -209 -51 -285 -73 -201 -58 -531 -200 -710 -306 -33 -19 -68 -38
-77 -41 -10 -4 -18 -10 -18 -15 0 -5 -5 -9 -11 -9 -14 0 -210 -134 -319 -219
-599 -464 -1043 -1136 -1234 -1866 -39 -146 -81 -371 -92 -480 -2 -22 -7 -76
-11 -120 -15 -156 -8 -593 12 -706 2 -13 7 -46 10 -74 41 -394 231 -933 457
-1303 35 -57 68 -111 73 -120 48 -84 248 -341 348 -449 249 -268 471 -447 812
-660 91 -57 352 -184 485 -236 239 -94 525 -173 735 -203 22 -3 47 -7 55 -9 8
-2 47 -7 85 -10 39 -4 84 -9 100 -11 17 -2 100 -6 186 -10 183 -8 236 4 299
65 59 57 84 114 84 196 1 78 -22 135 -77 192 -54 58 -100 72 -250 78 -188 7
-334 21 -427 40 -14 3 -41 8 -60 11 -101 16 -417 103 -485 134 -11 5 -60 25
-110 45 -249 101 -521 265 -745 449 -146 120 -338 314 -435 440 -16 22 -39 51
-51 65 -164 207 -349 556 -442 836 -28 85 -70 227 -77 263 -2 9 -10 52 -19 94
-9 42 -18 92 -20 110 -3 18 -10 65 -15 103 -23 157 -30 378 -18 565 7 103 10
126 23 225 10 73 12 87 18 115 3 13 8 41 11 62 10 65 73 287 117 408 35 100
138 337 158 365 4 6 24 42 45 80 59 110 228 362 265 395 3 3 23 28 45 55 43
54 186 205 249 264 21 20 44 41 50 46 217 201 539 405 833 528 163 68 382 138
503 161 14 2 45 9 70 14 44 10 60 13 165 28 28 3 59 8 70 10 90 18 460 23 615
10 83 -7 103 -10 165 -20 17 -3 48 -8 70 -11 179 -23 517 -122 700 -205 85
-38 247 -120 315 -160 67 -39 291 -188 300 -199 3 -3 39 -33 80 -66 136 -108
371 -344 430 -430 8 -12 31 -41 51 -66 141 -172 319 -487 412 -729 127 -328
187 -639 202 -1042 2 -73 8 -109 24 -140 67 -137 222 -192 349 -123 66 36 85
57 117 128 25 57 25 62 21 237 -3 98 -7 189 -10 202 -3 12 -8 48 -11 78 -3 30
-7 66 -9 80 -2 14 -7 50 -11 80 -4 30 -9 58 -11 61 -2 4 -6 24 -10 45 -11 77
-73 312 -114 434 -120 357 -298 695 -527 998 -96 126 -120 156 -213 256 -185
199 -340 336 -549 485 -439 314 -970 532 -1476 607 -27 4 -57 9 -65 10 -8 2
-44 6 -80 9 -36 4 -76 9 -90 12 -27 5 -536 14 -542 9z"/>
<path d="M3437 5760 c-142 -45 -189 -240 -84 -348 48 -50 82 -62 182 -67 128
-7 259 -20 295 -30 8 -2 31 -7 50 -10 155 -26 414 -126 573 -221 680 -409
1023 -1191 862 -1969 -80 -386 -307 -761 -618 -1021 -382 -321 -855 -470
-1357 -430 -94 7 -104 9 -238 36 -179 37 -445 143 -565 224 -21 14 -40 26 -43
26 -3 0 -47 32 -99 70 -247 185 -429 404 -568 685 -56 113 -128 321 -143 415
-3 14 -7 36 -9 50 -3 14 -7 35 -9 47 -8 41 -17 141 -21 235 -2 51 -9 106 -15
123 -53 140 -227 182 -334 79 -16 -15 -38 -48 -49 -73 -18 -40 -19 -58 -13
-175 3 -72 8 -147 11 -166 31 -209 53 -306 97 -440 38 -116 107 -281 155 -369
32 -59 125 -209 145 -236 4 -5 34 -44 65 -85 63 -83 124 -150 223 -246 211
-205 457 -363 738 -475 84 -34 273 -92 337 -105 22 -4 45 -8 50 -10 39 -9 141
-25 195 -31 137 -15 571 -6 602 13 4 3 26 7 50 10 24 3 50 8 58 11 8 3 28 7
45 10 53 9 198 53 295 90 375 142 707 382 966 698 44 53 164 222 164 231 0 2
11 21 23 42 116 184 223 461 273 707 49 242 53 587 9 832 -64 368 -200 679
-424 978 -72 97 -101 130 -206 239 -212 219 -531 424 -821 526 -82 30 -232 75
-279 84 -63 14 -186 35 -225 40 -87 11 -315 16 -343 6z"/>
</g>
</svg>
