<svg width="16" height="16" viewBox="0 0 16 16" fill="none" xmlns="http://www.w3.org/2000/svg">
<path fill-rule="evenodd" clip-rule="evenodd" d="M4.48525 6.70374C4.92708 6.70374 5.28525 6.34557 5.28525 5.90374C5.28525 5.46191 4.92708 5.10374 4.48525 5.10374C4.04343 5.10374 3.68525 5.46191 3.68525 5.90374C3.68525 6.34557 4.04343 6.70374 4.48525 6.70374ZM4.48525 8.00374C5.64505 8.00374 6.58525 7.06354 6.58525 5.90374C6.58525 4.74394 5.64505 3.80374 4.48525 3.80374C3.32546 3.80374 2.38525 4.74394 2.38525 5.90374C2.38525 7.06354 3.32546 8.00374 4.48525 8.00374Z" fill="#445576"/>
<path fill-rule="evenodd" clip-rule="evenodd" d="M11.913 10.4828C12.3548 10.4828 12.713 10.1246 12.713 9.68279C12.713 9.24097 12.3548 8.88279 11.913 8.88279C11.4712 8.88279 11.113 9.24097 11.113 9.68279C11.113 10.1246 11.4712 10.4828 11.913 10.4828ZM11.913 11.7828C13.0728 11.7828 14.013 10.8426 14.013 9.68279C14.013 8.523 13.0728 7.58279 11.913 7.58279C10.7532 7.58279 9.81299 8.523 9.81299 9.68279C9.81299 10.8426 10.7532 11.7828 11.913 11.7828Z" fill="#445576"/>
<path fill-rule="evenodd" clip-rule="evenodd" d="M2.13955 14.6094C2.58138 14.6094 2.93955 14.2512 2.93955 13.8094C2.93955 13.3675 2.58138 13.0094 2.13955 13.0094C1.69772 13.0094 1.33955 13.3675 1.33955 13.8094C1.33955 14.2512 1.69772 14.6094 2.13955 14.6094ZM2.13955 15.9094C3.29935 15.9094 4.23955 14.9691 4.23955 13.8094C4.23955 12.6496 3.29935 11.7094 2.13955 11.7094C0.979753 11.7094 0.0395508 12.6496 0.0395508 13.8094C0.0395508 14.9691 0.979753 15.9094 2.13955 15.9094Z" fill="#445576"/>
<path fill-rule="evenodd" clip-rule="evenodd" d="M13.7373 2.98984C14.1792 2.98984 14.5373 2.63167 14.5373 2.18984C14.5373 1.74802 14.1792 1.38984 13.7373 1.38984C13.2955 1.38984 12.9373 1.74802 12.9373 2.18984C12.9373 2.63167 13.2955 2.98984 13.7373 2.98984ZM13.7373 4.28984C14.8971 4.28984 15.8373 3.34964 15.8373 2.18984C15.8373 1.03005 14.8971 0.0898438 13.7373 0.0898438C12.5775 0.0898438 11.6373 1.03005 11.6373 2.18984C11.6373 3.34964 12.5775 4.28984 13.7373 4.28984Z" fill="#445576"/>
<path fill-rule="evenodd" clip-rule="evenodd" d="M14.0411 3.6226L12.8031 8.42243L11.5443 8.09776L12.7823 3.29793L14.0411 3.6226ZM10.3795 9.70774L5.27563 7.10148L5.86684 5.9437L10.9707 8.54996L10.3795 9.70774ZM1.90791 12.2438L3.42821 7.16162L4.67368 7.5342L3.15337 12.6164L1.90791 12.2438Z" fill="#445576"/>
</svg>
