<svg width="17" height="16" viewBox="0 0 17 16" fill="none" xmlns="http://www.w3.org/2000/svg">
<path fill-rule="evenodd" clip-rule="evenodd" d="M14.074 1.7H10.874C10.7083 1.7 10.574 1.83431 10.574 2V5.2C10.574 5.36568 10.7083 5.5 10.874 5.5H14.074C14.2397 5.5 14.374 5.36568 14.374 5.2V2C14.374 1.83432 14.2397 1.7 14.074 1.7ZM10.874 0C9.76945 0 8.87402 0.895432 8.87402 2V5.2C8.87402 6.30457 9.76946 7.2 10.874 7.2H14.074C15.1786 7.2 16.074 6.30457 16.074 5.2V2C16.074 0.89543 15.1786 0 14.074 0H10.874Z" fill="#445576"/>
<path fill-rule="evenodd" clip-rule="evenodd" d="M5.27373 1.7H2.07373C1.90805 1.7 1.77373 1.83431 1.77373 2V5.2C1.77373 5.36568 1.90804 5.5 2.07373 5.5H5.27373C5.43941 5.5 5.57373 5.36569 5.57373 5.2V2C5.57373 1.83432 5.43942 1.7 5.27373 1.7ZM2.07373 0C0.969161 0 0.0737305 0.895432 0.0737305 2V5.2C0.0737305 6.30457 0.969162 7.2 2.07373 7.2H5.27373C6.3783 7.2 7.27373 6.30457 7.27373 5.2V2C7.27373 0.89543 6.3783 0 5.27373 0H2.07373Z" fill="#445576"/>
<path fill-rule="evenodd" clip-rule="evenodd" d="M5.27373 10.5H2.07373C1.90805 10.5 1.77373 10.6344 1.77373 10.8V14C1.77373 14.1657 1.90804 14.3 2.07373 14.3H5.27373C5.43941 14.3 5.57373 14.1657 5.57373 14V10.8C5.57373 10.6344 5.43942 10.5 5.27373 10.5ZM2.07373 8.80005C0.969161 8.80005 0.0737305 9.69548 0.0737305 10.8V14C0.0737305 15.1046 0.969162 16 2.07373 16H5.27373C6.3783 16 7.27373 15.1046 7.27373 14V10.8C7.27373 9.69548 6.3783 8.80005 5.27373 8.80005H2.07373Z" fill="#445576"/>
<path fill-rule="evenodd" clip-rule="evenodd" d="M14.074 10.5H10.874C10.7083 10.5 10.574 10.6344 10.574 10.8V14C10.574 14.1657 10.7083 14.3 10.874 14.3H14.074C14.2397 14.3 14.374 14.1657 14.374 14V10.8C14.374 10.6344 14.2397 10.5 14.074 10.5ZM10.874 8.80005C9.76945 8.80005 8.87402 9.69548 8.87402 10.8V14C8.87402 15.1046 9.76946 16 10.874 16H14.074C15.1786 16 16.074 15.1046 16.074 14V10.8C16.074 9.69548 15.1786 8.80005 14.074 8.80005H10.874Z" fill="#445576"/>
</svg>
