<svg width="16" height="16" viewBox="0 0 16 16" fill="none" xmlns="http://www.w3.org/2000/svg">
<path fill-rule="evenodd" clip-rule="evenodd" d="M13.939 7.75237C14.9074 6.41321 15.233 5.02954 15.0299 3.77563C14.8284 2.53192 14.1188 1.49687 13.1673 0.833489C12.2166 0.170607 11.0047 -0.134888 9.78326 0.10116C8.54876 0.339739 7.38393 1.11527 6.50424 2.46857C6.23334 2.88532 6.35158 3.44277 6.76832 3.71367C7.18507 3.98457 7.74252 3.86633 8.01342 3.44958C8.65986 2.45511 9.42662 2.00339 10.1248 1.86846C10.8361 1.731 11.558 1.90573 12.1378 2.31002C12.717 2.71382 13.1347 3.33289 13.253 4.06345C13.3696 4.78282 13.2081 5.69238 12.4786 6.70002L8.22497 12.6825L8.22004 12.6895C7.03417 14.3914 5.23999 14.4579 4.00541 13.7138C3.38204 13.338 2.93972 12.7751 2.78011 12.1432C2.62582 11.5323 2.71022 10.758 3.32077 9.88006L5.42721 6.91753C5.94673 6.28119 6.66906 6.2868 7.17228 6.63436C7.42646 6.80991 7.59599 7.05778 7.65133 7.33228C7.70352 7.59114 7.67107 7.95814 7.37146 8.4183L6.11273 10.1043C5.81537 10.5026 5.8972 11.0666 6.2955 11.3639C6.6938 11.6613 7.25775 11.5795 7.5551 11.1812L8.82985 9.47368C8.8398 9.46035 8.84937 9.44676 8.85856 9.43291C9.39701 8.62152 9.57537 7.76792 9.41583 6.97655C9.25871 6.19721 8.79086 5.56466 8.19521 5.15327C7.00325 4.33003 5.18449 4.33262 4.0053 5.81339C3.99513 5.82616 3.98531 5.8392 3.97585 5.85251L1.85122 8.84061L1.84629 8.84762C0.971772 10.1027 0.737915 11.4081 1.03492 12.584C1.32679 13.7396 2.10612 14.6707 3.0762 15.2554C5.02758 16.4316 7.90569 16.2854 9.69434 13.7221L13.939 7.75237Z" fill="#ABC0DC"/>
<path fill-rule="evenodd" clip-rule="evenodd" d="M13.939 7.75237C14.9074 6.41321 15.233 5.02954 15.0299 3.77563C14.8284 2.53192 14.1188 1.49687 13.1673 0.833489C12.2166 0.170607 11.0047 -0.134888 9.78326 0.10116C8.54876 0.339739 7.38393 1.11527 6.50424 2.46857C6.23334 2.88532 6.35158 3.44277 6.76832 3.71367C7.18507 3.98457 7.74252 3.86633 8.01342 3.44958C8.65986 2.45511 9.42662 2.00339 10.1248 1.86846C10.8361 1.731 11.558 1.90573 12.1378 2.31002C12.717 2.71382 13.1347 3.33289 13.253 4.06345C13.3696 4.78282 13.2081 5.69238 12.4786 6.70002L8.22497 12.6825L8.22004 12.6895C7.03417 14.3914 5.23999 14.4579 4.00541 13.7138C3.38204 13.338 2.93972 12.7751 2.78011 12.1432C2.62582 11.5323 2.71022 10.758 3.32077 9.88006L5.42721 6.91753C5.94673 6.28119 6.66906 6.2868 7.17228 6.63436C7.42646 6.80991 7.59599 7.05778 7.65133 7.33228C7.70352 7.59114 7.67107 7.95814 7.37146 8.4183L6.11273 10.1043C5.81537 10.5026 5.8972 11.0666 6.2955 11.3639C6.6938 11.6613 7.25775 11.5795 7.5551 11.1812L8.82985 9.47368C8.8398 9.46035 8.84937 9.44676 8.85856 9.43291C9.39701 8.62152 9.57537 7.76792 9.41583 6.97655C9.25871 6.19721 8.79086 5.56466 8.19521 5.15327C7.00325 4.33003 5.18449 4.33262 4.0053 5.81339C3.99513 5.82616 3.98531 5.8392 3.97585 5.85251L1.85122 8.84061L1.84629 8.84762C0.971772 10.1027 0.737915 11.4081 1.03492 12.584C1.32679 13.7396 2.10612 14.6707 3.0762 15.2554C5.02758 16.4316 7.90569 16.2854 9.69434 13.7221L13.939 7.75237Z" fill="#7D9BC3"/>
</svg>
