<svg width="16" height="16" viewBox="0 0 16 16" fill="none" xmlns="http://www.w3.org/2000/svg">
<path fill-rule="evenodd" clip-rule="evenodd" d="M1.98569 13.3485C2.86291 11.8039 3.74011 10.2586 4.6172 8.71348C5.52023 7.12268 6.42315 5.53208 7.32606 3.94228C7.45193 3.72198 7.57671 3.50147 7.69933 3.28477L7.70025 3.28314C7.80223 3.10291 7.90273 2.92529 8.00322 2.74888C9.2792 4.99476 10.5536 7.24043 11.8289 9.48758C12.3877 10.4723 12.9467 11.4574 13.5061 12.4428C13.6037 12.616 13.7019 12.7888 13.7983 12.9585C13.8724 13.0889 13.9457 13.218 14.0181 13.346C12.6026 13.352 11.192 13.3507 9.77594 13.3495C9.18863 13.349 8.60037 13.3485 8.01043 13.3485H1.98569ZM15.6543 12.5829C16.3105 13.7615 15.5175 15.1392 14.1679 15.1454C12.6997 15.152 11.2346 15.1508 9.76937 15.1495C9.18316 15.149 8.59692 15.1485 8.01043 15.1485H1.83745C0.98847 15.1485 0.31364 14.598 0.14571 13.7677C0.0617455 13.3572 0.133271 12.9654 0.341629 12.5984C1.24489 11.008 2.14816 9.41679 3.05143 7.82558C3.95496 6.2339 4.8585 4.64222 5.76203 3.05131C5.88642 2.83363 6.01004 2.61517 6.13365 2.3967C6.25727 2.17824 6.38088 1.95977 6.50528 1.74208C6.84425 1.15433 7.35425 0.840238 8.03219 0.849567C8.69769 0.858897 9.18593 1.18854 9.51557 1.76696C10.8096 4.04447 12.102 6.32198 13.3951 8.60055C13.9542 9.58569 14.5134 10.571 15.0728 11.5567C15.1692 11.7277 15.2664 11.8987 15.3636 12.0698C15.4608 12.2408 15.5579 12.4118 15.6543 12.5829Z" fill="white"/>
<path d="M8.79153 6.46423C8.7708 7.10184 8.69304 7.73687 8.6412 8.37449C8.6075 8.79697 8.56603 9.21687 8.52715 9.63676C8.51679 9.74044 8.48568 9.83893 8.4494 9.93743C8.37423 10.1448 8.21612 10.2536 7.99321 10.2511C7.77549 10.2511 7.63034 10.1448 7.55258 9.94002C7.46705 9.71193 7.43076 9.47347 7.41521 9.23242C7.3556 8.30191 7.29339 7.37141 7.23896 6.4409C7.226 6.21022 7.20008 5.97435 7.28302 5.74885C7.42558 5.3471 7.80659 5.12678 8.21612 5.2175C8.43644 5.26416 8.58418 5.39635 8.66712 5.6037C8.77598 5.87845 8.80968 6.16615 8.79153 6.46423Z" fill="white"/>
<path d="M8.78015 11.7388C8.77756 12.1794 8.4432 12.5008 7.98961 12.5008C7.52824 12.4982 7.19906 12.1613 7.20425 11.6921C7.20943 11.2722 7.56712 10.9223 7.98961 10.9275C8.4406 10.9301 8.78274 11.2826 8.78015 11.7388Z" fill="white"/>
</svg>
