<svg width="886" height="900" viewBox="0 0 886 900" fill="none" xmlns="http://www.w3.org/2000/svg">
<g opacity="0.05">
<path d="M152.385 979.742C202.474 1032.71 213.535 1108.45 186.562 1171.46C161.29 1230.49 495.859 562.599 654.36 267.734C325.657 575.036 78.1062 804.136 -100.141 972.678C-28.9802 905.392 85.0996 908.581 152.385 979.742Z" fill="#ABC0DC"/>
<path d="M152.385 979.742C202.474 1032.71 213.535 1108.45 186.562 1171.46C161.29 1230.49 495.859 562.599 654.36 267.734C325.657 575.036 78.1062 804.136 -100.141 972.678C-28.9802 905.392 85.0996 908.581 152.385 979.742Z" fill="#7D9BC3"/>
<path d="M-128.131 649.493C-172.422 591.585 -245.416 568.567 -311.925 585.128C-374.238 600.644 338.526 377.071 654.925 267.712C299.058 543.1 33.3527 750.872 -161.5 899.904C-83.7102 840.407 -68.6339 727.283 -128.131 649.493Z" fill="#ABC0DC"/>
<path d="M-128.131 649.493C-172.422 591.585 -245.416 568.567 -311.925 585.128C-374.238 600.644 338.526 377.071 654.925 267.712C299.058 543.1 33.3527 750.872 -161.5 899.904C-83.7102 840.407 -68.6339 727.283 -128.131 649.493Z" fill="#7D9BC3"/>
<path d="M164.185 371.523C174.079 381.987 176.264 396.946 170.936 409.392C165.944 421.053 232.03 289.127 263.337 230.884C198.41 291.584 149.513 336.837 114.305 370.128C128.361 356.837 150.894 357.467 164.185 371.523Z" fill="#ABC0DC"/>
<path d="M164.185 371.523C174.079 381.987 176.264 396.946 170.936 409.392C165.944 421.053 232.03 289.127 263.337 230.884C198.41 291.584 149.513 336.837 114.305 370.128C128.361 356.837 150.894 357.467 164.185 371.523Z" fill="#7D9BC3"/>
<path d="M108.775 306.291C100.026 294.853 85.6081 290.307 72.4709 293.578C60.1625 296.642 200.951 252.481 263.448 230.88C193.155 285.276 140.672 326.316 102.184 355.754C117.549 344.002 120.527 321.657 108.775 306.291Z" fill="#ABC0DC"/>
<path d="M108.775 306.291C100.026 294.853 85.6081 290.307 72.4709 293.578C60.1625 296.642 200.951 252.481 263.448 230.88C193.155 285.276 140.672 326.316 102.184 355.754C117.549 344.002 120.527 321.657 108.775 306.291Z" fill="#7D9BC3"/>
<path d="M485.185 865.523C495.079 875.987 497.264 890.946 491.936 903.392C486.944 915.053 553.03 783.127 584.337 724.884C519.41 785.584 470.513 830.837 435.305 864.128C449.361 850.837 471.894 851.467 485.185 865.523Z" fill="#ABC0DC"/>
<path d="M485.185 865.523C495.079 875.987 497.264 890.946 491.936 903.392C486.944 915.053 553.03 783.127 584.337 724.884C519.41 785.584 470.513 830.837 435.305 864.128C449.361 850.837 471.894 851.467 485.185 865.523Z" fill="#7D9BC3"/>
<path d="M429.775 800.291C421.026 788.853 406.608 784.307 393.471 787.578C381.163 790.642 521.951 746.481 584.448 724.88C514.155 779.276 461.672 820.316 423.184 849.754C438.549 838.002 441.527 815.657 429.775 800.291Z" fill="#ABC0DC"/>
<path d="M429.775 800.291C421.026 788.853 406.608 784.307 393.471 787.578C381.163 790.642 521.951 746.481 584.448 724.88C514.155 779.276 461.672 820.316 423.184 849.754C438.549 838.002 441.527 815.657 429.775 800.291Z" fill="#7D9BC3"/>
</g>
</svg>
