<svg width="552" height="650" viewBox="0 0 552 650" fill="none" xmlns="http://www.w3.org/2000/svg">
<g opacity="0.05">
<path fill-rule="evenodd" clip-rule="evenodd" d="M93.6504 427.472C104.943 427.472 114.097 418.318 114.097 407.025C114.097 395.732 104.943 386.578 93.6504 386.578C82.3578 386.578 73.2033 395.732 73.2033 407.025C73.2033 418.318 82.3578 427.472 93.6504 427.472ZM93.6504 460.699C123.293 460.699 147.324 436.668 147.324 407.025C147.324 377.382 123.293 353.352 93.6504 353.352C64.0073 353.352 39.9769 377.382 39.9769 407.025C39.9769 436.668 64.0073 460.699 93.6504 460.699Z" fill="#ABC0DC"/>
<path fill-rule="evenodd" clip-rule="evenodd" d="M93.6504 427.472C104.943 427.472 114.097 418.318 114.097 407.025C114.097 395.732 104.943 386.578 93.6504 386.578C82.3578 386.578 73.2033 395.732 73.2033 407.025C73.2033 418.318 82.3578 427.472 93.6504 427.472ZM93.6504 460.699C123.293 460.699 147.324 436.668 147.324 407.025C147.324 377.382 123.293 353.352 93.6504 353.352C64.0073 353.352 39.9769 377.382 39.9769 407.025C39.9769 436.668 64.0073 460.699 93.6504 460.699Z" fill="#7D9BC3"/>
<path fill-rule="evenodd" clip-rule="evenodd" d="M283.495 524.06C294.787 524.06 303.942 514.906 303.942 503.613C303.942 492.321 294.787 483.166 283.495 483.166C272.202 483.166 263.047 492.321 263.047 503.613C263.047 514.906 272.202 524.06 283.495 524.06ZM283.495 557.287C313.138 557.287 337.168 533.256 337.168 503.613C337.168 473.97 313.138 449.94 283.495 449.94C253.851 449.94 229.821 473.97 229.821 503.613C229.821 533.256 253.851 557.287 283.495 557.287Z" fill="#ABC0DC"/>
<path fill-rule="evenodd" clip-rule="evenodd" d="M283.495 524.06C294.787 524.06 303.942 514.906 303.942 503.613C303.942 492.321 294.787 483.166 283.495 483.166C272.202 483.166 263.047 492.321 263.047 503.613C263.047 514.906 272.202 524.06 283.495 524.06ZM283.495 557.287C313.138 557.287 337.168 533.256 337.168 503.613C337.168 473.97 313.138 449.94 283.495 449.94C253.851 449.94 229.821 473.97 229.821 503.613C229.821 533.256 253.851 557.287 283.495 557.287Z" fill="#7D9BC3"/>
<path fill-rule="evenodd" clip-rule="evenodd" d="M33.697 629.53C44.9896 629.53 54.144 620.376 54.144 609.083C54.144 597.791 44.9896 588.636 33.697 588.636C22.4044 588.636 13.2499 597.791 13.2499 609.083C13.2499 620.376 22.4044 629.53 33.697 629.53ZM33.697 662.757C63.34 662.757 87.3705 638.726 87.3705 609.083C87.3705 579.44 63.34 555.41 33.697 555.41C4.0539 555.41 -19.9766 579.44 -19.9766 609.083C-19.9766 638.726 4.0539 662.757 33.697 662.757Z" fill="#ABC0DC"/>
<path fill-rule="evenodd" clip-rule="evenodd" d="M33.697 629.53C44.9896 629.53 54.144 620.376 54.144 609.083C54.144 597.791 44.9896 588.636 33.697 588.636C22.4044 588.636 13.2499 597.791 13.2499 609.083C13.2499 620.376 22.4044 629.53 33.697 629.53ZM33.697 662.757C63.34 662.757 87.3705 638.726 87.3705 609.083C87.3705 579.44 63.34 555.41 33.697 555.41C4.0539 555.41 -19.9766 579.44 -19.9766 609.083C-19.9766 638.726 4.0539 662.757 33.697 662.757Z" fill="#7D9BC3"/>
<path fill-rule="evenodd" clip-rule="evenodd" d="M330.123 332.549C341.415 332.549 350.57 323.395 350.57 312.102C350.57 300.81 341.415 291.655 330.123 291.655C318.83 291.655 309.676 300.81 309.676 312.102C309.676 323.395 318.83 332.549 330.123 332.549ZM330.123 365.776C359.766 365.776 383.796 341.745 383.796 312.102C383.796 282.459 359.766 258.429 330.123 258.429C300.479 258.429 276.449 282.459 276.449 312.102C276.449 341.745 300.479 365.776 330.123 365.776Z" fill="#ABC0DC"/>
<path fill-rule="evenodd" clip-rule="evenodd" d="M330.123 332.549C341.415 332.549 350.57 323.395 350.57 312.102C350.57 300.81 341.415 291.655 330.123 291.655C318.83 291.655 309.676 300.81 309.676 312.102C309.676 323.395 318.83 332.549 330.123 332.549ZM330.123 365.776C359.766 365.776 383.796 341.745 383.796 312.102C383.796 282.459 359.766 258.429 330.123 258.429C300.479 258.429 276.449 282.459 276.449 312.102C276.449 341.745 300.479 365.776 330.123 365.776Z" fill="#7D9BC3"/>
<path fill-rule="evenodd" clip-rule="evenodd" d="M337.887 348.722L306.246 471.4L274.072 463.102L305.713 340.424L337.887 348.722ZM244.301 504.251L113.851 437.638L128.962 408.046L259.411 474.659L244.301 504.251ZM27.7764 569.069L66.6337 439.175L98.4664 448.698L59.6091 578.592L27.7764 569.069Z" fill="#ABC0DC"/>
<path fill-rule="evenodd" clip-rule="evenodd" d="M337.887 348.722L306.246 471.4L274.072 463.102L305.713 340.424L337.887 348.722ZM244.301 504.251L113.851 437.638L128.962 408.046L259.411 474.659L244.301 504.251ZM27.7764 569.069L66.6337 439.175L98.4664 448.698L59.6091 578.592L27.7764 569.069Z" fill="#7D9BC3"/>
<path fill-rule="evenodd" clip-rule="evenodd" d="M42.2129 79.6572C47.4541 79.6572 51.703 75.4083 51.703 70.167C51.703 64.9257 47.4541 60.6768 42.2129 60.6768C36.9716 60.6768 32.7227 64.9257 32.7227 70.167C32.7227 75.4083 36.9716 79.6572 42.2129 79.6572ZM42.2129 95.0788C55.9712 95.0788 67.1246 83.9254 67.1246 70.167C67.1246 56.4086 55.9712 45.2553 42.2129 45.2553C28.4545 45.2553 17.3011 56.4086 17.3011 70.167C17.3011 83.9254 28.4545 95.0788 42.2129 95.0788Z" fill="#ABC0DC"/>
<path fill-rule="evenodd" clip-rule="evenodd" d="M42.2129 79.6572C47.4541 79.6572 51.703 75.4083 51.703 70.167C51.703 64.9257 47.4541 60.6768 42.2129 60.6768C36.9716 60.6768 32.7227 64.9257 32.7227 70.167C32.7227 75.4083 36.9716 79.6572 42.2129 79.6572ZM42.2129 95.0788C55.9712 95.0788 67.1246 83.9254 67.1246 70.167C67.1246 56.4086 55.9712 45.2553 42.2129 45.2553C28.4545 45.2553 17.3011 56.4086 17.3011 70.167C17.3011 83.9254 28.4545 95.0788 42.2129 95.0788Z" fill="#7D9BC3"/>
<path fill-rule="evenodd" clip-rule="evenodd" d="M130.326 124.487C135.567 124.487 139.816 120.238 139.816 114.997C139.816 109.756 135.567 105.507 130.326 105.507C125.085 105.507 120.836 109.756 120.836 114.997C120.836 120.238 125.085 124.487 130.326 124.487ZM130.326 139.909C144.085 139.909 155.238 128.755 155.238 114.997C155.238 101.239 144.085 90.0852 130.326 90.0852C116.568 90.0852 105.414 101.239 105.414 114.997C105.414 128.755 116.568 139.909 130.326 139.909Z" fill="#ABC0DC"/>
<path fill-rule="evenodd" clip-rule="evenodd" d="M130.326 124.487C135.567 124.487 139.816 120.238 139.816 114.997C139.816 109.756 135.567 105.507 130.326 105.507C125.085 105.507 120.836 109.756 120.836 114.997C120.836 120.238 125.085 124.487 130.326 124.487ZM130.326 139.909C144.085 139.909 155.238 128.755 155.238 114.997C155.238 101.239 144.085 90.0852 130.326 90.0852C116.568 90.0852 105.414 101.239 105.414 114.997C105.414 128.755 116.568 139.909 130.326 139.909Z" fill="#7D9BC3"/>
<path fill-rule="evenodd" clip-rule="evenodd" d="M14.3864 173.439C19.6277 173.439 23.8766 169.191 23.8766 163.949C23.8766 158.708 19.6277 154.459 14.3864 154.459C9.14508 154.459 4.89618 158.708 4.89618 163.949C4.89618 169.191 9.14508 173.439 14.3864 173.439ZM14.3864 188.861C28.1448 188.861 39.2981 177.708 39.2981 163.949C39.2981 150.191 28.1448 139.037 14.3864 139.037C0.627986 139.037 -10.5254 150.191 -10.5254 163.949C-10.5254 177.708 0.627986 188.861 14.3864 188.861Z" fill="#ABC0DC"/>
<path fill-rule="evenodd" clip-rule="evenodd" d="M14.3864 173.439C19.6277 173.439 23.8766 169.191 23.8766 163.949C23.8766 158.708 19.6277 154.459 14.3864 154.459C9.14508 154.459 4.89618 158.708 4.89618 163.949C4.89618 169.191 9.14508 173.439 14.3864 173.439ZM14.3864 188.861C28.1448 188.861 39.2981 177.708 39.2981 163.949C39.2981 150.191 28.1448 139.037 14.3864 139.037C0.627986 139.037 -10.5254 150.191 -10.5254 163.949C-10.5254 177.708 0.627986 188.861 14.3864 188.861Z" fill="#7D9BC3"/>
<path fill-rule="evenodd" clip-rule="evenodd" d="M151.968 35.6002C157.209 35.6002 161.458 31.3513 161.458 26.11C161.458 20.8687 157.209 16.6198 151.968 16.6198C146.727 16.6198 142.478 20.8687 142.478 26.11C142.478 31.3513 146.727 35.6002 151.968 35.6002ZM151.968 51.0218C165.726 51.0218 176.88 39.8684 176.88 26.11C176.88 12.3516 165.726 1.19824 151.968 1.19824C138.209 1.19824 127.056 12.3516 127.056 26.11C127.056 39.8684 138.209 51.0218 151.968 51.0218Z" fill="#ABC0DC"/>
<path fill-rule="evenodd" clip-rule="evenodd" d="M151.968 35.6002C157.209 35.6002 161.458 31.3513 161.458 26.11C161.458 20.8687 157.209 16.6198 151.968 16.6198C146.727 16.6198 142.478 20.8687 142.478 26.11C142.478 31.3513 146.727 35.6002 151.968 35.6002ZM151.968 51.0218C165.726 51.0218 176.88 39.8684 176.88 26.11C176.88 12.3516 165.726 1.19824 151.968 1.19824C138.209 1.19824 127.056 12.3516 127.056 26.11C127.056 39.8684 138.209 51.0218 151.968 51.0218Z" fill="#7D9BC3"/>
<path fill-rule="evenodd" clip-rule="evenodd" d="M155.572 43.1064L140.886 100.046L125.953 96.1941L140.639 39.255L155.572 43.1064ZM112.135 115.293L51.5889 84.3755L58.6023 70.641L119.148 101.558L112.135 115.293ZM11.6384 145.377L29.6735 85.0889L44.4481 89.5087L26.4131 149.797L11.6384 145.377Z" fill="#ABC0DC"/>
<path fill-rule="evenodd" clip-rule="evenodd" d="M155.572 43.1064L140.886 100.046L125.953 96.1941L140.639 39.255L155.572 43.1064ZM112.135 115.293L51.5889 84.3755L58.6023 70.641L119.148 101.558L112.135 115.293ZM11.6384 145.377L29.6735 85.0889L44.4481 89.5087L26.4131 149.797L11.6384 145.377Z" fill="#7D9BC3"/>
<path fill-rule="evenodd" clip-rule="evenodd" d="M451.7 412.968C455.512 412.968 458.602 409.878 458.602 406.066C458.602 402.255 455.512 399.164 451.7 399.164C447.888 399.164 444.798 402.255 444.798 406.066C444.798 409.878 447.888 412.968 451.7 412.968ZM451.7 424.184C461.706 424.184 469.817 416.072 469.817 406.066C469.817 396.06 461.706 387.949 451.7 387.949C441.694 387.949 433.582 396.06 433.582 406.066C433.582 416.072 441.694 424.184 451.7 424.184Z" fill="#ABC0DC"/>
<path fill-rule="evenodd" clip-rule="evenodd" d="M451.7 412.968C455.512 412.968 458.602 409.878 458.602 406.066C458.602 402.255 455.512 399.164 451.7 399.164C447.888 399.164 444.798 402.255 444.798 406.066C444.798 409.878 447.888 412.968 451.7 412.968ZM451.7 424.184C461.706 424.184 469.817 416.072 469.817 406.066C469.817 396.06 461.706 387.949 451.7 387.949C441.694 387.949 433.582 396.06 433.582 406.066C433.582 416.072 441.694 424.184 451.7 424.184Z" fill="#7D9BC3"/>
<path fill-rule="evenodd" clip-rule="evenodd" d="M515.782 445.572C519.594 445.572 522.684 442.482 522.684 438.67C522.684 434.858 519.594 431.768 515.782 431.768C511.97 431.768 508.88 434.858 508.88 438.67C508.88 442.482 511.97 445.572 515.782 445.572ZM515.782 456.788C525.788 456.788 533.9 448.676 533.9 438.67C533.9 428.664 525.788 420.552 515.782 420.552C505.776 420.552 497.665 428.664 497.665 438.67C497.665 448.676 505.776 456.788 515.782 456.788Z" fill="#ABC0DC"/>
<path fill-rule="evenodd" clip-rule="evenodd" d="M515.782 445.572C519.594 445.572 522.684 442.482 522.684 438.67C522.684 434.858 519.594 431.768 515.782 431.768C511.97 431.768 508.88 434.858 508.88 438.67C508.88 442.482 511.97 445.572 515.782 445.572ZM515.782 456.788C525.788 456.788 533.9 448.676 533.9 438.67C533.9 428.664 525.788 420.552 515.782 420.552C505.776 420.552 497.665 428.664 497.665 438.67C497.665 448.676 505.776 456.788 515.782 456.788Z" fill="#7D9BC3"/>
<path fill-rule="evenodd" clip-rule="evenodd" d="M431.462 481.174C435.274 481.174 438.364 478.083 438.364 474.272C438.364 470.46 435.274 467.37 431.462 467.37C427.651 467.37 424.56 470.46 424.56 474.272C424.56 478.083 427.651 481.174 431.462 481.174ZM431.462 492.389C441.468 492.389 449.58 484.278 449.58 474.272C449.58 464.266 441.468 456.154 431.462 456.154C421.456 456.154 413.345 464.266 413.345 474.272C413.345 484.278 421.456 492.389 431.462 492.389Z" fill="#ABC0DC"/>
<path fill-rule="evenodd" clip-rule="evenodd" d="M431.462 481.174C435.274 481.174 438.364 478.083 438.364 474.272C438.364 470.46 435.274 467.37 431.462 467.37C427.651 467.37 424.56 470.46 424.56 474.272C424.56 478.083 427.651 481.174 431.462 481.174ZM431.462 492.389C441.468 492.389 449.58 484.278 449.58 474.272C449.58 464.266 441.468 456.154 431.462 456.154C421.456 456.154 413.345 464.266 413.345 474.272C413.345 484.278 421.456 492.389 431.462 492.389Z" fill="#7D9BC3"/>
<path fill-rule="evenodd" clip-rule="evenodd" d="M531.522 380.927C535.333 380.927 538.424 377.837 538.424 374.025C538.424 370.213 535.333 367.123 531.522 367.123C527.71 367.123 524.62 370.213 524.62 374.025C524.62 377.837 527.71 380.927 531.522 380.927ZM531.522 392.143C541.528 392.143 549.639 384.031 549.639 374.025C549.639 364.019 541.528 355.907 531.522 355.907C521.516 355.907 513.404 364.019 513.404 374.025C513.404 384.031 521.516 392.143 531.522 392.143Z" fill="#ABC0DC"/>
<path fill-rule="evenodd" clip-rule="evenodd" d="M531.522 380.927C535.333 380.927 538.424 377.837 538.424 374.025C538.424 370.213 535.333 367.123 531.522 367.123C527.71 367.123 524.62 370.213 524.62 374.025C524.62 377.837 527.71 380.927 531.522 380.927ZM531.522 392.143C541.528 392.143 549.639 384.031 549.639 374.025C549.639 364.019 541.528 355.907 531.522 355.907C521.516 355.907 513.404 364.019 513.404 374.025C513.404 384.031 521.516 392.143 531.522 392.143Z" fill="#7D9BC3"/>
<path fill-rule="evenodd" clip-rule="evenodd" d="M534.142 386.386L523.462 427.796L512.602 424.995L523.282 383.585L534.142 386.386ZM502.552 438.885L458.519 416.4L463.619 406.411L507.653 428.896L502.552 438.885ZM429.464 460.765L442.58 416.919L453.325 420.133L440.209 463.979L429.464 460.765Z" fill="#ABC0DC"/>
<path fill-rule="evenodd" clip-rule="evenodd" d="M534.142 386.386L523.462 427.796L512.602 424.995L523.282 383.585L534.142 386.386ZM502.552 438.885L458.519 416.4L463.619 406.411L507.653 428.896L502.552 438.885ZM429.464 460.765L442.58 416.919L453.325 420.133L440.209 463.979L429.464 460.765Z" fill="#7D9BC3"/>
</g>
</svg>
