<svg width="573" height="602" viewBox="0 0 573 602" fill="none" xmlns="http://www.w3.org/2000/svg">
<g opacity="0.05">
<path fill-rule="evenodd" clip-rule="evenodd" d="M204.471 303.711C174.614 303.711 148.338 329.614 148.338 364.192V438.979H102.333V364.192C102.333 306.556 146.918 257.705 204.471 257.705C262.024 257.705 306.609 306.556 306.609 364.192V438.979H260.603V364.192C260.603 329.614 234.328 303.711 204.471 303.711Z" fill="#9CA4AE"/>
<path fill-rule="evenodd" clip-rule="evenodd" d="M204.471 303.711C174.614 303.711 148.338 329.614 148.338 364.192V438.979H102.333V364.192C102.333 306.556 146.918 257.705 204.471 257.705C262.024 257.705 306.609 306.556 306.609 364.192V438.979H260.603V364.192C260.603 329.614 234.328 303.711 204.471 303.711Z" fill="#919BB0"/>
<path fill-rule="evenodd" clip-rule="evenodd" d="M204.471 472.501C217.175 472.501 227.473 482.8 227.473 495.504V574.64C227.473 587.344 217.175 597.642 204.471 597.642C191.766 597.642 181.468 587.344 181.468 574.64V495.504C181.468 482.8 191.766 472.501 204.471 472.501Z" fill="#9CA4AE"/>
<path fill-rule="evenodd" clip-rule="evenodd" d="M204.471 472.501C217.175 472.501 227.473 482.8 227.473 495.504V574.64C227.473 587.344 217.175 597.642 204.471 597.642C191.766 597.642 181.468 587.344 181.468 574.64V495.504C181.468 482.8 191.766 472.501 204.471 472.501Z" fill="#919BB0"/>
<path fill-rule="evenodd" clip-rule="evenodd" d="M271.811 462.375H137.13C106.075 462.375 80.9004 487.55 80.9004 518.605V562.845C80.9004 593.9 106.075 619.075 137.13 619.075H271.811C302.866 619.075 328.04 593.9 328.04 562.845V518.604C328.04 487.55 302.866 462.375 271.811 462.375ZM137.13 416.369C80.6668 416.369 34.8945 462.142 34.8945 518.605V562.845C34.8945 619.308 80.6667 665.08 137.13 665.08H271.811C328.274 665.08 374.046 619.308 374.046 562.845V518.604C374.046 462.141 328.274 416.369 271.811 416.369H137.13Z" fill="#9CA4AE"/>
<path fill-rule="evenodd" clip-rule="evenodd" d="M271.811 462.375H137.13C106.075 462.375 80.9004 487.55 80.9004 518.605V562.845C80.9004 593.9 106.075 619.075 137.13 619.075H271.811C302.866 619.075 328.04 593.9 328.04 562.845V518.604C328.04 487.55 302.866 462.375 271.811 462.375ZM137.13 416.369C80.6668 416.369 34.8945 462.142 34.8945 518.605V562.845C34.8945 619.308 80.6667 665.08 137.13 665.08H271.811C328.274 665.08 374.046 619.308 374.046 562.845V518.604C374.046 462.141 328.274 416.369 271.811 416.369H137.13Z" fill="#919BB0"/>
<path fill-rule="evenodd" clip-rule="evenodd" d="M104.902 22.2152C91.0439 22.2152 78.8486 34.2378 78.8486 50.2864V84.9978H57.4957V50.2864C57.4957 23.5355 78.1892 0.862305 104.902 0.862305C131.614 0.862305 152.308 23.5355 152.308 50.2864V84.9978H130.955V50.2864C130.955 34.2378 118.759 22.2152 104.902 22.2152Z" fill="#9CA4AE"/>
<path fill-rule="evenodd" clip-rule="evenodd" d="M104.902 22.2152C91.0439 22.2152 78.8486 34.2378 78.8486 50.2864V84.9978H57.4957V50.2864C57.4957 23.5355 78.1892 0.862305 104.902 0.862305C131.614 0.862305 152.308 23.5355 152.308 50.2864V84.9978H130.955V50.2864C130.955 34.2378 118.759 22.2152 104.902 22.2152Z" fill="#919BB0"/>
<path fill-rule="evenodd" clip-rule="evenodd" d="M104.901 100.557C110.798 100.557 115.578 105.337 115.578 111.233V147.963C115.578 153.859 110.798 158.639 104.901 158.639C99.005 158.639 94.225 153.859 94.225 147.963V111.233C94.225 105.337 99.005 100.557 104.901 100.557Z" fill="#9CA4AE"/>
<path fill-rule="evenodd" clip-rule="evenodd" d="M104.901 100.557C110.798 100.557 115.578 105.337 115.578 111.233V147.963C115.578 153.859 110.798 158.639 104.901 158.639C99.005 158.639 94.225 153.859 94.225 147.963V111.233C94.225 105.337 99.005 100.557 104.901 100.557Z" fill="#919BB0"/>
<path fill-rule="evenodd" clip-rule="evenodd" d="M136.157 95.8568H73.6463C59.2328 95.8568 47.5483 107.541 47.5483 121.955V142.488C47.5483 156.902 59.2327 168.587 73.6462 168.587H136.156C150.57 168.587 162.255 156.902 162.255 142.488V121.955C162.255 107.541 150.57 95.8568 136.157 95.8568ZM73.6463 74.5039C47.4398 74.5039 26.1953 95.7484 26.1953 121.955V142.488C26.1953 168.695 47.4398 189.939 73.6462 189.939H136.156C162.363 189.939 183.607 168.695 183.607 142.488V121.955C183.607 95.7484 162.363 74.5039 136.157 74.5039H73.6463Z" fill="#9CA4AE"/>
<path fill-rule="evenodd" clip-rule="evenodd" d="M136.157 95.8568H73.6463C59.2328 95.8568 47.5483 107.541 47.5483 121.955V142.488C47.5483 156.902 59.2327 168.587 73.6462 168.587H136.156C150.57 168.587 162.255 156.902 162.255 142.488V121.955C162.255 107.541 150.57 95.8568 136.157 95.8568ZM73.6463 74.5039C47.4398 74.5039 26.1953 95.7484 26.1953 121.955V142.488C26.1953 168.695 47.4398 189.939 73.6462 189.939H136.156C162.363 189.939 183.607 168.695 183.607 142.488V121.955C183.607 95.7484 162.363 74.5039 136.157 74.5039H73.6463Z" fill="#919BB0"/>
<path fill-rule="evenodd" clip-rule="evenodd" d="M503.02 371.193C492.942 371.193 484.073 379.937 484.073 391.609V416.854H468.543V391.609C468.543 372.154 483.593 355.664 503.02 355.664C522.448 355.664 537.497 372.154 537.497 391.609V416.854H521.968V391.609C521.968 379.937 513.099 371.193 503.02 371.193Z" fill="#9CA4AE"/>
<path fill-rule="evenodd" clip-rule="evenodd" d="M503.02 371.193C492.942 371.193 484.073 379.937 484.073 391.609V416.854H468.543V391.609C468.543 372.154 483.593 355.664 503.02 355.664C522.448 355.664 537.497 372.154 537.497 391.609V416.854H521.968V391.609C521.968 379.937 513.099 371.193 503.02 371.193Z" fill="#919BB0"/>
<path fill-rule="evenodd" clip-rule="evenodd" d="M503.02 428.169C507.308 428.169 510.785 431.645 510.785 435.934V462.646C510.785 466.934 507.308 470.411 503.02 470.411C498.732 470.411 495.255 466.934 495.255 462.646V435.934C495.255 431.645 498.732 428.169 503.02 428.169Z" fill="#9CA4AE"/>
<path fill-rule="evenodd" clip-rule="evenodd" d="M503.02 428.169C507.308 428.169 510.785 431.645 510.785 435.934V462.646C510.785 466.934 507.308 470.411 503.02 470.411C498.732 470.411 495.255 466.934 495.255 462.646V435.934C495.255 431.645 498.732 428.169 503.02 428.169Z" fill="#919BB0"/>
<path fill-rule="evenodd" clip-rule="evenodd" d="M525.751 424.751H480.289C469.807 424.751 461.309 433.249 461.309 443.731V458.665C461.309 469.148 469.807 477.645 480.289 477.645H525.751C536.234 477.645 544.731 469.147 544.731 458.665V443.731C544.731 433.249 536.234 424.751 525.751 424.751ZM480.289 409.222C461.23 409.222 445.779 424.672 445.779 443.731V458.665C445.779 477.724 461.23 493.175 480.289 493.175H525.751C544.81 493.175 560.261 477.724 560.261 458.665V443.731C560.261 424.672 544.81 409.222 525.751 409.222H480.289Z" fill="#9CA4AE"/>
<path fill-rule="evenodd" clip-rule="evenodd" d="M525.751 424.751H480.289C469.807 424.751 461.309 433.249 461.309 443.731V458.665C461.309 469.148 469.807 477.645 480.289 477.645H525.751C536.234 477.645 544.731 469.147 544.731 458.665V443.731C544.731 433.249 536.234 424.751 525.751 424.751ZM480.289 409.222C461.23 409.222 445.779 424.672 445.779 443.731V458.665C445.779 477.724 461.23 493.175 480.289 493.175H525.751C544.81 493.175 560.261 477.724 560.261 458.665V443.731C560.261 424.672 544.81 409.222 525.751 409.222H480.289Z" fill="#919BB0"/>
</g>
</svg>
