<svg width="573" height="666" viewBox="0 0 573 666" fill="none" xmlns="http://www.w3.org/2000/svg">
<g opacity="0.05">
<path fill-rule="evenodd" clip-rule="evenodd" d="M155.791 418.834C158.322 429.114 152.04 439.499 141.76 442.03C118.826 447.677 100.582 469.93 100.582 497.77C100.582 508.357 91.9999 516.939 81.4131 516.939C70.8263 516.939 62.244 508.357 62.244 497.77C62.244 453.245 91.616 414.893 132.595 404.804C142.875 402.273 153.26 408.554 155.791 418.834Z" fill="#ABC0DC"/>
<path fill-rule="evenodd" clip-rule="evenodd" d="M155.791 418.834C158.322 429.114 152.04 439.499 141.76 442.03C118.826 447.677 100.582 469.93 100.582 497.77C100.582 508.357 91.9999 516.939 81.4131 516.939C70.8263 516.939 62.244 508.357 62.244 497.77C62.244 453.245 91.616 414.893 132.595 404.804C142.875 402.273 153.26 408.554 155.791 418.834Z" fill="#7D9BC3"/>
<path fill-rule="evenodd" clip-rule="evenodd" d="M350.325 357.306C346.672 363.345 338.815 365.279 332.776 361.626C319.539 353.619 300.768 355.471 287.859 368.381C282.868 373.371 274.777 373.371 269.786 368.381C264.795 363.39 264.795 355.299 269.786 350.308C290.561 329.533 322.166 325.338 346.004 339.757C352.043 343.41 353.978 351.267 350.325 357.306Z" fill="#ABC0DC"/>
<path fill-rule="evenodd" clip-rule="evenodd" d="M350.325 357.306C346.672 363.345 338.815 365.279 332.776 361.626C319.539 353.619 300.768 355.471 287.859 368.381C282.868 373.371 274.777 373.371 269.786 368.381C264.795 363.39 264.795 355.299 269.786 350.308C290.561 329.533 322.166 325.338 346.004 339.757C352.043 343.41 353.978 351.267 350.325 357.306Z" fill="#7D9BC3"/>
<path fill-rule="evenodd" clip-rule="evenodd" d="M334.589 271.158C339.722 271.158 343.883 275.319 343.883 280.452V299.041C343.883 304.174 339.722 308.335 334.589 308.335C329.456 308.335 325.295 304.174 325.295 299.041V280.452C325.295 275.319 329.456 271.158 334.589 271.158Z" fill="#ABC0DC"/>
<path fill-rule="evenodd" clip-rule="evenodd" d="M334.589 271.158C339.722 271.158 343.883 275.319 343.883 280.452V299.041C343.883 304.174 339.722 308.335 334.589 308.335C329.456 308.335 325.295 304.174 325.295 299.041V280.452C325.295 275.319 329.456 271.158 334.589 271.158Z" fill="#7D9BC3"/>
<path fill-rule="evenodd" clip-rule="evenodd" d="M391.48 299.574C395.11 303.204 395.11 309.088 391.48 312.718L378.336 325.862C374.707 329.491 368.822 329.491 365.192 325.862C361.563 322.232 361.563 316.348 365.192 312.718L378.336 299.574C381.966 295.945 387.85 295.945 391.48 299.574Z" fill="#ABC0DC"/>
<path fill-rule="evenodd" clip-rule="evenodd" d="M391.48 299.574C395.11 303.204 395.11 309.088 391.48 312.718L378.336 325.862C374.707 329.491 368.822 329.491 365.192 325.862C361.563 322.232 361.563 316.348 365.192 312.718L378.336 299.574C381.966 295.945 387.85 295.945 391.48 299.574Z" fill="#7D9BC3"/>
<path fill-rule="evenodd" clip-rule="evenodd" d="M408.654 361.911C408.654 367.044 404.493 371.205 399.36 371.205L380.772 371.205C375.639 371.205 371.477 367.044 371.477 361.911C371.477 356.778 375.639 352.617 380.772 352.617H399.36C404.493 352.617 408.654 356.778 408.654 361.911Z" fill="#ABC0DC"/>
<path fill-rule="evenodd" clip-rule="evenodd" d="M408.654 361.911C408.654 367.044 404.493 371.205 399.36 371.205L380.772 371.205C375.639 371.205 371.477 367.044 371.477 361.911C371.477 356.778 375.639 352.617 380.772 352.617H399.36C404.493 352.617 408.654 356.778 408.654 361.911Z" fill="#7D9BC3"/>
<path fill-rule="evenodd" clip-rule="evenodd" d="M391.48 418.803C387.85 422.432 381.966 422.432 378.336 418.803L365.192 405.659C361.563 402.029 361.563 396.144 365.192 392.515C368.822 388.885 374.707 388.885 378.336 392.515L391.48 405.659C395.11 409.288 395.11 415.173 391.48 418.803Z" fill="#ABC0DC"/>
<path fill-rule="evenodd" clip-rule="evenodd" d="M391.48 418.803C387.85 422.432 381.966 422.432 378.336 418.803L365.192 405.659C361.563 402.029 361.563 396.144 365.192 392.515C368.822 388.885 374.707 388.885 378.336 392.515L391.48 405.659C395.11 409.288 395.11 415.173 391.48 418.803Z" fill="#7D9BC3"/>
<path fill-rule="evenodd" clip-rule="evenodd" d="M334.589 445.558C329.456 445.558 325.295 441.397 325.295 436.264V417.676C325.295 412.543 329.456 408.381 334.589 408.381C339.722 408.381 343.883 412.543 343.883 417.676V436.264C343.883 441.397 339.722 445.558 334.589 445.558Z" fill="#ABC0DC"/>
<path fill-rule="evenodd" clip-rule="evenodd" d="M334.589 445.558C329.456 445.558 325.295 441.397 325.295 436.264V417.676C325.295 412.543 329.456 408.381 334.589 408.381C339.722 408.381 343.883 412.543 343.883 417.676V436.264C343.883 441.397 339.722 445.558 334.589 445.558Z" fill="#7D9BC3"/>
<path fill-rule="evenodd" clip-rule="evenodd" d="M148.706 599.841C208.249 599.841 256.518 551.572 256.518 492.029C256.518 432.486 208.249 384.217 148.706 384.217C89.1631 384.217 40.8941 432.486 40.8941 492.029C40.8941 551.572 89.1631 599.841 148.706 599.841ZM148.706 640.735C230.834 640.735 297.412 574.157 297.412 492.029C297.412 409.901 230.834 343.323 148.706 343.323C66.5779 343.323 0 409.901 0 492.029C0 574.157 66.5779 640.735 148.706 640.735Z" fill="#ABC0DC"/>
<path fill-rule="evenodd" clip-rule="evenodd" d="M148.706 599.841C208.249 599.841 256.518 551.572 256.518 492.029C256.518 432.486 208.249 384.217 148.706 384.217C89.1631 384.217 40.8941 432.486 40.8941 492.029C40.8941 551.572 89.1631 599.841 148.706 599.841ZM148.706 640.735C230.834 640.735 297.412 574.157 297.412 492.029C297.412 409.901 230.834 343.323 148.706 343.323C66.5779 343.323 0 409.901 0 492.029C0 574.157 66.5779 640.735 148.706 640.735Z" fill="#7D9BC3"/>
<path fill-rule="evenodd" clip-rule="evenodd" d="M241.905 334.287C246.896 329.296 254.987 329.296 259.978 334.287L306.449 380.757C311.439 385.748 311.439 393.839 306.449 398.83L278.566 426.712C273.576 431.703 265.484 431.703 260.494 426.712C255.503 421.722 255.503 413.63 260.494 408.639L279.34 389.793L250.942 361.396L232.096 380.242C227.105 385.232 219.014 385.232 214.023 380.242C209.032 375.251 209.032 367.16 214.023 362.169L241.905 334.287Z" fill="#ABC0DC"/>
<path fill-rule="evenodd" clip-rule="evenodd" d="M241.905 334.287C246.896 329.296 254.987 329.296 259.978 334.287L306.449 380.757C311.439 385.748 311.439 393.839 306.449 398.83L278.566 426.712C273.576 431.703 265.484 431.703 260.494 426.712C255.503 421.722 255.503 413.63 260.494 408.639L279.34 389.793L250.942 361.396L232.096 380.242C227.105 385.232 219.014 385.232 214.023 380.242C209.032 375.251 209.032 367.16 214.023 362.169L241.905 334.287Z" fill="#7D9BC3"/>
<path fill-rule="evenodd" clip-rule="evenodd" d="M82.3081 75.6481C83.4828 80.4193 80.5672 85.2394 75.796 86.4141C65.1514 89.0348 56.6837 99.3635 56.6837 112.285C56.6837 117.199 52.7004 121.182 47.7867 121.182C42.873 121.182 38.8896 117.199 38.8896 112.285C38.8896 91.6194 52.5222 73.8187 71.5421 69.136C76.3133 67.9613 81.1334 70.8768 82.3081 75.6481Z" fill="#ABC0DC"/>
<path fill-rule="evenodd" clip-rule="evenodd" d="M82.3081 75.6481C83.4828 80.4193 80.5672 85.2394 75.796 86.4141C65.1514 89.0348 56.6837 99.3635 56.6837 112.285C56.6837 117.199 52.7004 121.182 47.7867 121.182C42.873 121.182 38.8896 117.199 38.8896 112.285C38.8896 91.6194 52.5222 73.8187 71.5421 69.136C76.3133 67.9613 81.1334 70.8768 82.3081 75.6481Z" fill="#7D9BC3"/>
<path fill-rule="evenodd" clip-rule="evenodd" d="M172.598 47.0906C170.903 49.8935 167.256 50.7913 164.453 49.0959C158.309 45.3796 149.597 46.239 143.605 52.2308C141.289 54.5471 137.533 54.5471 135.217 52.2308C132.901 49.9144 132.901 46.1589 135.217 43.8426C144.859 34.2002 159.529 32.2532 170.593 38.9456C173.396 40.641 174.293 44.2876 172.598 47.0906Z" fill="#ABC0DC"/>
<path fill-rule="evenodd" clip-rule="evenodd" d="M172.598 47.0906C170.903 49.8935 167.256 50.7913 164.453 49.0959C158.309 45.3796 149.597 46.239 143.605 52.2308C141.289 54.5471 137.533 54.5471 135.217 52.2308C132.901 49.9144 132.901 46.1589 135.217 43.8426C144.859 34.2002 159.529 32.2532 170.593 38.9456C173.396 40.641 174.293 44.2876 172.598 47.0906Z" fill="#7D9BC3"/>
<path fill-rule="evenodd" clip-rule="evenodd" d="M165.295 7.10645C167.677 7.10645 169.608 9.03777 169.608 11.4202V20.0476C169.608 22.43 167.677 24.3613 165.295 24.3613C162.912 24.3613 160.981 22.43 160.981 20.0476V11.4202C160.981 9.03777 162.912 7.10645 165.295 7.10645Z" fill="#ABC0DC"/>
<path fill-rule="evenodd" clip-rule="evenodd" d="M165.295 7.10645C167.677 7.10645 169.608 9.03777 169.608 11.4202V20.0476C169.608 22.43 167.677 24.3613 165.295 24.3613C162.912 24.3613 160.981 22.43 160.981 20.0476V11.4202C160.981 9.03777 162.912 7.10645 165.295 7.10645Z" fill="#7D9BC3"/>
<path fill-rule="evenodd" clip-rule="evenodd" d="M191.7 20.2953C193.384 21.9799 193.384 24.7112 191.7 26.3958L185.599 32.4963C183.914 34.181 181.183 34.181 179.499 32.4963C177.814 30.8117 177.814 28.0804 179.499 26.3958L185.599 20.2953C187.284 18.6107 190.015 18.6107 191.7 20.2953Z" fill="#ABC0DC"/>
<path fill-rule="evenodd" clip-rule="evenodd" d="M191.7 20.2953C193.384 21.9799 193.384 24.7112 191.7 26.3958L185.599 32.4963C183.914 34.181 181.183 34.181 179.499 32.4963C177.814 30.8117 177.814 28.0804 179.499 26.3958L185.599 20.2953C187.284 18.6107 190.015 18.6107 191.7 20.2953Z" fill="#7D9BC3"/>
<path fill-rule="evenodd" clip-rule="evenodd" d="M199.671 49.228C199.671 51.6104 197.739 53.5417 195.357 53.5417L186.729 53.5417C184.347 53.5417 182.416 51.6104 182.416 49.228C182.416 46.8456 184.347 44.9142 186.729 44.9142H195.357C197.739 44.9142 199.671 46.8456 199.671 49.228Z" fill="#ABC0DC"/>
<path fill-rule="evenodd" clip-rule="evenodd" d="M199.671 49.228C199.671 51.6104 197.739 53.5417 195.357 53.5417L186.729 53.5417C184.347 53.5417 182.416 51.6104 182.416 49.228C182.416 46.8456 184.347 44.9142 186.729 44.9142H195.357C197.739 44.9142 199.671 46.8456 199.671 49.228Z" fill="#7D9BC3"/>
<path fill-rule="evenodd" clip-rule="evenodd" d="M191.7 75.6334C190.015 77.318 187.284 77.318 185.599 75.6334L179.499 69.5328C177.814 67.8482 177.814 65.1169 179.499 63.4323C181.183 61.7477 183.914 61.7477 185.599 63.4323L191.7 69.5328C193.384 71.2175 193.384 73.9488 191.7 75.6334Z" fill="#ABC0DC"/>
<path fill-rule="evenodd" clip-rule="evenodd" d="M191.7 75.6334C190.015 77.318 187.284 77.318 185.599 75.6334L179.499 69.5328C177.814 67.8482 177.814 65.1169 179.499 63.4323C181.183 61.7477 183.914 61.7477 185.599 63.4323L191.7 69.5328C193.384 71.2175 193.384 73.9488 191.7 75.6334Z" fill="#7D9BC3"/>
<path fill-rule="evenodd" clip-rule="evenodd" d="M165.295 88.0515C162.912 88.0515 160.981 86.1201 160.981 83.7377V75.1103C160.981 72.7279 162.912 70.7966 165.295 70.7966C167.677 70.7966 169.608 72.7279 169.608 75.1103V83.7377C169.608 86.1201 167.677 88.0515 165.295 88.0515Z" fill="#ABC0DC"/>
<path fill-rule="evenodd" clip-rule="evenodd" d="M165.295 88.0515C162.912 88.0515 160.981 86.1201 160.981 83.7377V75.1103C160.981 72.7279 162.912 70.7966 165.295 70.7966C167.677 70.7966 169.608 72.7279 169.608 75.1103V83.7377C169.608 86.1201 167.677 88.0515 165.295 88.0515Z" fill="#7D9BC3"/>
<path fill-rule="evenodd" clip-rule="evenodd" d="M79.0196 159.659C106.656 159.659 129.059 137.256 129.059 109.62C129.059 81.9843 106.656 59.581 79.0196 59.581C51.3837 59.581 28.9804 81.9843 28.9804 109.62C28.9804 137.256 51.3837 159.659 79.0196 159.659ZM79.0196 178.64C117.138 178.64 148.039 147.739 148.039 109.62C148.039 71.5017 117.138 40.6006 79.0196 40.6006C40.9011 40.6006 10 71.5017 10 109.62C10 147.739 40.9011 178.64 79.0196 178.64Z" fill="#ABC0DC"/>
<path fill-rule="evenodd" clip-rule="evenodd" d="M79.0196 159.659C106.656 159.659 129.059 137.256 129.059 109.62C129.059 81.9843 106.656 59.581 79.0196 59.581C51.3837 59.581 28.9804 81.9843 28.9804 109.62C28.9804 137.256 51.3837 159.659 79.0196 159.659ZM79.0196 178.64C117.138 178.64 148.039 147.739 148.039 109.62C148.039 71.5017 117.138 40.6006 79.0196 40.6006C40.9011 40.6006 10 71.5017 10 109.62C10 147.739 40.9011 178.64 79.0196 178.64Z" fill="#7D9BC3"/>
<path fill-rule="evenodd" clip-rule="evenodd" d="M122.277 36.4065C124.593 34.0902 128.349 34.0902 130.665 36.4065L152.234 57.9751C154.55 60.2915 154.55 64.047 152.234 66.3633L139.292 79.3045C136.976 81.6209 133.221 81.6209 130.904 79.3045C128.588 76.9882 128.588 73.2326 130.904 70.9163L139.651 62.1692L126.471 48.9888L117.724 57.7359C115.407 60.0522 111.652 60.0522 109.336 57.7359C107.019 55.4196 107.019 51.664 109.336 49.3477L122.277 36.4065Z" fill="#ABC0DC"/>
<path fill-rule="evenodd" clip-rule="evenodd" d="M122.277 36.4065C124.593 34.0902 128.349 34.0902 130.665 36.4065L152.234 57.9751C154.55 60.2915 154.55 64.047 152.234 66.3633L139.292 79.3045C136.976 81.6209 133.221 81.6209 130.904 79.3045C128.588 76.9882 128.588 73.2326 130.904 70.9163L139.651 62.1692L126.471 48.9888L117.724 57.7359C115.407 60.0522 111.652 60.0522 109.336 57.7359C107.019 55.4196 107.019 51.664 109.336 49.3477L122.277 36.4065Z" fill="#7D9BC3"/>
<path fill-rule="evenodd" clip-rule="evenodd" d="M486.588 410.054C487.442 413.524 485.322 417.029 481.852 417.883C474.11 419.789 467.952 427.301 467.952 436.698C467.952 440.272 465.055 443.169 461.481 443.169C457.908 443.169 455.011 440.272 455.011 436.698C455.011 421.669 464.925 408.723 478.758 405.317C482.228 404.463 485.733 406.584 486.588 410.054Z" fill="#ABC0DC"/>
<path fill-rule="evenodd" clip-rule="evenodd" d="M486.588 410.054C487.442 413.524 485.322 417.029 481.852 417.883C474.11 419.789 467.952 427.301 467.952 436.698C467.952 440.272 465.055 443.169 461.481 443.169C457.908 443.169 455.011 440.272 455.011 436.698C455.011 421.669 464.925 408.723 478.758 405.317C482.228 404.463 485.733 406.584 486.588 410.054Z" fill="#7D9BC3"/>
<path fill-rule="evenodd" clip-rule="evenodd" d="M552.253 389.284C551.02 391.323 548.368 391.976 546.329 390.743C541.861 388.04 535.525 388.665 531.168 393.023C529.483 394.707 526.752 394.707 525.067 393.023C523.382 391.338 523.382 388.607 525.067 386.922C532.08 379.91 542.748 378.494 550.795 383.361C552.833 384.594 553.486 387.246 552.253 389.284Z" fill="#ABC0DC"/>
<path fill-rule="evenodd" clip-rule="evenodd" d="M552.253 389.284C551.02 391.323 548.368 391.976 546.329 390.743C541.861 388.04 535.525 388.665 531.168 393.023C529.483 394.707 526.752 394.707 525.067 393.023C523.382 391.338 523.382 388.607 525.067 386.922C532.08 379.91 542.748 378.494 550.795 383.361C552.833 384.594 553.486 387.246 552.253 389.284Z" fill="#7D9BC3"/>
<path fill-rule="evenodd" clip-rule="evenodd" d="M546.941 360.205C548.674 360.205 550.079 361.61 550.079 363.342V369.617C550.079 371.35 548.674 372.754 546.941 372.754C545.209 372.754 543.804 371.35 543.804 369.617V363.342C543.804 361.61 545.209 360.205 546.941 360.205Z" fill="#ABC0DC"/>
<path fill-rule="evenodd" clip-rule="evenodd" d="M546.941 360.205C548.674 360.205 550.079 361.61 550.079 363.342V369.617C550.079 371.35 548.674 372.754 546.941 372.754C545.209 372.754 543.804 371.35 543.804 369.617V363.342C543.804 361.61 545.209 360.205 546.941 360.205Z" fill="#7D9BC3"/>
<path fill-rule="evenodd" clip-rule="evenodd" d="M566.145 369.797C567.37 371.022 567.37 373.009 566.145 374.234L561.708 378.67C560.483 379.896 558.497 379.896 557.272 378.67C556.046 377.445 556.046 375.459 557.272 374.234L561.708 369.797C562.934 368.572 564.92 368.572 566.145 369.797Z" fill="#ABC0DC"/>
<path fill-rule="evenodd" clip-rule="evenodd" d="M566.145 369.797C567.37 371.022 567.37 373.009 566.145 374.234L561.708 378.67C560.483 379.896 558.497 379.896 557.272 378.67C556.046 377.445 556.046 375.459 557.272 374.234L561.708 369.797C562.934 368.572 564.92 368.572 566.145 369.797Z" fill="#7D9BC3"/>
<path fill-rule="evenodd" clip-rule="evenodd" d="M571.942 390.839C571.942 392.572 570.538 393.976 568.805 393.976L562.53 393.976C560.798 393.976 559.393 392.572 559.393 390.839C559.393 389.106 560.798 387.702 562.53 387.702H568.805C570.538 387.702 571.942 389.106 571.942 390.839Z" fill="#ABC0DC"/>
<path fill-rule="evenodd" clip-rule="evenodd" d="M571.942 390.839C571.942 392.572 570.538 393.976 568.805 393.976L562.53 393.976C560.798 393.976 559.393 392.572 559.393 390.839C559.393 389.106 560.798 387.702 562.53 387.702H568.805C570.538 387.702 571.942 389.106 571.942 390.839Z" fill="#7D9BC3"/>
<path fill-rule="evenodd" clip-rule="evenodd" d="M566.145 410.043C564.92 411.268 562.934 411.268 561.708 410.043L557.272 405.606C556.046 404.381 556.046 402.395 557.272 401.169C558.497 399.944 560.483 399.944 561.708 401.169L566.145 405.606C567.37 406.831 567.37 408.818 566.145 410.043Z" fill="#ABC0DC"/>
<path fill-rule="evenodd" clip-rule="evenodd" d="M566.145 410.043C564.92 411.268 562.934 411.268 561.708 410.043L557.272 405.606C556.046 404.381 556.046 402.395 557.272 401.169C558.497 399.944 560.483 399.944 561.708 401.169L566.145 405.606C567.37 406.831 567.37 408.818 566.145 410.043Z" fill="#7D9BC3"/>
<path fill-rule="evenodd" clip-rule="evenodd" d="M546.941 419.074C545.209 419.074 543.804 417.67 543.804 415.937V409.662C543.804 407.93 545.209 406.525 546.941 406.525C548.674 406.525 550.079 407.93 550.079 409.662V415.937C550.079 417.67 548.674 419.074 546.941 419.074Z" fill="#ABC0DC"/>
<path fill-rule="evenodd" clip-rule="evenodd" d="M546.941 419.074C545.209 419.074 543.804 417.67 543.804 415.937V409.662C543.804 407.93 545.209 406.525 546.941 406.525C548.674 406.525 550.079 407.93 550.079 409.662V415.937C550.079 417.67 548.674 419.074 546.941 419.074Z" fill="#7D9BC3"/>
<path fill-rule="evenodd" clip-rule="evenodd" d="M484.196 471.153C504.295 471.153 520.588 454.859 520.588 434.761C520.588 414.662 504.295 398.368 484.196 398.368C464.097 398.368 447.804 414.662 447.804 434.761C447.804 454.859 464.097 471.153 484.196 471.153ZM484.196 484.957C511.919 484.957 534.392 462.483 534.392 434.761C534.392 407.038 511.919 384.564 484.196 384.564C456.474 384.564 434 407.038 434 434.761C434 462.483 456.474 484.957 484.196 484.957Z" fill="#ABC0DC"/>
<path fill-rule="evenodd" clip-rule="evenodd" d="M484.196 471.153C504.295 471.153 520.588 454.859 520.588 434.761C520.588 414.662 504.295 398.368 484.196 398.368C464.097 398.368 447.804 414.662 447.804 434.761C447.804 454.859 464.097 471.153 484.196 471.153ZM484.196 484.957C511.919 484.957 534.392 462.483 534.392 434.761C534.392 407.038 511.919 384.564 484.196 384.564C456.474 384.564 434 407.038 434 434.761C434 462.483 456.474 484.957 484.196 484.957Z" fill="#7D9BC3"/>
<path fill-rule="evenodd" clip-rule="evenodd" d="M515.656 381.514C517.34 379.83 520.072 379.83 521.756 381.514L537.443 397.2C539.127 398.885 539.127 401.616 537.443 403.301L528.031 412.713C526.346 414.397 523.615 414.397 521.93 412.713C520.246 411.028 520.246 408.297 521.93 406.612L528.292 400.251L518.706 390.665L512.345 397.027C510.66 398.711 507.929 398.711 506.244 397.027C504.559 395.342 504.559 392.611 506.244 390.926L515.656 381.514Z" fill="#ABC0DC"/>
<path fill-rule="evenodd" clip-rule="evenodd" d="M515.656 381.514C517.34 379.83 520.072 379.83 521.756 381.514L537.443 397.2C539.127 398.885 539.127 401.616 537.443 403.301L528.031 412.713C526.346 414.397 523.615 414.397 521.93 412.713C520.246 411.028 520.246 408.297 521.93 406.612L528.292 400.251L518.706 390.665L512.345 397.027C510.66 398.711 507.929 398.711 506.244 397.027C504.559 395.342 504.559 392.611 506.244 390.926L515.656 381.514Z" fill="#7D9BC3"/>
</g>
</svg>
