<svg width="563" height="722" viewBox="0 0 563 722" fill="none" xmlns="http://www.w3.org/2000/svg">
<g opacity="0.05">
<path fill-rule="evenodd" clip-rule="evenodd" d="M206.007 653.725C294.769 653.725 366.725 581.768 366.725 493.006C366.725 404.244 294.769 332.288 206.007 332.288C117.244 332.288 45.2881 404.244 45.2881 493.006C45.2881 581.768 117.244 653.725 206.007 653.725ZM206.007 700.385C320.539 700.385 413.385 607.538 413.385 493.006C413.385 378.474 320.539 285.627 206.007 285.627C91.4745 285.627 -1.37207 378.474 -1.37207 493.006C-1.37207 607.538 91.4745 700.385 206.007 700.385Z" fill="#ABC0DC"/>
<path fill-rule="evenodd" clip-rule="evenodd" d="M206.007 653.725C294.769 653.725 366.725 581.768 366.725 493.006C366.725 404.244 294.769 332.288 206.007 332.288C117.244 332.288 45.2881 404.244 45.2881 493.006C45.2881 581.768 117.244 653.725 206.007 653.725ZM206.007 700.385C320.539 700.385 413.385 607.538 413.385 493.006C413.385 378.474 320.539 285.627 206.007 285.627C91.4745 285.627 -1.37207 378.474 -1.37207 493.006C-1.37207 607.538 91.4745 700.385 206.007 700.385Z" fill="#7D9BC3"/>
<path fill-rule="evenodd" clip-rule="evenodd" d="M205.986 372.076C218.871 372.076 229.316 382.521 229.316 395.406V483.332L271.278 525.294C280.389 534.405 280.389 549.177 271.278 558.288C262.167 567.399 247.395 567.399 238.284 558.288L189.489 509.493C185.114 505.117 182.656 499.183 182.656 492.996V395.406C182.656 382.521 193.101 372.076 205.986 372.076Z" fill="#ABC0DC"/>
<path fill-rule="evenodd" clip-rule="evenodd" d="M205.986 372.076C218.871 372.076 229.316 382.521 229.316 395.406V483.332L271.278 525.294C280.389 534.405 280.389 549.177 271.278 558.288C262.167 567.399 247.395 567.399 238.284 558.288L189.489 509.493C185.114 505.117 182.656 499.183 182.656 492.996V395.406C182.656 382.521 193.101 372.076 205.986 372.076Z" fill="#7D9BC3"/>
<path fill-rule="evenodd" clip-rule="evenodd" d="M89.0036 184.598C130.201 184.598 163.599 151.2 163.599 110.003C163.599 68.805 130.201 35.4076 89.0036 35.4076C47.8059 35.4076 14.4086 68.805 14.4086 110.003C14.4086 151.2 47.8059 184.598 89.0036 184.598ZM89.0036 206.254C142.162 206.254 185.255 163.161 185.255 110.003C185.255 56.8443 142.162 13.751 89.0036 13.751C35.8453 13.751 -7.24805 56.8443 -7.24805 110.003C-7.24805 163.161 35.8453 206.254 89.0036 206.254Z" fill="#ABC0DC"/>
<path fill-rule="evenodd" clip-rule="evenodd" d="M89.0036 184.598C130.201 184.598 163.599 151.2 163.599 110.003C163.599 68.805 130.201 35.4076 89.0036 35.4076C47.8059 35.4076 14.4086 68.805 14.4086 110.003C14.4086 151.2 47.8059 184.598 89.0036 184.598ZM89.0036 206.254C142.162 206.254 185.255 163.161 185.255 110.003C185.255 56.8443 142.162 13.751 89.0036 13.751C35.8453 13.751 -7.24805 56.8443 -7.24805 110.003C-7.24805 163.161 35.8453 206.254 89.0036 206.254Z" fill="#7D9BC3"/>
<path fill-rule="evenodd" clip-rule="evenodd" d="M88.9943 53.8745C94.9746 53.8745 99.8226 58.7225 99.8226 64.7028V105.513L119.299 124.988C123.527 129.217 123.527 136.073 119.299 140.302C115.07 144.531 108.214 144.531 103.985 140.302L81.3376 117.655C79.3069 115.624 78.166 112.87 78.166 109.998V64.7028C78.166 58.7225 83.014 53.8745 88.9943 53.8745Z" fill="#ABC0DC"/>
<path fill-rule="evenodd" clip-rule="evenodd" d="M88.9943 53.8745C94.9746 53.8745 99.8226 58.7225 99.8226 64.7028V105.513L119.299 124.988C123.527 129.217 123.527 136.073 119.299 140.302C115.07 144.531 108.214 144.531 103.985 140.302L81.3376 117.655C79.3069 115.624 78.166 112.87 78.166 109.998V64.7028C78.166 58.7225 83.014 53.8745 88.9943 53.8745Z" fill="#7D9BC3"/>
<path fill-rule="evenodd" clip-rule="evenodd" d="M483.001 489.253C512.963 489.253 537.252 464.964 537.252 435.002C537.252 405.04 512.963 380.751 483.001 380.751C453.039 380.751 428.75 405.04 428.75 435.002C428.75 464.964 453.039 489.253 483.001 489.253ZM483.001 505.003C521.662 505.003 553.002 473.663 553.002 435.002C553.002 396.342 521.662 365.001 483.001 365.001C444.341 365.001 413 396.342 413 435.002C413 473.663 444.341 505.003 483.001 505.003Z" fill="#ABC0DC"/>
<path fill-rule="evenodd" clip-rule="evenodd" d="M483.001 489.253C512.963 489.253 537.252 464.964 537.252 435.002C537.252 405.04 512.963 380.751 483.001 380.751C453.039 380.751 428.75 405.04 428.75 435.002C428.75 464.964 453.039 489.253 483.001 489.253ZM483.001 505.003C521.662 505.003 553.002 473.663 553.002 435.002C553.002 396.342 521.662 365.001 483.001 365.001C444.341 365.001 413 396.342 413 435.002C413 473.663 444.341 505.003 483.001 505.003Z" fill="#7D9BC3"/>
<path fill-rule="evenodd" clip-rule="evenodd" d="M482.994 394.182C487.344 394.182 490.869 397.707 490.869 402.057V431.737L505.034 445.901C508.109 448.976 508.109 453.963 505.034 457.038C501.958 460.113 496.972 460.113 493.897 457.038L477.426 440.567C475.949 439.09 475.119 437.087 475.119 434.999V402.057C475.119 397.707 478.645 394.182 482.994 394.182Z" fill="#ABC0DC"/>
<path fill-rule="evenodd" clip-rule="evenodd" d="M482.994 394.182C487.344 394.182 490.869 397.707 490.869 402.057V431.737L505.034 445.901C508.109 448.976 508.109 453.963 505.034 457.038C501.958 460.113 496.972 460.113 493.897 457.038L477.426 440.567C475.949 439.09 475.119 437.087 475.119 434.999V402.057C475.119 397.707 478.645 394.182 482.994 394.182Z" fill="#7D9BC3"/>
</g>
</svg>
