<svg width="16" height="18" viewBox="0 0 16 18" fill="none" xmlns="http://www.w3.org/2000/svg">
<path fill-rule="evenodd" clip-rule="evenodd" d="M3.40782 2.96184C4.35858 1.8337 5.85888 0.989502 7.99296 0.989502C10.1197 0.989502 11.6236 1.81386 12.5812 2.93597C13.5079 4.02183 13.8854 5.3413 13.8854 6.33093V13.5118H2.11475V6.33093C2.11475 5.36817 2.48938 4.05162 3.40782 2.96184ZM4.93714 4.25071C4.33738 4.96235 4.11475 5.81651 4.11475 6.33093V11.5118H11.8854V6.33093C11.8854 5.78698 11.6585 4.93574 11.0599 4.23428C10.4922 3.56906 9.54986 2.9895 7.99296 2.9895C6.44338 2.9895 5.50456 3.57743 4.93714 4.25071Z" fill="white"/>
<circle cx="8.00025" cy="15.5828" r="1.50318" fill="white"/>
</svg>
