<svg width="16" height="17" viewBox="0 0 16 17" fill="none" xmlns="http://www.w3.org/2000/svg">
<path d="M9.63778 3.33862L14 3.33862V6.46114C14 7.72465 13.8913 8.71888 13.674 9.44385C13.4463 10.1792 13.0323 10.8368 12.4321 11.4168C11.8318 11.9968 11.066 12.4524 10.1345 12.7839L9.28072 10.9818C10.1501 10.6918 10.7762 10.2879 11.1591 9.77008C11.5317 9.25225 11.7283 8.56353 11.749 7.70394L9.63777 7.70394L9.63778 3.33862ZM2.35705 3.33862L6.71928 3.33862L6.71928 6.46114C6.71928 7.735 6.61061 8.73442 6.39327 9.45938C6.16559 10.1843 5.75162 10.8368 5.15136 11.4168C4.54075 11.9967 3.7749 12.4524 2.85382 12.7839L2 10.9818C2.86934 10.6918 3.49547 10.2879 3.8784 9.77008C4.25097 9.25225 4.44761 8.56353 4.46831 7.70393L2.35705 7.70393L2.35705 3.33862Z" fill="white"/>
</svg>
