<svg width="16" height="16" viewBox="0 0 16 16" fill="none" xmlns="http://www.w3.org/2000/svg">
<path d="M9.63778 3.27734L14 3.27735V6.39986C14 7.66337 13.8913 8.6576 13.674 9.38257C13.4463 10.1179 13.0323 10.7755 12.4321 11.3555C11.8318 11.9355 11.066 12.3912 10.1345 12.7226L9.28072 10.9205C10.1501 10.6305 10.7762 10.2266 11.1591 9.7088C11.5317 9.19097 11.7283 8.50225 11.749 7.64266L9.63777 7.64266L9.63778 3.27734ZM2.35705 3.27734L6.71928 3.27734L6.71928 6.39986C6.71928 7.67373 6.61061 8.67314 6.39327 9.3981C6.16559 10.1231 5.75162 10.7755 5.15136 11.3555C4.54075 11.9355 3.7749 12.3912 2.85382 12.7226L2 10.9205C2.86934 10.6305 3.49547 10.2266 3.8784 9.7088C4.25097 9.19097 4.44761 8.50225 4.46831 7.64266L2.35705 7.64265L2.35705 3.27734Z" fill="#ABC0DC"/>
<path d="M9.63778 3.27734L14 3.27735V6.39986C14 7.66337 13.8913 8.6576 13.674 9.38257C13.4463 10.1179 13.0323 10.7755 12.4321 11.3555C11.8318 11.9355 11.066 12.3912 10.1345 12.7226L9.28072 10.9205C10.1501 10.6305 10.7762 10.2266 11.1591 9.7088C11.5317 9.19097 11.7283 8.50225 11.749 7.64266L9.63777 7.64266L9.63778 3.27734ZM2.35705 3.27734L6.71928 3.27734L6.71928 6.39986C6.71928 7.67373 6.61061 8.67314 6.39327 9.3981C6.16559 10.1231 5.75162 10.7755 5.15136 11.3555C4.54075 11.9355 3.7749 12.3912 2.85382 12.7226L2 10.9205C2.86934 10.6305 3.49547 10.2266 3.8784 9.7088C4.25097 9.19097 4.44761 8.50225 4.46831 7.64266L2.35705 7.64265L2.35705 3.27734Z" fill="#7D9BC3"/>
</svg>
