<svg width="183" height="31" viewBox="0 0 183 31" fill="none" xmlns="http://www.w3.org/2000/svg">
<path d="M49.6579 22.0269C48.0381 22.0269 46.6574 21.4792 45.5158 20.3839C44.3896 19.2731 43.8265 17.931 43.8265 16.3574C43.8265 14.7685 44.3896 13.4263 45.5158 12.331C46.6574 11.2357 47.9687 10.688 49.4497 10.688C50.9461 10.688 52.2188 11.1045 53.2678 11.9376C53.3913 12.0147 53.4607 12.1304 53.4761 12.2847C53.4915 12.439 53.4452 12.5778 53.3373 12.7012C53.1059 12.9635 52.8513 12.9944 52.5736 12.7938C51.7251 12.115 50.6992 11.7756 49.4959 11.7756C48.2926 11.7756 47.2282 12.223 46.3026 13.1178C45.3924 14.0125 44.9373 15.0924 44.9373 16.3574C44.9373 17.6225 45.3924 18.7023 46.3026 19.5971C47.2282 20.4764 48.2849 20.9161 49.4728 20.9161C50.6761 20.9161 51.7097 20.5844 52.5736 19.9211C52.8513 19.7205 53.1059 19.7591 53.3373 20.0368C53.5841 20.3145 53.5455 20.5767 53.2216 20.8236C52.1879 21.6258 51.0001 22.0269 49.6579 22.0269ZM64.9183 10.85C65.0263 10.742 65.1574 10.688 65.3117 10.688C65.466 10.688 65.5971 10.742 65.7051 10.85C65.8131 10.958 65.8671 11.0891 65.8671 11.2434V21.4715C65.8671 21.6258 65.8131 21.7569 65.7051 21.8649C65.5971 21.9729 65.466 22.0269 65.3117 22.0269C65.1574 22.0269 65.0263 21.9729 64.9183 21.8649C64.8103 21.7569 64.7563 21.6258 64.7563 21.4715V19.7822C64.2627 20.4764 63.6379 21.0241 62.882 21.4252C62.1415 21.8263 61.347 22.0269 60.4985 22.0269C59.0175 22.0269 57.7525 21.4715 56.7034 20.3607C55.6544 19.25 55.1299 17.9156 55.1299 16.3574C55.1299 14.7993 55.6544 13.4649 56.7034 12.3541C57.7525 11.2434 59.0175 10.688 60.4985 10.688C61.347 10.688 62.1415 10.8886 62.882 11.2897C63.6379 11.6908 64.2627 12.2307 64.7563 12.9095V11.2434C64.7563 11.0891 64.8103 10.958 64.9183 10.85ZM56.2406 16.3574C56.2406 17.6225 56.6572 18.7023 57.4902 19.5971C58.3387 20.4764 59.3415 20.9161 60.4985 20.9161C61.6709 20.9161 62.6737 20.4764 63.5068 19.5971C64.3398 18.7023 64.7563 17.6225 64.7563 16.3574C64.7563 15.0924 64.3398 14.0125 63.5068 13.1178C62.6737 12.223 61.6709 11.7756 60.4985 11.7756C59.3415 11.7756 58.3387 12.223 57.4902 13.1178C56.6572 14.0125 56.2406 15.0924 56.2406 16.3574ZM72.5852 10.688C72.724 10.688 72.8475 10.7497 72.9555 10.8731C73.0789 10.9811 73.1406 11.1045 73.1406 11.2434C73.1406 11.3822 73.0789 11.5134 72.9555 11.6368C72.8475 11.7448 72.724 11.7988 72.5852 11.7988H71.1274V20.0599C71.1274 20.3067 71.2199 20.5073 71.405 20.6616C71.6056 20.8158 71.783 20.893 71.9373 20.893C72.0915 20.893 72.2304 20.9547 72.3538 21.0781C72.4772 21.2015 72.5389 21.3326 72.5389 21.4715C72.5389 21.6103 72.4772 21.7415 72.3538 21.8649C72.2304 21.9729 72.0993 22.0269 71.9604 22.0269C71.3896 22.0269 70.9114 21.8417 70.5257 21.4715C70.1555 21.1012 69.9703 20.6307 69.9703 20.0599V11.7988H68.5588C68.3119 11.7988 68.1577 11.7525 68.096 11.6599C68.0342 11.5674 68.0034 11.4439 68.0034 11.2897C68.0034 11.1354 68.0111 11.0274 68.0265 10.9657C68.0728 10.7806 68.2502 10.688 68.5588 10.688H69.9703V6.47645C69.9703 6.33761 70.0243 6.21419 70.1323 6.1062C70.2557 5.98279 70.3869 5.92108 70.5257 5.92108C70.68 5.92108 70.8188 5.98279 70.9422 6.1062C71.0656 6.21419 71.1274 6.33761 71.1274 6.47645V10.688H72.5852ZM81.9703 22.0269C80.3504 22.0269 78.9697 21.4792 77.8281 20.3839C76.702 19.2731 76.1389 17.931 76.1389 16.3574C76.1389 14.7685 76.702 13.4263 77.8281 12.331C78.9697 11.2357 80.281 10.688 81.762 10.688C83.2584 10.688 84.5312 11.1045 85.5802 11.9376C85.7036 12.0147 85.773 12.1304 85.7885 12.2847C85.8039 12.439 85.7576 12.5778 85.6496 12.7012C85.4182 12.9635 85.1637 12.9944 84.886 12.7938C84.0375 12.115 83.0116 11.7756 81.8083 11.7756C80.605 11.7756 79.5405 12.223 78.6149 13.1178C77.7047 14.0125 77.2496 15.0924 77.2496 16.3574C77.2496 17.6225 77.7047 18.7023 78.6149 19.5971C79.5405 20.4764 80.5973 20.9161 81.7851 20.9161C82.9885 20.9161 84.0221 20.5844 84.886 19.9211C85.1637 19.7205 85.4182 19.7591 85.6496 20.0368C85.8964 20.3145 85.8579 20.5767 85.5339 20.8236C84.5003 21.6258 83.3124 22.0269 81.9703 22.0269ZM89.3398 22.0269H89.2241C88.8538 22.0269 88.6687 21.8417 88.6687 21.4715V6.38389C88.6687 6.22962 88.7227 6.09849 88.8307 5.9905C88.9387 5.88251 89.0698 5.82852 89.2241 5.82852C89.3783 5.82852 89.5095 5.88251 89.6174 5.9905C89.7409 6.09849 89.8026 6.22962 89.8026 6.38389V12.3541C90.7436 11.2434 91.9084 10.688 93.2968 10.688C94.6852 10.688 95.8345 11.1123 96.7447 11.9607C97.6703 12.7938 98.1331 13.8583 98.1331 15.1541V21.4715C98.1331 21.6258 98.0714 21.7569 97.948 21.8649C97.84 21.9729 97.7089 22.0269 97.5546 22.0269C97.4004 22.0269 97.2692 21.9729 97.1612 21.8649C97.0533 21.7569 96.9993 21.6258 96.9993 21.4715V15.1541C96.9993 14.1822 96.6522 13.3877 95.9579 12.7707C95.2637 12.1382 94.4075 11.8219 93.3893 11.8219C92.3866 11.8219 91.5381 12.1382 90.8439 12.7707C90.1497 13.3877 89.8026 14.1822 89.8026 15.1541V21.5409C89.8026 21.5718 89.7717 21.6489 89.71 21.7723C89.6483 21.8803 89.5403 21.9574 89.386 22.0037C89.3706 22.0191 89.3552 22.0269 89.3398 22.0269ZM101.129 17.3988V11.2203C101.129 11.066 101.183 10.9349 101.291 10.8269C101.399 10.7189 101.53 10.6649 101.684 10.6649C101.839 10.6649 101.97 10.7189 102.078 10.8269C102.186 10.9349 102.24 11.066 102.24 11.2203V17.3988C102.24 18.3707 102.579 19.196 103.258 19.8748C103.937 20.5536 104.754 20.9007 105.711 20.9161C106.683 20.9007 107.508 20.5536 108.187 19.8748C108.881 19.196 109.228 18.3707 109.228 17.3988V11.2203C109.228 11.066 109.282 10.9349 109.39 10.8269C109.513 10.7189 109.652 10.6649 109.807 10.6649C109.961 10.6649 110.092 10.7189 110.2 10.8269C110.308 10.9349 110.362 11.066 110.362 11.2203V17.3988C110.362 18.6792 109.907 19.7745 108.997 20.6847C108.102 21.5795 107.014 22.0269 105.734 22.0269C104.453 22.0269 103.366 21.5795 102.471 20.6847C101.576 19.7745 101.129 18.6792 101.129 17.3988ZM114.052 26.2153V11.2434C114.052 11.0891 114.106 10.958 114.214 10.85C114.322 10.742 114.453 10.688 114.607 10.688C114.762 10.688 114.893 10.742 115.001 10.85C115.124 10.958 115.186 11.0891 115.186 11.2434V12.8864C115.679 12.2076 116.304 11.6753 117.06 11.2897C117.816 10.8886 118.626 10.688 119.49 10.688C121.017 10.688 122.313 11.2357 123.378 12.331C124.442 13.4263 124.974 14.753 124.974 16.3112C124.974 17.8539 124.442 19.1806 123.378 20.2913C122.313 21.4021 121.017 21.9574 119.49 21.9574C118.626 21.9574 117.816 21.7569 117.06 21.3558C116.304 20.9547 115.679 20.4147 115.186 19.7359V26.2153C115.186 26.3696 115.124 26.5007 115.001 26.6087C114.893 26.7167 114.762 26.7707 114.607 26.7707C114.453 26.7707 114.322 26.7167 114.214 26.6087C114.106 26.5007 114.052 26.3696 114.052 26.2153ZM115.186 16.126V16.3112C115.186 17.5607 115.61 18.6252 116.459 19.5045C117.307 20.3839 118.317 20.8313 119.49 20.8467C120.693 20.8313 121.719 20.3839 122.568 19.5045C123.416 18.6252 123.84 17.5607 123.84 16.3112C123.84 15.0616 123.416 14.0048 122.568 13.1409C121.719 12.2616 120.709 11.8219 119.536 11.8219C118.364 11.8219 117.353 12.2384 116.505 13.0715C115.672 13.9045 115.232 14.9227 115.186 16.126Z" fill="white"/>
<path d="M139.287 15.8481C139.287 16.1875 139.171 16.4652 138.94 16.6812C138.724 16.8817 138.431 16.982 138.061 16.982H130.702C130.841 17.6454 131.103 18.1545 131.489 18.5093C131.982 19.0801 132.7 19.4272 133.641 19.5506C134.597 19.6586 135.423 19.4658 136.117 18.9721C136.348 18.7253 136.657 18.6019 137.042 18.6019C137.428 18.6019 137.698 18.7021 137.852 18.9027C138.284 19.3809 138.284 19.8823 137.852 20.4068C136.742 21.425 135.376 21.9341 133.756 21.9341C132.152 21.9187 130.802 21.3479 129.707 20.2217C128.627 19.0955 128.079 17.7379 128.064 16.149C128.079 14.56 128.627 13.2024 129.707 12.0762C130.802 10.9346 132.121 10.3638 133.664 10.3638C135.207 10.3638 136.502 10.8729 137.551 11.8911C138.616 12.8939 139.194 14.1743 139.287 15.7324V15.8481ZM133.71 12.5622C132.815 12.6085 132.098 12.8862 131.558 13.3952C131.018 13.9043 130.694 14.4443 130.586 15.0151H137.135C136.996 14.4751 136.618 13.9506 136.001 13.4415C135.399 12.9324 134.636 12.6393 133.71 12.5622ZM142.701 21.9341L142.47 21.9109C142.177 21.8338 141.938 21.6873 141.753 21.4713C141.568 21.2553 141.475 21.0007 141.475 20.7076V11.6134C141.475 11.2586 141.591 10.9655 141.822 10.7341C142.069 10.4873 142.362 10.3638 142.701 10.3638C143.241 10.3638 143.612 10.5952 143.812 11.0581C144.599 10.5952 145.424 10.3638 146.288 10.3638C147.769 10.3638 148.98 10.8961 149.921 11.9605C150.831 10.8961 151.996 10.3638 153.415 10.3638C154.835 10.3638 156.015 10.8421 156.956 11.7986C157.897 12.7396 158.368 13.8812 158.368 15.2233V20.7076C158.368 21.047 158.244 21.3401 157.997 21.587C157.766 21.8184 157.48 21.9341 157.141 21.9341C156.802 21.9341 156.509 21.8184 156.262 21.587C156.015 21.3401 155.891 21.047 155.891 20.7076V15.2233C155.891 14.56 155.66 13.9969 155.197 13.5341C154.734 13.0713 154.179 12.8399 153.531 12.8399C152.899 12.8399 152.351 13.0636 151.888 13.5109C151.425 13.9583 151.179 14.506 151.148 15.1539V20.7076C151.148 21.047 151.024 21.3401 150.777 21.587C150.546 21.8184 150.261 21.9341 149.921 21.9341C149.597 21.9341 149.304 21.8107 149.042 21.5638C148.795 21.317 148.672 21.0316 148.672 20.7076V15.1539C148.656 14.5214 148.417 13.9815 147.954 13.5341C147.491 13.0713 146.936 12.8399 146.288 12.8399C145.656 12.8399 145.108 13.0713 144.645 13.5341C144.182 13.9969 143.951 14.56 143.951 15.2233V20.7076L143.928 20.8696V20.939L143.858 21.0779V21.1936C143.612 21.6873 143.226 21.9341 142.701 21.9341ZM166.267 21.9341C164.708 21.9341 163.397 21.371 162.333 20.2448C161.284 19.1187 160.759 17.7611 160.759 16.1721C160.759 14.5677 161.284 13.2024 162.333 12.0762C163.397 10.9346 164.708 10.3638 166.267 10.3638C167.362 10.3638 168.388 10.7032 169.344 11.382C169.421 11.0889 169.568 10.8498 169.784 10.6647C170 10.4641 170.262 10.3638 170.571 10.3638C170.895 10.3638 171.172 10.4873 171.404 10.7341C171.651 10.9809 171.774 11.274 171.774 11.6134V20.7076C171.774 21.047 171.651 21.3401 171.404 21.587C171.172 21.8184 170.895 21.9341 170.571 21.9341C170.262 21.9341 170 21.8415 169.784 21.6564C169.568 21.4713 169.421 21.2322 169.344 20.939C168.403 21.6024 167.377 21.9341 166.267 21.9341ZM163.235 16.1721C163.235 17.0977 163.513 17.8768 164.068 18.5093C164.639 19.1418 165.364 19.4581 166.243 19.4581C167.138 19.4581 167.871 19.1418 168.442 18.5093C169.028 17.8768 169.321 17.0977 169.321 16.1721C169.321 15.2465 169.028 14.4597 168.442 13.8118C167.856 13.1638 167.123 12.8399 166.243 12.8399C165.379 12.8399 164.662 13.1638 164.091 13.8118C163.521 14.4443 163.235 15.2311 163.235 16.1721ZM175.183 10.7572C175.43 10.5104 175.731 10.387 176.085 10.387C176.44 10.387 176.733 10.5104 176.965 10.7572C177.212 10.9886 177.335 11.2895 177.335 11.6597V20.6845C177.335 21.0393 177.212 21.3401 176.965 21.587C176.733 21.8184 176.44 21.9341 176.085 21.9341C175.746 21.9341 175.453 21.8107 175.206 21.5638C174.959 21.317 174.836 21.0239 174.836 20.6845V11.6597C174.836 11.2895 174.952 10.9886 175.183 10.7572ZM177.335 6.98533V7.47128C177.335 7.8261 177.212 8.12693 176.965 8.37376C176.733 8.62059 176.44 8.74401 176.085 8.74401C175.746 8.74401 175.453 8.62059 175.206 8.37376C174.959 8.12693 174.836 7.8261 174.836 7.47128V6.98533C174.836 6.64594 174.959 6.35282 175.206 6.10599C175.453 5.85916 175.746 5.73574 176.085 5.73574C176.44 5.73574 176.733 5.85916 176.965 6.10599C177.212 6.3374 177.335 6.63051 177.335 6.98533ZM179.983 7.00847C179.983 6.65365 180.106 6.35282 180.353 6.10599C180.6 5.85916 180.901 5.73574 181.256 5.73574C181.611 5.73574 181.911 5.85916 182.158 6.10599C182.42 6.35282 182.552 6.65365 182.552 7.00847V20.6614C182.552 21.0162 182.42 21.317 182.158 21.5638C181.911 21.8107 181.611 21.9341 181.256 21.9341C180.901 21.9341 180.6 21.8107 180.353 21.5638C180.106 21.317 179.983 21.0162 179.983 20.6614V7.00847Z" fill="white"/>
<path d="M30.3573 15.389C30.3573 7.63984 23.853 1.35791 15.8295 1.35791C7.80605 1.35791 1.30176 7.63984 1.30176 15.389C1.30176 23.1382 7.80605 29.4201 15.8295 29.4201" stroke="white" stroke-width="2.31405" stroke-linecap="round" stroke-linejoin="round"/>
<path d="M6.58469 15.3892C6.58469 20.3203 10.7237 24.3179 15.8295 24.3179C20.9352 24.3179 25.0742 20.3203 25.0742 15.3892C25.0742 10.458 20.9352 6.46044 15.8295 6.46044" stroke="white" stroke-width="1.85124" stroke-linecap="round" stroke-linejoin="round"/>
</svg>
