<svg width="185" height="32" viewBox="0 0 185 32" fill="none" xmlns="http://www.w3.org/2000/svg">
<path d="M50.6579 22.4644C49.0381 22.4644 47.6574 21.9167 46.5158 20.8214C45.3896 19.7106 44.8265 18.3685 44.8265 16.7949C44.8265 15.206 45.3896 13.8638 46.5158 12.7685C47.6574 11.6732 48.9687 11.1255 50.4497 11.1255C51.9461 11.1255 53.2188 11.542 54.2678 12.3751C54.3913 12.4522 54.4607 12.5679 54.4761 12.7222C54.4915 12.8765 54.4452 13.0153 54.3373 13.1387C54.1059 13.401 53.8513 13.4319 53.5736 13.2313C52.7251 12.5525 51.6992 12.2131 50.4959 12.2131C49.2926 12.2131 48.2282 12.6605 47.3026 13.5553C46.3924 14.45 45.9373 15.5299 45.9373 16.7949C45.9373 18.06 46.3924 19.1398 47.3026 20.0346C48.2282 20.9139 49.2849 21.3536 50.4728 21.3536C51.6761 21.3536 52.7097 21.0219 53.5736 20.3586C53.8513 20.158 54.1059 20.1966 54.3373 20.4743C54.5841 20.752 54.5455 21.0142 54.2216 21.2611C53.1879 22.0633 52.0001 22.4644 50.6579 22.4644ZM65.9183 11.2875C66.0263 11.1795 66.1574 11.1255 66.3117 11.1255C66.466 11.1255 66.5971 11.1795 66.7051 11.2875C66.8131 11.3955 66.8671 11.5266 66.8671 11.6809V21.909C66.8671 22.0633 66.8131 22.1944 66.7051 22.3024C66.5971 22.4104 66.466 22.4644 66.3117 22.4644C66.1574 22.4644 66.0263 22.4104 65.9183 22.3024C65.8103 22.1944 65.7563 22.0633 65.7563 21.909V20.2197C65.2627 20.9139 64.6379 21.4616 63.882 21.8627C63.1415 22.2638 62.347 22.4644 61.4985 22.4644C60.0175 22.4644 58.7525 21.909 57.7034 20.7982C56.6544 19.6875 56.1299 18.3531 56.1299 16.7949C56.1299 15.2368 56.6544 13.9024 57.7034 12.7916C58.7525 11.6809 60.0175 11.1255 61.4985 11.1255C62.347 11.1255 63.1415 11.3261 63.882 11.7272C64.6379 12.1283 65.2627 12.6682 65.7563 13.347V11.6809C65.7563 11.5266 65.8103 11.3955 65.9183 11.2875ZM57.2406 16.7949C57.2406 18.06 57.6572 19.1398 58.4902 20.0346C59.3387 20.9139 60.3415 21.3536 61.4985 21.3536C62.6709 21.3536 63.6737 20.9139 64.5068 20.0346C65.3398 19.1398 65.7563 18.06 65.7563 16.7949C65.7563 15.5299 65.3398 14.45 64.5068 13.5553C63.6737 12.6605 62.6709 12.2131 61.4985 12.2131C60.3415 12.2131 59.3387 12.6605 58.4902 13.5553C57.6572 14.45 57.2406 15.5299 57.2406 16.7949ZM73.5852 11.1255C73.724 11.1255 73.8475 11.1872 73.9555 11.3106C74.0789 11.4186 74.1406 11.542 74.1406 11.6809C74.1406 11.8197 74.0789 11.9509 73.9555 12.0743C73.8475 12.1823 73.724 12.2363 73.5852 12.2363H72.1274V20.4974C72.1274 20.7442 72.2199 20.9448 72.405 21.0991C72.6056 21.2533 72.783 21.3305 72.9373 21.3305C73.0915 21.3305 73.2304 21.3922 73.3538 21.5156C73.4772 21.639 73.5389 21.7701 73.5389 21.909C73.5389 22.0478 73.4772 22.179 73.3538 22.3024C73.2304 22.4104 73.0993 22.4644 72.9604 22.4644C72.3896 22.4644 71.9114 22.2792 71.5257 21.909C71.1555 21.5387 70.9703 21.0682 70.9703 20.4974V12.2363H69.5588C69.3119 12.2363 69.1577 12.19 69.096 12.0974C69.0342 12.0049 69.0034 11.8814 69.0034 11.7272C69.0034 11.5729 69.0111 11.4649 69.0265 11.4032C69.0728 11.2181 69.2502 11.1255 69.5588 11.1255H70.9703V6.91395C70.9703 6.77511 71.0243 6.65169 71.1323 6.5437C71.2557 6.42029 71.3869 6.35858 71.5257 6.35858C71.68 6.35858 71.8188 6.42029 71.9422 6.5437C72.0656 6.65169 72.1274 6.77511 72.1274 6.91395V11.1255H73.5852ZM82.9703 22.4644C81.3504 22.4644 79.9697 21.9167 78.8281 20.8214C77.702 19.7106 77.1389 18.3685 77.1389 16.7949C77.1389 15.206 77.702 13.8638 78.8281 12.7685C79.9697 11.6732 81.281 11.1255 82.762 11.1255C84.2584 11.1255 85.5312 11.542 86.5802 12.3751C86.7036 12.4522 86.773 12.5679 86.7885 12.7222C86.8039 12.8765 86.7576 13.0153 86.6496 13.1387C86.4182 13.401 86.1637 13.4319 85.886 13.2313C85.0375 12.5525 84.0116 12.2131 82.8083 12.2131C81.605 12.2131 80.5405 12.6605 79.6149 13.5553C78.7047 14.45 78.2496 15.5299 78.2496 16.7949C78.2496 18.06 78.7047 19.1398 79.6149 20.0346C80.5405 20.9139 81.5973 21.3536 82.7851 21.3536C83.9885 21.3536 85.0221 21.0219 85.886 20.3586C86.1637 20.158 86.4182 20.1966 86.6496 20.4743C86.8964 20.752 86.8579 21.0142 86.5339 21.2611C85.5003 22.0633 84.3124 22.4644 82.9703 22.4644ZM90.3398 22.4644H90.2241C89.8538 22.4644 89.6687 22.2792 89.6687 21.909V6.82139C89.6687 6.66712 89.7227 6.53599 89.8307 6.428C89.9387 6.32001 90.0698 6.26602 90.2241 6.26602C90.3783 6.26602 90.5095 6.32001 90.6174 6.428C90.7409 6.53599 90.8026 6.66712 90.8026 6.82139V12.7916C91.7436 11.6809 92.9084 11.1255 94.2968 11.1255C95.6852 11.1255 96.8345 11.5498 97.7447 12.3982C98.6703 13.2313 99.1331 14.2958 99.1331 15.5916V21.909C99.1331 22.0633 99.0714 22.1944 98.948 22.3024C98.84 22.4104 98.7089 22.4644 98.5546 22.4644C98.4004 22.4644 98.2692 22.4104 98.1612 22.3024C98.0533 22.1944 97.9993 22.0633 97.9993 21.909V15.5916C97.9993 14.6197 97.6522 13.8252 96.9579 13.2082C96.2637 12.5757 95.4075 12.2594 94.3893 12.2594C93.3866 12.2594 92.5381 12.5757 91.8439 13.2082C91.1497 13.8252 90.8026 14.6197 90.8026 15.5916V21.9784C90.8026 22.0093 90.7717 22.0864 90.71 22.2098C90.6483 22.3178 90.5403 22.3949 90.386 22.4412C90.3706 22.4566 90.3552 22.4644 90.3398 22.4644ZM102.129 17.8363V11.6578C102.129 11.5035 102.183 11.3724 102.291 11.2644C102.399 11.1564 102.53 11.1024 102.684 11.1024C102.839 11.1024 102.97 11.1564 103.078 11.2644C103.186 11.3724 103.24 11.5035 103.24 11.6578V17.8363C103.24 18.8082 103.579 19.6335 104.258 20.3123C104.937 20.9911 105.754 21.3382 106.711 21.3536C107.683 21.3382 108.508 20.9911 109.187 20.3123C109.881 19.6335 110.228 18.8082 110.228 17.8363V11.6578C110.228 11.5035 110.282 11.3724 110.39 11.2644C110.513 11.1564 110.652 11.1024 110.807 11.1024C110.961 11.1024 111.092 11.1564 111.2 11.2644C111.308 11.3724 111.362 11.5035 111.362 11.6578V17.8363C111.362 19.1167 110.907 20.212 109.997 21.1222C109.102 22.017 108.014 22.4644 106.734 22.4644C105.453 22.4644 104.366 22.017 103.471 21.1222C102.576 20.212 102.129 19.1167 102.129 17.8363ZM115.052 26.6528V11.6809C115.052 11.5266 115.106 11.3955 115.214 11.2875C115.322 11.1795 115.453 11.1255 115.607 11.1255C115.762 11.1255 115.893 11.1795 116.001 11.2875C116.124 11.3955 116.186 11.5266 116.186 11.6809V13.3239C116.679 12.6451 117.304 12.1128 118.06 11.7272C118.816 11.3261 119.626 11.1255 120.49 11.1255C122.017 11.1255 123.313 11.6732 124.378 12.7685C125.442 13.8638 125.974 15.1905 125.974 16.7487C125.974 18.2914 125.442 19.6181 124.378 20.7288C123.313 21.8396 122.017 22.3949 120.49 22.3949C119.626 22.3949 118.816 22.1944 118.06 21.7933C117.304 21.3922 116.679 20.8522 116.186 20.1734V26.6528C116.186 26.8071 116.124 26.9382 116.001 27.0462C115.893 27.1542 115.762 27.2082 115.607 27.2082C115.453 27.2082 115.322 27.1542 115.214 27.0462C115.106 26.9382 115.052 26.8071 115.052 26.6528ZM116.186 16.5635V16.7487C116.186 17.9982 116.61 19.0627 117.459 19.942C118.307 20.8214 119.317 21.2688 120.49 21.2842C121.693 21.2688 122.719 20.8214 123.568 19.942C124.416 19.0627 124.84 17.9982 124.84 16.7487C124.84 15.4991 124.416 14.4423 123.568 13.5784C122.719 12.6991 121.709 12.2594 120.536 12.2594C119.364 12.2594 118.353 12.6759 117.505 13.509C116.672 14.342 116.232 15.3602 116.186 16.5635Z" fill="white"/>
<path d="M140.287 16.2856C140.287 16.625 140.171 16.9027 139.94 17.1187C139.724 17.3192 139.431 17.4195 139.061 17.4195H131.702C131.841 18.0829 132.103 18.592 132.489 18.9468C132.982 19.5176 133.7 19.8647 134.641 19.9881C135.597 20.0961 136.423 19.9033 137.117 19.4096C137.348 19.1628 137.657 19.0394 138.042 19.0394C138.428 19.0394 138.698 19.1396 138.852 19.3402C139.284 19.8184 139.284 20.3198 138.852 20.8443C137.742 21.8625 136.376 22.3716 134.756 22.3716C133.152 22.3562 131.802 21.7854 130.707 20.6592C129.627 19.533 129.079 18.1754 129.064 16.5865C129.079 14.9975 129.627 13.6399 130.707 12.5137C131.802 11.3721 133.121 10.8013 134.664 10.8013C136.207 10.8013 137.502 11.3104 138.551 12.3286C139.616 13.3314 140.194 14.6118 140.287 16.1699V16.2856ZM134.71 12.9997C133.815 13.046 133.098 13.3237 132.558 13.8327C132.018 14.3418 131.694 14.8818 131.586 15.4526H138.135C137.996 14.9126 137.618 14.3881 137.001 13.879C136.399 13.3699 135.636 13.0768 134.71 12.9997ZM143.701 22.3716L143.47 22.3484C143.177 22.2713 142.938 22.1248 142.753 21.9088C142.568 21.6928 142.475 21.4382 142.475 21.1451V12.0509C142.475 11.6961 142.591 11.403 142.822 11.1716C143.069 10.9248 143.362 10.8013 143.701 10.8013C144.241 10.8013 144.612 11.0327 144.812 11.4956C145.599 11.0327 146.424 10.8013 147.288 10.8013C148.769 10.8013 149.98 11.3336 150.921 12.398C151.831 11.3336 152.996 10.8013 154.415 10.8013C155.835 10.8013 157.015 11.2796 157.956 12.2361C158.897 13.1771 159.368 14.3187 159.368 15.6608V21.1451C159.368 21.4845 159.244 21.7776 158.997 22.0245C158.766 22.2559 158.48 22.3716 158.141 22.3716C157.802 22.3716 157.509 22.2559 157.262 22.0245C157.015 21.7776 156.891 21.4845 156.891 21.1451V15.6608C156.891 14.9975 156.66 14.4344 156.197 13.9716C155.734 13.5088 155.179 13.2774 154.531 13.2774C153.899 13.2774 153.351 13.5011 152.888 13.9484C152.425 14.3958 152.179 14.9435 152.148 15.5914V21.1451C152.148 21.4845 152.024 21.7776 151.777 22.0245C151.546 22.2559 151.261 22.3716 150.921 22.3716C150.597 22.3716 150.304 22.2482 150.042 22.0013C149.795 21.7545 149.672 21.4691 149.672 21.1451V15.5914C149.656 14.9589 149.417 14.419 148.954 13.9716C148.491 13.5088 147.936 13.2774 147.288 13.2774C146.656 13.2774 146.108 13.5088 145.645 13.9716C145.182 14.4344 144.951 14.9975 144.951 15.6608V21.1451L144.928 21.3071V21.3765L144.858 21.5154V21.6311C144.612 22.1248 144.226 22.3716 143.701 22.3716ZM167.267 22.3716C165.708 22.3716 164.397 21.8085 163.333 20.6823C162.284 19.5562 161.759 18.1986 161.759 16.6096C161.759 15.0052 162.284 13.6399 163.333 12.5137C164.397 11.3721 165.708 10.8013 167.267 10.8013C168.362 10.8013 169.388 11.1407 170.344 11.8195C170.421 11.5264 170.568 11.2873 170.784 11.1022C171 10.9016 171.262 10.8013 171.571 10.8013C171.895 10.8013 172.172 10.9248 172.404 11.1716C172.651 11.4184 172.774 11.7115 172.774 12.0509V21.1451C172.774 21.4845 172.651 21.7776 172.404 22.0245C172.172 22.2559 171.895 22.3716 171.571 22.3716C171.262 22.3716 171 22.279 170.784 22.0939C170.568 21.9088 170.421 21.6697 170.344 21.3765C169.403 22.0399 168.377 22.3716 167.267 22.3716ZM164.235 16.6096C164.235 17.5352 164.513 18.3143 165.068 18.9468C165.639 19.5793 166.364 19.8956 167.243 19.8956C168.138 19.8956 168.871 19.5793 169.442 18.9468C170.028 18.3143 170.321 17.5352 170.321 16.6096C170.321 15.684 170.028 14.8972 169.442 14.2493C168.856 13.6013 168.123 13.2774 167.243 13.2774C166.379 13.2774 165.662 13.6013 165.091 14.2493C164.521 14.8818 164.235 15.6686 164.235 16.6096ZM176.183 11.1947C176.43 10.9479 176.731 10.8245 177.085 10.8245C177.44 10.8245 177.733 10.9479 177.965 11.1947C178.212 11.4261 178.335 11.727 178.335 12.0972V21.122C178.335 21.4768 178.212 21.7776 177.965 22.0245C177.733 22.2559 177.44 22.3716 177.085 22.3716C176.746 22.3716 176.453 22.2482 176.206 22.0013C175.959 21.7545 175.836 21.4614 175.836 21.122V12.0972C175.836 11.727 175.952 11.4261 176.183 11.1947ZM178.335 7.42283V7.90878C178.335 8.2636 178.212 8.56443 177.965 8.81126C177.733 9.05809 177.44 9.18151 177.085 9.18151C176.746 9.18151 176.453 9.05809 176.206 8.81126C175.959 8.56443 175.836 8.2636 175.836 7.90878V7.42283C175.836 7.08344 175.959 6.79032 176.206 6.54349C176.453 6.29666 176.746 6.17324 177.085 6.17324C177.44 6.17324 177.733 6.29666 177.965 6.54349C178.212 6.7749 178.335 7.06801 178.335 7.42283ZM180.983 7.44597C180.983 7.09115 181.106 6.79032 181.353 6.54349C181.6 6.29666 181.901 6.17324 182.256 6.17324C182.611 6.17324 182.911 6.29666 183.158 6.54349C183.42 6.79032 183.552 7.09115 183.552 7.44597V21.0989C183.552 21.4537 183.42 21.7545 183.158 22.0013C182.911 22.2482 182.611 22.3716 182.256 22.3716C181.901 22.3716 181.6 22.2482 181.353 22.0013C181.106 21.7545 180.983 21.4537 180.983 21.0989V7.44597Z" fill="url(#paint0_linear)"/>
<path d="M31.3573 15.8265C31.3573 8.07734 24.853 1.79541 16.8295 1.79541C8.80605 1.79541 2.30176 8.07734 2.30176 15.8265C2.30176 23.5757 8.80605 29.8576 16.8295 29.8576" stroke="url(#paint1_linear)" stroke-width="2.31405" stroke-linecap="round" stroke-linejoin="round"/>
<path d="M7.58469 15.8267C7.58469 20.7578 11.7237 24.7554 16.8295 24.7554C21.9352 24.7554 26.0742 20.7578 26.0742 15.8267C26.0742 10.8955 21.9352 6.89794 16.8295 6.89794" stroke="url(#paint2_linear)" stroke-width="1.85124" stroke-linecap="round" stroke-linejoin="round"/>
<defs>
<linearGradient id="paint0_linear" x1="127.722" y1="15.6443" x2="187.141" y2="15.6443" gradientUnits="userSpaceOnUse">
<stop stop-color="#82E0DB"/>
<stop offset="1" stop-color="#22AAE2"/>
</linearGradient>
<linearGradient id="paint1_linear" x1="2.30176" y1="15.8265" x2="31.3573" y2="15.8265" gradientUnits="userSpaceOnUse">
<stop stop-color="#82E0DB"/>
<stop offset="1" stop-color="#22AAE2"/>
</linearGradient>
<linearGradient id="paint2_linear" x1="26.0742" y1="15.8267" x2="7.58469" y2="15.8267" gradientUnits="userSpaceOnUse">
<stop stop-color="#82E0DB"/>
<stop offset="1" stop-color="#22AAE2"/>
</linearGradient>
</defs>
</svg>
