<svg width="16" height="16" viewBox="0 0 16 16" fill="none" xmlns="http://www.w3.org/2000/svg">
<path fill-rule="evenodd" clip-rule="evenodd" d="M8.00012 13.4252C10.9963 13.4252 13.4252 10.9963 13.4252 8.00012C13.4252 5.00393 10.9963 2.57503 8.00012 2.57503C5.00393 2.57503 2.57503 5.00393 2.57503 8.00012C2.57503 10.9963 5.00393 13.4252 8.00012 13.4252ZM8.00012 15.0002C11.8662 15.0002 15.0002 11.8662 15.0002 8.00012C15.0002 4.13406 11.8662 1 8.00012 1C4.13406 1 1 4.13406 1 8.00012C1 11.8662 4.13406 15.0002 8.00012 15.0002Z" fill="#ABC0DC"/>
<path fill-rule="evenodd" clip-rule="evenodd" d="M8.00012 13.4252C10.9963 13.4252 13.4252 10.9963 13.4252 8.00012C13.4252 5.00393 10.9963 2.57503 8.00012 2.57503C5.00393 2.57503 2.57503 5.00393 2.57503 8.00012C2.57503 10.9963 5.00393 13.4252 8.00012 13.4252ZM8.00012 15.0002C11.8662 15.0002 15.0002 11.8662 15.0002 8.00012C15.0002 4.13406 11.8662 1 8.00012 1C4.13406 1 1 4.13406 1 8.00012C1 11.8662 4.13406 15.0002 8.00012 15.0002Z" fill="#7D9BC3"/>
<path fill-rule="evenodd" clip-rule="evenodd" d="M7.99992 3.91821C8.43485 3.91821 8.78743 4.27079 8.78743 4.70573V7.6737L10.2039 9.09013C10.5114 9.39768 10.5114 9.8963 10.2039 10.2038C9.89632 10.5114 9.39769 10.5114 9.09015 10.2038L7.44306 8.55676C7.29537 8.40907 7.2124 8.20876 7.2124 7.9999V4.70573C7.2124 4.27079 7.56498 3.91821 7.99992 3.91821Z" fill="#ABC0DC"/>
<path fill-rule="evenodd" clip-rule="evenodd" d="M7.99992 3.91821C8.43485 3.91821 8.78743 4.27079 8.78743 4.70573V7.6737L10.2039 9.09013C10.5114 9.39768 10.5114 9.8963 10.2039 10.2038C9.89632 10.5114 9.39769 10.5114 9.09015 10.2038L7.44306 8.55676C7.29537 8.40907 7.2124 8.20876 7.2124 7.9999V4.70573C7.2124 4.27079 7.56498 3.91821 7.99992 3.91821Z" fill="#7D9BC3"/>
</svg>
