<svg width="16" height="16" viewBox="0 0 16 16" fill="none" xmlns="http://www.w3.org/2000/svg">
<path d="M2.59265 0.888942C2.11538 0.398022 1.34157 0.398022 0.864301 0.888941C0.38703 1.37986 0.38703 2.1758 0.864301 2.66672L6.27176 8.22881L1.30908 13.3334C0.831813 13.8243 0.831812 14.6203 1.30908 15.1112C1.78635 15.6021 2.56016 15.6021 3.03744 15.1112L8.00011 10.0066L12.9628 15.1111C13.44 15.6021 14.2138 15.6021 14.6911 15.1111C15.1684 14.6202 15.1684 13.8243 14.6911 13.3334L9.72846 8.22881L15.1359 2.66674C15.6132 2.17582 15.6132 1.37988 15.1359 0.888962C14.6586 0.398043 13.8848 0.398043 13.4075 0.888962L8.00011 6.45103L2.59265 0.888942Z" fill="#ABC0DC"/>
<path d="M2.59265 0.888942C2.11538 0.398022 1.34157 0.398022 0.864301 0.888941C0.38703 1.37986 0.38703 2.1758 0.864301 2.66672L6.27176 8.22881L1.30908 13.3334C0.831813 13.8243 0.831812 14.6203 1.30908 15.1112C1.78635 15.6021 2.56016 15.6021 3.03744 15.1112L8.00011 10.0066L12.9628 15.1111C13.44 15.6021 14.2138 15.6021 14.6911 15.1111C15.1684 14.6202 15.1684 13.8243 14.6911 13.3334L9.72846 8.22881L15.1359 2.66674C15.6132 2.17582 15.6132 1.37988 15.1359 0.888962C14.6586 0.398043 13.8848 0.398043 13.4075 0.888962L8.00011 6.45103L2.59265 0.888942Z" fill="#7D9BC3"/>
</svg>
