<svg width="16" height="16" viewBox="0 0 16 16" fill="none" xmlns="http://www.w3.org/2000/svg">
<path fill-rule="evenodd" clip-rule="evenodd" d="M6.81213 2.83104C7.18159 3.24155 7.14831 3.87384 6.73781 4.2433L2.56369 8.00002L6.7378 11.7567C7.14831 12.1262 7.18159 12.7585 6.81213 13.169C6.44268 13.5795 5.81039 13.6128 5.39988 13.2433L0.399876 8.74332C0.189162 8.55368 0.0688398 8.28351 0.0688393 8.00003C0.0688388 7.71654 0.18916 7.44637 0.399874 7.25673L5.39987 2.75672C5.81038 2.38726 6.44267 2.42053 6.81213 2.83104Z" fill="white"/>
<path fill-rule="evenodd" clip-rule="evenodd" d="M9.19812 13.169C8.82866 12.7584 8.86194 12.1262 9.27245 11.7567L13.4466 7.99998L9.27245 4.24329C8.86194 3.87383 8.82866 3.24154 9.19812 2.83103C9.56758 2.42052 10.1999 2.38724 10.6104 2.7567L15.6104 7.25668C15.8211 7.44632 15.9414 7.71649 15.9414 7.99997C15.9414 8.28346 15.8211 8.55363 15.6104 8.74327L10.6104 13.2433C10.1999 13.6127 9.56758 13.5795 9.19812 13.169Z" fill="white"/>
</svg>
