<svg width="17" height="18" viewBox="0 0 17 18" fill="none" xmlns="http://www.w3.org/2000/svg">
<path fill-rule="evenodd" clip-rule="evenodd" d="M2.64297 0.899902C3.11241 0.899902 3.49297 1.28046 3.49297 1.7499L3.49297 16.2499C3.49297 16.7193 3.11241 17.0999 2.64297 17.0999C2.17353 17.0999 1.79297 16.7193 1.79297 16.2499L1.79297 1.7499C1.79297 1.28046 2.17353 0.899902 2.64297 0.899902Z" fill="#ABC0DC"/>
<path fill-rule="evenodd" clip-rule="evenodd" d="M2.64297 0.899902C3.11241 0.899902 3.49297 1.28046 3.49297 1.7499L3.49297 16.2499C3.49297 16.7193 3.11241 17.0999 2.64297 17.0999C2.17353 17.0999 1.79297 16.7193 1.79297 16.2499L1.79297 1.7499C1.79297 1.28046 2.17353 0.899902 2.64297 0.899902Z" fill="#7D9BC3"/>
<path d="M9.88413 14.1827C9.54113 13.8622 9.52288 13.3243 9.84338 12.9813L12.5069 10.1307L7.39301 10.1307C6.92357 10.1307 6.54301 9.75017 6.54301 9.28073C6.54301 8.81129 6.92357 8.43073 7.39301 8.43073L12.5069 8.43073L9.84339 5.58019C9.52288 5.23719 9.54113 4.69931 9.88413 4.3788C10.2271 4.0583 10.765 4.07654 11.0855 4.41955L15.0855 8.70041C15.3908 9.02708 15.3908 9.53438 15.0855 9.86105L11.0855 14.1419C10.765 14.4849 10.2271 14.5032 9.88413 14.1827Z" fill="#ABC0DC"/>
<path d="M9.88413 14.1827C9.54113 13.8622 9.52288 13.3243 9.84338 12.9813L12.5069 10.1307L7.39301 10.1307C6.92357 10.1307 6.54301 9.75017 6.54301 9.28073C6.54301 8.81129 6.92357 8.43073 7.39301 8.43073L12.5069 8.43073L9.84339 5.58019C9.52288 5.23719 9.54113 4.69931 9.88413 4.3788C10.2271 4.0583 10.765 4.07654 11.0855 4.41955L15.0855 8.70041C15.3908 9.02708 15.3908 9.53438 15.0855 9.86105L11.0855 14.1419C10.765 14.4849 10.2271 14.5032 9.88413 14.1827Z" fill="#7D9BC3"/>
</svg>
