<svg width="16" height="18" viewBox="0 0 16 18" fill="none" xmlns="http://www.w3.org/2000/svg">
<path fill-rule="evenodd" clip-rule="evenodd" d="M2.3417 0.899902C2.81114 0.899902 3.1917 1.28046 3.1917 1.7499L3.1917 16.2499C3.1917 16.7193 2.81114 17.0999 2.3417 17.0999C1.87226 17.0999 1.4917 16.7193 1.4917 16.2499L1.4917 1.7499C1.4917 1.28046 1.87226 0.899902 2.3417 0.899902ZM11.672 4.37883C12.015 4.69933 12.0332 5.23721 11.7127 5.58022L9.04921 8.43079H14.1631C14.6326 8.43079 15.0131 8.81135 15.0131 9.28079C15.0131 9.75023 14.6326 10.1308 14.1631 10.1308H9.04922L11.7127 12.9813C12.0332 13.3243 12.015 13.8622 11.672 14.1827C11.329 14.5032 10.7911 14.485 10.4706 14.142L6.4706 9.86111C6.16536 9.53444 6.16536 9.02714 6.4706 8.70047L10.4706 4.41958C10.7911 4.07657 11.329 4.05833 11.672 4.37883Z" fill="#ABC0DC"/>
<path fill-rule="evenodd" clip-rule="evenodd" d="M2.3417 0.899902C2.81114 0.899902 3.1917 1.28046 3.1917 1.7499L3.1917 16.2499C3.1917 16.7193 2.81114 17.0999 2.3417 17.0999C1.87226 17.0999 1.4917 16.7193 1.4917 16.2499L1.4917 1.7499C1.4917 1.28046 1.87226 0.899902 2.3417 0.899902ZM11.672 4.37883C12.015 4.69933 12.0332 5.23721 11.7127 5.58022L9.04921 8.43079H14.1631C14.6326 8.43079 15.0131 8.81135 15.0131 9.28079C15.0131 9.75023 14.6326 10.1308 14.1631 10.1308H9.04922L11.7127 12.9813C12.0332 13.3243 12.015 13.8622 11.672 14.1827C11.329 14.5032 10.7911 14.485 10.4706 14.142L6.4706 9.86111C6.16536 9.53444 6.16536 9.02714 6.4706 8.70047L10.4706 4.41958C10.7911 4.07657 11.329 4.05833 11.672 4.37883Z" fill="#7D9BC3"/>
</svg>
