<svg width="17" height="18" viewBox="0 0 17 18" fill="none" xmlns="http://www.w3.org/2000/svg">
<path fill-rule="evenodd" clip-rule="evenodd" d="M2.64297 0.826172C3.11241 0.826172 3.49297 1.20673 3.49297 1.67617L3.49297 16.1762C3.49297 16.6456 3.11241 17.0262 2.64297 17.0262C2.17353 17.0262 1.79297 16.6456 1.79297 16.1762L1.79297 1.67617C1.79297 1.20673 2.17353 0.826172 2.64297 0.826172Z" fill="white"/>
<path d="M9.88413 14.109C9.54113 13.7885 9.52288 13.2506 9.84338 12.9076L12.5069 10.057L7.39301 10.057C6.92357 10.057 6.54301 9.67644 6.54301 9.207C6.54301 8.73756 6.92357 8.357 7.39301 8.357L12.5069 8.357L9.84339 5.50646C9.52288 5.16346 9.54113 4.62558 9.88413 4.30507C10.2271 3.98457 10.765 4.00281 11.0855 4.34582L15.0855 8.62668C15.3908 8.95335 15.3908 9.46065 15.0855 9.78732L11.0855 14.0682C10.765 14.4112 10.2271 14.4295 9.88413 14.109Z" fill="white"/>
</svg>
