<svg width="17" height="18" viewBox="0 0 17 18" fill="none" xmlns="http://www.w3.org/2000/svg">
<path fill-rule="evenodd" clip-rule="evenodd" d="M2.64297 0.962402C3.11241 0.962402 3.49297 1.34296 3.49297 1.8124L3.49297 16.3124C3.49297 16.7818 3.11241 17.1624 2.64297 17.1624C2.17353 17.1624 1.79297 16.7818 1.79297 16.3124L1.79297 1.8124C1.79297 1.34296 2.17353 0.962402 2.64297 0.962402Z" fill="#445576"/>
<path d="M9.88413 14.2452C9.54113 13.9247 9.52288 13.3868 9.84338 13.0438L12.5069 10.1932L7.39301 10.1932C6.92357 10.1932 6.54301 9.81267 6.54301 9.34323C6.54301 8.87379 6.92357 8.49323 7.39301 8.49323L12.5069 8.49323L9.84339 5.64269C9.52288 5.29969 9.54113 4.76181 9.88413 4.4413C10.2271 4.1208 10.765 4.13904 11.0855 4.48205L15.0855 8.76291C15.3908 9.08958 15.3908 9.59688 15.0855 9.92355L11.0855 14.2044C10.765 14.5474 10.2271 14.5657 9.88413 14.2452Z" fill="#445576"/>
</svg>
