<svg width="33" height="29" viewBox="0 0 33 29" fill="none" xmlns="http://www.w3.org/2000/svg">
<path d="M9.39883 15.6998C10.7322 16.1665 11.7655 16.9331 12.4988 17.9998C13.2322 19.0665 13.5988 20.3665 13.5988 21.8998C13.5988 23.8998 12.9655 25.5331 11.6988 26.7998C10.4322 28.0665 8.86549 28.6998 6.99883 28.6998C5.0655 28.6998 3.46549 28.0665 2.19883 26.7998C0.932161 25.4665 0.298828 23.8331 0.298828 21.8998C0.298828 20.9665 0.398828 20.0331 0.598828 19.0998C0.865495 18.0998 1.36549 16.6665 2.09883 14.7998L6.79883 0.799805H13.0988L9.39883 15.6998ZM28.2988 15.6998C29.6322 16.1665 30.6655 16.9331 31.3988 17.9998C32.1322 19.0665 32.4988 20.3665 32.4988 21.8998C32.4988 23.8998 31.8655 25.5331 30.5988 26.7998C29.3322 28.0665 27.7655 28.6998 25.8988 28.6998C23.9655 28.6998 22.3655 28.0665 21.0988 26.7998C19.8322 25.4665 19.1988 23.8331 19.1988 21.8998C19.1988 20.9665 19.2988 20.0331 19.4988 19.0998C19.7655 18.0998 20.2655 16.6665 20.9988 14.7998L25.6988 0.799805H31.9988L28.2988 15.6998Z" fill="white"/>
</svg>
