<svg width="16" height="16" viewBox="0 0 16 16" fill="none" xmlns="http://www.w3.org/2000/svg">
<path fill-rule="evenodd" clip-rule="evenodd" d="M2.78149 5.9438C2.35592 5.9438 2.01094 6.28878 2.01094 6.71435V13.0688C2.01094 13.6763 2.50342 14.1688 3.11094 14.1688H9.10584C9.55139 14.1688 9.91257 13.8076 9.91257 13.3621H11.7126C11.7126 14.8018 10.5455 15.9688 9.10584 15.9688H3.11094C1.50931 15.9688 0.210938 14.6704 0.210938 13.0688V6.71435C0.210938 5.29467 1.36181 4.1438 2.78149 4.1438V5.9438Z" fill="#445576"/>
<path fill-rule="evenodd" clip-rule="evenodd" d="M7.18743 11.8562C5.5858 11.8562 4.28743 10.5578 4.28743 8.9562L4.28743 2.93118C4.28743 1.32955 5.5858 0.0311747 7.18743 0.0311749L12.8891 0.0311754C14.4907 0.0311755 15.7891 1.32955 15.7891 2.93118L15.7891 8.9562C15.7891 10.5578 14.4907 11.8562 12.8891 11.8562L7.18743 11.8562ZM7.18743 10.0562L12.8891 10.0562C13.4966 10.0562 13.9891 9.56371 13.9891 8.9562L13.9891 2.93118C13.9891 2.32366 13.4966 1.83118 12.8891 1.83118L7.18743 1.83118C6.57991 1.83117 6.08743 2.32366 6.08743 2.93118L6.08743 8.9562C6.08743 9.56371 6.57991 10.0562 7.18743 10.0562Z" fill="#445576"/>
</svg>
