<svg width="16" height="16" viewBox="0 0 16 16" fill="none" xmlns="http://www.w3.org/2000/svg">
<path fill-rule="evenodd" clip-rule="evenodd" d="M3.34781 2.09994C3.34781 1.60288 3.75075 1.19994 4.24781 1.19994H6.99978C7.49683 1.19994 7.89978 1.60288 7.89978 2.09994C7.89978 2.597 7.49683 2.99994 6.99978 2.99994H4.24781C3.75075 2.99994 3.34781 2.597 3.34781 2.09994ZM0.302734 4.98054C0.302734 4.48349 0.705678 4.08054 1.20273 4.08054H10.1466C10.6437 4.08054 11.0466 4.48349 11.0466 4.98054C11.0466 5.4776 10.6437 5.88054 10.1466 5.88054H1.20273C0.705678 5.88054 0.302734 5.4776 0.302734 4.98054ZM2.57872 6.79504C3.07578 6.79504 3.47872 7.19799 3.47872 7.69504V11.6194H4.5892C5.08625 11.6194 5.4892 12.0224 5.4892 12.5194C5.4892 13.0165 5.08625 13.4194 4.5892 13.4194H2.57872C2.08166 13.4194 1.67872 13.0165 1.67872 12.5194V7.69504C1.67872 7.19799 2.08166 6.79504 2.57872 6.79504ZM8.77065 6.79504C9.26771 6.79504 9.67065 7.19799 9.67065 7.69504V9.99994C9.67065 10.497 9.26771 10.8999 8.77065 10.8999C8.27359 10.8999 7.87065 10.497 7.87065 9.99994V7.69504C7.87065 7.19799 8.27359 6.79504 8.77065 6.79504Z" fill="#445576"/>
<path d="M8.83225 14.4489H7.54703L7.30823 15.0394H6.43115L7.77282 12H8.6195L9.9655 15.0394H9.07106L8.83225 14.4489ZM8.58042 13.8149L8.18964 12.8423L7.79887 13.8149H8.58042Z" fill="#445576"/>
<path d="M10.4263 12H11.286V14.3577H12.7362V15.0394H10.4263V12Z" fill="#445576"/>
<path d="M13.2935 12H14.1532V14.3577H15.6035V15.0394H13.2935V12Z" fill="#445576"/>
</svg>
