<svg width="16" height="16" viewBox="0 0 16 16" fill="none" xmlns="http://www.w3.org/2000/svg">
<path fill-rule="evenodd" clip-rule="evenodd" d="M3.87402 0.0241699C2.21717 0.0241699 0.874023 1.36731 0.874023 3.02417V12.976C0.874023 14.6328 2.21717 15.976 3.87402 15.976H12.1255C13.7824 15.976 15.1255 14.6328 15.1255 12.976V8.00006C15.1255 7.04162 14.6761 6.18816 13.9764 5.63894L9.0529 0.928822C9.00477 0.879509 8.95495 0.831849 8.90354 0.785933L8.84888 0.733643V0.738284C8.32542 0.292921 7.64705 0.0241699 6.90592 0.0241699H3.87402ZM2.87402 3.02417C2.87402 2.47189 3.32174 2.02417 3.87402 2.02417H6.90592C7.4582 2.02417 7.90592 2.47189 7.90592 3.02417V4.00006C7.90592 5.65692 9.24907 7.00006 10.9059 7.00006H12.1255C12.6778 7.00006 13.1255 7.44778 13.1255 8.00006V12.976C13.1255 13.5282 12.6778 13.976 12.1255 13.976H3.87402C3.32174 13.976 2.87402 13.5282 2.87402 12.976V3.02417Z" fill="#ABC0DC"/>
<path fill-rule="evenodd" clip-rule="evenodd" d="M3.87402 0.0241699C2.21717 0.0241699 0.874023 1.36731 0.874023 3.02417V12.976C0.874023 14.6328 2.21717 15.976 3.87402 15.976H12.1255C13.7824 15.976 15.1255 14.6328 15.1255 12.976V8.00006C15.1255 7.04162 14.6761 6.18816 13.9764 5.63894L9.0529 0.928822C9.00477 0.879509 8.95495 0.831849 8.90354 0.785933L8.84888 0.733643V0.738284C8.32542 0.292921 7.64705 0.0241699 6.90592 0.0241699H3.87402ZM2.87402 3.02417C2.87402 2.47189 3.32174 2.02417 3.87402 2.02417H6.90592C7.4582 2.02417 7.90592 2.47189 7.90592 3.02417V4.00006C7.90592 5.65692 9.24907 7.00006 10.9059 7.00006H12.1255C12.6778 7.00006 13.1255 7.44778 13.1255 8.00006V12.976C13.1255 13.5282 12.6778 13.976 12.1255 13.976H3.87402C3.32174 13.976 2.87402 13.5282 2.87402 12.976V3.02417Z" fill="#7D9BC3"/>
</svg>
