<svg width="16" height="17" viewBox="0 0 16 17" fill="none" xmlns="http://www.w3.org/2000/svg">
<path fill-rule="evenodd" clip-rule="evenodd" d="M3.87402 0.050293C2.21717 0.050293 0.874023 1.39344 0.874023 3.05029V13.0021C0.874023 14.6589 2.21717 16.0021 3.87402 16.0021H12.1255C13.7824 16.0021 15.1255 14.6589 15.1255 13.0021V8.02618C15.1255 7.06774 14.6761 6.21428 13.9764 5.66506L9.0529 0.954945C9.00477 0.905632 8.95495 0.857972 8.90354 0.812056L8.84888 0.759766V0.764407C8.32542 0.319044 7.64705 0.050293 6.90592 0.050293H3.87402ZM2.87402 3.05029C2.87402 2.49801 3.32174 2.05029 3.87402 2.05029H6.90592C7.4582 2.05029 7.90592 2.49801 7.90592 3.05029V4.02618C7.90592 5.68304 9.24907 7.02618 10.9059 7.02618H12.1255C12.6778 7.02618 13.1255 7.4739 13.1255 8.02618V13.0021C13.1255 13.5544 12.6778 14.0021 12.1255 14.0021H3.87402C3.32174 14.0021 2.87402 13.5544 2.87402 13.0021V3.05029Z" fill="white"/>
</svg>
