<svg width="16" height="17" viewBox="0 0 16 17" fill="none" xmlns="http://www.w3.org/2000/svg">
<path fill-rule="evenodd" clip-rule="evenodd" d="M3.87402 0.986572C2.21717 0.986572 0.874023 2.32972 0.874023 3.98657V13.9384C0.874023 15.5952 2.21717 16.9384 3.87402 16.9384H12.1255C13.7824 16.9384 15.1255 15.5952 15.1255 13.9384V8.96246C15.1255 8.00402 14.6761 7.15056 13.9764 6.60134L9.0529 1.89122C9.00477 1.84191 8.95495 1.79425 8.90354 1.74834L8.84888 1.69604V1.70069C8.32542 1.25532 7.64705 0.986572 6.90592 0.986572H3.87402ZM2.87402 3.98657C2.87402 3.43429 3.32174 2.98657 3.87402 2.98657H6.90592C7.4582 2.98657 7.90592 3.43429 7.90592 3.98657V4.96246C7.90592 6.61932 9.24907 7.96246 10.9059 7.96246H12.1255C12.6778 7.96246 13.1255 8.41018 13.1255 8.96246V13.9384C13.1255 14.4906 12.6778 14.9384 12.1255 14.9384H3.87402C3.32174 14.9384 2.87402 14.4906 2.87402 13.9384V3.98657Z" fill="#445576"/>
</svg>
