<svg width="16" height="16" viewBox="0 0 16 16" fill="none" xmlns="http://www.w3.org/2000/svg">
<path fill-rule="evenodd" clip-rule="evenodd" d="M0.355879 5.65251C0.746402 5.26199 1.37957 5.26199 1.77009 5.65251L7.99982 11.8822L14.2295 5.65251C14.62 5.26199 15.2532 5.26199 15.6437 5.65251C16.0342 6.04304 16.0342 6.6762 15.6437 7.06673L8.70693 14.0035C8.31641 14.394 7.68325 14.394 7.29272 14.0035L0.355884 7.06673C-0.0346417 6.67621 -0.0346439 6.04304 0.355879 5.65251Z" fill="#ABC0DC"/>
<path fill-rule="evenodd" clip-rule="evenodd" d="M0.355879 5.65251C0.746402 5.26199 1.37957 5.26199 1.77009 5.65251L7.99982 11.8822L14.2295 5.65251C14.62 5.26199 15.2532 5.26199 15.6437 5.65251C16.0342 6.04304 16.0342 6.6762 15.6437 7.06673L8.70693 14.0035C8.31641 14.394 7.68325 14.394 7.29272 14.0035L0.355884 7.06673C-0.0346417 6.67621 -0.0346439 6.04304 0.355879 5.65251Z" fill="#7D9BC3"/>
<path fill-rule="evenodd" clip-rule="evenodd" d="M3.82414 1.99626C4.21466 1.60574 4.84783 1.60574 5.23835 1.99626L7.99967 4.75755L10.761 1.99626C11.1515 1.60574 11.7846 1.60574 12.1752 1.99626C12.5657 2.38679 12.5657 3.01995 12.1752 3.41048L8.70677 6.87887C8.31625 7.26939 7.68309 7.2694 7.29256 6.87887L3.82415 3.41048C3.43362 3.01996 3.43362 2.38679 3.82414 1.99626Z" fill="#ABC0DC"/>
<path fill-rule="evenodd" clip-rule="evenodd" d="M3.82414 1.99626C4.21466 1.60574 4.84783 1.60574 5.23835 1.99626L7.99967 4.75755L10.761 1.99626C11.1515 1.60574 11.7846 1.60574 12.1752 1.99626C12.5657 2.38679 12.5657 3.01995 12.1752 3.41048L8.70677 6.87887C8.31625 7.26939 7.68309 7.2694 7.29256 6.87887L3.82415 3.41048C3.43362 3.01996 3.43362 2.38679 3.82414 1.99626Z" fill="#7D9BC3"/>
</svg>
