<svg width="16" height="16" viewBox="0 0 16 16" fill="none" xmlns="http://www.w3.org/2000/svg">
<path fill-rule="evenodd" clip-rule="evenodd" d="M0.0253906 3.02417C0.0253906 1.36731 1.36854 0.0241699 3.02539 0.0241699H9.86406C10.4163 0.0241699 10.8641 0.471885 10.8641 1.02417C10.8641 1.57645 10.4163 2.02417 9.86406 2.02417H3.02539C2.47311 2.02417 2.02539 2.47189 2.02539 3.02417V12.976C2.02539 13.5282 2.47311 13.976 3.02539 13.976H12.9812C13.5335 13.976 13.9812 13.5282 13.9812 12.976V8.22509C13.9812 7.67281 14.4289 7.22509 14.9812 7.22509C15.5335 7.22509 15.9812 7.67281 15.9812 8.22509V12.976C15.9812 14.6328 14.638 15.976 12.9812 15.976H3.02539C1.36854 15.976 0.0253906 14.6328 0.0253906 12.976V3.02417Z" fill="#ABC0DC"/>
<path fill-rule="evenodd" clip-rule="evenodd" d="M0.0253906 3.02417C0.0253906 1.36731 1.36854 0.0241699 3.02539 0.0241699H9.86406C10.4163 0.0241699 10.8641 0.471885 10.8641 1.02417C10.8641 1.57645 10.4163 2.02417 9.86406 2.02417H3.02539C2.47311 2.02417 2.02539 2.47189 2.02539 3.02417V12.976C2.02539 13.5282 2.47311 13.976 3.02539 13.976H12.9812C13.5335 13.976 13.9812 13.5282 13.9812 12.976V8.22509C13.9812 7.67281 14.4289 7.22509 14.9812 7.22509C15.5335 7.22509 15.9812 7.67281 15.9812 8.22509V12.976C15.9812 14.6328 14.638 15.976 12.9812 15.976H3.02539C1.36854 15.976 0.0253906 14.6328 0.0253906 12.976V3.02417Z" fill="#7D9BC3"/>
<path fill-rule="evenodd" clip-rule="evenodd" d="M4.74694 6.10471C4.74694 5.55242 5.19465 5.10471 5.74694 5.10471H10.2596C10.8119 5.10471 11.2596 5.55242 11.2596 6.10471C11.2596 6.65699 10.8119 7.10471 10.2596 7.10471H5.74694C5.19465 7.10471 4.74694 6.65699 4.74694 6.10471Z" fill="#ABC0DC"/>
<path fill-rule="evenodd" clip-rule="evenodd" d="M4.74694 6.10471C4.74694 5.55242 5.19465 5.10471 5.74694 5.10471H10.2596C10.8119 5.10471 11.2596 5.55242 11.2596 6.10471C11.2596 6.65699 10.8119 7.10471 10.2596 7.10471H5.74694C5.19465 7.10471 4.74694 6.65699 4.74694 6.10471Z" fill="#7D9BC3"/>
<path fill-rule="evenodd" clip-rule="evenodd" d="M4.74694 10.6053C4.74694 10.053 5.19465 9.60526 5.74694 9.60526H10.2596C10.8119 9.60526 11.2596 10.053 11.2596 10.6053C11.2596 11.1575 10.8119 11.6053 10.2596 11.6053H5.74694C5.19465 11.6053 4.74694 11.1575 4.74694 10.6053Z" fill="#ABC0DC"/>
<path fill-rule="evenodd" clip-rule="evenodd" d="M4.74694 10.6053C4.74694 10.053 5.19465 9.60526 5.74694 9.60526H10.2596C10.8119 9.60526 11.2596 10.053 11.2596 10.6053C11.2596 11.1575 10.8119 11.6053 10.2596 11.6053H5.74694C5.19465 11.6053 4.74694 11.1575 4.74694 10.6053Z" fill="#7D9BC3"/>
</svg>
