<svg width="16" height="16" viewBox="0 0 16 16" fill="none" xmlns="http://www.w3.org/2000/svg">
<path fill-rule="evenodd" clip-rule="evenodd" d="M0.0869141 4.5001C0.0869141 4.00304 0.489858 3.6001 0.986914 3.6001H14.9718C15.4689 3.6001 15.8718 4.00304 15.8718 4.5001C15.8718 4.99715 15.4689 5.4001 14.9718 5.4001H0.986914C0.489858 5.4001 0.0869141 4.99715 0.0869141 4.5001ZM2.20584 8.0001C2.20584 7.50304 2.60878 7.1001 3.10584 7.1001H12.4291C12.9261 7.1001 13.3291 7.50304 13.3291 8.0001C13.3291 8.49715 12.9261 8.9001 12.4291 8.9001H3.10584C2.60878 8.9001 2.20584 8.49715 2.20584 8.0001ZM4.74854 11.5001C4.74854 11.003 5.15149 10.6001 5.64854 10.6001H9.88638C10.3834 10.6001 10.7864 11.003 10.7864 11.5001C10.7864 11.9972 10.3834 12.4001 9.88638 12.4001H5.64854C5.15149 12.4001 4.74854 11.9972 4.74854 11.5001Z" fill="#ABC0DC"/>
<path fill-rule="evenodd" clip-rule="evenodd" d="M0.0869141 4.5001C0.0869141 4.00304 0.489858 3.6001 0.986914 3.6001H14.9718C15.4689 3.6001 15.8718 4.00304 15.8718 4.5001C15.8718 4.99715 15.4689 5.4001 14.9718 5.4001H0.986914C0.489858 5.4001 0.0869141 4.99715 0.0869141 4.5001ZM2.20584 8.0001C2.20584 7.50304 2.60878 7.1001 3.10584 7.1001H12.4291C12.9261 7.1001 13.3291 7.50304 13.3291 8.0001C13.3291 8.49715 12.9261 8.9001 12.4291 8.9001H3.10584C2.60878 8.9001 2.20584 8.49715 2.20584 8.0001ZM4.74854 11.5001C4.74854 11.003 5.15149 10.6001 5.64854 10.6001H9.88638C10.3834 10.6001 10.7864 11.003 10.7864 11.5001C10.7864 11.9972 10.3834 12.4001 9.88638 12.4001H5.64854C5.15149 12.4001 4.74854 11.9972 4.74854 11.5001Z" fill="#7D9BC3"/>
</svg>
