<svg width="16" height="16" viewBox="0 0 16 16" fill="none" xmlns="http://www.w3.org/2000/svg">
<path fill-rule="evenodd" clip-rule="evenodd" d="M11.4859 3.60167H4.45755C3.387 3.60167 2.51915 4.46952 2.51915 5.54007V10.4599C2.51915 11.5305 3.387 12.3983 4.45755 12.3983H11.4859C12.5565 12.3983 13.4243 11.5305 13.4243 10.4599V5.54007C13.4243 4.46952 12.5565 3.60167 11.4859 3.60167ZM4.45755 2.02588C2.51672 2.02588 0.943359 3.59923 0.943359 5.54007V10.4599C0.943359 12.4008 2.51672 13.9741 4.45755 13.9741H11.4859C13.4268 13.9741 15.0001 12.4008 15.0001 10.4599V5.54007C15.0001 3.59924 13.4268 2.02588 11.4859 2.02588H4.45755Z" fill="#ABC0DC"/>
<path fill-rule="evenodd" clip-rule="evenodd" d="M11.4859 3.60167H4.45755C3.387 3.60167 2.51915 4.46952 2.51915 5.54007V10.4599C2.51915 11.5305 3.387 12.3983 4.45755 12.3983H11.4859C12.5565 12.3983 13.4243 11.5305 13.4243 10.4599V5.54007C13.4243 4.46952 12.5565 3.60167 11.4859 3.60167ZM4.45755 2.02588C2.51672 2.02588 0.943359 3.59923 0.943359 5.54007V10.4599C0.943359 12.4008 2.51672 13.9741 4.45755 13.9741H11.4859C13.4268 13.9741 15.0001 12.4008 15.0001 10.4599V5.54007C15.0001 3.59924 13.4268 2.02588 11.4859 2.02588H4.45755Z" fill="#7D9BC3"/>
<path fill-rule="evenodd" clip-rule="evenodd" d="M1.92878 3.46777C2.18986 3.11966 2.68372 3.04911 3.03184 3.31019L7.95943 7.00589L12.6256 3.3221C12.9671 3.05247 13.4625 3.11076 13.7322 3.45229C14.0018 3.79383 13.9435 4.28928 13.602 4.55892L8.45997 8.61841C8.17943 8.83989 7.78495 8.84477 7.49901 8.63032L2.08636 4.57083C1.73824 4.30974 1.66769 3.81589 1.92878 3.46777Z" fill="#ABC0DC"/>
<path fill-rule="evenodd" clip-rule="evenodd" d="M1.92878 3.46777C2.18986 3.11966 2.68372 3.04911 3.03184 3.31019L7.95943 7.00589L12.6256 3.3221C12.9671 3.05247 13.4625 3.11076 13.7322 3.45229C14.0018 3.79383 13.9435 4.28928 13.602 4.55892L8.45997 8.61841C8.17943 8.83989 7.78495 8.84477 7.49901 8.63032L2.08636 4.57083C1.73824 4.30974 1.66769 3.81589 1.92878 3.46777Z" fill="#7D9BC3"/>
</svg>
