<svg width="16" height="17" viewBox="0 0 16 17" fill="none" xmlns="http://www.w3.org/2000/svg">
<path fill-rule="evenodd" clip-rule="evenodd" d="M8 14.0613C11.3137 14.0613 14 11.375 14 8.06128C14 4.74757 11.3137 2.06128 8 2.06128C4.68629 2.06128 2 4.74757 2 8.06128C2 11.375 4.68629 14.0613 8 14.0613ZM8 15.5613C12.1421 15.5613 15.5 12.2034 15.5 8.06128C15.5 3.91914 12.1421 0.561279 8 0.561279C3.85786 0.561279 0.5 3.91914 0.5 8.06128C0.5 12.2034 3.85786 15.5613 8 15.5613Z" fill="white"/>
<path fill-rule="evenodd" clip-rule="evenodd" d="M15.5 8.06128C15.5 12.2034 12.1421 15.5613 8 15.5613C3.85786 15.5613 0.5 12.2034 0.5 8.06128C0.5 3.91914 3.85786 0.561279 8 0.561279C12.1421 0.561279 15.5 3.91914 15.5 8.06128ZM8 14.0613C11.3137 14.0613 14 11.375 14 8.06128C14 4.74757 11.3137 2.06128 8 2.06128C4.68629 2.06128 2 4.74757 2 8.06128C2 11.375 4.68629 14.0613 8 14.0613Z" fill="white"/>
<path fill-rule="evenodd" clip-rule="evenodd" d="M3.71055 10.5098C3.91153 10.1476 4.36806 10.0169 4.73025 10.2179C5.69825 10.755 6.8123 11.0612 8.0001 11.0612C9.18791 11.0612 10.302 10.755 11.27 10.2179C11.6321 10.0169 12.0887 10.1476 12.2897 10.5098C12.4906 10.872 12.36 11.3285 11.9978 11.5295C10.8128 12.187 9.44902 12.5612 8.0001 12.5612C6.55119 12.5612 5.18742 12.187 4.00244 11.5295C3.64026 11.3285 3.50957 10.872 3.71055 10.5098Z" fill="white"/>
<path fill-rule="evenodd" clip-rule="evenodd" d="M4.73025 10.2179C4.36806 10.0169 3.91153 10.1476 3.71055 10.5098C3.50957 10.872 3.64026 11.3285 4.00244 11.5295C5.18743 12.187 6.55121 12.5612 8.0001 12.5612C9.44877 12.5612 10.8123 12.1871 11.9972 11.5298C11.9972 11.5298 11.9973 11.5297 11.9973 11.5297C11.9975 11.5296 11.9976 11.5296 11.9978 11.5295C12.36 11.3285 12.4906 10.872 12.2897 10.5098C12.0887 10.1476 11.6321 10.0169 11.27 10.2179C10.3019 10.755 9.1879 11.0612 8.0001 11.0612C6.81231 11.0612 5.69826 10.755 4.73025 10.2179Z" fill="white"/>
<path d="M11.75 6.18628C11.75 6.70405 11.3303 7.12378 10.8125 7.12378C10.2947 7.12378 9.875 6.70405 9.875 6.18628C9.875 5.66851 10.2947 5.24878 10.8125 5.24878C11.3303 5.24878 11.75 5.66851 11.75 6.18628Z" fill="white"/>
<path d="M6.125 6.18628C6.125 6.70405 5.70527 7.12378 5.1875 7.12378C4.66973 7.12378 4.25 6.70405 4.25 6.18628C4.25 5.66851 4.66973 5.24878 5.1875 5.24878C5.70527 5.24878 6.125 5.66851 6.125 6.18628Z" fill="white"/>
</svg>
