<svg width="16" height="16" viewBox="0 0 16 16" fill="none" xmlns="http://www.w3.org/2000/svg">
<path fill-rule="evenodd" clip-rule="evenodd" d="M8 14C11.3137 14 14 11.3137 14 8C14 4.68629 11.3137 2 8 2C4.68629 2 2 4.68629 2 8C2 11.3137 4.68629 14 8 14ZM8 15.5C12.1421 15.5 15.5 12.1421 15.5 8C15.5 3.85786 12.1421 0.5 8 0.5C3.85786 0.5 0.5 3.85786 0.5 8C0.5 12.1421 3.85786 15.5 8 15.5Z" fill="#445576"/>
<path fill-rule="evenodd" clip-rule="evenodd" d="M15.5 8C15.5 12.1421 12.1421 15.5 8 15.5C3.85786 15.5 0.5 12.1421 0.5 8C0.5 3.85786 3.85786 0.5 8 0.5C12.1421 0.5 15.5 3.85786 15.5 8ZM8 14C11.3137 14 14 11.3137 14 8C14 4.68629 11.3137 2 8 2C4.68629 2 2 4.68629 2 8C2 11.3137 4.68629 14 8 14Z" fill="#445576"/>
<path fill-rule="evenodd" clip-rule="evenodd" d="M3.71055 10.4485C3.91153 10.0863 4.36806 9.95561 4.73025 10.1566C5.69825 10.6937 6.8123 10.9999 8.0001 10.9999C9.18791 10.9999 10.302 10.6937 11.27 10.1566C11.6321 9.95561 12.0887 10.0863 12.2897 10.4485C12.4906 10.8107 12.36 11.2672 11.9978 11.4682C10.8128 12.1257 9.44902 12.4999 8.0001 12.4999C6.55119 12.4999 5.18742 12.1257 4.00244 11.4682C3.64026 11.2672 3.50957 10.8107 3.71055 10.4485Z" fill="#445576"/>
<path fill-rule="evenodd" clip-rule="evenodd" d="M4.73025 10.1566C4.36806 9.95561 3.91153 10.0863 3.71055 10.4485C3.50957 10.8107 3.64026 11.2672 4.00244 11.4682C5.18743 12.1257 6.55121 12.4999 8.0001 12.4999C9.44877 12.4999 10.8123 12.1259 11.9972 11.4685C11.9972 11.4685 11.9973 11.4685 11.9973 11.4684C11.9975 11.4684 11.9976 11.4683 11.9978 11.4682C12.36 11.2672 12.4906 10.8107 12.2897 10.4485C12.0887 10.0863 11.6321 9.95561 11.27 10.1566C10.3019 10.6937 9.1879 10.9999 8.0001 10.9999C6.81231 10.9999 5.69826 10.6937 4.73025 10.1566Z" fill="#445576"/>
<path d="M11.75 6.125C11.75 6.64277 11.3303 7.0625 10.8125 7.0625C10.2947 7.0625 9.875 6.64277 9.875 6.125C9.875 5.60723 10.2947 5.1875 10.8125 5.1875C11.3303 5.1875 11.75 5.60723 11.75 6.125Z" fill="#445576"/>
<path d="M6.125 6.125C6.125 6.64277 5.70527 7.0625 5.1875 7.0625C4.66973 7.0625 4.25 6.64277 4.25 6.125C4.25 5.60723 4.66973 5.1875 5.1875 5.1875C5.70527 5.1875 6.125 5.60723 6.125 6.125Z" fill="#445576"/>
</svg>
