<svg width="16" height="16" viewBox="0 0 16 16" fill="none" xmlns="http://www.w3.org/2000/svg">
<path fill-rule="evenodd" clip-rule="evenodd" d="M3.40578 3.45412C3.80216 3.72927 3.90043 4.27366 3.62528 4.67004C3.07088 5.4687 2.74981 6.42472 2.74981 7.45315C2.74981 10.203 5.07075 12.4859 8.00127 12.4859C10.9318 12.4859 13.2527 10.203 13.2527 7.45315C13.2527 6.42472 12.9317 5.4687 12.3773 4.67004C12.1021 4.27366 12.2004 3.72927 12.5968 3.45412C12.9931 3.17896 13.5375 3.27723 13.8127 3.67361C14.5613 4.75201 15.0001 6.05322 15.0001 7.45315C15.0001 11.2274 11.8364 14.2332 8.00127 14.2332C4.16614 14.2332 1.00244 11.2274 1.00244 7.45315C1.00244 6.05322 1.44127 4.75201 2.18986 3.67361C2.46501 3.27723 3.0094 3.17896 3.40578 3.45412Z" fill="white"/>
<path fill-rule="evenodd" clip-rule="evenodd" d="M8.00126 1.76685C8.48378 1.76685 8.87495 2.15801 8.87495 2.64053V8.00003C8.87495 8.48256 8.48378 8.87372 8.00126 8.87372C7.51874 8.87372 7.12757 8.48256 7.12757 8.00003V2.64053C7.12757 2.15801 7.51874 1.76685 8.00126 1.76685Z" fill="white"/>
</svg>
