<svg width="16" height="16" viewBox="0 0 16 16" fill="none" xmlns="http://www.w3.org/2000/svg">
<path fill-rule="evenodd" clip-rule="evenodd" d="M8.36075 2.05024C7.86369 2.05024 7.46075 1.6473 7.46075 1.15024C7.46075 0.653188 7.86369 0.250244 8.36075 0.250244H14.85C15.3471 0.250244 15.75 0.653188 15.75 1.15024V7.36912C15.75 7.86618 15.3471 8.26912 14.85 8.26912C14.353 8.26912 13.95 7.86618 13.95 7.36912V3.32304L3.33696 13.9361L8.35512 13.9047C8.85217 13.9016 9.25762 14.3021 9.26073 14.7991C9.26383 15.2961 8.86342 15.7016 8.36637 15.7047L1.15611 15.7498C0.916447 15.7513 0.686084 15.6571 0.516084 15.4882C0.346083 15.3192 0.250488 15.0894 0.250488 14.8498V7.86483C0.250488 7.36777 0.653432 6.96483 1.15049 6.96483C1.64754 6.96483 2.05049 7.36777 2.05049 7.86483V12.677L12.6772 2.05024H8.36075Z" fill="#445576"/>
</svg>
