<svg width="16" height="16" viewBox="0 0 16 16" fill="none" xmlns="http://www.w3.org/2000/svg">
<path fill-rule="evenodd" clip-rule="evenodd" d="M0.748535 7.5C0.748535 6.25736 1.75589 5.25 2.99854 5.25C4.24118 5.25 5.24854 6.25736 5.24854 7.5V11.5C5.24854 12.7426 4.24118 13.75 2.99854 13.75C1.75589 13.75 0.748535 12.7426 0.748535 11.5V7.5ZM2.99854 6.75C2.58432 6.75 2.24854 7.08579 2.24854 7.5V11.5C2.24854 11.9142 2.58432 12.25 2.99854 12.25C3.41275 12.25 3.74854 11.9142 3.74854 11.5V7.5C3.74854 7.08579 3.41275 6.75 2.99854 6.75Z" fill="white"/>
<path fill-rule="evenodd" clip-rule="evenodd" d="M8.36473 0.75H9.00008C9.49915 0.75 10.266 0.863714 10.8813 1.27776C11.2023 1.49374 11.5006 1.80511 11.6711 2.23706C11.8425 2.67117 11.8582 3.15967 11.7277 3.6819L11.7249 3.69293L11.7218 3.70387C11.616 4.07867 11.5118 4.42821 11.4153 4.74081C11.3527 4.94317 11.5126 5.12864 11.6813 5.12864H13.0372C14.1658 5.12864 14.9993 6.18126 14.7405 7.27985L13.4599 12.7172C13.255 13.587 12.4277 14.1627 11.5409 14.0526L6.40768 13.4154C5.99663 13.3644 5.70476 12.9898 5.75579 12.5787C5.80682 12.1677 6.18141 11.8758 6.59247 11.9268L11.7257 12.564C11.8524 12.5798 11.9705 12.4975 11.9998 12.3733L13.2805 6.93595C13.3175 6.77901 13.1984 6.62864 13.0372 6.62864H11.6813C10.4598 6.62864 9.63429 5.42402 9.98207 4.29812C10.0744 3.9993 10.1739 3.66554 10.275 3.30798C10.3412 3.0364 10.3114 2.87772 10.2759 2.78794C10.2392 2.69489 10.1687 2.60626 10.0439 2.52224C9.92511 2.44233 9.77738 2.38082 9.62098 2.33666L9.34524 3.99109C9.25101 4.55645 8.98249 5.07825 8.5772 5.48354L7.03041 7.03033C6.73752 7.32322 6.26264 7.32322 5.96975 7.03033C5.67685 6.73744 5.67685 6.26256 5.96975 5.96967L7.51654 4.42288C7.70076 4.23865 7.82282 4.00148 7.86565 3.74449L8.36473 0.75Z" fill="white"/>
</svg>
