<svg width="16" height="16" viewBox="0 0 16 16" fill="none" xmlns="http://www.w3.org/2000/svg">
<path fill-rule="evenodd" clip-rule="evenodd" d="M0.100098 3.98596C0.100098 2.73193 1.11669 1.71533 2.37073 1.71533H6.44712C7.66669 1.71533 8.65534 2.70398 8.65534 3.92355C8.65534 4.149 8.83811 4.33176 9.06356 4.33176H13.6295C14.8835 4.33176 15.9001 5.34836 15.9001 6.60239V12.6293C15.9001 13.8833 14.8835 14.8999 13.6295 14.8999H2.37073C1.11669 14.8999 0.100098 13.8833 0.100098 12.6293V3.98596ZM2.37073 3.51533C2.11081 3.51533 1.9001 3.72604 1.9001 3.98596V7.09995H14.1001V6.60239C14.1001 6.34247 13.8894 6.13176 13.6295 6.13176H9.06356C7.84399 6.13176 6.85534 5.14311 6.85534 3.92355C6.85534 3.6981 6.67258 3.51533 6.44712 3.51533H2.37073ZM14.1001 8.89995H1.9001V12.6293C1.9001 12.8892 2.11081 13.0999 2.37073 13.0999H13.6295C13.8894 13.0999 14.1001 12.8892 14.1001 12.6293V8.89995Z" fill="#445576"/>
</svg>
