<svg width="16" height="16" viewBox="0 0 16 16" fill="none" xmlns="http://www.w3.org/2000/svg">
<path d="M7.715 13.036C6.12833 13.036 4.893 12.5827 4.009 11.676C3.125 10.7693 2.683 9.466 2.683 7.766V1H4.383V7.698C4.383 10.248 5.49933 11.523 7.732 11.523C8.82 11.523 9.653 11.2113 10.231 10.588C10.809 9.95333 11.098 8.99 11.098 7.698V1H12.747V7.766C12.747 9.47733 12.305 10.7863 11.421 11.693C10.537 12.5883 9.30167 13.036 7.715 13.036Z" fill="#ABC0DC"/>
<path d="M7.715 13.036C6.12833 13.036 4.893 12.5827 4.009 11.676C3.125 10.7693 2.683 9.466 2.683 7.766V1H4.383V7.698C4.383 10.248 5.49933 11.523 7.732 11.523C8.82 11.523 9.653 11.2113 10.231 10.588C10.809 9.95333 11.098 8.99 11.098 7.698V1H12.747V7.766C12.747 9.47733 12.305 10.7863 11.421 11.693C10.537 12.5883 9.30167 13.036 7.715 13.036Z" fill="#7D9BC3"/>
<path d="M1 14.6H14.107V15.45H1V14.6Z" fill="#ABC0DC"/>
<path d="M1 14.6H14.107V15.45H1V14.6Z" fill="#7D9BC3"/>
</svg>
