<svg width="16" height="17" viewBox="0 0 16 17" fill="none" xmlns="http://www.w3.org/2000/svg">
<path d="M12.4081 7.78128C13.2181 8.03461 13.8525 8.46128 14.3115 9.06128C14.7705 9.64795 15 10.3746 15 11.2413C15 12.4679 14.514 13.4146 13.5421 14.0813C12.5836 14.7346 11.1796 15.0613 9.33022 15.0613H2V1.06128H8.92523C10.6532 1.06128 11.9761 1.38795 12.8941 2.04128C13.8255 2.69461 14.2913 3.58128 14.2913 4.70128C14.2913 5.38128 14.1225 5.98795 13.785 6.52128C13.4611 7.05461 13.0021 7.47461 12.4081 7.78128ZM5.26012 3.50128V6.80128H8.52025C9.33022 6.80128 9.94444 6.66128 10.3629 6.38128C10.7814 6.10128 10.9907 5.68795 10.9907 5.14128C10.9907 4.59461 10.7814 4.18795 10.3629 3.92128C9.94444 3.64128 9.33022 3.50128 8.52025 3.50128H5.26012ZM9.08723 12.6213C9.95119 12.6213 10.5992 12.4813 11.0312 12.2013C11.4766 11.9213 11.6994 11.4879 11.6994 10.9013C11.6994 9.74128 10.8287 9.16128 9.08723 9.16128H5.26012V12.6213H9.08723Z" fill="white"/>
</svg>
