<svg width="16" height="16" viewBox="0 0 16 16" fill="none" xmlns="http://www.w3.org/2000/svg">
<path d="M12.4081 7.72C13.2181 7.97333 13.8525 8.4 14.3115 9C14.7705 9.58667 15 10.3133 15 11.18C15 12.4067 14.514 13.3533 13.5421 14.02C12.5836 14.6733 11.1796 15 9.33022 15H2V1H8.92523C10.6532 1 11.9761 1.32667 12.8941 1.98C13.8255 2.63333 14.2913 3.52 14.2913 4.64C14.2913 5.32 14.1225 5.92667 13.785 6.46C13.4611 6.99333 13.0021 7.41333 12.4081 7.72ZM5.26012 3.44V6.74H8.52025C9.33022 6.74 9.94444 6.6 10.3629 6.32C10.7814 6.04 10.9907 5.62667 10.9907 5.08C10.9907 4.53333 10.7814 4.12667 10.3629 3.86C9.94444 3.58 9.33022 3.44 8.52025 3.44H5.26012ZM9.08723 12.56C9.95119 12.56 10.5992 12.42 11.0312 12.14C11.4766 11.86 11.6994 11.4267 11.6994 10.84C11.6994 9.68 10.8287 9.1 9.08723 9.1H5.26012V12.56H9.08723Z" fill="#445576"/>
</svg>
