<svg width="16" height="16" viewBox="0 0 16 16" fill="none" xmlns="http://www.w3.org/2000/svg">
<path d="M16 15.1331L15.9037 15.2401C14.3197 15.1973 13.3637 15.1759 13.0355 15.1759C11.7226 15.1759 10.5026 15.1973 9.37525 15.2401L9.27893 15.1331V14.4589L9.38595 14.3411L10.3171 14.2876C10.7095 14.2662 10.9057 14.1271 10.9057 13.8702C10.9057 13.7204 10.8058 13.3851 10.606 12.8642L9.73913 10.606C8.75451 10.5918 7.74849 10.5846 6.72107 10.5846C6.16455 10.5846 5.3369 10.5918 4.23813 10.606L3.76722 11.9117C3.41048 12.9035 3.23211 13.5242 3.23211 13.7739C3.23211 14.045 3.39978 14.2056 3.73512 14.2555C3.92062 14.2841 4.2845 14.3126 4.82676 14.3411L4.93378 14.4482V15.1331L4.82676 15.2401C3.5068 15.1973 2.65775 15.1759 2.2796 15.1759C1.98707 15.1759 1.26288 15.1973 0.107023 15.2401L0 15.1438V14.4482L0.117726 14.3411C0.85262 14.2983 1.30212 14.1521 1.46622 13.9023C1.63746 13.6526 2.2689 12.165 3.36054 9.43947L6.15385 2.45084C6.36076 1.90858 6.67469 1.09164 7.09565 0H8.61538L14.2876 13.3458C14.5088 13.8524 14.7086 14.1378 14.887 14.202C15.1224 14.2876 15.4613 14.3304 15.9037 14.3304L16 14.4482V15.1331ZM9.21472 9.37525L6.92441 3.76722L4.73043 9.37525C5.3155 9.39666 6.07536 9.40736 7.01003 9.40736C7.91616 9.40736 8.65106 9.39666 9.21472 9.37525Z" fill="#ABC0DC"/>
<path d="M16 15.1331L15.9037 15.2401C14.3197 15.1973 13.3637 15.1759 13.0355 15.1759C11.7226 15.1759 10.5026 15.1973 9.37525 15.2401L9.27893 15.1331V14.4589L9.38595 14.3411L10.3171 14.2876C10.7095 14.2662 10.9057 14.1271 10.9057 13.8702C10.9057 13.7204 10.8058 13.3851 10.606 12.8642L9.73913 10.606C8.75451 10.5918 7.74849 10.5846 6.72107 10.5846C6.16455 10.5846 5.3369 10.5918 4.23813 10.606L3.76722 11.9117C3.41048 12.9035 3.23211 13.5242 3.23211 13.7739C3.23211 14.045 3.39978 14.2056 3.73512 14.2555C3.92062 14.2841 4.2845 14.3126 4.82676 14.3411L4.93378 14.4482V15.1331L4.82676 15.2401C3.5068 15.1973 2.65775 15.1759 2.2796 15.1759C1.98707 15.1759 1.26288 15.1973 0.107023 15.2401L0 15.1438V14.4482L0.117726 14.3411C0.85262 14.2983 1.30212 14.1521 1.46622 13.9023C1.63746 13.6526 2.2689 12.165 3.36054 9.43947L6.15385 2.45084C6.36076 1.90858 6.67469 1.09164 7.09565 0H8.61538L14.2876 13.3458C14.5088 13.8524 14.7086 14.1378 14.887 14.202C15.1224 14.2876 15.4613 14.3304 15.9037 14.3304L16 14.4482V15.1331ZM9.21472 9.37525L6.92441 3.76722L4.73043 9.37525C5.3155 9.39666 6.07536 9.40736 7.01003 9.40736C7.91616 9.40736 8.65106 9.39666 9.21472 9.37525Z" fill="#7D9BC3"/>
</svg>
