<svg width="16" height="16" viewBox="0 0 16 16" fill="none" xmlns="http://www.w3.org/2000/svg">
<path fill-rule="evenodd" clip-rule="evenodd" d="M6.92904 2.01427C6.65537 2.12762 6.47694 2.39467 6.47694 2.69088V4.85032C5.58209 4.95883 4.29755 5.26871 3.10941 5.99193C1.48873 6.97843 0.0657497 8.73104 0.0657497 11.6542C0.0657497 11.9632 0.259694 12.2389 0.5505 12.3434C0.841306 12.4479 1.1664 12.3586 1.36304 12.1202C2.88744 10.2725 4.99944 10.2229 6.47694 10.3063V12.6708C6.47694 12.967 6.65537 13.2341 6.92904 13.3474C7.20271 13.4608 7.51771 13.3981 7.72717 13.1887L12.7171 8.19871C13.0031 7.91271 13.0031 7.449 12.7171 7.16299L7.72717 2.17302C7.51771 1.96357 7.20271 1.90091 6.92904 2.01427ZM11.1636 7.68085L7.94167 10.9027V9.62083C7.94167 9.23507 7.64245 8.91545 7.25753 8.89005C7.18297 8.88513 7.1013 8.87902 7.01316 8.87243C5.89541 8.78886 3.7356 8.62738 1.79869 9.81705C2.19894 8.57552 2.99938 7.77365 3.871 7.2431C5.15993 6.45853 6.62195 6.26578 7.20931 6.26578C7.61378 6.26578 7.94167 5.93789 7.94167 5.53342V4.45897L11.1636 7.68085Z" fill="white"/>
<path fill-rule="evenodd" clip-rule="evenodd" d="M11.591 3.62686C11.3322 3.87559 11.324 4.28707 11.5727 4.54592C11.8107 4.79358 12.0487 5.04117 12.2866 5.28871C13.0126 6.04401 13.7382 6.79892 14.4625 7.55461C14.4729 7.56562 14.4828 7.57644 14.4924 7.58728C14.4732 7.61126 14.4535 7.63394 14.4302 7.65819L14.4292 7.6592C13.5441 8.58391 12.6578 9.50656 11.77 10.4308L11.5726 10.6363C11.324 10.8952 11.3322 11.3067 11.5911 11.5553C11.85 11.804 12.2615 11.7957 12.5102 11.5368L12.7075 11.3314C13.5952 10.4073 14.4823 9.48376 15.3683 8.55814C15.4872 8.43424 15.6054 8.27148 15.6815 8.16673C15.7034 8.13661 15.7218 8.11129 15.7357 8.09307C15.8222 7.97974 15.8691 7.84109 15.8691 7.69849V7.45496C15.8691 7.30627 15.8182 7.16112 15.7247 7.04547C15.7095 7.02661 15.6908 7.0028 15.6696 6.97571C15.5997 6.88642 15.5017 6.76134 15.4049 6.65919L15.4024 6.65653C14.677 5.89968 13.9501 5.14341 13.2235 4.38752C12.9857 4.14004 12.7478 3.8926 12.5101 3.6452C12.2614 3.38634 11.8499 3.37813 11.591 3.62686Z" fill="white"/>
</svg>
