<svg width="16" height="16" viewBox="0 0 16 16" fill="none" xmlns="http://www.w3.org/2000/svg">
<path fill-rule="evenodd" clip-rule="evenodd" d="M9.07096 2.01427C9.34462 2.12762 9.52306 2.39467 9.52306 2.69088V4.85032C10.4179 4.95883 11.7025 5.26871 12.8906 5.99193C14.5113 6.97843 15.9342 8.73104 15.9342 11.6542C15.9342 11.9632 15.7403 12.2389 15.4495 12.3434C15.1587 12.4479 14.8336 12.3586 14.637 12.1202C13.1126 10.2725 11.0006 10.2229 9.52306 10.3063V12.6708C9.52306 12.967 9.34462 13.2341 9.07096 13.3474C8.79729 13.4608 8.48229 13.3981 8.27283 13.1887L3.28286 8.19871C2.99686 7.91271 2.99686 7.449 3.28286 7.16299L8.27283 2.17302C8.48229 1.96357 8.79729 1.90091 9.07096 2.01427ZM4.83645 7.68085L8.05833 10.9027V9.62083C8.05833 9.23507 8.35755 8.91545 8.74247 8.89005C8.81703 8.88513 8.8987 8.87902 8.98684 8.87243C10.1046 8.78886 12.2644 8.62738 14.2013 9.81705C13.8011 8.57552 13.0006 7.77365 12.129 7.2431C10.8401 6.45853 9.37805 6.26578 8.79069 6.26578C8.38622 6.26578 8.05833 5.93789 8.05833 5.53342V4.45897L4.83645 7.68085Z" fill="white"/>
<path fill-rule="evenodd" clip-rule="evenodd" d="M4.40895 3.62686C4.6678 3.87559 4.67601 4.28707 4.42729 4.54592C4.18931 4.79358 3.95134 5.04117 3.71341 5.28871C2.98743 6.04401 2.26182 6.79892 1.53755 7.55461C1.52713 7.56563 1.51724 7.57644 1.50762 7.58728C1.52681 7.61126 1.54648 7.63394 1.56979 7.65819L1.57076 7.6592C2.45591 8.58391 3.34218 9.50656 4.23001 10.4308L4.42736 10.6363C4.67605 10.8952 4.66777 11.3067 4.40887 11.5553C4.14997 11.804 3.7385 11.7957 3.48982 11.5368L3.29252 11.3314C2.40478 10.4073 1.51769 9.48376 0.631658 8.55814C0.512754 8.43424 0.394564 8.27148 0.318505 8.16673C0.296633 8.13661 0.278245 8.11129 0.264326 8.09307C0.177757 7.97974 0.130859 7.84109 0.130859 7.69849V7.45496C0.130859 7.30627 0.181838 7.16112 0.275292 7.04547C0.290535 7.02661 0.309176 7.0028 0.330398 6.97571C0.400328 6.88642 0.498289 6.76134 0.595084 6.65919L0.597609 6.65653C1.32299 5.89968 2.04992 5.14341 2.77646 4.38752C3.01434 4.14004 3.25217 3.8926 3.4899 3.6452C3.73862 3.38634 4.1501 3.37813 4.40895 3.62686Z" fill="white"/>
</svg>
