<svg width="16" height="16" viewBox="0 0 16 16" fill="none" xmlns="http://www.w3.org/2000/svg">
<path d="M2.66748 5.29412C4.32401 1.8853 9.13831 0.905029 12.0437 3.38417C12.199 3.51698 12.2184 3.59287 12.0567 3.73833C11.5713 4.18736 11.1054 4.65536 10.6395 5.12336C10.536 5.23087 10.4713 5.26249 10.3354 5.14866C8.64006 3.72568 5.80583 4.2759 4.78344 6.60325C4.75109 6.67915 4.71873 6.76136 4.68638 6.83725C4.55049 6.8752 4.46637 6.76769 4.37578 6.70444C3.87106 6.31233 3.35986 5.93287 2.85513 5.54077C2.77101 5.47752 2.69336 5.40795 2.66748 5.29412Z" fill="white"/>
<path d="M4.68614 9.14571C5.15204 10.3157 5.95442 11.1379 7.20976 11.4794C8.28392 11.7703 9.29984 11.5869 10.2446 11.0304C10.5293 11.0936 10.704 11.3276 10.924 11.4857C11.2799 11.7387 11.6229 12.0043 11.9658 12.2763C12.0564 12.3458 12.1664 12.4027 12.1664 12.5419C11.3252 13.3261 10.3028 13.7245 9.1769 13.9143C6.5368 14.3633 3.82552 13.0162 2.6543 10.6699C2.71253 10.4928 2.88078 10.4296 3.01019 10.322C3.45668 9.96155 3.92258 9.62636 4.37554 9.27852C4.46613 9.20895 4.54378 9.10777 4.68614 9.14571Z" fill="white"/>
<path d="M12.1665 12.5354C11.6036 12.0991 11.0471 11.669 10.4841 11.2326C10.4 11.1694 10.3223 11.0935 10.2447 11.0302C10.7947 10.6128 11.2024 10.1006 11.39 9.43018C11.4483 9.2278 11.4094 9.17721 11.1959 9.17721C10.2706 9.18353 9.34525 9.17721 8.41992 9.18353C8.19344 9.18353 8.12873 9.12661 8.1352 8.89894C8.14814 8.29813 8.14814 7.69731 8.1352 7.0965C8.12873 6.90045 8.19344 6.84985 8.38756 6.84985C10.1412 6.85618 11.9012 6.85618 13.6548 6.84985C13.7972 6.84985 13.9007 6.85618 13.9266 7.03326C14.1854 9.13294 13.7972 11.0239 12.1665 12.5354Z" fill="white"/>
<path d="M4.68621 9.14571C4.01324 9.65165 3.3338 10.1576 2.66084 10.6635C1.7808 8.87376 1.77433 7.08398 2.67378 5.29419C3.34674 5.80646 4.01324 6.31873 4.68621 6.83733C4.44031 7.60257 4.44031 8.37414 4.68621 9.14571Z" fill="white"/>
<path d="M2.66748 5.29412C4.32401 1.8853 9.13831 0.905029 12.0437 3.38417C12.199 3.51698 12.2184 3.59287 12.0567 3.73833C11.5713 4.18736 11.1054 4.65536 10.6395 5.12336C10.536 5.23087 10.4713 5.26249 10.3354 5.14866C8.64006 3.72568 5.80583 4.2759 4.78344 6.60325C4.75109 6.67915 4.71873 6.76136 4.68638 6.83725C4.55049 6.8752 4.46637 6.76769 4.37578 6.70444C3.87106 6.31233 3.35986 5.93287 2.85513 5.54077C2.77101 5.47752 2.69336 5.40795 2.66748 5.29412Z" fill="white"/>
<path d="M4.68614 9.14571C5.15204 10.3157 5.95442 11.1379 7.20976 11.4794C8.28392 11.7703 9.29984 11.5869 10.2446 11.0304C10.5293 11.0936 10.704 11.3276 10.924 11.4857C11.2799 11.7387 11.6229 12.0043 11.9658 12.2763C12.0564 12.3458 12.1664 12.4027 12.1664 12.5419C11.3252 13.3261 10.3028 13.7245 9.1769 13.9143C6.5368 14.3633 3.82552 13.0162 2.6543 10.6699C2.71253 10.4928 2.88078 10.4296 3.01019 10.322C3.45668 9.96155 3.92258 9.62636 4.37554 9.27852C4.46613 9.20895 4.54378 9.10777 4.68614 9.14571Z" fill="white"/>
<path d="M12.1665 12.5354C11.6036 12.0991 11.0471 11.669 10.4841 11.2326C10.4 11.1694 10.3223 11.0935 10.2447 11.0302C10.7947 10.6128 11.2024 10.1006 11.39 9.43018C11.4483 9.2278 11.4094 9.17721 11.1959 9.17721C10.2706 9.18353 9.34525 9.17721 8.41992 9.18353C8.19344 9.18353 8.12873 9.12661 8.1352 8.89894C8.14814 8.29813 8.14814 7.69731 8.1352 7.0965C8.12873 6.90045 8.19344 6.84985 8.38756 6.84985C10.1412 6.85618 11.9012 6.85618 13.6548 6.84985C13.7972 6.84985 13.9007 6.85618 13.9266 7.03326C14.1854 9.13294 13.7972 11.0239 12.1665 12.5354Z" fill="white"/>
<path d="M4.68621 9.14571C4.01324 9.65165 3.3338 10.1576 2.66084 10.6635C1.7808 8.87376 1.77433 7.08398 2.67378 5.29419C3.34674 5.80646 4.01324 6.31873 4.68621 6.83733C4.44031 7.60257 4.44031 8.37414 4.68621 9.14571Z" fill="white"/>
</svg>
