<svg width="16" height="16" viewBox="0 0 16 16" fill="none" xmlns="http://www.w3.org/2000/svg">
<path fill-rule="evenodd" clip-rule="evenodd" d="M9.40342 2.73165C9.40342 1.44561 10.446 0.403076 11.732 0.403076H13.4821C14.7681 0.403076 15.8106 1.44561 15.8106 2.73165V15.5969H9.40342V2.73165ZM11.732 2.20308C11.4401 2.20308 11.2034 2.43973 11.2034 2.73165V13.7969H14.0106V2.73165C14.0106 2.43973 13.774 2.20308 13.4821 2.20308H11.732Z" fill="#ABC0DC"/>
<path fill-rule="evenodd" clip-rule="evenodd" d="M9.40342 2.73165C9.40342 1.44561 10.446 0.403076 11.732 0.403076H13.4821C14.7681 0.403076 15.8106 1.44561 15.8106 2.73165V15.5969H9.40342V2.73165ZM11.732 2.20308C11.4401 2.20308 11.2034 2.43973 11.2034 2.73165V13.7969H14.0106V2.73165C14.0106 2.43973 13.774 2.20308 13.4821 2.20308H11.732Z" fill="#7D9BC3"/>
<path fill-rule="evenodd" clip-rule="evenodd" d="M4.79615 6.97692C4.79615 5.69088 5.83869 4.64835 7.12472 4.64835H11.2034V15.597H4.79615V6.97692ZM7.12472 6.44835C6.8328 6.44835 6.59615 6.685 6.59615 6.97692V13.797H9.40336V6.44835H7.12472Z" fill="#ABC0DC"/>
<path fill-rule="evenodd" clip-rule="evenodd" d="M4.79615 6.97692C4.79615 5.69088 5.83869 4.64835 7.12472 4.64835H11.2034V15.597H4.79615V6.97692ZM7.12472 6.44835C6.8328 6.44835 6.59615 6.685 6.59615 6.97692V13.797H9.40336V6.44835H7.12472Z" fill="#7D9BC3"/>
<path fill-rule="evenodd" clip-rule="evenodd" d="M0.188965 11.5512C0.188965 10.2652 1.2315 9.22263 2.51754 9.22263H6.59618V15.5969H0.188965V11.5512ZM2.51754 11.0226C2.22561 11.0226 1.98896 11.2593 1.98896 11.5512V13.7969H4.79618V11.0226H2.51754Z" fill="#ABC0DC"/>
<path fill-rule="evenodd" clip-rule="evenodd" d="M0.188965 11.5512C0.188965 10.2652 1.2315 9.22263 2.51754 9.22263H6.59618V15.5969H0.188965V11.5512ZM2.51754 11.0226C2.22561 11.0226 1.98896 11.2593 1.98896 11.5512V13.7969H4.79618V11.0226H2.51754Z" fill="#7D9BC3"/>
</svg>
