<svg width="272" height="47" viewBox="0 0 272 47" fill="none" xmlns="http://www.w3.org/2000/svg">
<path d="M2 1C2 1.55228 1.55228 2 1 2C0.447715 2 0 1.55228 0 1C0 0.447715 0.447715 0 1 0C1.55228 0 2 0.447715 2 1Z" fill="white"/>
<path d="M12 1C12 1.55228 11.5523 2 11 2C10.4477 2 10 1.55228 10 1C10 0.447715 10.4477 0 11 0C11.5523 0 12 0.447715 12 1Z" fill="white"/>
<path d="M22 1C22 1.55228 21.5523 2 21 2C20.4477 2 20 1.55228 20 1C20 0.447715 20.4477 0 21 0C21.5523 0 22 0.447715 22 1Z" fill="white"/>
<path d="M32 1C32 1.55228 31.5523 2 31 2C30.4477 2 30 1.55228 30 1C30 0.447715 30.4477 0 31 0C31.5523 0 32 0.447715 32 1Z" fill="white"/>
<path d="M42 1C42 1.55228 41.5523 2 41 2C40.4477 2 40 1.55228 40 1C40 0.447715 40.4477 0 41 0C41.5523 0 42 0.447715 42 1Z" fill="white"/>
<path d="M52 1C52 1.55228 51.5523 2 51 2C50.4477 2 50 1.55228 50 1C50 0.447715 50.4477 0 51 0C51.5523 0 52 0.447715 52 1Z" fill="white"/>
<path d="M62 1C62 1.55228 61.5523 2 61 2C60.4477 2 60 1.55228 60 1C60 0.447715 60.4477 0 61 0C61.5523 0 62 0.447715 62 1Z" fill="white"/>
<path d="M72 1C72 1.55228 71.5523 2 71 2C70.4477 2 70 1.55228 70 1C70 0.447715 70.4477 0 71 0C71.5523 0 72 0.447715 72 1Z" fill="white"/>
<path d="M82 1C82 1.55228 81.5523 2 81 2C80.4477 2 80 1.55228 80 1C80 0.447715 80.4477 0 81 0C81.5523 0 82 0.447715 82 1Z" fill="white"/>
<path d="M92 1C92 1.55228 91.5523 2 91 2C90.4477 2 90 1.55228 90 1C90 0.447715 90.4477 0 91 0C91.5523 0 92 0.447715 92 1Z" fill="white"/>
<path d="M102 1C102 1.55228 101.552 2 101 2C100.448 2 100 1.55228 100 1C100 0.447715 100.448 0 101 0C101.552 0 102 0.447715 102 1Z" fill="white"/>
<path d="M112 1C112 1.55228 111.552 2 111 2C110.448 2 110 1.55228 110 1C110 0.447715 110.448 0 111 0C111.552 0 112 0.447715 112 1Z" fill="white"/>
<path d="M122 1C122 1.55228 121.552 2 121 2C120.448 2 120 1.55228 120 1C120 0.447715 120.448 0 121 0C121.552 0 122 0.447715 122 1Z" fill="white"/>
<path d="M132 1C132 1.55228 131.552 2 131 2C130.448 2 130 1.55228 130 1C130 0.447715 130.448 0 131 0C131.552 0 132 0.447715 132 1Z" fill="white"/>
<path d="M142 1C142 1.55228 141.552 2 141 2C140.448 2 140 1.55228 140 1C140 0.447715 140.448 0 141 0C141.552 0 142 0.447715 142 1Z" fill="white"/>
<path d="M152 1C152 1.55228 151.552 2 151 2C150.448 2 150 1.55228 150 1C150 0.447715 150.448 0 151 0C151.552 0 152 0.447715 152 1Z" fill="white"/>
<path d="M162 1C162 1.55228 161.552 2 161 2C160.448 2 160 1.55228 160 1C160 0.447715 160.448 0 161 0C161.552 0 162 0.447715 162 1Z" fill="white"/>
<path d="M172 1C172 1.55228 171.552 2 171 2C170.448 2 170 1.55228 170 1C170 0.447715 170.448 0 171 0C171.552 0 172 0.447715 172 1Z" fill="white"/>
<path d="M182 1C182 1.55228 181.552 2 181 2C180.448 2 180 1.55228 180 1C180 0.447715 180.448 0 181 0C181.552 0 182 0.447715 182 1Z" fill="white"/>
<path d="M192 1C192 1.55228 191.552 2 191 2C190.448 2 190 1.55228 190 1C190 0.447715 190.448 0 191 0C191.552 0 192 0.447715 192 1Z" fill="white"/>
<path d="M202 1C202 1.55228 201.552 2 201 2C200.448 2 200 1.55228 200 1C200 0.447715 200.448 0 201 0C201.552 0 202 0.447715 202 1Z" fill="white"/>
<path d="M212 1C212 1.55228 211.552 2 211 2C210.448 2 210 1.55228 210 1C210 0.447715 210.448 0 211 0C211.552 0 212 0.447715 212 1Z" fill="white"/>
<path d="M222 1C222 1.55228 221.552 2 221 2C220.448 2 220 1.55228 220 1C220 0.447715 220.448 0 221 0C221.552 0 222 0.447715 222 1Z" fill="white"/>
<path d="M232 1C232 1.55228 231.552 2 231 2C230.448 2 230 1.55228 230 1C230 0.447715 230.448 0 231 0C231.552 0 232 0.447715 232 1Z" fill="white"/>
<path d="M242 1C242 1.55228 241.552 2 241 2C240.448 2 240 1.55228 240 1C240 0.447715 240.448 0 241 0C241.552 0 242 0.447715 242 1Z" fill="white"/>
<path d="M252 1C252 1.55228 251.552 2 251 2C250.448 2 250 1.55228 250 1C250 0.447715 250.448 0 251 0C251.552 0 252 0.447715 252 1Z" fill="white"/>
<path d="M262 1C262 1.55228 261.552 2 261 2C260.448 2 260 1.55228 260 1C260 0.447715 260.448 0 261 0C261.552 0 262 0.447715 262 1Z" fill="white"/>
<path d="M272 1C272 1.55228 271.552 2 271 2C270.448 2 270 1.55228 270 1C270 0.447715 270.448 0 271 0C271.552 0 272 0.447715 272 1Z" fill="white"/>
<path d="M2 10C2 10.5523 1.55228 11 1 11C0.447715 11 0 10.5523 0 10C0 9.44771 0.447715 9 1 9C1.55228 9 2 9.44771 2 10Z" fill="white"/>
<path d="M12 10C12 10.5523 11.5523 11 11 11C10.4477 11 10 10.5523 10 10C10 9.44771 10.4477 9 11 9C11.5523 9 12 9.44771 12 10Z" fill="white"/>
<path d="M22 10C22 10.5523 21.5523 11 21 11C20.4477 11 20 10.5523 20 10C20 9.44771 20.4477 9 21 9C21.5523 9 22 9.44771 22 10Z" fill="white"/>
<path d="M32 10C32 10.5523 31.5523 11 31 11C30.4477 11 30 10.5523 30 10C30 9.44771 30.4477 9 31 9C31.5523 9 32 9.44771 32 10Z" fill="white"/>
<path d="M42 10C42 10.5523 41.5523 11 41 11C40.4477 11 40 10.5523 40 10C40 9.44771 40.4477 9 41 9C41.5523 9 42 9.44771 42 10Z" fill="white"/>
<path d="M52 10C52 10.5523 51.5523 11 51 11C50.4477 11 50 10.5523 50 10C50 9.44771 50.4477 9 51 9C51.5523 9 52 9.44771 52 10Z" fill="white"/>
<path d="M62 10C62 10.5523 61.5523 11 61 11C60.4477 11 60 10.5523 60 10C60 9.44771 60.4477 9 61 9C61.5523 9 62 9.44771 62 10Z" fill="white"/>
<path d="M72 10C72 10.5523 71.5523 11 71 11C70.4477 11 70 10.5523 70 10C70 9.44771 70.4477 9 71 9C71.5523 9 72 9.44771 72 10Z" fill="white"/>
<path d="M82 10C82 10.5523 81.5523 11 81 11C80.4477 11 80 10.5523 80 10C80 9.44771 80.4477 9 81 9C81.5523 9 82 9.44771 82 10Z" fill="white"/>
<path d="M92 10C92 10.5523 91.5523 11 91 11C90.4477 11 90 10.5523 90 10C90 9.44771 90.4477 9 91 9C91.5523 9 92 9.44771 92 10Z" fill="white"/>
<path d="M102 10C102 10.5523 101.552 11 101 11C100.448 11 100 10.5523 100 10C100 9.44771 100.448 9 101 9C101.552 9 102 9.44771 102 10Z" fill="white"/>
<path d="M112 10C112 10.5523 111.552 11 111 11C110.448 11 110 10.5523 110 10C110 9.44771 110.448 9 111 9C111.552 9 112 9.44771 112 10Z" fill="white"/>
<path d="M122 10C122 10.5523 121.552 11 121 11C120.448 11 120 10.5523 120 10C120 9.44771 120.448 9 121 9C121.552 9 122 9.44771 122 10Z" fill="white"/>
<path d="M132 10C132 10.5523 131.552 11 131 11C130.448 11 130 10.5523 130 10C130 9.44771 130.448 9 131 9C131.552 9 132 9.44771 132 10Z" fill="white"/>
<path d="M142 10C142 10.5523 141.552 11 141 11C140.448 11 140 10.5523 140 10C140 9.44771 140.448 9 141 9C141.552 9 142 9.44771 142 10Z" fill="white"/>
<path d="M152 10C152 10.5523 151.552 11 151 11C150.448 11 150 10.5523 150 10C150 9.44771 150.448 9 151 9C151.552 9 152 9.44771 152 10Z" fill="white"/>
<path d="M162 10C162 10.5523 161.552 11 161 11C160.448 11 160 10.5523 160 10C160 9.44771 160.448 9 161 9C161.552 9 162 9.44771 162 10Z" fill="white"/>
<path d="M172 10C172 10.5523 171.552 11 171 11C170.448 11 170 10.5523 170 10C170 9.44771 170.448 9 171 9C171.552 9 172 9.44771 172 10Z" fill="white"/>
<path d="M182 10C182 10.5523 181.552 11 181 11C180.448 11 180 10.5523 180 10C180 9.44771 180.448 9 181 9C181.552 9 182 9.44771 182 10Z" fill="white"/>
<path d="M192 10C192 10.5523 191.552 11 191 11C190.448 11 190 10.5523 190 10C190 9.44771 190.448 9 191 9C191.552 9 192 9.44771 192 10Z" fill="white"/>
<path d="M202 10C202 10.5523 201.552 11 201 11C200.448 11 200 10.5523 200 10C200 9.44771 200.448 9 201 9C201.552 9 202 9.44771 202 10Z" fill="white"/>
<path d="M212 10C212 10.5523 211.552 11 211 11C210.448 11 210 10.5523 210 10C210 9.44771 210.448 9 211 9C211.552 9 212 9.44771 212 10Z" fill="white"/>
<path d="M222 10C222 10.5523 221.552 11 221 11C220.448 11 220 10.5523 220 10C220 9.44771 220.448 9 221 9C221.552 9 222 9.44771 222 10Z" fill="white"/>
<path d="M232 10C232 10.5523 231.552 11 231 11C230.448 11 230 10.5523 230 10C230 9.44771 230.448 9 231 9C231.552 9 232 9.44771 232 10Z" fill="white"/>
<path d="M242 10C242 10.5523 241.552 11 241 11C240.448 11 240 10.5523 240 10C240 9.44771 240.448 9 241 9C241.552 9 242 9.44771 242 10Z" fill="white"/>
<path d="M252 10C252 10.5523 251.552 11 251 11C250.448 11 250 10.5523 250 10C250 9.44771 250.448 9 251 9C251.552 9 252 9.44771 252 10Z" fill="white"/>
<path d="M262 10C262 10.5523 261.552 11 261 11C260.448 11 260 10.5523 260 10C260 9.44771 260.448 9 261 9C261.552 9 262 9.44771 262 10Z" fill="white"/>
<path d="M272 10C272 10.5523 271.552 11 271 11C270.448 11 270 10.5523 270 10C270 9.44771 270.448 9 271 9C271.552 9 272 9.44771 272 10Z" fill="white"/>
<path d="M2 19C2 19.5523 1.55228 20 1 20C0.447715 20 0 19.5523 0 19C0 18.4477 0.447715 18 1 18C1.55228 18 2 18.4477 2 19Z" fill="white"/>
<path d="M12 19C12 19.5523 11.5523 20 11 20C10.4477 20 10 19.5523 10 19C10 18.4477 10.4477 18 11 18C11.5523 18 12 18.4477 12 19Z" fill="white"/>
<path d="M22 19C22 19.5523 21.5523 20 21 20C20.4477 20 20 19.5523 20 19C20 18.4477 20.4477 18 21 18C21.5523 18 22 18.4477 22 19Z" fill="white"/>
<path d="M32 19C32 19.5523 31.5523 20 31 20C30.4477 20 30 19.5523 30 19C30 18.4477 30.4477 18 31 18C31.5523 18 32 18.4477 32 19Z" fill="white"/>
<path d="M42 19C42 19.5523 41.5523 20 41 20C40.4477 20 40 19.5523 40 19C40 18.4477 40.4477 18 41 18C41.5523 18 42 18.4477 42 19Z" fill="white"/>
<path d="M52 19C52 19.5523 51.5523 20 51 20C50.4477 20 50 19.5523 50 19C50 18.4477 50.4477 18 51 18C51.5523 18 52 18.4477 52 19Z" fill="white"/>
<path d="M62 19C62 19.5523 61.5523 20 61 20C60.4477 20 60 19.5523 60 19C60 18.4477 60.4477 18 61 18C61.5523 18 62 18.4477 62 19Z" fill="white"/>
<path d="M72 19C72 19.5523 71.5523 20 71 20C70.4477 20 70 19.5523 70 19C70 18.4477 70.4477 18 71 18C71.5523 18 72 18.4477 72 19Z" fill="white"/>
<path d="M82 19C82 19.5523 81.5523 20 81 20C80.4477 20 80 19.5523 80 19C80 18.4477 80.4477 18 81 18C81.5523 18 82 18.4477 82 19Z" fill="white"/>
<path d="M92 19C92 19.5523 91.5523 20 91 20C90.4477 20 90 19.5523 90 19C90 18.4477 90.4477 18 91 18C91.5523 18 92 18.4477 92 19Z" fill="white"/>
<path d="M102 19C102 19.5523 101.552 20 101 20C100.448 20 100 19.5523 100 19C100 18.4477 100.448 18 101 18C101.552 18 102 18.4477 102 19Z" fill="white"/>
<path d="M112 19C112 19.5523 111.552 20 111 20C110.448 20 110 19.5523 110 19C110 18.4477 110.448 18 111 18C111.552 18 112 18.4477 112 19Z" fill="white"/>
<path d="M122 19C122 19.5523 121.552 20 121 20C120.448 20 120 19.5523 120 19C120 18.4477 120.448 18 121 18C121.552 18 122 18.4477 122 19Z" fill="white"/>
<path d="M132 19C132 19.5523 131.552 20 131 20C130.448 20 130 19.5523 130 19C130 18.4477 130.448 18 131 18C131.552 18 132 18.4477 132 19Z" fill="white"/>
<path d="M142 19C142 19.5523 141.552 20 141 20C140.448 20 140 19.5523 140 19C140 18.4477 140.448 18 141 18C141.552 18 142 18.4477 142 19Z" fill="white"/>
<path d="M152 19C152 19.5523 151.552 20 151 20C150.448 20 150 19.5523 150 19C150 18.4477 150.448 18 151 18C151.552 18 152 18.4477 152 19Z" fill="white"/>
<path d="M162 19C162 19.5523 161.552 20 161 20C160.448 20 160 19.5523 160 19C160 18.4477 160.448 18 161 18C161.552 18 162 18.4477 162 19Z" fill="white"/>
<path d="M172 19C172 19.5523 171.552 20 171 20C170.448 20 170 19.5523 170 19C170 18.4477 170.448 18 171 18C171.552 18 172 18.4477 172 19Z" fill="white"/>
<path d="M182 19C182 19.5523 181.552 20 181 20C180.448 20 180 19.5523 180 19C180 18.4477 180.448 18 181 18C181.552 18 182 18.4477 182 19Z" fill="white"/>
<path d="M192 19C192 19.5523 191.552 20 191 20C190.448 20 190 19.5523 190 19C190 18.4477 190.448 18 191 18C191.552 18 192 18.4477 192 19Z" fill="white"/>
<path d="M202 19C202 19.5523 201.552 20 201 20C200.448 20 200 19.5523 200 19C200 18.4477 200.448 18 201 18C201.552 18 202 18.4477 202 19Z" fill="white"/>
<path d="M212 19C212 19.5523 211.552 20 211 20C210.448 20 210 19.5523 210 19C210 18.4477 210.448 18 211 18C211.552 18 212 18.4477 212 19Z" fill="white"/>
<path d="M222 19C222 19.5523 221.552 20 221 20C220.448 20 220 19.5523 220 19C220 18.4477 220.448 18 221 18C221.552 18 222 18.4477 222 19Z" fill="white"/>
<path d="M232 19C232 19.5523 231.552 20 231 20C230.448 20 230 19.5523 230 19C230 18.4477 230.448 18 231 18C231.552 18 232 18.4477 232 19Z" fill="white"/>
<path d="M242 19C242 19.5523 241.552 20 241 20C240.448 20 240 19.5523 240 19C240 18.4477 240.448 18 241 18C241.552 18 242 18.4477 242 19Z" fill="white"/>
<path d="M252 19C252 19.5523 251.552 20 251 20C250.448 20 250 19.5523 250 19C250 18.4477 250.448 18 251 18C251.552 18 252 18.4477 252 19Z" fill="white"/>
<path d="M262 19C262 19.5523 261.552 20 261 20C260.448 20 260 19.5523 260 19C260 18.4477 260.448 18 261 18C261.552 18 262 18.4477 262 19Z" fill="white"/>
<path d="M272 19C272 19.5523 271.552 20 271 20C270.448 20 270 19.5523 270 19C270 18.4477 270.448 18 271 18C271.552 18 272 18.4477 272 19Z" fill="white"/>
<path d="M2 28C2 28.5523 1.55228 29 1 29C0.447715 29 0 28.5523 0 28C0 27.4477 0.447715 27 1 27C1.55228 27 2 27.4477 2 28Z" fill="white"/>
<path d="M12 28C12 28.5523 11.5523 29 11 29C10.4477 29 10 28.5523 10 28C10 27.4477 10.4477 27 11 27C11.5523 27 12 27.4477 12 28Z" fill="white"/>
<path d="M22 28C22 28.5523 21.5523 29 21 29C20.4477 29 20 28.5523 20 28C20 27.4477 20.4477 27 21 27C21.5523 27 22 27.4477 22 28Z" fill="white"/>
<path d="M32 28C32 28.5523 31.5523 29 31 29C30.4477 29 30 28.5523 30 28C30 27.4477 30.4477 27 31 27C31.5523 27 32 27.4477 32 28Z" fill="white"/>
<path d="M42 28C42 28.5523 41.5523 29 41 29C40.4477 29 40 28.5523 40 28C40 27.4477 40.4477 27 41 27C41.5523 27 42 27.4477 42 28Z" fill="white"/>
<path d="M52 28C52 28.5523 51.5523 29 51 29C50.4477 29 50 28.5523 50 28C50 27.4477 50.4477 27 51 27C51.5523 27 52 27.4477 52 28Z" fill="white"/>
<path d="M62 28C62 28.5523 61.5523 29 61 29C60.4477 29 60 28.5523 60 28C60 27.4477 60.4477 27 61 27C61.5523 27 62 27.4477 62 28Z" fill="white"/>
<path d="M72 28C72 28.5523 71.5523 29 71 29C70.4477 29 70 28.5523 70 28C70 27.4477 70.4477 27 71 27C71.5523 27 72 27.4477 72 28Z" fill="white"/>
<path d="M82 28C82 28.5523 81.5523 29 81 29C80.4477 29 80 28.5523 80 28C80 27.4477 80.4477 27 81 27C81.5523 27 82 27.4477 82 28Z" fill="white"/>
<path d="M92 28C92 28.5523 91.5523 29 91 29C90.4477 29 90 28.5523 90 28C90 27.4477 90.4477 27 91 27C91.5523 27 92 27.4477 92 28Z" fill="white"/>
<path d="M102 28C102 28.5523 101.552 29 101 29C100.448 29 100 28.5523 100 28C100 27.4477 100.448 27 101 27C101.552 27 102 27.4477 102 28Z" fill="white"/>
<path d="M112 28C112 28.5523 111.552 29 111 29C110.448 29 110 28.5523 110 28C110 27.4477 110.448 27 111 27C111.552 27 112 27.4477 112 28Z" fill="white"/>
<path d="M122 28C122 28.5523 121.552 29 121 29C120.448 29 120 28.5523 120 28C120 27.4477 120.448 27 121 27C121.552 27 122 27.4477 122 28Z" fill="white"/>
<path d="M132 28C132 28.5523 131.552 29 131 29C130.448 29 130 28.5523 130 28C130 27.4477 130.448 27 131 27C131.552 27 132 27.4477 132 28Z" fill="white"/>
<path d="M142 28C142 28.5523 141.552 29 141 29C140.448 29 140 28.5523 140 28C140 27.4477 140.448 27 141 27C141.552 27 142 27.4477 142 28Z" fill="white"/>
<path d="M152 28C152 28.5523 151.552 29 151 29C150.448 29 150 28.5523 150 28C150 27.4477 150.448 27 151 27C151.552 27 152 27.4477 152 28Z" fill="white"/>
<path d="M162 28C162 28.5523 161.552 29 161 29C160.448 29 160 28.5523 160 28C160 27.4477 160.448 27 161 27C161.552 27 162 27.4477 162 28Z" fill="white"/>
<path d="M172 28C172 28.5523 171.552 29 171 29C170.448 29 170 28.5523 170 28C170 27.4477 170.448 27 171 27C171.552 27 172 27.4477 172 28Z" fill="white"/>
<path d="M182 28C182 28.5523 181.552 29 181 29C180.448 29 180 28.5523 180 28C180 27.4477 180.448 27 181 27C181.552 27 182 27.4477 182 28Z" fill="white"/>
<path d="M192 28C192 28.5523 191.552 29 191 29C190.448 29 190 28.5523 190 28C190 27.4477 190.448 27 191 27C191.552 27 192 27.4477 192 28Z" fill="white"/>
<path d="M202 28C202 28.5523 201.552 29 201 29C200.448 29 200 28.5523 200 28C200 27.4477 200.448 27 201 27C201.552 27 202 27.4477 202 28Z" fill="white"/>
<path d="M212 28C212 28.5523 211.552 29 211 29C210.448 29 210 28.5523 210 28C210 27.4477 210.448 27 211 27C211.552 27 212 27.4477 212 28Z" fill="white"/>
<path d="M222 28C222 28.5523 221.552 29 221 29C220.448 29 220 28.5523 220 28C220 27.4477 220.448 27 221 27C221.552 27 222 27.4477 222 28Z" fill="white"/>
<path d="M232 28C232 28.5523 231.552 29 231 29C230.448 29 230 28.5523 230 28C230 27.4477 230.448 27 231 27C231.552 27 232 27.4477 232 28Z" fill="white"/>
<path d="M242 28C242 28.5523 241.552 29 241 29C240.448 29 240 28.5523 240 28C240 27.4477 240.448 27 241 27C241.552 27 242 27.4477 242 28Z" fill="white"/>
<path d="M252 28C252 28.5523 251.552 29 251 29C250.448 29 250 28.5523 250 28C250 27.4477 250.448 27 251 27C251.552 27 252 27.4477 252 28Z" fill="white"/>
<path d="M262 28C262 28.5523 261.552 29 261 29C260.448 29 260 28.5523 260 28C260 27.4477 260.448 27 261 27C261.552 27 262 27.4477 262 28Z" fill="white"/>
<path d="M272 28C272 28.5523 271.552 29 271 29C270.448 29 270 28.5523 270 28C270 27.4477 270.448 27 271 27C271.552 27 272 27.4477 272 28Z" fill="white"/>
<path d="M2 37C2 37.5523 1.55228 38 1 38C0.447715 38 0 37.5523 0 37C0 36.4477 0.447715 36 1 36C1.55228 36 2 36.4477 2 37Z" fill="white"/>
<path d="M12 37C12 37.5523 11.5523 38 11 38C10.4477 38 10 37.5523 10 37C10 36.4477 10.4477 36 11 36C11.5523 36 12 36.4477 12 37Z" fill="white"/>
<path d="M22 37C22 37.5523 21.5523 38 21 38C20.4477 38 20 37.5523 20 37C20 36.4477 20.4477 36 21 36C21.5523 36 22 36.4477 22 37Z" fill="white"/>
<path d="M32 37C32 37.5523 31.5523 38 31 38C30.4477 38 30 37.5523 30 37C30 36.4477 30.4477 36 31 36C31.5523 36 32 36.4477 32 37Z" fill="white"/>
<path d="M42 37C42 37.5523 41.5523 38 41 38C40.4477 38 40 37.5523 40 37C40 36.4477 40.4477 36 41 36C41.5523 36 42 36.4477 42 37Z" fill="white"/>
<path d="M52 37C52 37.5523 51.5523 38 51 38C50.4477 38 50 37.5523 50 37C50 36.4477 50.4477 36 51 36C51.5523 36 52 36.4477 52 37Z" fill="white"/>
<path d="M62 37C62 37.5523 61.5523 38 61 38C60.4477 38 60 37.5523 60 37C60 36.4477 60.4477 36 61 36C61.5523 36 62 36.4477 62 37Z" fill="white"/>
<path d="M72 37C72 37.5523 71.5523 38 71 38C70.4477 38 70 37.5523 70 37C70 36.4477 70.4477 36 71 36C71.5523 36 72 36.4477 72 37Z" fill="white"/>
<path d="M82 37C82 37.5523 81.5523 38 81 38C80.4477 38 80 37.5523 80 37C80 36.4477 80.4477 36 81 36C81.5523 36 82 36.4477 82 37Z" fill="white"/>
<path d="M92 37C92 37.5523 91.5523 38 91 38C90.4477 38 90 37.5523 90 37C90 36.4477 90.4477 36 91 36C91.5523 36 92 36.4477 92 37Z" fill="white"/>
<path d="M102 37C102 37.5523 101.552 38 101 38C100.448 38 100 37.5523 100 37C100 36.4477 100.448 36 101 36C101.552 36 102 36.4477 102 37Z" fill="white"/>
<path d="M112 37C112 37.5523 111.552 38 111 38C110.448 38 110 37.5523 110 37C110 36.4477 110.448 36 111 36C111.552 36 112 36.4477 112 37Z" fill="white"/>
<path d="M122 37C122 37.5523 121.552 38 121 38C120.448 38 120 37.5523 120 37C120 36.4477 120.448 36 121 36C121.552 36 122 36.4477 122 37Z" fill="white"/>
<path d="M132 37C132 37.5523 131.552 38 131 38C130.448 38 130 37.5523 130 37C130 36.4477 130.448 36 131 36C131.552 36 132 36.4477 132 37Z" fill="white"/>
<path d="M142 37C142 37.5523 141.552 38 141 38C140.448 38 140 37.5523 140 37C140 36.4477 140.448 36 141 36C141.552 36 142 36.4477 142 37Z" fill="white"/>
<path d="M152 37C152 37.5523 151.552 38 151 38C150.448 38 150 37.5523 150 37C150 36.4477 150.448 36 151 36C151.552 36 152 36.4477 152 37Z" fill="white"/>
<path d="M162 37C162 37.5523 161.552 38 161 38C160.448 38 160 37.5523 160 37C160 36.4477 160.448 36 161 36C161.552 36 162 36.4477 162 37Z" fill="white"/>
<path d="M172 37C172 37.5523 171.552 38 171 38C170.448 38 170 37.5523 170 37C170 36.4477 170.448 36 171 36C171.552 36 172 36.4477 172 37Z" fill="white"/>
<path d="M182 37C182 37.5523 181.552 38 181 38C180.448 38 180 37.5523 180 37C180 36.4477 180.448 36 181 36C181.552 36 182 36.4477 182 37Z" fill="white"/>
<path d="M192 37C192 37.5523 191.552 38 191 38C190.448 38 190 37.5523 190 37C190 36.4477 190.448 36 191 36C191.552 36 192 36.4477 192 37Z" fill="white"/>
<path d="M202 37C202 37.5523 201.552 38 201 38C200.448 38 200 37.5523 200 37C200 36.4477 200.448 36 201 36C201.552 36 202 36.4477 202 37Z" fill="white"/>
<path d="M212 37C212 37.5523 211.552 38 211 38C210.448 38 210 37.5523 210 37C210 36.4477 210.448 36 211 36C211.552 36 212 36.4477 212 37Z" fill="white"/>
<path d="M222 37C222 37.5523 221.552 38 221 38C220.448 38 220 37.5523 220 37C220 36.4477 220.448 36 221 36C221.552 36 222 36.4477 222 37Z" fill="white"/>
<path d="M232 37C232 37.5523 231.552 38 231 38C230.448 38 230 37.5523 230 37C230 36.4477 230.448 36 231 36C231.552 36 232 36.4477 232 37Z" fill="white"/>
<path d="M242 37C242 37.5523 241.552 38 241 38C240.448 38 240 37.5523 240 37C240 36.4477 240.448 36 241 36C241.552 36 242 36.4477 242 37Z" fill="white"/>
<path d="M252 37C252 37.5523 251.552 38 251 38C250.448 38 250 37.5523 250 37C250 36.4477 250.448 36 251 36C251.552 36 252 36.4477 252 37Z" fill="white"/>
<path d="M262 37C262 37.5523 261.552 38 261 38C260.448 38 260 37.5523 260 37C260 36.4477 260.448 36 261 36C261.552 36 262 36.4477 262 37Z" fill="white"/>
<path d="M272 37C272 37.5523 271.552 38 271 38C270.448 38 270 37.5523 270 37C270 36.4477 270.448 36 271 36C271.552 36 272 36.4477 272 37Z" fill="white"/>
<path d="M2 46C2 46.5523 1.55228 47 1 47C0.447715 47 0 46.5523 0 46C0 45.4477 0.447715 45 1 45C1.55228 45 2 45.4477 2 46Z" fill="white"/>
<path d="M12 46C12 46.5523 11.5523 47 11 47C10.4477 47 10 46.5523 10 46C10 45.4477 10.4477 45 11 45C11.5523 45 12 45.4477 12 46Z" fill="white"/>
<path d="M22 46C22 46.5523 21.5523 47 21 47C20.4477 47 20 46.5523 20 46C20 45.4477 20.4477 45 21 45C21.5523 45 22 45.4477 22 46Z" fill="white"/>
<path d="M32 46C32 46.5523 31.5523 47 31 47C30.4477 47 30 46.5523 30 46C30 45.4477 30.4477 45 31 45C31.5523 45 32 45.4477 32 46Z" fill="white"/>
<path d="M42 46C42 46.5523 41.5523 47 41 47C40.4477 47 40 46.5523 40 46C40 45.4477 40.4477 45 41 45C41.5523 45 42 45.4477 42 46Z" fill="white"/>
<path d="M52 46C52 46.5523 51.5523 47 51 47C50.4477 47 50 46.5523 50 46C50 45.4477 50.4477 45 51 45C51.5523 45 52 45.4477 52 46Z" fill="white"/>
<path d="M62 46C62 46.5523 61.5523 47 61 47C60.4477 47 60 46.5523 60 46C60 45.4477 60.4477 45 61 45C61.5523 45 62 45.4477 62 46Z" fill="white"/>
<path d="M72 46C72 46.5523 71.5523 47 71 47C70.4477 47 70 46.5523 70 46C70 45.4477 70.4477 45 71 45C71.5523 45 72 45.4477 72 46Z" fill="white"/>
<path d="M82 46C82 46.5523 81.5523 47 81 47C80.4477 47 80 46.5523 80 46C80 45.4477 80.4477 45 81 45C81.5523 45 82 45.4477 82 46Z" fill="white"/>
<path d="M92 46C92 46.5523 91.5523 47 91 47C90.4477 47 90 46.5523 90 46C90 45.4477 90.4477 45 91 45C91.5523 45 92 45.4477 92 46Z" fill="white"/>
<path d="M102 46C102 46.5523 101.552 47 101 47C100.448 47 100 46.5523 100 46C100 45.4477 100.448 45 101 45C101.552 45 102 45.4477 102 46Z" fill="white"/>
<path d="M112 46C112 46.5523 111.552 47 111 47C110.448 47 110 46.5523 110 46C110 45.4477 110.448 45 111 45C111.552 45 112 45.4477 112 46Z" fill="white"/>
<path d="M122 46C122 46.5523 121.552 47 121 47C120.448 47 120 46.5523 120 46C120 45.4477 120.448 45 121 45C121.552 45 122 45.4477 122 46Z" fill="white"/>
<path d="M132 46C132 46.5523 131.552 47 131 47C130.448 47 130 46.5523 130 46C130 45.4477 130.448 45 131 45C131.552 45 132 45.4477 132 46Z" fill="white"/>
<path d="M142 46C142 46.5523 141.552 47 141 47C140.448 47 140 46.5523 140 46C140 45.4477 140.448 45 141 45C141.552 45 142 45.4477 142 46Z" fill="white"/>
<path d="M152 46C152 46.5523 151.552 47 151 47C150.448 47 150 46.5523 150 46C150 45.4477 150.448 45 151 45C151.552 45 152 45.4477 152 46Z" fill="white"/>
<path d="M162 46C162 46.5523 161.552 47 161 47C160.448 47 160 46.5523 160 46C160 45.4477 160.448 45 161 45C161.552 45 162 45.4477 162 46Z" fill="white"/>
<path d="M172 46C172 46.5523 171.552 47 171 47C170.448 47 170 46.5523 170 46C170 45.4477 170.448 45 171 45C171.552 45 172 45.4477 172 46Z" fill="white"/>
<path d="M182 46C182 46.5523 181.552 47 181 47C180.448 47 180 46.5523 180 46C180 45.4477 180.448 45 181 45C181.552 45 182 45.4477 182 46Z" fill="white"/>
<path d="M192 46C192 46.5523 191.552 47 191 47C190.448 47 190 46.5523 190 46C190 45.4477 190.448 45 191 45C191.552 45 192 45.4477 192 46Z" fill="white"/>
<path d="M202 46C202 46.5523 201.552 47 201 47C200.448 47 200 46.5523 200 46C200 45.4477 200.448 45 201 45C201.552 45 202 45.4477 202 46Z" fill="white"/>
<path d="M212 46C212 46.5523 211.552 47 211 47C210.448 47 210 46.5523 210 46C210 45.4477 210.448 45 211 45C211.552 45 212 45.4477 212 46Z" fill="white"/>
<path d="M222 46C222 46.5523 221.552 47 221 47C220.448 47 220 46.5523 220 46C220 45.4477 220.448 45 221 45C221.552 45 222 45.4477 222 46Z" fill="white"/>
<path d="M232 46C232 46.5523 231.552 47 231 47C230.448 47 230 46.5523 230 46C230 45.4477 230.448 45 231 45C231.552 45 232 45.4477 232 46Z" fill="white"/>
<path d="M242 46C242 46.5523 241.552 47 241 47C240.448 47 240 46.5523 240 46C240 45.4477 240.448 45 241 45C241.552 45 242 45.4477 242 46Z" fill="white"/>
<path d="M252 46C252 46.5523 251.552 47 251 47C250.448 47 250 46.5523 250 46C250 45.4477 250.448 45 251 45C251.552 45 252 45.4477 252 46Z" fill="white"/>
<path d="M262 46C262 46.5523 261.552 47 261 47C260.448 47 260 46.5523 260 46C260 45.4477 260.448 45 261 45C261.552 45 262 45.4477 262 46Z" fill="white"/>
<path d="M272 46C272 46.5523 271.552 47 271 47C270.448 47 270 46.5523 270 46C270 45.4477 270.448 45 271 45C271.552 45 272 45.4477 272 46Z" fill="white"/>
</svg>
