<svg width="16" height="16" viewBox="0 0 16 16" fill="none" xmlns="http://www.w3.org/2000/svg">
<path d="M13 5.17874C13 6.30149 12.5842 7.29949 12.0159 8.23512C11.4198 9.21926 10.7684 10.1757 10.1654 11.1598C9.43076 12.3519 8.86939 13.5994 8.80008 15.034C8.77929 15.4498 8.41197 15.7617 8.01 15.7617C7.61496 15.7686 7.24071 15.4706 7.21992 15.0756C7.12982 13.4608 6.44369 12.0816 5.6051 10.7509C4.96055 9.72519 4.28136 8.72026 3.69226 7.65988C2.88832 6.20446 2.74278 4.67281 3.47742 3.12037C4.41304 1.13823 6.61003 -0.00531512 8.80701 0.348143C10.9763 0.701602 12.6604 2.39959 12.9584 4.56192C12.9861 4.76291 12.9861 4.97776 13 5.17874ZM7.98921 1.90752C6.12489 1.91445 4.62096 3.41838 4.61403 5.2827C4.6071 7.15395 6.13182 8.67174 8.01693 8.66481C9.89511 8.65788 11.3921 7.14009 11.3852 5.25498C11.3713 3.39759 9.85353 1.90059 7.98921 1.90752Z" fill="#445576"/>
<path d="M10.0962 5.28276C10.1031 6.44017 9.16752 7.38272 8.01012 7.38965C6.85964 7.38965 5.91016 6.44017 5.91016 5.29662C5.91016 4.14615 6.85271 3.19667 7.99626 3.18974C9.14673 3.1828 10.0893 4.12536 10.0962 5.28276ZM8.00319 6.08671C8.45367 6.08671 8.82099 5.71246 8.81406 5.2689C8.80713 4.83228 8.44674 4.48575 8.01012 4.48575C7.56656 4.48575 7.22003 4.81842 7.20617 5.26197C7.19924 5.72632 7.54577 6.08671 8.00319 6.08671Z" fill="#445576"/>
</svg>
