<svg width="16" height="16" viewBox="0 0 16 16" fill="none" xmlns="http://www.w3.org/2000/svg">
<path fill-rule="evenodd" clip-rule="evenodd" d="M0 13C0 12.4477 0.447715 12 1 12H9C9.55229 12 10 12.4477 10 13C10 13.5523 9.55229 14 9 14H1C0.447715 14 0 13.5523 0 13Z" fill="#ABC0DC"/>
<path fill-rule="evenodd" clip-rule="evenodd" d="M0 13C0 12.4477 0.447715 12 1 12H9C9.55229 12 10 12.4477 10 13C10 13.5523 9.55229 14 9 14H1C0.447715 14 0 13.5523 0 13Z" fill="#7D9BC3"/>
<path fill-rule="evenodd" clip-rule="evenodd" d="M0 8C0 7.44772 0.447715 7 1 7H15C15.5523 7 16 7.44772 16 8C16 8.55228 15.5523 9 15 9H1C0.447715 9 0 8.55228 0 8Z" fill="#ABC0DC"/>
<path fill-rule="evenodd" clip-rule="evenodd" d="M0 8C0 7.44772 0.447715 7 1 7H15C15.5523 7 16 7.44772 16 8C16 8.55228 15.5523 9 15 9H1C0.447715 9 0 8.55228 0 8Z" fill="#7D9BC3"/>
<path fill-rule="evenodd" clip-rule="evenodd" d="M0 3C0 2.44772 0.447715 2 1 2H15C15.5523 2 16 2.44772 16 3C16 3.55228 15.5523 4 15 4H1C0.447715 4 0 3.55228 0 3Z" fill="#ABC0DC"/>
<path fill-rule="evenodd" clip-rule="evenodd" d="M0 3C0 2.44772 0.447715 2 1 2H15C15.5523 2 16 2.44772 16 3C16 3.55228 15.5523 4 15 4H1C0.447715 4 0 3.55228 0 3Z" fill="#7D9BC3"/>
</svg>
