<svg width="16" height="16" viewBox="0 0 16 16" fill="none" xmlns="http://www.w3.org/2000/svg">
<path fill-rule="evenodd" clip-rule="evenodd" d="M0.0942383 4.91367C0.0942383 2.20748 2.28804 0.0136719 4.99424 0.0136719H11.0926C13.7988 0.0136719 15.9926 2.20748 15.9926 4.91367V6.98393C15.9926 9.6901 13.7989 11.8839 11.0927 11.8839H5.84054C5.41061 11.8839 4.94756 12.0486 4.46022 12.3669C3.97414 12.6843 3.51202 13.1237 3.10342 13.5906C2.69769 14.0543 2.36458 14.5223 2.13218 14.8764C2.01657 15.0526 1.92733 15.1984 1.86793 15.2984C1.83825 15.3484 1.81611 15.3868 1.80194 15.4117L1.78674 15.4387L1.78387 15.4439C1.58649 15.8044 1.16967 15.9858 0.771383 15.884C0.372966 15.7822 0.0942383 15.4233 0.0942383 15.012V4.91367ZM1.89424 12.2422C2.33933 11.7528 2.87278 11.2537 3.476 10.8598C4.14516 10.4228 4.94876 10.0839 5.84054 10.0839H11.0927C12.8047 10.0839 14.1926 8.69603 14.1926 6.98393V4.91367C14.1926 3.20159 12.8047 1.81367 11.0926 1.81367H4.99424C3.28216 1.81367 1.89424 3.20159 1.89424 4.91367V12.2422Z" fill="#ABC0DC"/>
<path fill-rule="evenodd" clip-rule="evenodd" d="M0.0942383 4.91367C0.0942383 2.20748 2.28804 0.0136719 4.99424 0.0136719H11.0926C13.7988 0.0136719 15.9926 2.20748 15.9926 4.91367V6.98393C15.9926 9.6901 13.7989 11.8839 11.0927 11.8839H5.84054C5.41061 11.8839 4.94756 12.0486 4.46022 12.3669C3.97414 12.6843 3.51202 13.1237 3.10342 13.5906C2.69769 14.0543 2.36458 14.5223 2.13218 14.8764C2.01657 15.0526 1.92733 15.1984 1.86793 15.2984C1.83825 15.3484 1.81611 15.3868 1.80194 15.4117L1.78674 15.4387L1.78387 15.4439C1.58649 15.8044 1.16967 15.9858 0.771383 15.884C0.372966 15.7822 0.0942383 15.4233 0.0942383 15.012V4.91367ZM1.89424 12.2422C2.33933 11.7528 2.87278 11.2537 3.476 10.8598C4.14516 10.4228 4.94876 10.0839 5.84054 10.0839H11.0927C12.8047 10.0839 14.1926 8.69603 14.1926 6.98393V4.91367C14.1926 3.20159 12.8047 1.81367 11.0926 1.81367H4.99424C3.28216 1.81367 1.89424 3.20159 1.89424 4.91367V12.2422Z" fill="#7D9BC3"/>
<circle cx="4.94336" cy="5.97705" r="1" fill="#ABC0DC"/>
<circle cx="4.94336" cy="5.97705" r="1" fill="#7D9BC3"/>
<ellipse cx="7.94336" cy="5.97705" rx="1" ry="1" fill="#ABC0DC"/>
<ellipse cx="7.94336" cy="5.97705" rx="1" ry="1" fill="#7D9BC3"/>
<circle cx="10.9434" cy="5.97705" r="1" fill="#ABC0DC"/>
<circle cx="10.9434" cy="5.97705" r="1" fill="#7D9BC3"/>
</svg>
