<svg width="16" height="16" viewBox="0 0 16 16" fill="none" xmlns="http://www.w3.org/2000/svg">
<path fill-rule="evenodd" clip-rule="evenodd" d="M0.169922 2.92136C0.169922 1.42131 1.38459 0.203125 2.88562 0.203125H13.1745C14.6756 0.203125 15.8902 1.42131 15.8902 2.92136V13.2247C15.8902 14.7248 14.6756 15.9429 13.1745 15.9429H2.88561C1.38459 15.9429 0.169922 14.7248 0.169922 13.2247V2.92136ZM2.88562 2.00312C2.38108 2.00312 1.96992 2.41305 1.96992 2.92136V13.2247C1.96992 13.733 2.38108 14.1429 2.88561 14.1429H4.83461L8.86737 8.30967C9.78379 6.9841 11.6453 6.74319 12.8683 7.793L14.0902 8.8418V2.92136C14.0902 2.41305 13.6791 2.00312 13.1745 2.00312H2.88562ZM14.0902 11.2139L11.696 9.15886C11.2841 8.80532 10.6573 8.88591 10.348 9.33328L7.02288 14.1429H13.1745C13.6791 14.1429 14.0902 13.733 14.0902 13.2247V11.2139ZM5.30654 4.42744C4.802 4.42744 4.39085 4.83736 4.39085 5.34568C4.39085 5.85399 4.802 6.26391 5.30654 6.26391C5.81108 6.26391 6.22223 5.85399 6.22223 5.34568C6.22223 4.83736 5.81108 4.42744 5.30654 4.42744ZM2.59085 5.34568C2.59085 3.84562 3.80552 2.62744 5.30654 2.62744C6.80756 2.62744 8.02223 3.84562 8.02223 5.34568C8.02223 6.84573 6.80756 8.06391 5.30654 8.06391C3.80552 8.06391 2.59085 6.84573 2.59085 5.34568Z" fill="#445576"/>
</svg>
