<svg width="16" height="16" viewBox="0 0 16 16" fill="none" xmlns="http://www.w3.org/2000/svg">
<path d="M6.86295 2.15426C7.22546 1.03856 8.80388 1.03856 9.16639 2.15426L9.96348 4.60745C10.1256 5.10641 10.5906 5.44423 11.1152 5.44423H13.6946C14.8678 5.44423 15.3555 6.94539 14.4064 7.63493L12.3196 9.15109C11.8952 9.45946 11.7176 10.0061 11.8797 10.505L12.6768 12.9582C13.0393 14.0739 11.7624 15.0017 10.8133 14.3121L8.72648 12.796C8.30204 12.4876 7.7273 12.4876 7.30287 12.796L5.21606 14.3121C4.26699 15.0017 2.99002 14.0739 3.35253 12.9582L4.14962 10.505C4.31174 10.0061 4.13414 9.45946 3.7097 9.15109L1.6229 7.63494C0.673823 6.94539 1.16158 5.44423 2.3347 5.44423H4.91413C5.43877 5.44423 5.90374 5.10641 6.06586 4.60745L6.86295 2.15426Z" fill="#445576"/>
</svg>
