<svg width="16" height="16" viewBox="0 0 16 16" fill="none" xmlns="http://www.w3.org/2000/svg">
<path fill-rule="evenodd" clip-rule="evenodd" d="M1.7606 8.7464L1.75961 8.74852L1.76011 8.74743L1.7606 8.7464ZM1.95262 8.39883C1.98601 8.3439 2.02388 8.28368 2.06636 8.219C2.29187 7.87566 2.64279 7.41357 3.13696 6.95157C4.11562 6.03662 5.66172 5.11299 7.97031 5.11299C10.2789 5.11299 11.825 6.03662 12.8037 6.95157C13.2978 7.41357 13.6488 7.87566 13.8743 8.219C13.9167 8.28368 13.9546 8.3439 13.988 8.39883C13.9492 8.47091 13.9038 8.55183 13.8518 8.63994C13.6224 9.02792 13.2675 9.54657 12.7699 10.0635C11.7823 11.0894 10.246 12.1001 7.97031 12.1001C5.69463 12.1001 4.15835 11.0894 3.17071 10.0635C2.67308 9.54657 2.31821 9.02792 2.08887 8.63994C2.03679 8.55183 1.99145 8.47091 1.95262 8.39883ZM15 8.37529C15.8341 8.71337 15.8337 8.7142 15.8337 8.7142L15.8333 8.71515L15.8324 8.71735L15.8301 8.72303L15.8232 8.7394C15.8177 8.75249 15.8102 8.76993 15.8007 8.79141C15.7817 8.83435 15.7546 8.89357 15.7192 8.96672C15.6483 9.1129 15.5433 9.31556 15.4013 9.55588C15.1181 10.035 14.6821 10.6726 14.0667 11.3119C12.8283 12.5983 10.8497 13.9001 7.97031 13.9001C5.09091 13.9001 3.11236 12.5983 1.87394 11.3119C1.25854 10.6726 0.822575 10.035 0.539337 9.55588C0.397279 9.31556 0.292355 9.1129 0.221469 8.96672C0.185992 8.89357 0.15894 8.83435 0.139936 8.79141C0.130431 8.76993 0.12293 8.75249 0.117386 8.7394L0.110528 8.72303L0.108187 8.71735L0.107287 8.71515L0.106904 8.7142C0.106904 8.7142 0.106565 8.71337 0.940651 8.37529C0.120036 8.00571 0.12043 8.00483 0.12043 8.00483L0.120869 8.00386L0.121882 8.00163L0.12445 7.99602L0.131774 7.98029C0.137633 7.96783 0.145459 7.95147 0.1553 7.93145C0.174974 7.89144 0.202738 7.83676 0.238968 7.76952C0.311365 7.63516 0.417959 7.44993 0.561846 7.23085C0.848917 6.79377 1.28883 6.21528 1.90769 5.6367C3.15509 4.47051 5.12382 3.31299 7.97031 3.31299C10.8168 3.31299 12.7855 4.47051 14.0329 5.6367C14.6518 6.21528 15.0917 6.79377 15.3788 7.23085C15.5227 7.44993 15.6293 7.63516 15.7017 7.76952C15.7379 7.83676 15.7657 7.89144 15.7853 7.93145C15.7952 7.95147 15.803 7.96783 15.8089 7.98029L15.8162 7.99602L15.8187 8.00163L15.8202 8.00483C15.8202 8.00483 15.8206 8.00571 15 8.37529ZM0.940651 8.37529L0.12043 8.00483C0.0194801 8.22898 0.0145573 8.48638 0.106904 8.7142L0.940651 8.37529ZM15 8.37529L15.8202 8.00483C15.9211 8.22898 15.9261 8.48638 15.8337 8.7142L15 8.37529Z" fill="#ABC0DC"/>
<path fill-rule="evenodd" clip-rule="evenodd" d="M1.7606 8.7464L1.75961 8.74852L1.76011 8.74743L1.7606 8.7464ZM1.95262 8.39883C1.98601 8.3439 2.02388 8.28368 2.06636 8.219C2.29187 7.87566 2.64279 7.41357 3.13696 6.95157C4.11562 6.03662 5.66172 5.11299 7.97031 5.11299C10.2789 5.11299 11.825 6.03662 12.8037 6.95157C13.2978 7.41357 13.6488 7.87566 13.8743 8.219C13.9167 8.28368 13.9546 8.3439 13.988 8.39883C13.9492 8.47091 13.9038 8.55183 13.8518 8.63994C13.6224 9.02792 13.2675 9.54657 12.7699 10.0635C11.7823 11.0894 10.246 12.1001 7.97031 12.1001C5.69463 12.1001 4.15835 11.0894 3.17071 10.0635C2.67308 9.54657 2.31821 9.02792 2.08887 8.63994C2.03679 8.55183 1.99145 8.47091 1.95262 8.39883ZM15 8.37529C15.8341 8.71337 15.8337 8.7142 15.8337 8.7142L15.8333 8.71515L15.8324 8.71735L15.8301 8.72303L15.8232 8.7394C15.8177 8.75249 15.8102 8.76993 15.8007 8.79141C15.7817 8.83435 15.7546 8.89357 15.7192 8.96672C15.6483 9.1129 15.5433 9.31556 15.4013 9.55588C15.1181 10.035 14.6821 10.6726 14.0667 11.3119C12.8283 12.5983 10.8497 13.9001 7.97031 13.9001C5.09091 13.9001 3.11236 12.5983 1.87394 11.3119C1.25854 10.6726 0.822575 10.035 0.539337 9.55588C0.397279 9.31556 0.292355 9.1129 0.221469 8.96672C0.185992 8.89357 0.15894 8.83435 0.139936 8.79141C0.130431 8.76993 0.12293 8.75249 0.117386 8.7394L0.110528 8.72303L0.108187 8.71735L0.107287 8.71515L0.106904 8.7142C0.106904 8.7142 0.106565 8.71337 0.940651 8.37529C0.120036 8.00571 0.12043 8.00483 0.12043 8.00483L0.120869 8.00386L0.121882 8.00163L0.12445 7.99602L0.131774 7.98029C0.137633 7.96783 0.145459 7.95147 0.1553 7.93145C0.174974 7.89144 0.202738 7.83676 0.238968 7.76952C0.311365 7.63516 0.417959 7.44993 0.561846 7.23085C0.848917 6.79377 1.28883 6.21528 1.90769 5.6367C3.15509 4.47051 5.12382 3.31299 7.97031 3.31299C10.8168 3.31299 12.7855 4.47051 14.0329 5.6367C14.6518 6.21528 15.0917 6.79377 15.3788 7.23085C15.5227 7.44993 15.6293 7.63516 15.7017 7.76952C15.7379 7.83676 15.7657 7.89144 15.7853 7.93145C15.7952 7.95147 15.803 7.96783 15.8089 7.98029L15.8162 7.99602L15.8187 8.00163L15.8202 8.00483C15.8202 8.00483 15.8206 8.00571 15 8.37529ZM0.940651 8.37529L0.12043 8.00483C0.0194801 8.22898 0.0145573 8.48638 0.106904 8.7142L0.940651 8.37529ZM15 8.37529L15.8202 8.00483C15.9211 8.22898 15.9261 8.48638 15.8337 8.7142L15 8.37529Z" fill="#7D9BC3"/>
<path d="M9.72773 8.60651C9.72773 9.5771 8.9409 10.3639 7.97031 10.3639C6.99972 10.3639 6.21289 9.5771 6.21289 8.60651C6.21289 7.63591 6.99972 6.84909 7.97031 6.84909C8.9409 6.84909 9.72773 7.63591 9.72773 8.60651Z" fill="#ABC0DC"/>
<path d="M9.72773 8.60651C9.72773 9.5771 8.9409 10.3639 7.97031 10.3639C6.99972 10.3639 6.21289 9.5771 6.21289 8.60651C6.21289 7.63591 6.99972 6.84909 7.97031 6.84909C8.9409 6.84909 9.72773 7.63591 9.72773 8.60651Z" fill="#7D9BC3"/>
</svg>
