<svg width="16" height="16" viewBox="0 0 16 16" fill="none" xmlns="http://www.w3.org/2000/svg">
<path fill-rule="evenodd" clip-rule="evenodd" d="M4.86298 5.21753C3.3263 5.21753 2.08057 6.46326 2.08057 7.99995C2.08057 9.53663 3.3263 10.7824 4.86298 10.7824C5.41527 10.7824 5.86298 11.2301 5.86298 11.7824C5.86298 12.3346 5.41527 12.7824 4.86298 12.7824C2.22173 12.7824 0.0805664 10.6412 0.0805664 7.99995C0.0805664 5.35869 2.22173 3.21753 4.86298 3.21753C5.41527 3.21753 5.86298 3.66524 5.86298 4.21753C5.86298 4.76981 5.41527 5.21753 4.86298 5.21753Z" fill="white"/>
<path fill-rule="evenodd" clip-rule="evenodd" d="M10.167 4.21754C10.167 3.66526 10.6147 3.21754 11.167 3.21754C13.8082 3.21754 15.9494 5.3587 15.9494 7.99996C15.9494 10.6412 13.8082 12.7824 11.167 12.7824C10.6147 12.7824 10.167 12.3347 10.167 11.7824C10.167 11.2301 10.6147 10.7824 11.167 10.7824C12.7036 10.7824 13.9494 9.53664 13.9494 7.99996C13.9494 6.46327 12.7036 5.21754 11.167 5.21754C10.6147 5.21754 10.167 4.76983 10.167 4.21754Z" fill="white"/>
<path fill-rule="evenodd" clip-rule="evenodd" d="M3.60217 7.84049C3.60217 7.28821 4.04989 6.84049 4.60217 6.84049L10.7974 6.84049C11.3497 6.84049 11.7974 7.28821 11.7974 7.8405C11.7974 8.39278 11.3497 8.84049 10.7974 8.84049L4.60217 8.84049C4.04989 8.84049 3.60217 8.39278 3.60217 7.84049Z" fill="white"/>
</svg>
