<svg width="16" height="16" viewBox="0 0 16 16" fill="none" xmlns="http://www.w3.org/2000/svg">
<path d="M3.16283 1.1001V6.0001H2.02883V2.0101H1.04883V1.1001H3.16283Z" fill="#ABC0DC"/>
<path d="M3.16283 1.1001V6.0001H2.02883V2.0101H1.04883V1.1001H3.16283Z" fill="#7D9BC3"/>
<path d="M4.93384 13.476V14.4H1.23084V13.665L3.12084 11.88C3.3215 11.6887 3.45684 11.5253 3.52684 11.39C3.59684 11.25 3.63184 11.1123 3.63184 10.977C3.63184 10.781 3.56417 10.6317 3.42884 10.529C3.29817 10.4217 3.1045 10.368 2.84784 10.368C2.63317 10.368 2.4395 10.41 2.26684 10.494C2.09417 10.5733 1.9495 10.6947 1.83284 10.858L1.00684 10.326C1.19817 10.0413 1.46184 9.81968 1.79784 9.66102C2.13384 9.49768 2.51884 9.41602 2.95284 9.41602C3.31684 9.41602 3.63417 9.47668 3.90484 9.59802C4.18017 9.71468 4.3925 9.88268 4.54184 10.102C4.69584 10.3167 4.77284 10.571 4.77284 10.865C4.77284 11.131 4.71684 11.3807 4.60484 11.614C4.49284 11.8473 4.27584 12.1133 3.95384 12.412L2.82684 13.476H4.93384Z" fill="#ABC0DC"/>
<path d="M4.93384 13.476V14.4H1.23084V13.665L3.12084 11.88C3.3215 11.6887 3.45684 11.5253 3.52684 11.39C3.59684 11.25 3.63184 11.1123 3.63184 10.977C3.63184 10.781 3.56417 10.6317 3.42884 10.529C3.29817 10.4217 3.1045 10.368 2.84784 10.368C2.63317 10.368 2.4395 10.41 2.26684 10.494C2.09417 10.5733 1.9495 10.6947 1.83284 10.858L1.00684 10.326C1.19817 10.0413 1.46184 9.81968 1.79784 9.66102C2.13384 9.49768 2.51884 9.41602 2.95284 9.41602C3.31684 9.41602 3.63417 9.47668 3.90484 9.59802C4.18017 9.71468 4.3925 9.88268 4.54184 10.102C4.69584 10.3167 4.77284 10.571 4.77284 10.865C4.77284 11.131 4.71684 11.3807 4.60484 11.614C4.49284 11.8473 4.27584 12.1133 3.95384 12.412L2.82684 13.476H4.93384Z" fill="#7D9BC3"/>
<rect x="6.05811" y="1.25" width="9.94189" height="1.5" fill="#ABC0DC"/>
<rect x="6.05811" y="1.25" width="9.94189" height="1.5" fill="#7D9BC3"/>
<rect x="6.05811" y="7.25" width="9.94189" height="1.5" fill="#ABC0DC"/>
<rect x="6.05811" y="7.25" width="9.94189" height="1.5" fill="#7D9BC3"/>
<rect x="6.05811" y="13.25" width="9.94189" height="1.5" fill="#ABC0DC"/>
<rect x="6.05811" y="13.25" width="9.94189" height="1.5" fill="#7D9BC3"/>
</svg>
