<svg width="234" height="40" viewBox="0 0 234 40" fill="none" xmlns="http://www.w3.org/2000/svg" style="width: 200px; height: 50px; pointer-events: none;">
 <path d="M63.0471 28.5021C60.9861 28.5021 59.2294 27.8053 57.7769 26.4117C56.344 24.9985 55.6276 23.2908 55.6276 21.2887C55.6276 19.267 56.344 17.5594 57.7769 16.1658C59.2294 14.7722 60.8978 14.0754 62.7821 14.0754C64.686 14.0754 66.3054 14.6053 67.6401 15.6652C67.7971 15.7634 67.8854 15.9106 67.9051 16.1069C67.9247 16.3032 67.8658 16.4798 67.7284 16.6368C67.434 16.9705 67.1101 17.0098 66.7568 16.7546C65.6773 15.891 64.372 15.4591 62.841 15.4591C61.31 15.4591 59.9556 16.0284 58.7779 17.1668C57.6199 18.3052 57.0408 19.6792 57.0408 21.2887C57.0408 22.8983 57.6199 24.2722 58.7779 25.4107C59.9556 26.5295 61.3002 27.0889 62.8115 27.0889C64.3425 27.0889 65.6576 26.6669 66.7568 25.8229C67.1101 25.5677 67.434 25.6168 67.7284 25.9701C68.0425 26.3234 67.9934 26.6571 67.5812 26.9711C66.2661 27.9918 64.7547 28.5021 63.0471 28.5021ZM82.8719 14.2814C83.0093 14.1441 83.1761 14.0754 83.3724 14.0754C83.5687 14.0754 83.7355 14.1441 83.8729 14.2814C84.0103 14.4188 84.079 14.5857 84.079 14.782V27.7955C84.079 27.9918 84.0103 28.1586 83.8729 28.296C83.7355 28.4334 83.5687 28.5021 83.3724 28.5021C83.1761 28.5021 83.0093 28.4334 82.8719 28.296C82.7345 28.1586 82.6658 27.9918 82.6658 27.7955V25.6462C82.0377 26.5295 81.2427 27.2263 80.281 27.7366C79.3388 28.247 78.3279 28.5021 77.2484 28.5021C75.3641 28.5021 73.7546 27.7955 72.4198 26.3823C71.0851 24.969 70.4177 23.2712 70.4177 21.2887C70.4177 19.3063 71.0851 17.6084 72.4198 16.1952C73.7546 14.782 75.3641 14.0754 77.2484 14.0754C78.3279 14.0754 79.3388 14.3305 80.281 14.8409C81.2427 15.3512 82.0377 16.0382 82.6658 16.9018V14.782C82.6658 14.5857 82.7345 14.4188 82.8719 14.2814ZM71.831 21.2887C71.831 22.8983 72.3609 24.2722 73.4209 25.4107C74.5004 26.5295 75.7763 27.0889 77.2484 27.0889C78.7401 27.0889 80.016 26.5295 81.0759 25.4107C82.1358 24.2722 82.6658 22.8983 82.6658 21.2887C82.6658 19.6792 82.1358 18.3052 81.0759 17.1668C80.016 16.0284 78.7401 15.4591 77.2484 15.4591C75.7763 15.4591 74.5004 16.0284 73.4209 17.1668C72.3609 18.3052 71.831 19.6792 71.831 21.2887ZM93.0352 14.0754C93.2119 14.0754 93.3689 14.1539 93.5063 14.3109C93.6633 14.4483 93.7418 14.6053 93.7418 14.782C93.7418 14.9586 93.6633 15.1255 93.5063 15.2825C93.3689 15.4199 93.2119 15.4886 93.0352 15.4886H91.1804V25.9995C91.1804 26.3136 91.2981 26.5688 91.5337 26.765C91.7888 26.9613 92.0146 27.0595 92.2108 27.0595C92.4071 27.0595 92.5838 27.138 92.7408 27.295C92.8978 27.452 92.9763 27.6189 92.9763 27.7955C92.9763 27.9722 92.8978 28.139 92.7408 28.296C92.5838 28.4334 92.4169 28.5021 92.2403 28.5021C91.514 28.5021 90.9056 28.2666 90.4149 27.7955C89.9438 27.3244 89.7082 26.7258 89.7082 25.9995V15.4886H87.9122C87.5982 15.4886 87.4019 15.4297 87.3234 15.3119C87.2449 15.1942 87.2056 15.0371 87.2056 14.8409C87.2056 14.6446 87.2154 14.5072 87.2351 14.4287C87.294 14.1931 87.5197 14.0754 87.9122 14.0754H89.7082V8.71683C89.7082 8.54018 89.7769 8.38315 89.9143 8.24575C90.0714 8.08873 90.2382 8.01021 90.4149 8.01021C90.6111 8.01021 90.7878 8.08873 90.9448 8.24575C91.1018 8.38315 91.1804 8.54018 91.1804 8.71683V14.0754H93.0352ZM105.385 28.5021C103.324 28.5021 101.567 27.8053 100.114 26.4117C98.6816 24.9985 97.9652 23.2908 97.9652 21.2887C97.9652 19.267 98.6816 17.5594 100.114 16.1658C101.567 14.7722 103.235 14.0754 105.12 14.0754C107.024 14.0754 108.643 14.6053 109.978 15.6652C110.135 15.7634 110.223 15.9106 110.243 16.1069C110.262 16.3032 110.203 16.4798 110.066 16.6368C109.772 16.9705 109.448 17.0098 109.094 16.7546C108.015 15.891 106.71 15.4591 105.179 15.4591C103.648 15.4591 102.293 16.0284 101.116 17.1668C99.9574 18.3052 99.3784 19.6792 99.3784 21.2887C99.3784 22.8983 99.9574 24.2722 101.116 25.4107C102.293 26.5295 103.638 27.0889 105.149 27.0889C106.68 27.0889 107.995 26.6669 109.094 25.8229C109.448 25.5677 109.772 25.6168 110.066 25.9701C110.38 26.3234 110.331 26.6571 109.919 26.9711C108.604 27.9918 107.092 28.5021 105.385 28.5021ZM115.17 28.5021H115.022C114.551 28.5021 114.316 28.2666 114.316 27.7955V8.59906C114.316 8.40278 114.384 8.23594 114.522 8.09854C114.659 7.96114 114.826 7.89244 115.022 7.89244C115.219 7.89244 115.386 7.96114 115.523 8.09854C115.68 8.23594 115.758 8.40278 115.758 8.59906V16.1952C116.956 14.782 118.438 14.0754 120.204 14.0754C121.971 14.0754 123.433 14.6151 124.591 15.6947C125.769 16.7546 126.358 18.109 126.358 19.7577V27.7955C126.358 27.9918 126.279 28.1586 126.122 28.296C125.985 28.4334 125.818 28.5021 125.622 28.5021C125.425 28.5021 125.259 28.4334 125.121 28.296C124.984 28.1586 124.915 27.9918 124.915 27.7955V19.7577C124.915 18.5212 124.473 17.5103 123.59 16.7252C122.707 15.9204 121.618 15.518 120.322 15.518C119.046 15.518 117.967 15.9204 117.083 16.7252C116.2 17.5103 115.758 18.5212 115.758 19.7577V27.8838C115.758 27.9231 115.719 28.0212 115.641 28.1783C115.562 28.3157 115.425 28.4138 115.229 28.4727C115.209 28.4923 115.189 28.5021 115.17 28.5021ZM130.578 22.6137V14.7525C130.578 14.5562 130.647 14.3894 130.784 14.252C130.921 14.1146 131.088 14.0459 131.284 14.0459C131.481 14.0459 131.648 14.1146 131.785 14.252C131.922 14.3894 131.991 14.5562 131.991 14.7525V22.6137C131.991 23.8502 132.423 24.9003 133.287 25.764C134.15 26.6276 135.19 27.0693 136.407 27.0889C137.644 27.0693 138.694 26.6276 139.558 25.764C140.441 24.9003 140.883 23.8502 140.883 22.6137V14.7525C140.883 14.5562 140.951 14.3894 141.089 14.252C141.246 14.1146 141.422 14.0459 141.619 14.0459C141.815 14.0459 141.982 14.1146 142.119 14.252C142.257 14.3894 142.325 14.5562 142.325 14.7525V22.6137C142.325 24.2428 141.746 25.6364 140.588 26.7945C139.45 27.9329 138.066 28.5021 136.437 28.5021C134.808 28.5021 133.424 27.9329 132.286 26.7945C131.147 25.6364 130.578 24.2428 130.578 22.6137ZM147.429 33.8312V14.782C147.429 14.5857 147.497 14.4188 147.635 14.2814C147.772 14.1441 147.939 14.0754 148.135 14.0754C148.332 14.0754 148.498 14.1441 148.636 14.2814C148.793 14.4188 148.871 14.5857 148.871 14.782V16.8724C149.5 16.0087 150.294 15.3316 151.256 14.8409C152.218 14.3305 153.249 14.0754 154.348 14.0754C156.291 14.0754 157.94 14.7722 159.294 16.1658C160.648 17.5594 161.326 19.2474 161.326 21.2299C161.326 23.1927 160.648 24.8807 159.294 26.294C157.94 27.7072 156.291 28.4138 154.348 28.4138C153.249 28.4138 152.218 28.1586 151.256 27.6483C150.294 27.138 149.5 26.451 148.871 25.5873V33.8312C148.871 34.0275 148.793 34.1943 148.636 34.3317C148.498 34.4691 148.332 34.5378 148.135 34.5378C147.939 34.5378 147.772 34.4691 147.635 34.3317C147.497 34.1943 147.429 34.0275 147.429 33.8312ZM148.871 20.9943V21.2299C148.871 22.8197 149.411 24.1741 150.491 25.2929C151.57 26.4117 152.856 26.9809 154.348 27.0006C155.879 26.9809 157.184 26.4117 158.264 25.2929C159.343 24.1741 159.883 22.8197 159.883 21.2299C159.883 19.64 159.343 18.2954 158.264 17.1962C157.184 16.0774 155.898 15.518 154.407 15.518C152.915 15.518 151.629 16.048 150.55 17.1079C149.49 18.1678 148.93 19.4633 148.871 20.9943Z" fill="#445576"></path>
 <path d="M177.085 20.3683C177.085 20.8001 176.938 21.1534 176.643 21.4282C176.368 21.6834 175.996 21.811 175.524 21.811H166.162C166.338 22.655 166.672 23.3027 167.163 23.7542C167.791 24.4804 168.704 24.922 169.901 25.0791C171.118 25.2165 172.168 24.9711 173.051 24.343C173.346 24.029 173.738 23.8719 174.229 23.8719C174.72 23.8719 175.063 23.9995 175.259 24.2547C175.809 24.8632 175.809 25.5011 175.259 26.1684C173.846 27.4639 172.109 28.1116 170.048 28.1116C168.007 28.092 166.289 27.3658 164.896 25.9329C163.522 24.5 162.825 22.7727 162.805 20.751C162.825 18.7293 163.522 17.002 164.896 15.5692C166.289 14.1167 167.968 13.3904 169.93 13.3904C171.893 13.3904 173.542 14.0382 174.877 15.3336C176.231 16.6095 176.967 18.2386 177.085 20.2211V20.3683ZM169.989 16.1875C168.851 16.2463 167.938 16.5996 167.251 17.2474C166.564 17.8951 166.152 18.5821 166.015 19.3083H174.347C174.17 18.6214 173.689 17.954 172.904 17.3063C172.139 16.6585 171.167 16.2856 169.989 16.1875ZM181.838 28.1116L181.543 28.0822C181.17 27.984 180.866 27.7976 180.631 27.5228C180.395 27.248 180.277 26.9241 180.277 26.5512V14.9803C180.277 14.5289 180.424 14.1559 180.719 13.8615C181.033 13.5475 181.406 13.3904 181.838 13.3904C182.525 13.3904 182.996 13.6848 183.251 14.2737C184.252 13.6848 185.302 13.3904 186.401 13.3904C188.286 13.3904 189.826 14.0676 191.024 15.422C192.182 14.0676 193.664 13.3904 195.47 13.3904C197.275 13.3904 198.777 13.9989 199.974 15.2159C201.172 16.4132 201.77 17.8657 201.77 19.5733V26.5512C201.77 26.983 201.613 27.3559 201.299 27.67C201.005 27.9644 200.642 28.1116 200.21 28.1116C199.778 28.1116 199.405 27.9644 199.091 27.67C198.777 27.3559 198.62 26.983 198.62 26.5512V19.5733C198.62 18.7293 198.325 18.0129 197.737 17.424C197.148 16.8352 196.441 16.5408 195.617 16.5408C194.812 16.5408 194.115 16.8254 193.526 17.3946C192.938 17.9638 192.623 18.6606 192.584 19.485V26.5512C192.584 26.983 192.427 27.3559 192.113 27.67C191.819 27.9644 191.456 28.1116 191.024 28.1116C190.612 28.1116 190.239 27.9546 189.905 27.6406C189.591 27.3265 189.434 26.9634 189.434 26.5512V19.485C189.414 18.6802 189.11 17.9933 188.521 17.424C187.932 16.8352 187.226 16.5408 186.401 16.5408C185.597 16.5408 184.9 16.8352 184.311 17.424C183.722 18.0129 183.428 18.7293 183.428 19.5733V26.5512L183.398 26.7573V26.8456L183.31 27.0223V27.1695C182.996 27.7976 182.505 28.1116 181.838 28.1116ZM212.229 28.1116C210.246 28.1116 208.578 27.3952 207.224 25.9623C205.889 24.5295 205.222 22.8022 205.222 20.7805C205.222 18.7391 205.889 17.002 207.224 15.5692C208.578 14.1167 210.246 13.3904 212.229 13.3904C213.623 13.3904 214.928 13.8222 216.145 14.6859C216.243 14.313 216.429 14.0087 216.704 13.7732C216.979 13.518 217.313 13.3904 217.705 13.3904C218.117 13.3904 218.471 13.5475 218.765 13.8615C219.079 14.1756 219.236 14.5485 219.236 14.9803V26.5512C219.236 26.983 219.079 27.3559 218.765 27.67C218.471 27.9644 218.117 28.1116 217.705 28.1116C217.313 28.1116 216.979 27.9939 216.704 27.7583C216.429 27.5228 216.243 27.2185 216.145 26.8456C214.947 27.6896 213.642 28.1116 212.229 28.1116ZM208.372 20.7805C208.372 21.9582 208.725 22.9494 209.432 23.7542C210.158 24.5589 211.081 24.9613 212.199 24.9613C213.338 24.9613 214.27 24.5589 214.997 23.7542C215.742 22.9494 216.115 21.9582 216.115 20.7805C216.115 19.6028 215.742 18.6017 214.997 17.7773C214.251 16.953 213.318 16.5408 212.199 16.5408C211.1 16.5408 210.188 16.953 209.461 17.7773C208.735 18.5821 208.372 19.5831 208.372 20.7805ZM223.982 13.8909C224.296 13.5769 224.679 13.4199 225.13 13.4199C225.582 13.4199 225.955 13.5769 226.249 13.8909C226.563 14.1854 226.72 14.5681 226.72 15.0392V26.5217C226.72 26.9732 226.563 27.3559 226.249 27.67C225.955 27.9644 225.582 28.1116 225.13 28.1116C224.699 28.1116 224.326 27.9546 224.012 27.6406C223.698 27.3265 223.541 26.9536 223.541 26.5217V15.0392C223.541 14.5681 223.688 14.1854 223.982 13.8909ZM226.72 9.09183V9.71012C226.72 10.1616 226.563 10.5443 226.249 10.8584C225.955 11.1724 225.582 11.3295 225.13 11.3295C224.699 11.3295 224.326 11.1724 224.012 10.8584C223.698 10.5443 223.541 10.1616 223.541 9.71012V9.09183C223.541 8.66001 223.698 8.28707 224.012 7.97302C224.326 7.65897 224.699 7.50194 225.13 7.50194C225.582 7.50194 225.955 7.65897 226.249 7.97302C226.563 8.26744 226.72 8.64038 226.72 9.09183ZM230.498 9.12127C230.498 8.66982 230.655 8.28707 230.969 7.97302C231.283 7.65897 231.666 7.50194 232.117 7.50194C232.569 7.50194 232.951 7.65897 233.265 7.97302C233.599 8.28707 233.766 8.66982 233.766 9.12127V26.4923C233.766 26.9438 233.599 27.3265 233.265 27.6406C232.951 27.9546 232.569 28.1116 232.117 28.1116C231.666 28.1116 231.283 27.9546 230.969 27.6406C230.655 27.3265 230.498 26.9438 230.498 26.4923V9.12127Z" fill="url(#paint0_linear)"></path>
 <path d="M38.4898 19.7753C38.4898 9.91575 30.2141 1.92303 20.0056 1.92303C9.79712 1.92303 1.52148 9.91575 1.52148 19.7753C1.52148 29.6348 9.79712 37.6275 20.0056 37.6275" stroke="url(#paint1_linear)" stroke-width="2.94424" stroke-linecap="round" stroke-linejoin="round"></path>
 <path d="M8.24272 19.7752C8.24272 26.0493 13.5089 31.1355 20.0051 31.1355C26.5014 31.1355 31.7676 26.0493 31.7676 19.7752C31.7676 13.5011 26.5014 8.41488 20.0051 8.41488" stroke="url(#paint2_linear)" stroke-width="2.35539" stroke-linecap="round" stroke-linejoin="round"></path>
 <defs>
  <linearGradient id="paint0_linear" x1="161.098" y1="19.5436" x2="236.699" y2="19.5436" gradientUnits="userSpaceOnUse">
   <stop stop-color="#82E0DB"></stop>
   <stop offset="1" stop-color="#22AAE2"></stop>
  </linearGradient>
  <linearGradient id="paint1_linear" x1="1.52148" y1="19.7753" x2="38.4898" y2="19.7753" gradientUnits="userSpaceOnUse">
   <stop stop-color="#82E0DB"></stop>
   <stop offset="1" stop-color="#22AAE2"></stop>
  </linearGradient>
  <linearGradient id="paint2_linear" x1="31.7676" y1="19.7752" x2="8.24272" y2="19.7752" gradientUnits="userSpaceOnUse">
   <stop stop-color="#82E0DB"></stop>
   <stop offset="1" stop-color="#22AAE2"></stop>
  </linearGradient>
 </defs>
</svg>