<svg width="16" height="16" viewBox="0 0 16 16" fill="none" xmlns="http://www.w3.org/2000/svg">
<mask id="path-1-inside-1" fill="white">
<path fill-rule="evenodd" clip-rule="evenodd" d="M8 1.21887C4.21405 1.21887 1.18028 4.2747 1.18028 8C1.18028 11.7253 4.21405 14.7811 8 14.7811C8.32592 14.7811 8.59014 15.054 8.59014 15.3906C8.59014 15.7271 8.32592 16 8 16C3.60124 16 0 12.4381 0 8C0 3.56191 3.60124 0 8 0C12.3988 0 16 3.56191 16 8C16 8.33658 15.7358 8.60944 15.4099 8.60944C15.0839 8.60944 14.8197 8.33658 14.8197 8C14.8197 4.2747 11.7859 1.21887 8 1.21887Z"/>
</mask>
<path fill-rule="evenodd" clip-rule="evenodd" d="M8 1.21887C4.21405 1.21887 1.18028 4.2747 1.18028 8C1.18028 11.7253 4.21405 14.7811 8 14.7811C8.32592 14.7811 8.59014 15.054 8.59014 15.3906C8.59014 15.7271 8.32592 16 8 16C3.60124 16 0 12.4381 0 8C0 3.56191 3.60124 0 8 0C12.3988 0 16 3.56191 16 8C16 8.33658 15.7358 8.60944 15.4099 8.60944C15.0839 8.60944 14.8197 8.33658 14.8197 8C14.8197 4.2747 11.7859 1.21887 8 1.21887Z" fill="url(#paint0_linear)"/>
<path d="M5.5915 8C5.5915 6.71793 6.64331 5.63009 8 5.63009V-3.19235C1.7848 -3.19235 -3.23094 1.83146 -3.23094 8H5.5915ZM8 10.3699C6.64331 10.3699 5.5915 9.28207 5.5915 8H-3.23094C-3.23094 14.1685 1.7848 19.1923 8 19.1923L8 10.3699ZM13.0014 15.3906C13.0014 12.7526 10.8949 10.3699 8 10.3699L8 19.1923C5.75696 19.1923 4.17892 17.3554 4.17892 15.3906H13.0014ZM8 20.4112C10.8949 20.4112 13.0014 18.0285 13.0014 15.3906H4.17892C4.17892 13.4258 5.75696 11.5888 8 11.5888L8 20.4112ZM-4.41122 8C-4.41122 14.8884 1.17912 20.4112 8 20.4112L8 11.5888C6.02336 11.5888 4.41122 9.98773 4.41122 8H-4.41122ZM8 -4.41122C1.17912 -4.41122 -4.41122 1.11156 -4.41122 8H4.41122C4.41122 6.01227 6.02336 4.41122 8 4.41122V-4.41122ZM20.4112 8C20.4112 1.11156 14.8209 -4.41122 8 -4.41122V4.41122C9.97664 4.41122 11.5888 6.01227 11.5888 8L20.4112 8ZM15.4099 13.0207C18.3048 13.0207 20.4112 10.638 20.4112 8L11.5888 8C11.5888 6.03521 13.1668 4.19822 15.4099 4.19822V13.0207ZM10.4085 8C10.4085 10.638 12.515 13.0207 15.4099 13.0207V4.19822C17.6529 4.19822 19.2309 6.03521 19.2309 8L10.4085 8ZM8 5.63009C9.35669 5.63009 10.4085 6.71793 10.4085 8L19.2309 8C19.2309 1.83146 14.2152 -3.19235 8 -3.19235V5.63009Z" fill="white" mask="url(#path-1-inside-1)"/>
<mask id="path-3-inside-2" fill="white">
<path fill-rule="evenodd" clip-rule="evenodd" d="M8.00011 12.2153C10.3592 12.2153 12.2433 10.3122 12.2433 7.99988C12.2433 5.68759 10.3592 3.78443 8.00011 3.78443C7.73937 3.78443 7.52799 3.56614 7.52799 3.29688C7.52799 3.02761 7.73937 2.80933 8.00011 2.80933C10.8494 2.80933 13.1875 5.11737 13.1875 7.99988C13.1875 10.8824 10.8494 13.1904 8.00011 13.1904C5.1508 13.1904 2.81271 10.8824 2.81271 7.99988C2.81271 7.73061 3.02408 7.51233 3.28482 7.51233C3.54556 7.51233 3.75694 7.73061 3.75694 7.99988C3.75694 10.3122 5.64105 12.2153 8.00011 12.2153Z"/>
</mask>
<path fill-rule="evenodd" clip-rule="evenodd" d="M8.00011 12.2153C10.3592 12.2153 12.2433 10.3122 12.2433 7.99988C12.2433 5.68759 10.3592 3.78443 8.00011 3.78443C7.73937 3.78443 7.52799 3.56614 7.52799 3.29688C7.52799 3.02761 7.73937 2.80933 8.00011 2.80933C10.8494 2.80933 13.1875 5.11737 13.1875 7.99988C13.1875 10.8824 10.8494 13.1904 8.00011 13.1904C5.1508 13.1904 2.81271 10.8824 2.81271 7.99988C2.81271 7.73061 3.02408 7.51233 3.28482 7.51233C3.54556 7.51233 3.75694 7.73061 3.75694 7.99988C3.75694 10.3122 5.64105 12.2153 8.00011 12.2153Z" fill="url(#paint1_linear)"/>
<path d="M8.7143 7.99988C8.7143 8.35845 8.41487 8.68636 8.00011 8.68636L8.00011 15.7443C12.3034 15.7443 15.7723 12.2659 15.7723 7.99988L8.7143 7.99988ZM8.00011 7.3134C8.41487 7.3134 8.7143 7.6413 8.7143 7.99988L15.7723 7.99988C15.7723 3.73389 12.3034 0.255449 8.00011 0.25545L8.00011 7.3134ZM3.99902 3.29688C3.99902 5.40724 5.68419 7.3134 8.00011 7.3134L8.00011 0.25545C9.79454 0.25545 11.057 1.72504 11.057 3.29688L3.99902 3.29688ZM8.00011 -0.719649C5.68419 -0.719649 3.99902 1.18651 3.99902 3.29688L11.057 3.29688C11.057 4.86871 9.79454 6.3383 8.00011 6.3383L8.00011 -0.719649ZM16.7165 7.99988C16.7165 3.15647 12.7865 -0.719649 8.00011 -0.719649L8.00011 6.3383C8.91233 6.3383 9.65852 7.07827 9.65852 7.99988L16.7165 7.99988ZM8.00011 16.7194C12.7865 16.7194 16.7165 12.8433 16.7165 7.99988L9.65852 7.99988C9.65852 8.92149 8.91233 9.66145 8.00011 9.66145L8.00011 16.7194ZM-0.716262 7.99988C-0.716262 12.8433 3.21372 16.7194 8.00011 16.7194L8.00011 9.66145C7.08788 9.66145 6.34169 8.92149 6.34169 7.99988L-0.716262 7.99988ZM3.28482 3.98335C0.968914 3.98335 -0.716263 5.88951 -0.716262 7.99988L6.34169 7.99988C6.34169 9.57172 5.07926 11.0413 3.28483 11.0413L3.28482 3.98335ZM7.28591 7.99988C7.28591 5.88951 5.60073 3.98335 3.28482 3.98335L3.28483 11.0413C1.49039 11.0413 0.227959 9.57172 0.227959 7.99988L7.28591 7.99988ZM8.00011 8.68636C7.58534 8.68636 7.28591 8.35845 7.28591 7.99988L0.227959 7.99988C0.22796 12.2659 3.69677 15.7443 8.00011 15.7443L8.00011 8.68636Z" fill="white" mask="url(#path-3-inside-2)"/>
<defs>
<linearGradient id="paint0_linear" x1="0.590127" y1="7.99999" x2="15.4099" y2="7.99999" gradientUnits="userSpaceOnUse">
<stop stop-color="#82E0DB"/>
<stop offset="1" stop-color="#22AAE2"/>
</linearGradient>
<linearGradient id="paint1_linear" x1="12.7153" y1="7.9999" x2="3.28478" y2="7.9999" gradientUnits="userSpaceOnUse">
<stop stop-color="#82E0DB"/>
<stop offset="1" stop-color="#22AAE2"/>
</linearGradient>
</defs>
</svg>
