<svg width="16" height="16" viewBox="0 0 16 16" fill="none" xmlns="http://www.w3.org/2000/svg">
<path fill-rule="evenodd" clip-rule="evenodd" d="M0.966895 9.61178C0.469838 9.61178 0.0668946 9.20883 0.0668946 8.71178C0.0668946 8.21472 0.469838 7.81178 0.966895 7.81178H6.99521C7.49227 7.81178 7.89522 8.21472 7.89522 8.71178V14.4889C7.89522 14.986 7.49227 15.3889 6.99521 15.3889C6.49816 15.3889 6.09521 14.986 6.09521 14.4889V10.8846L1.60329 15.3765C1.25182 15.728 0.68197 15.728 0.330498 15.3765C-0.0209734 15.025 -0.0209734 14.4552 0.330498 14.1037L4.82242 9.61178H0.966895Z" fill="#ABC0DC"/>
<path fill-rule="evenodd" clip-rule="evenodd" d="M0.966895 9.61178C0.469838 9.61178 0.0668946 9.20883 0.0668946 8.71178C0.0668946 8.21472 0.469838 7.81178 0.966895 7.81178H6.99521C7.49227 7.81178 7.89522 8.21472 7.89522 8.71178V14.4889C7.89522 14.986 7.49227 15.3889 6.99521 15.3889C6.49816 15.3889 6.09521 14.986 6.09521 14.4889V10.8846L1.60329 15.3765C1.25182 15.728 0.68197 15.728 0.330498 15.3765C-0.0209734 15.025 -0.0209734 14.4552 0.330498 14.1037L4.82242 9.61178H0.966895Z" fill="#7D9BC3"/>
<path fill-rule="evenodd" clip-rule="evenodd" d="M15.9332 7.03724C15.9332 7.53429 15.5303 7.93724 15.0332 7.93724L9.0049 7.93724C8.50784 7.93724 8.1049 7.53429 8.1049 7.03724L8.1049 1.26011C8.1049 0.763051 8.50784 0.360107 9.0049 0.360107C9.50195 0.360107 9.9049 0.763052 9.9049 1.26011L9.9049 4.86444L14.1456 0.623712C14.4971 0.27224 15.0669 0.27224 15.4184 0.623712C15.7699 0.975184 15.7699 1.54503 15.4184 1.8965L11.1777 6.13724L15.0332 6.13724C15.5303 6.13724 15.9332 6.54018 15.9332 7.03724Z" fill="#ABC0DC"/>
<path fill-rule="evenodd" clip-rule="evenodd" d="M15.9332 7.03724C15.9332 7.53429 15.5303 7.93724 15.0332 7.93724L9.0049 7.93724C8.50784 7.93724 8.1049 7.53429 8.1049 7.03724L8.1049 1.26011C8.1049 0.763051 8.50784 0.360107 9.0049 0.360107C9.50195 0.360107 9.9049 0.763052 9.9049 1.26011L9.9049 4.86444L14.1456 0.623712C14.4971 0.27224 15.0669 0.27224 15.4184 0.623712C15.7699 0.975184 15.7699 1.54503 15.4184 1.8965L11.1777 6.13724L15.0332 6.13724C15.5303 6.13724 15.9332 6.54018 15.9332 7.03724Z" fill="#7D9BC3"/>
</svg>
