<svg width="16" height="16" viewBox="0 0 16 16" fill="none" xmlns="http://www.w3.org/2000/svg">
<path d="M4.73515 7.34998C4.73515 7.41419 4.71642 7.47839 4.67897 7.5426C4.64152 7.6068 4.58801 7.65228 4.51846 7.67903C4.4917 7.68973 4.4275 7.71381 4.32584 7.75126C4.22953 7.78337 4.1145 7.82349 3.98073 7.87165C3.84697 7.91445 3.70251 7.95993 3.54735 8.00809C3.39754 8.05624 3.25842 8.10172 3.13001 8.14452C3.00695 8.18733 2.90262 8.2221 2.81701 8.24886C2.7314 8.27561 2.68593 8.28898 2.68058 8.28898C2.63777 8.28898 2.60032 8.27561 2.56822 8.24886C2.54146 8.21675 2.52809 8.1793 2.52809 8.1365C2.52809 8.07764 2.54681 8.04019 2.58427 8.02414L3.98073 6.89252C4.04494 6.82296 4.1252 6.78818 4.22151 6.78818C4.28571 6.78818 4.34724 6.80691 4.4061 6.84436C4.4703 6.87646 4.52648 6.92194 4.57463 6.9808C4.62279 7.0343 4.66024 7.09316 4.68699 7.15736C4.7191 7.22157 4.73515 7.28577 4.73515 7.34998ZM2.82504 5.88931C2.82504 5.93211 2.81701 6.00702 2.80096 6.11403C2.79026 6.21568 2.77421 6.33607 2.75281 6.47518C2.73676 6.61429 2.71535 6.76143 2.6886 6.91659C2.6672 7.06641 2.6458 7.21087 2.6244 7.34998C2.60299 7.48909 2.58159 7.61215 2.56019 7.71916C2.53879 7.82082 2.52274 7.89038 2.51204 7.92783C2.50134 7.95993 2.48528 7.98668 2.46388 8.00809C2.44783 8.02949 2.41573 8.04019 2.36757 8.04019C2.32477 8.04019 2.29267 8.02949 2.27127 8.00809C2.25521 7.98668 2.23649 7.95993 2.21509 7.92783C2.20439 7.89038 2.18833 7.82082 2.16693 7.71916C2.14553 7.6175 2.12145 7.49979 2.0947 7.36603C2.06795 7.22692 2.03852 7.08246 2.00642 6.93264C1.97967 6.77748 1.95559 6.63302 1.93419 6.49926C1.91279 6.3655 1.89406 6.24779 1.87801 6.14613C1.86196 6.04447 1.85393 5.97491 1.85393 5.93746C1.85393 5.85185 1.87266 5.78497 1.91011 5.73682C1.94756 5.68331 1.99572 5.64319 2.05457 5.61643C2.11343 5.58433 2.17763 5.5656 2.24719 5.56025C2.3221 5.54955 2.39433 5.5442 2.46388 5.5442C2.55484 5.5442 2.63777 5.57898 2.71268 5.64854C2.78758 5.71809 2.82504 5.79835 2.82504 5.88931ZM4.14125 9.94227C4.14125 10.0011 4.12252 10.0627 4.08507 10.1269C4.05297 10.1857 4.01016 10.2392 3.95666 10.2874C3.90315 10.3355 3.8443 10.3757 3.78009 10.4078C3.71589 10.4399 3.65703 10.4559 3.60353 10.4559C3.54467 10.4559 3.48582 10.4399 3.42696 10.4078C3.36811 10.3757 3.32263 10.3302 3.29053 10.2713C3.27448 10.2446 3.24237 10.1857 3.19422 10.0948C3.15142 9.99845 3.09791 9.88877 3.0337 9.76571C2.9695 9.64265 2.90262 9.51424 2.83306 9.38048C2.76886 9.24136 2.70733 9.11295 2.64847 8.99524C2.58962 8.87753 2.54146 8.77855 2.50401 8.69829C2.46656 8.61269 2.44783 8.56186 2.44783 8.54581C2.44783 8.503 2.46121 8.46822 2.48796 8.44147C2.52006 8.41472 2.55752 8.40134 2.60032 8.40134C2.62172 8.40134 2.6672 8.4281 2.73676 8.4816C2.80631 8.5351 2.88924 8.60466 2.98555 8.69027C3.08186 8.77052 3.18352 8.86148 3.29053 8.96314C3.39754 9.0648 3.49919 9.16378 3.5955 9.26009C3.69716 9.35105 3.78544 9.43398 3.86035 9.50889C3.93526 9.57844 3.98609 9.6266 4.01284 9.65335C4.09844 9.7229 4.14125 9.81921 4.14125 9.94227ZM2.19903 8.1365C2.19903 8.1793 2.18566 8.21675 2.15891 8.24886C2.13215 8.27561 2.09738 8.28898 2.05457 8.28898C2.04387 8.28898 1.99572 8.27561 1.91011 8.24886C1.8245 8.2221 1.71749 8.18733 1.58908 8.14452C1.46602 8.10172 1.32959 8.05624 1.17977 8.00809C1.03531 7.95993 0.8962 7.91445 0.762439 7.87165C0.628678 7.82349 0.510968 7.78337 0.409309 7.75126C0.307651 7.71381 0.243445 7.68973 0.216693 7.67903C0.147137 7.65228 0.0936329 7.6068 0.0561797 7.5426C0.0187266 7.47839 0 7.41419 0 7.34998C0 7.28577 0.0133761 7.22157 0.0401284 7.15736C0.0722311 7.09316 0.112359 7.0343 0.160514 6.9808C0.208668 6.92194 0.262172 6.87646 0.321027 6.84436C0.385232 6.80691 0.446763 6.78818 0.505617 6.78818C0.607276 6.78818 0.690208 6.82296 0.754413 6.89252L2.15088 8.02414C2.18298 8.04019 2.19903 8.07764 2.19903 8.1365ZM2.28732 8.52975C2.28732 8.54581 2.26859 8.59663 2.23114 8.68224C2.19368 8.76785 2.14553 8.86951 2.08668 8.98722C2.02782 9.10493 1.96362 9.23334 1.89406 9.37245C1.8245 9.51156 1.75762 9.64265 1.69342 9.76571C1.63456 9.88877 1.58106 9.99845 1.5329 10.0948C1.48475 10.1857 1.45532 10.2446 1.44462 10.2713C1.41252 10.3302 1.36704 10.3757 1.30818 10.4078C1.24933 10.4399 1.19048 10.4559 1.13162 10.4559C1.07277 10.4559 1.01123 10.4399 0.94703 10.4078C0.888175 10.3757 0.831995 10.3355 0.77849 10.2874C0.724986 10.2392 0.679507 10.1857 0.642054 10.1269C0.609951 10.0627 0.5939 10.0011 0.5939 9.94227C0.5939 9.81921 0.636703 9.7229 0.722311 9.65335C0.749063 9.6266 0.799892 9.57844 0.874799 9.50889C0.949705 9.43398 1.03531 9.35105 1.13162 9.26009C1.23328 9.16378 1.33761 9.0648 1.44462 8.96314C1.55163 8.86148 1.65329 8.77052 1.7496 8.69027C1.84591 8.60466 1.92884 8.5351 1.99839 8.4816C2.06795 8.4281 2.11343 8.40134 2.13483 8.40134C2.17763 8.40134 2.21241 8.41472 2.23916 8.44147C2.27127 8.46822 2.28732 8.49765 2.28732 8.52975Z" fill="#ABC0DC"/>
<path d="M4.73515 7.34998C4.73515 7.41419 4.71642 7.47839 4.67897 7.5426C4.64152 7.6068 4.58801 7.65228 4.51846 7.67903C4.4917 7.68973 4.4275 7.71381 4.32584 7.75126C4.22953 7.78337 4.1145 7.82349 3.98073 7.87165C3.84697 7.91445 3.70251 7.95993 3.54735 8.00809C3.39754 8.05624 3.25842 8.10172 3.13001 8.14452C3.00695 8.18733 2.90262 8.2221 2.81701 8.24886C2.7314 8.27561 2.68593 8.28898 2.68058 8.28898C2.63777 8.28898 2.60032 8.27561 2.56822 8.24886C2.54146 8.21675 2.52809 8.1793 2.52809 8.1365C2.52809 8.07764 2.54681 8.04019 2.58427 8.02414L3.98073 6.89252C4.04494 6.82296 4.1252 6.78818 4.22151 6.78818C4.28571 6.78818 4.34724 6.80691 4.4061 6.84436C4.4703 6.87646 4.52648 6.92194 4.57463 6.9808C4.62279 7.0343 4.66024 7.09316 4.68699 7.15736C4.7191 7.22157 4.73515 7.28577 4.73515 7.34998ZM2.82504 5.88931C2.82504 5.93211 2.81701 6.00702 2.80096 6.11403C2.79026 6.21568 2.77421 6.33607 2.75281 6.47518C2.73676 6.61429 2.71535 6.76143 2.6886 6.91659C2.6672 7.06641 2.6458 7.21087 2.6244 7.34998C2.60299 7.48909 2.58159 7.61215 2.56019 7.71916C2.53879 7.82082 2.52274 7.89038 2.51204 7.92783C2.50134 7.95993 2.48528 7.98668 2.46388 8.00809C2.44783 8.02949 2.41573 8.04019 2.36757 8.04019C2.32477 8.04019 2.29267 8.02949 2.27127 8.00809C2.25521 7.98668 2.23649 7.95993 2.21509 7.92783C2.20439 7.89038 2.18833 7.82082 2.16693 7.71916C2.14553 7.6175 2.12145 7.49979 2.0947 7.36603C2.06795 7.22692 2.03852 7.08246 2.00642 6.93264C1.97967 6.77748 1.95559 6.63302 1.93419 6.49926C1.91279 6.3655 1.89406 6.24779 1.87801 6.14613C1.86196 6.04447 1.85393 5.97491 1.85393 5.93746C1.85393 5.85185 1.87266 5.78497 1.91011 5.73682C1.94756 5.68331 1.99572 5.64319 2.05457 5.61643C2.11343 5.58433 2.17763 5.5656 2.24719 5.56025C2.3221 5.54955 2.39433 5.5442 2.46388 5.5442C2.55484 5.5442 2.63777 5.57898 2.71268 5.64854C2.78758 5.71809 2.82504 5.79835 2.82504 5.88931ZM4.14125 9.94227C4.14125 10.0011 4.12252 10.0627 4.08507 10.1269C4.05297 10.1857 4.01016 10.2392 3.95666 10.2874C3.90315 10.3355 3.8443 10.3757 3.78009 10.4078C3.71589 10.4399 3.65703 10.4559 3.60353 10.4559C3.54467 10.4559 3.48582 10.4399 3.42696 10.4078C3.36811 10.3757 3.32263 10.3302 3.29053 10.2713C3.27448 10.2446 3.24237 10.1857 3.19422 10.0948C3.15142 9.99845 3.09791 9.88877 3.0337 9.76571C2.9695 9.64265 2.90262 9.51424 2.83306 9.38048C2.76886 9.24136 2.70733 9.11295 2.64847 8.99524C2.58962 8.87753 2.54146 8.77855 2.50401 8.69829C2.46656 8.61269 2.44783 8.56186 2.44783 8.54581C2.44783 8.503 2.46121 8.46822 2.48796 8.44147C2.52006 8.41472 2.55752 8.40134 2.60032 8.40134C2.62172 8.40134 2.6672 8.4281 2.73676 8.4816C2.80631 8.5351 2.88924 8.60466 2.98555 8.69027C3.08186 8.77052 3.18352 8.86148 3.29053 8.96314C3.39754 9.0648 3.49919 9.16378 3.5955 9.26009C3.69716 9.35105 3.78544 9.43398 3.86035 9.50889C3.93526 9.57844 3.98609 9.6266 4.01284 9.65335C4.09844 9.7229 4.14125 9.81921 4.14125 9.94227ZM2.19903 8.1365C2.19903 8.1793 2.18566 8.21675 2.15891 8.24886C2.13215 8.27561 2.09738 8.28898 2.05457 8.28898C2.04387 8.28898 1.99572 8.27561 1.91011 8.24886C1.8245 8.2221 1.71749 8.18733 1.58908 8.14452C1.46602 8.10172 1.32959 8.05624 1.17977 8.00809C1.03531 7.95993 0.8962 7.91445 0.762439 7.87165C0.628678 7.82349 0.510968 7.78337 0.409309 7.75126C0.307651 7.71381 0.243445 7.68973 0.216693 7.67903C0.147137 7.65228 0.0936329 7.6068 0.0561797 7.5426C0.0187266 7.47839 0 7.41419 0 7.34998C0 7.28577 0.0133761 7.22157 0.0401284 7.15736C0.0722311 7.09316 0.112359 7.0343 0.160514 6.9808C0.208668 6.92194 0.262172 6.87646 0.321027 6.84436C0.385232 6.80691 0.446763 6.78818 0.505617 6.78818C0.607276 6.78818 0.690208 6.82296 0.754413 6.89252L2.15088 8.02414C2.18298 8.04019 2.19903 8.07764 2.19903 8.1365ZM2.28732 8.52975C2.28732 8.54581 2.26859 8.59663 2.23114 8.68224C2.19368 8.76785 2.14553 8.86951 2.08668 8.98722C2.02782 9.10493 1.96362 9.23334 1.89406 9.37245C1.8245 9.51156 1.75762 9.64265 1.69342 9.76571C1.63456 9.88877 1.58106 9.99845 1.5329 10.0948C1.48475 10.1857 1.45532 10.2446 1.44462 10.2713C1.41252 10.3302 1.36704 10.3757 1.30818 10.4078C1.24933 10.4399 1.19048 10.4559 1.13162 10.4559C1.07277 10.4559 1.01123 10.4399 0.94703 10.4078C0.888175 10.3757 0.831995 10.3355 0.77849 10.2874C0.724986 10.2392 0.679507 10.1857 0.642054 10.1269C0.609951 10.0627 0.5939 10.0011 0.5939 9.94227C0.5939 9.81921 0.636703 9.7229 0.722311 9.65335C0.749063 9.6266 0.799892 9.57844 0.874799 9.50889C0.949705 9.43398 1.03531 9.35105 1.13162 9.26009C1.23328 9.16378 1.33761 9.0648 1.44462 8.96314C1.55163 8.86148 1.65329 8.77052 1.7496 8.69027C1.84591 8.60466 1.92884 8.5351 1.99839 8.4816C2.06795 8.4281 2.11343 8.40134 2.13483 8.40134C2.17763 8.40134 2.21241 8.41472 2.23916 8.44147C2.27127 8.46822 2.28732 8.49765 2.28732 8.52975Z" fill="#7D9BC3"/>
<path d="M10.3517 7.34997C10.3517 7.41417 10.333 7.47838 10.2955 7.54258C10.2581 7.60679 10.2046 7.65227 10.135 7.67902C10.1082 7.68972 10.044 7.7138 9.94238 7.75125C9.84607 7.78335 9.73104 7.82348 9.59728 7.87164C9.46351 7.91444 9.31905 7.95992 9.16389 8.00807C9.01408 8.05623 8.87496 8.1017 8.74655 8.14451C8.62349 8.18731 8.51916 8.22209 8.43355 8.24884C8.34795 8.27559 8.30247 8.28897 8.29712 8.28897C8.25431 8.28897 8.21686 8.27559 8.18476 8.24884C8.158 8.21674 8.14463 8.17929 8.14463 8.13648C8.14463 8.07763 8.16336 8.04017 8.20081 8.02412L9.59728 6.8925C9.66148 6.82295 9.74174 6.78817 9.83805 6.78817C9.90225 6.78817 9.96378 6.8069 10.0226 6.84435C10.0868 6.87645 10.143 6.92193 10.1912 6.98079C10.2393 7.03429 10.2768 7.09314 10.3035 7.15735C10.3356 7.22156 10.3517 7.28576 10.3517 7.34997ZM8.44158 5.88929C8.44158 5.9321 8.43355 6.007 8.4175 6.11401C8.4068 6.21567 8.39075 6.33606 8.36935 6.47517C8.3533 6.61428 8.33189 6.76142 8.30514 6.91658C8.28374 7.06639 8.26234 7.21085 8.24094 7.34997C8.21954 7.48908 8.19813 7.61214 8.17673 7.71915C8.15533 7.82081 8.13928 7.89036 8.12858 7.92782C8.11788 7.95992 8.10182 7.98667 8.08042 8.00807C8.06437 8.02947 8.03227 8.04017 7.98412 8.04017C7.94131 8.04017 7.90921 8.02947 7.88781 8.00807C7.87176 7.98667 7.85303 7.95992 7.83163 7.92782C7.82093 7.89036 7.80488 7.82081 7.78347 7.71915C7.76207 7.61749 7.738 7.49978 7.71124 7.36602C7.68449 7.22691 7.65506 7.08244 7.62296 6.93263C7.59621 6.77747 7.57213 6.63301 7.55073 6.49924C7.52933 6.36548 7.5106 6.24777 7.49455 6.14612C7.4785 6.04446 7.47047 5.9749 7.47047 5.93745C7.47047 5.85184 7.4892 5.78496 7.52665 5.73681C7.56411 5.6833 7.61226 5.64317 7.67111 5.61642C7.72997 5.58432 7.79417 5.56559 7.86373 5.56024C7.93864 5.54954 8.01087 5.54419 8.08042 5.54419C8.17138 5.54419 8.25431 5.57897 8.32922 5.64852C8.40413 5.71808 8.44158 5.79834 8.44158 5.88929ZM9.75779 9.94226C9.75779 10.0011 9.73906 10.0626 9.70161 10.1269C9.66951 10.1857 9.6267 10.2392 9.5732 10.2874C9.51969 10.3355 9.46084 10.3756 9.39663 10.4077C9.33243 10.4399 9.27357 10.4559 9.22007 10.4559C9.16121 10.4559 9.10236 10.4399 9.0435 10.4077C8.98465 10.3756 8.93917 10.3302 8.90707 10.2713C8.89102 10.2446 8.85891 10.1857 8.81076 10.0947C8.76796 9.99844 8.71445 9.88876 8.65025 9.7657C8.58604 9.64263 8.51916 9.51422 8.4496 9.38046C8.3854 9.24135 8.32387 9.11294 8.26501 8.99523C8.20616 8.87752 8.158 8.77854 8.12055 8.69828C8.0831 8.61267 8.06437 8.56184 8.06437 8.54579C8.06437 8.50299 8.07775 8.46821 8.1045 8.44146C8.1366 8.41471 8.17406 8.40133 8.21686 8.40133C8.23826 8.40133 8.28374 8.42808 8.3533 8.48159C8.42285 8.53509 8.50578 8.60465 8.60209 8.69025C8.6984 8.77051 8.80006 8.86147 8.90707 8.96313C9.01408 9.06479 9.11574 9.16377 9.21204 9.26008C9.3137 9.35103 9.40198 9.43397 9.47689 9.50887C9.5518 9.57843 9.60263 9.62658 9.62938 9.65334C9.71499 9.72289 9.75779 9.8192 9.75779 9.94226ZM7.81558 8.13648C7.81558 8.17929 7.8022 8.21674 7.77545 8.24884C7.7487 8.27559 7.71392 8.28897 7.67111 8.28897C7.66041 8.28897 7.61226 8.27559 7.52665 8.24884C7.44104 8.22209 7.33404 8.18731 7.20563 8.14451C7.08256 8.1017 6.94613 8.05623 6.79632 8.00807C6.65185 7.95992 6.51274 7.91444 6.37898 7.87164C6.24522 7.82348 6.12751 7.78335 6.02585 7.75125C5.92419 7.7138 5.85999 7.68972 5.83323 7.67902C5.76368 7.65227 5.71017 7.60679 5.67272 7.54258C5.63527 7.47838 5.61654 7.41417 5.61654 7.34997C5.61654 7.28576 5.62992 7.22156 5.65667 7.15735C5.68877 7.09314 5.7289 7.03429 5.77705 6.98079C5.82521 6.92193 5.87871 6.87645 5.93757 6.84435C6.00177 6.8069 6.0633 6.78817 6.12216 6.78817C6.22382 6.78817 6.30675 6.82295 6.37095 6.8925L7.76742 8.02412C7.79952 8.04017 7.81558 8.07763 7.81558 8.13648ZM7.90386 8.52974C7.90386 8.54579 7.88513 8.59662 7.84768 8.68223C7.81023 8.76784 7.76207 8.86949 7.70322 8.9872C7.64436 9.10491 7.58016 9.23333 7.5106 9.37244C7.44104 9.51155 7.37416 9.64263 7.30996 9.7657C7.2511 9.88876 7.1976 9.99844 7.14945 10.0947C7.10129 10.1857 7.07186 10.2446 7.06116 10.2713C7.02906 10.3302 6.98358 10.3756 6.92473 10.4077C6.86587 10.4399 6.80702 10.4559 6.74816 10.4559C6.68931 10.4559 6.62778 10.4399 6.56357 10.4077C6.50472 10.3756 6.44854 10.3355 6.39503 10.2874C6.34153 10.2392 6.29605 10.1857 6.2586 10.1269C6.22649 10.0626 6.21044 10.0011 6.21044 9.94226C6.21044 9.8192 6.25324 9.72289 6.33885 9.65334C6.3656 9.62658 6.41643 9.57843 6.49134 9.50887C6.56625 9.43397 6.65185 9.35103 6.74816 9.26008C6.84982 9.16377 6.95415 9.06479 7.06116 8.96313C7.16817 8.86147 7.26983 8.77051 7.36614 8.69025C7.46245 8.60465 7.54538 8.53509 7.61493 8.48159C7.68449 8.42808 7.72997 8.40133 7.75137 8.40133C7.79417 8.40133 7.82895 8.41471 7.8557 8.44146C7.88781 8.46821 7.90386 8.49764 7.90386 8.52974Z" fill="#ABC0DC"/>
<path d="M10.3517 7.34997C10.3517 7.41417 10.333 7.47838 10.2955 7.54258C10.2581 7.60679 10.2046 7.65227 10.135 7.67902C10.1082 7.68972 10.044 7.7138 9.94238 7.75125C9.84607 7.78335 9.73104 7.82348 9.59728 7.87164C9.46351 7.91444 9.31905 7.95992 9.16389 8.00807C9.01408 8.05623 8.87496 8.1017 8.74655 8.14451C8.62349 8.18731 8.51916 8.22209 8.43355 8.24884C8.34795 8.27559 8.30247 8.28897 8.29712 8.28897C8.25431 8.28897 8.21686 8.27559 8.18476 8.24884C8.158 8.21674 8.14463 8.17929 8.14463 8.13648C8.14463 8.07763 8.16336 8.04017 8.20081 8.02412L9.59728 6.8925C9.66148 6.82295 9.74174 6.78817 9.83805 6.78817C9.90225 6.78817 9.96378 6.8069 10.0226 6.84435C10.0868 6.87645 10.143 6.92193 10.1912 6.98079C10.2393 7.03429 10.2768 7.09314 10.3035 7.15735C10.3356 7.22156 10.3517 7.28576 10.3517 7.34997ZM8.44158 5.88929C8.44158 5.9321 8.43355 6.007 8.4175 6.11401C8.4068 6.21567 8.39075 6.33606 8.36935 6.47517C8.3533 6.61428 8.33189 6.76142 8.30514 6.91658C8.28374 7.06639 8.26234 7.21085 8.24094 7.34997C8.21954 7.48908 8.19813 7.61214 8.17673 7.71915C8.15533 7.82081 8.13928 7.89036 8.12858 7.92782C8.11788 7.95992 8.10182 7.98667 8.08042 8.00807C8.06437 8.02947 8.03227 8.04017 7.98412 8.04017C7.94131 8.04017 7.90921 8.02947 7.88781 8.00807C7.87176 7.98667 7.85303 7.95992 7.83163 7.92782C7.82093 7.89036 7.80488 7.82081 7.78347 7.71915C7.76207 7.61749 7.738 7.49978 7.71124 7.36602C7.68449 7.22691 7.65506 7.08244 7.62296 6.93263C7.59621 6.77747 7.57213 6.63301 7.55073 6.49924C7.52933 6.36548 7.5106 6.24777 7.49455 6.14612C7.4785 6.04446 7.47047 5.9749 7.47047 5.93745C7.47047 5.85184 7.4892 5.78496 7.52665 5.73681C7.56411 5.6833 7.61226 5.64317 7.67111 5.61642C7.72997 5.58432 7.79417 5.56559 7.86373 5.56024C7.93864 5.54954 8.01087 5.54419 8.08042 5.54419C8.17138 5.54419 8.25431 5.57897 8.32922 5.64852C8.40413 5.71808 8.44158 5.79834 8.44158 5.88929ZM9.75779 9.94226C9.75779 10.0011 9.73906 10.0626 9.70161 10.1269C9.66951 10.1857 9.6267 10.2392 9.5732 10.2874C9.51969 10.3355 9.46084 10.3756 9.39663 10.4077C9.33243 10.4399 9.27357 10.4559 9.22007 10.4559C9.16121 10.4559 9.10236 10.4399 9.0435 10.4077C8.98465 10.3756 8.93917 10.3302 8.90707 10.2713C8.89102 10.2446 8.85891 10.1857 8.81076 10.0947C8.76796 9.99844 8.71445 9.88876 8.65025 9.7657C8.58604 9.64263 8.51916 9.51422 8.4496 9.38046C8.3854 9.24135 8.32387 9.11294 8.26501 8.99523C8.20616 8.87752 8.158 8.77854 8.12055 8.69828C8.0831 8.61267 8.06437 8.56184 8.06437 8.54579C8.06437 8.50299 8.07775 8.46821 8.1045 8.44146C8.1366 8.41471 8.17406 8.40133 8.21686 8.40133C8.23826 8.40133 8.28374 8.42808 8.3533 8.48159C8.42285 8.53509 8.50578 8.60465 8.60209 8.69025C8.6984 8.77051 8.80006 8.86147 8.90707 8.96313C9.01408 9.06479 9.11574 9.16377 9.21204 9.26008C9.3137 9.35103 9.40198 9.43397 9.47689 9.50887C9.5518 9.57843 9.60263 9.62658 9.62938 9.65334C9.71499 9.72289 9.75779 9.8192 9.75779 9.94226ZM7.81558 8.13648C7.81558 8.17929 7.8022 8.21674 7.77545 8.24884C7.7487 8.27559 7.71392 8.28897 7.67111 8.28897C7.66041 8.28897 7.61226 8.27559 7.52665 8.24884C7.44104 8.22209 7.33404 8.18731 7.20563 8.14451C7.08256 8.1017 6.94613 8.05623 6.79632 8.00807C6.65185 7.95992 6.51274 7.91444 6.37898 7.87164C6.24522 7.82348 6.12751 7.78335 6.02585 7.75125C5.92419 7.7138 5.85999 7.68972 5.83323 7.67902C5.76368 7.65227 5.71017 7.60679 5.67272 7.54258C5.63527 7.47838 5.61654 7.41417 5.61654 7.34997C5.61654 7.28576 5.62992 7.22156 5.65667 7.15735C5.68877 7.09314 5.7289 7.03429 5.77705 6.98079C5.82521 6.92193 5.87871 6.87645 5.93757 6.84435C6.00177 6.8069 6.0633 6.78817 6.12216 6.78817C6.22382 6.78817 6.30675 6.82295 6.37095 6.8925L7.76742 8.02412C7.79952 8.04017 7.81558 8.07763 7.81558 8.13648ZM7.90386 8.52974C7.90386 8.54579 7.88513 8.59662 7.84768 8.68223C7.81023 8.76784 7.76207 8.86949 7.70322 8.9872C7.64436 9.10491 7.58016 9.23333 7.5106 9.37244C7.44104 9.51155 7.37416 9.64263 7.30996 9.7657C7.2511 9.88876 7.1976 9.99844 7.14945 10.0947C7.10129 10.1857 7.07186 10.2446 7.06116 10.2713C7.02906 10.3302 6.98358 10.3756 6.92473 10.4077C6.86587 10.4399 6.80702 10.4559 6.74816 10.4559C6.68931 10.4559 6.62778 10.4399 6.56357 10.4077C6.50472 10.3756 6.44854 10.3355 6.39503 10.2874C6.34153 10.2392 6.29605 10.1857 6.2586 10.1269C6.22649 10.0626 6.21044 10.0011 6.21044 9.94226C6.21044 9.8192 6.25324 9.72289 6.33885 9.65334C6.3656 9.62658 6.41643 9.57843 6.49134 9.50887C6.56625 9.43397 6.65185 9.35103 6.74816 9.26008C6.84982 9.16377 6.95415 9.06479 7.06116 8.96313C7.16817 8.86147 7.26983 8.77051 7.36614 8.69025C7.46245 8.60465 7.54538 8.53509 7.61493 8.48159C7.68449 8.42808 7.72997 8.40133 7.75137 8.40133C7.79417 8.40133 7.82895 8.41471 7.8557 8.44146C7.88781 8.46821 7.90386 8.49764 7.90386 8.52974Z" fill="#7D9BC3"/>
<path d="M16 7.34997C16 7.41417 15.9813 7.47838 15.9438 7.54258C15.9064 7.60679 15.8529 7.65227 15.7833 7.67902C15.7566 7.68972 15.6924 7.7138 15.5907 7.75125C15.4944 7.78335 15.3793 7.82348 15.2456 7.87164C15.1118 7.91444 14.9674 7.95992 14.8122 8.00807C14.6624 8.05623 14.5233 8.1017 14.3949 8.14451C14.2718 8.18731 14.1675 8.22209 14.0819 8.24884C13.9963 8.27559 13.9508 8.28897 13.9454 8.28897C13.9026 8.28897 13.8652 8.27559 13.8331 8.24884C13.8063 8.21674 13.7929 8.17929 13.7929 8.13648C13.7929 8.07763 13.8117 8.04017 13.8491 8.02412L15.2456 6.8925C15.3098 6.82295 15.3901 6.78817 15.4864 6.78817C15.5506 6.78817 15.6121 6.8069 15.6709 6.84435C15.7352 6.87645 15.7913 6.92193 15.8395 6.98079C15.8876 7.03429 15.9251 7.09314 15.9518 7.15735C15.984 7.22156 16 7.28576 16 7.34997ZM14.0899 5.88929C14.0899 5.9321 14.0819 6.007 14.0658 6.11401C14.0551 6.21567 14.0391 6.33606 14.0177 6.47517C14.0016 6.61428 13.9802 6.76142 13.9535 6.91658C13.9321 7.06639 13.9107 7.21085 13.8892 7.34997C13.8678 7.48908 13.8464 7.61214 13.825 7.71915C13.8036 7.82081 13.7876 7.89036 13.7769 7.92782C13.7662 7.95992 13.7501 7.98667 13.7287 8.00807C13.7127 8.02947 13.6806 8.04017 13.6324 8.04017C13.5896 8.04017 13.5575 8.02947 13.5361 8.00807C13.5201 7.98667 13.5013 7.95992 13.4799 7.92782C13.4692 7.89036 13.4532 7.82081 13.4318 7.71915C13.4104 7.61749 13.3863 7.49978 13.3596 7.36602C13.3328 7.22691 13.3034 7.08244 13.2713 6.93263C13.2445 6.77747 13.2204 6.63301 13.199 6.49924C13.1776 6.36548 13.1589 6.24777 13.1429 6.14612C13.1268 6.04446 13.1188 5.9749 13.1188 5.93745C13.1188 5.85184 13.1375 5.78496 13.175 5.73681C13.2124 5.6833 13.2606 5.64317 13.3194 5.61642C13.3783 5.58432 13.4425 5.56559 13.512 5.56024C13.5869 5.54954 13.6592 5.54419 13.7287 5.54419C13.8197 5.54419 13.9026 5.57897 13.9775 5.64852C14.0524 5.71808 14.0899 5.79834 14.0899 5.88929ZM15.4061 9.94226C15.4061 10.0011 15.3874 10.0626 15.3499 10.1269C15.3178 10.1857 15.275 10.2392 15.2215 10.2874C15.168 10.3355 15.1092 10.3756 15.0449 10.4077C14.9807 10.4399 14.9219 10.4559 14.8684 10.4559C14.8095 10.4559 14.7507 10.4399 14.6918 10.4077C14.633 10.3756 14.5875 10.3302 14.5554 10.2713C14.5393 10.2446 14.5072 10.1857 14.4591 10.0947C14.4163 9.99844 14.3628 9.88876 14.2986 9.7657C14.2344 9.64263 14.1675 9.51422 14.0979 9.38046C14.0337 9.24135 13.9722 9.11294 13.9133 8.99523C13.8545 8.87752 13.8063 8.77854 13.7689 8.69828C13.7314 8.61267 13.7127 8.56184 13.7127 8.54579C13.7127 8.50299 13.7261 8.46821 13.7528 8.44146C13.7849 8.41471 13.8224 8.40133 13.8652 8.40133C13.8866 8.40133 13.9321 8.42808 14.0016 8.48159C14.0712 8.53509 14.1541 8.60465 14.2504 8.69025C14.3467 8.77051 14.4484 8.86147 14.5554 8.96313C14.6624 9.06479 14.764 9.16377 14.8604 9.26008C14.962 9.35103 15.0503 9.43397 15.1252 9.50887C15.2001 9.57843 15.2509 9.62658 15.2777 9.65334C15.3633 9.72289 15.4061 9.8192 15.4061 9.94226ZM13.4639 8.13648C13.4639 8.17929 13.4505 8.21674 13.4238 8.24884C13.397 8.27559 13.3622 8.28897 13.3194 8.28897C13.3087 8.28897 13.2606 8.27559 13.175 8.24884C13.0894 8.22209 12.9823 8.18731 12.8539 8.14451C12.7309 8.1017 12.5944 8.05623 12.4446 8.00807C12.3002 7.95992 12.1611 7.91444 12.0273 7.87164C11.8935 7.82348 11.7758 7.78335 11.6742 7.75125C11.5725 7.7138 11.5083 7.68972 11.4815 7.67902C11.412 7.65227 11.3585 7.60679 11.321 7.54258C11.2836 7.47838 11.2649 7.41417 11.2649 7.34997C11.2649 7.28576 11.2782 7.22156 11.305 7.15735C11.3371 7.09314 11.3772 7.03429 11.4254 6.98079C11.4735 6.92193 11.527 6.87645 11.5859 6.84435C11.6501 6.8069 11.7116 6.78817 11.7705 6.78817C11.8721 6.78817 11.9551 6.82295 12.0193 6.8925L13.4157 8.02412C13.4478 8.04017 13.4639 8.07763 13.4639 8.13648ZM13.5522 8.52974C13.5522 8.54579 13.5334 8.59662 13.496 8.68223C13.4585 8.76784 13.4104 8.86949 13.3515 8.9872C13.2927 9.10491 13.2285 9.23333 13.1589 9.37244C13.0894 9.51155 13.0225 9.64263 12.9583 9.7657C12.8994 9.88876 12.8459 9.99844 12.7978 10.0947C12.7496 10.1857 12.7202 10.2446 12.7095 10.2713C12.6774 10.3302 12.6319 10.3756 12.573 10.4077C12.5142 10.4399 12.4553 10.4559 12.3965 10.4559C12.3376 10.4559 12.2761 10.4399 12.2119 10.4077C12.153 10.3756 12.0968 10.3355 12.0433 10.2874C11.9898 10.2392 11.9444 10.1857 11.9069 10.1269C11.8748 10.0626 11.8588 10.0011 11.8588 9.94226C11.8588 9.8192 11.9016 9.72289 11.9872 9.65334C12.0139 9.62658 12.0647 9.57843 12.1397 9.50887C12.2146 9.43397 12.3002 9.35103 12.3965 9.26008C12.4981 9.16377 12.6025 9.06479 12.7095 8.96313C12.8165 8.86147 12.9181 8.77051 13.0145 8.69025C13.1108 8.60465 13.1937 8.53509 13.2632 8.48159C13.3328 8.42808 13.3783 8.40133 13.3997 8.40133C13.4425 8.40133 13.4773 8.41471 13.504 8.44146C13.5361 8.46821 13.5522 8.49764 13.5522 8.52974Z" fill="#ABC0DC"/>
<path d="M16 7.34997C16 7.41417 15.9813 7.47838 15.9438 7.54258C15.9064 7.60679 15.8529 7.65227 15.7833 7.67902C15.7566 7.68972 15.6924 7.7138 15.5907 7.75125C15.4944 7.78335 15.3793 7.82348 15.2456 7.87164C15.1118 7.91444 14.9674 7.95992 14.8122 8.00807C14.6624 8.05623 14.5233 8.1017 14.3949 8.14451C14.2718 8.18731 14.1675 8.22209 14.0819 8.24884C13.9963 8.27559 13.9508 8.28897 13.9454 8.28897C13.9026 8.28897 13.8652 8.27559 13.8331 8.24884C13.8063 8.21674 13.7929 8.17929 13.7929 8.13648C13.7929 8.07763 13.8117 8.04017 13.8491 8.02412L15.2456 6.8925C15.3098 6.82295 15.3901 6.78817 15.4864 6.78817C15.5506 6.78817 15.6121 6.8069 15.6709 6.84435C15.7352 6.87645 15.7913 6.92193 15.8395 6.98079C15.8876 7.03429 15.9251 7.09314 15.9518 7.15735C15.984 7.22156 16 7.28576 16 7.34997ZM14.0899 5.88929C14.0899 5.9321 14.0819 6.007 14.0658 6.11401C14.0551 6.21567 14.0391 6.33606 14.0177 6.47517C14.0016 6.61428 13.9802 6.76142 13.9535 6.91658C13.9321 7.06639 13.9107 7.21085 13.8892 7.34997C13.8678 7.48908 13.8464 7.61214 13.825 7.71915C13.8036 7.82081 13.7876 7.89036 13.7769 7.92782C13.7662 7.95992 13.7501 7.98667 13.7287 8.00807C13.7127 8.02947 13.6806 8.04017 13.6324 8.04017C13.5896 8.04017 13.5575 8.02947 13.5361 8.00807C13.5201 7.98667 13.5013 7.95992 13.4799 7.92782C13.4692 7.89036 13.4532 7.82081 13.4318 7.71915C13.4104 7.61749 13.3863 7.49978 13.3596 7.36602C13.3328 7.22691 13.3034 7.08244 13.2713 6.93263C13.2445 6.77747 13.2204 6.63301 13.199 6.49924C13.1776 6.36548 13.1589 6.24777 13.1429 6.14612C13.1268 6.04446 13.1188 5.9749 13.1188 5.93745C13.1188 5.85184 13.1375 5.78496 13.175 5.73681C13.2124 5.6833 13.2606 5.64317 13.3194 5.61642C13.3783 5.58432 13.4425 5.56559 13.512 5.56024C13.5869 5.54954 13.6592 5.54419 13.7287 5.54419C13.8197 5.54419 13.9026 5.57897 13.9775 5.64852C14.0524 5.71808 14.0899 5.79834 14.0899 5.88929ZM15.4061 9.94226C15.4061 10.0011 15.3874 10.0626 15.3499 10.1269C15.3178 10.1857 15.275 10.2392 15.2215 10.2874C15.168 10.3355 15.1092 10.3756 15.0449 10.4077C14.9807 10.4399 14.9219 10.4559 14.8684 10.4559C14.8095 10.4559 14.7507 10.4399 14.6918 10.4077C14.633 10.3756 14.5875 10.3302 14.5554 10.2713C14.5393 10.2446 14.5072 10.1857 14.4591 10.0947C14.4163 9.99844 14.3628 9.88876 14.2986 9.7657C14.2344 9.64263 14.1675 9.51422 14.0979 9.38046C14.0337 9.24135 13.9722 9.11294 13.9133 8.99523C13.8545 8.87752 13.8063 8.77854 13.7689 8.69828C13.7314 8.61267 13.7127 8.56184 13.7127 8.54579C13.7127 8.50299 13.7261 8.46821 13.7528 8.44146C13.7849 8.41471 13.8224 8.40133 13.8652 8.40133C13.8866 8.40133 13.9321 8.42808 14.0016 8.48159C14.0712 8.53509 14.1541 8.60465 14.2504 8.69025C14.3467 8.77051 14.4484 8.86147 14.5554 8.96313C14.6624 9.06479 14.764 9.16377 14.8604 9.26008C14.962 9.35103 15.0503 9.43397 15.1252 9.50887C15.2001 9.57843 15.2509 9.62658 15.2777 9.65334C15.3633 9.72289 15.4061 9.8192 15.4061 9.94226ZM13.4639 8.13648C13.4639 8.17929 13.4505 8.21674 13.4238 8.24884C13.397 8.27559 13.3622 8.28897 13.3194 8.28897C13.3087 8.28897 13.2606 8.27559 13.175 8.24884C13.0894 8.22209 12.9823 8.18731 12.8539 8.14451C12.7309 8.1017 12.5944 8.05623 12.4446 8.00807C12.3002 7.95992 12.1611 7.91444 12.0273 7.87164C11.8935 7.82348 11.7758 7.78335 11.6742 7.75125C11.5725 7.7138 11.5083 7.68972 11.4815 7.67902C11.412 7.65227 11.3585 7.60679 11.321 7.54258C11.2836 7.47838 11.2649 7.41417 11.2649 7.34997C11.2649 7.28576 11.2782 7.22156 11.305 7.15735C11.3371 7.09314 11.3772 7.03429 11.4254 6.98079C11.4735 6.92193 11.527 6.87645 11.5859 6.84435C11.6501 6.8069 11.7116 6.78817 11.7705 6.78817C11.8721 6.78817 11.9551 6.82295 12.0193 6.8925L13.4157 8.02412C13.4478 8.04017 13.4639 8.07763 13.4639 8.13648ZM13.5522 8.52974C13.5522 8.54579 13.5334 8.59662 13.496 8.68223C13.4585 8.76784 13.4104 8.86949 13.3515 8.9872C13.2927 9.10491 13.2285 9.23333 13.1589 9.37244C13.0894 9.51155 13.0225 9.64263 12.9583 9.7657C12.8994 9.88876 12.8459 9.99844 12.7978 10.0947C12.7496 10.1857 12.7202 10.2446 12.7095 10.2713C12.6774 10.3302 12.6319 10.3756 12.573 10.4077C12.5142 10.4399 12.4553 10.4559 12.3965 10.4559C12.3376 10.4559 12.2761 10.4399 12.2119 10.4077C12.153 10.3756 12.0968 10.3355 12.0433 10.2874C11.9898 10.2392 11.9444 10.1857 11.9069 10.1269C11.8748 10.0626 11.8588 10.0011 11.8588 9.94226C11.8588 9.8192 11.9016 9.72289 11.9872 9.65334C12.0139 9.62658 12.0647 9.57843 12.1397 9.50887C12.2146 9.43397 12.3002 9.35103 12.3965 9.26008C12.4981 9.16377 12.6025 9.06479 12.7095 8.96313C12.8165 8.86147 12.9181 8.77051 13.0145 8.69025C13.1108 8.60465 13.1937 8.53509 13.2632 8.48159C13.3328 8.42808 13.3783 8.40133 13.3997 8.40133C13.4425 8.40133 13.4773 8.41471 13.504 8.44146C13.5361 8.46821 13.5522 8.49764 13.5522 8.52974Z" fill="#7D9BC3"/>
</svg>
