<svg width="16" height="16" viewBox="0 0 16 16" fill="none" xmlns="http://www.w3.org/2000/svg">
<path fill-rule="evenodd" clip-rule="evenodd" d="M5.67164 2.0133C5.59693 1.88867 5.42843 1.85131 5.30533 1.93911C4.99834 2.15807 4.68906 2.37698 4.48475 2.51744C4.49687 2.50911 4.5026 2.50455 4.50315 2.50511C4.50534 2.50732 4.42706 2.58914 4.34354 2.83275C4.2492 3.1079 4.1684 3.53722 4.19007 4.14199C4.23341 5.35179 4.68674 7.2378 6.21041 9.90424C7.71618 12.5393 9.11356 13.5167 10.0632 13.8779C10.5415 14.0598 10.9341 14.0965 11.212 14.0918C11.352 14.0894 11.4674 14.0764 11.5574 14.0635C11.5927 14.0584 11.6209 14.0538 11.6507 14.049C11.6618 14.0472 11.6731 14.0453 11.6851 14.0434C11.6862 14.0433 11.6877 14.043 11.6896 14.0427C11.7012 14.0408 11.7271 14.0365 11.76 14.0326C11.79 14.0195 11.8337 13.9987 11.892 13.9685C12.035 13.8944 12.2192 13.7879 12.417 13.6678C12.5028 13.6157 12.55 13.4867 12.4769 13.3647L11.2673 11.3471C11.1961 11.2283 11.0419 11.1901 10.9234 11.2618L10.6713 11.4144C10.6706 11.4149 10.6676 11.4168 10.6619 11.4208L10.6182 11.4513C10.5815 11.4768 10.508 11.5272 10.4148 11.5708C9.92738 11.7988 9.3541 11.6707 8.82785 11.3694C8.28279 11.0572 7.65186 10.49 6.92546 9.56663C5.42915 7.66455 5.33096 6.09674 5.74362 5.21112C5.86782 4.94457 6.06672 4.77809 6.19729 4.68379L6.76165 4.27621C6.86688 4.20021 6.89644 4.05632 6.8297 3.94499L5.67164 2.0133ZM4.43432 0.71791C5.2653 0.125217 6.43031 0.361538 6.95816 1.24202L8.11622 3.17372C8.58342 3.95303 8.37648 4.96025 7.63987 5.49223L7.08439 5.8934C6.99544 6.16445 6.8968 7.10413 8.10439 8.63921C8.76718 9.48174 9.25879 9.8876 9.57324 10.0677C9.6958 10.1379 9.77642 10.1664 9.82189 10.178C9.84118 10.1649 9.8656 10.1487 9.89325 10.132L10.1466 9.97864C10.9759 9.47656 12.0553 9.74435 12.5538 10.5758L13.7634 12.5935C14.239 13.3869 14.0221 14.4478 13.1958 14.9498C12.9866 15.0769 12.7693 15.2033 12.5824 15.3002C12.4899 15.3481 12.3927 15.3952 12.3008 15.4322L12.2991 15.4329C12.2448 15.4547 12.1009 15.5127 11.933 15.5229C11.9296 15.5234 11.9256 15.524 11.921 15.5248C11.9149 15.5257 11.9075 15.5269 11.899 15.5283C11.8675 15.5334 11.8211 15.541 11.7715 15.5481C11.6389 15.5672 11.4579 15.5878 11.2374 15.5916C10.7941 15.5991 10.2088 15.5381 9.53001 15.2799C8.16537 14.761 6.53142 13.4893 4.90805 10.6484C3.3026 7.83891 2.74548 5.71574 2.69103 4.19569C2.6638 3.43555 2.76227 2.81979 2.92462 2.34627C3.0766 1.90299 3.31424 1.50187 3.63495 1.28138C3.82749 1.14901 4.12737 0.936836 4.43432 0.71791ZM11.9494 15.5206C11.9493 15.5206 11.9482 15.5208 11.9462 15.521L11.9494 15.5206Z" fill="#445576"/>
</svg>
