<svg width="16" height="16" viewBox="0 0 16 16" fill="none" xmlns="http://www.w3.org/2000/svg">
<path fill-rule="evenodd" clip-rule="evenodd" d="M4.39326 1.30225C4.39326 0.888033 4.72905 0.552246 5.14326 0.552246H10.555C10.9692 0.552246 11.305 0.888033 11.305 1.30225C11.305 1.71646 10.9692 2.05225 10.555 2.05225H5.14326C4.72905 2.05225 4.39326 1.71646 4.39326 1.30225Z" fill="white"/>
<path fill-rule="evenodd" clip-rule="evenodd" d="M4.39326 7.15146C4.39326 6.73725 4.72905 6.40146 5.14326 6.40146H10.555C10.9692 6.40146 11.305 6.73725 11.305 7.15146C11.305 7.56567 10.9692 7.90146 10.555 7.90146H5.14326C4.72905 7.90146 4.39326 7.56567 4.39326 7.15146Z" fill="white"/>
<path fill-rule="evenodd" clip-rule="evenodd" d="M4.37779 10.8303C4.37779 9.8638 5.16129 9.08029 6.12779 9.08029H9.55502C10.5215 9.08029 11.305 9.86379 11.305 10.8303V13.2336C11.305 14.2001 10.5215 14.9836 9.55502 14.9836H6.12779C5.16129 14.9836 4.37779 14.2001 4.37779 13.2336V10.8303ZM6.12779 10.5803C5.98972 10.5803 5.87779 10.6922 5.87779 10.8303V13.2336C5.87779 13.3717 5.98972 13.4836 6.12779 13.4836H9.55502C9.69309 13.4836 9.80502 13.3717 9.80502 13.2336V10.8303C9.80502 10.6922 9.69309 10.5803 9.55502 10.5803H6.12779Z" fill="white"/>
<path fill-rule="evenodd" clip-rule="evenodd" d="M0.44043 5.60675C0.44043 4.08797 1.67165 2.85675 3.19043 2.85675H12.8091C14.3279 2.85675 15.5591 4.08797 15.5591 5.60675V10.4289C15.5591 11.8844 14.3792 13.0643 12.9237 13.0643C12.5095 13.0643 12.1737 12.7285 12.1737 12.3143C12.1737 11.9001 12.5095 11.5643 12.9237 11.5643C13.5508 11.5643 14.0591 11.056 14.0591 10.4289V5.60675C14.0591 4.91639 13.4995 4.35675 12.8091 4.35675H3.19043C2.50007 4.35675 1.94043 4.91639 1.94043 5.60675V10.4675C1.94043 11.0732 2.4315 11.5643 3.03728 11.5643C3.45149 11.5643 3.78728 11.9001 3.78728 12.3143C3.78728 12.7285 3.45149 13.0643 3.03728 13.0643C1.60308 13.0643 0.44043 11.9017 0.44043 10.4675V5.60675Z" fill="white"/>
</svg>
