<svg width="16" height="16" viewBox="0 0 16 16" fill="none" xmlns="http://www.w3.org/2000/svg">
<path fill-rule="evenodd" clip-rule="evenodd" d="M6.4026 1.48722C7.15078 0.325875 8.84891 0.325876 9.59708 1.48722L10.0895 2.2516C10.1138 2.28933 10.1603 2.30624 10.2032 2.29296L11.0717 2.02395C12.3914 1.61522 13.6922 2.70676 13.5188 4.07732L13.4047 4.9794C13.3991 5.02393 13.4238 5.06675 13.4652 5.08414L14.3035 5.43636C15.5771 5.97151 15.872 7.64384 14.8582 8.58231L14.191 9.2C14.158 9.23049 14.1494 9.27919 14.1699 9.31911L14.5857 10.1278C15.2174 11.3564 14.3683 12.827 12.9885 12.8943L12.0803 12.9385C12.0354 12.9407 11.9976 12.9725 11.9876 13.0163L11.7863 13.903C11.4805 15.2502 9.88474 15.831 8.78449 14.9956L8.06032 14.4457C8.02457 14.4186 7.97512 14.4186 7.93937 14.4457L7.2152 14.9956C6.11494 15.831 4.51922 15.2502 4.21337 13.903L4.01206 13.0163C4.00213 12.9725 3.96424 12.9407 3.91941 12.9385L3.01122 12.8943C1.63138 12.827 0.782319 11.3564 1.41398 10.1278L1.82974 9.31911C1.85026 9.27919 1.84167 9.23049 1.80873 9.2L1.14148 8.58231C0.1277 7.64384 0.422577 5.97151 1.69619 5.43636L2.53447 5.08414C2.57585 5.06675 2.60058 5.02393 2.59494 4.9794L2.48084 4.07732C2.30748 2.70676 3.60832 1.61522 4.92795 2.02395L5.79651 2.29296C5.83939 2.30624 5.88586 2.28933 5.91017 2.2516L6.4026 1.48722ZM8.08391 2.46205C8.04453 2.40093 7.95515 2.40093 7.91578 2.46205L7.42334 3.22643C6.96149 3.94333 6.07857 4.26468 5.26397 4.01238L4.39541 3.74336C4.32595 3.72185 4.25749 3.7793 4.26661 3.85144L4.38072 4.75352C4.48773 5.59956 4.01794 6.41326 3.23174 6.7436L2.39346 7.09583C2.32643 7.12399 2.31091 7.21201 2.36427 7.2614L3.03152 7.87909C3.65733 8.45841 3.82048 9.38372 3.43056 10.1421L3.0148 10.9508C2.98156 11.0155 3.02625 11.0929 3.09887 11.0964L4.00706 11.1407C4.85883 11.1822 5.57859 11.7861 5.76739 12.6178L5.9687 13.5045C5.9848 13.5754 6.06878 13.6059 6.12669 13.562L6.85087 13.0121C7.53005 12.4964 8.46963 12.4964 9.14882 13.0121L9.87299 13.562C9.9309 13.6059 10.0149 13.5754 10.031 13.5045L10.2323 12.6178C10.4211 11.7861 11.1409 11.1822 11.9926 11.1407L12.9008 11.0964C12.9734 11.0929 13.0181 11.0155 12.9849 10.9508L12.5691 10.1421C12.1792 9.38372 12.3424 8.45841 12.9682 7.87909L13.6354 7.2614C13.6888 7.21201 13.6733 7.12399 13.6062 7.09583L12.7679 6.7436C11.9817 6.41326 11.512 5.59956 11.619 4.75352L11.7331 3.85144C11.7422 3.7793 11.6737 3.72185 11.6043 3.74336L10.7357 4.01238C9.92111 4.26468 9.03819 3.94333 8.57635 3.22643L8.08391 2.46205Z" fill="white"/>
</svg>
