<svg width="16" height="16" viewBox="0 0 16 16" fill="none" xmlns="http://www.w3.org/2000/svg">
<path fill-rule="evenodd" clip-rule="evenodd" d="M3.07409 9.9366L5.63038 12.4929L12.9311 5.33833L10.3748 2.78203L3.07409 9.9366ZM1.71027 9.24261C1.32618 9.61901 1.32306 10.2365 1.70332 10.6168L4.9433 13.8567C5.31817 14.2316 5.925 14.2347 6.30364 13.8636L14.2949 6.03233C14.679 5.65592 14.6822 5.03843 14.3019 4.65816L11.0619 1.41818C10.687 1.04331 10.0802 1.04025 9.70157 1.41131L1.71027 9.24261Z" fill="#445576"/>
<path fill-rule="evenodd" clip-rule="evenodd" d="M1.52547 9.41345L5.45603 13.344C5.54975 13.4377 5.70146 13.4385 5.79612 13.3457L14.485 4.83083L15.5 5.86661L6.81116 14.3815C6.14854 15.0309 5.08659 15.0255 4.43057 14.3695L0.5 10.4389L1.52547 9.41345Z" fill="#445576"/>
</svg>
