<svg width="16" height="16" viewBox="0 0 16 16" fill="none" xmlns="http://www.w3.org/2000/svg">
<path fill-rule="evenodd" clip-rule="evenodd" d="M8.52189 1.20867C8.18558 1.34797 7.96631 1.67615 7.96631 2.04016V4.69387C6.86663 4.82722 5.28807 5.20804 3.82798 6.09679C1.83634 7.3091 0.0876446 9.46286 0.0876446 13.0551C0.0876446 13.4348 0.325981 13.7737 0.683351 13.9021C1.04072 14.0304 1.44022 13.9207 1.68188 13.6278C3.5552 11.3571 6.15062 11.2961 7.96631 11.3986V14.3044C7.96631 14.6684 8.18558 14.9966 8.52189 15.1359C8.8582 15.2752 9.2453 15.1982 9.5027 14.9408L15.6348 8.80869C15.9863 8.45722 15.9863 7.88737 15.6348 7.5359L9.5027 1.40377C9.2453 1.14637 8.8582 1.06937 8.52189 1.20867ZM13.7256 8.17229L9.76631 12.1316V10.5563C9.76631 10.0823 9.39859 9.68948 8.92557 9.65827C8.83394 9.65222 8.73358 9.64472 8.62526 9.63662C7.25167 9.53392 4.59749 9.33548 2.21724 10.7975C2.7091 9.27174 3.69276 8.28633 4.76388 7.63435C6.34785 6.67019 8.1445 6.43333 8.86631 6.43333C9.36336 6.43333 9.76631 6.03038 9.76631 5.53333V4.21296L13.7256 8.17229Z" fill="#445576"/>
</svg>
