<svg width="16" height="16" viewBox="0 0 16 16" fill="none" xmlns="http://www.w3.org/2000/svg">
<path fill-rule="evenodd" clip-rule="evenodd" d="M6.66582 3.68988C6.95872 3.39699 7.4336 3.39699 7.72649 3.68989L8.9146 4.87803C9.20748 5.17093 9.20748 5.6458 8.91459 5.93869L7.72648 7.1268C7.43359 7.41969 6.95871 7.41969 6.66582 7.1268C6.40199 6.86297 6.37581 6.45149 6.58727 6.15836H3.55603C3.53978 6.15836 3.52354 6.15783 3.50732 6.15677L3.49837 6.15638C3.48788 6.15599 3.469 6.15549 3.44294 6.15554C3.39052 6.15564 3.31085 6.15801 3.21336 6.16771C3.01427 6.1875 2.76328 6.23569 2.52294 6.34137C2.28682 6.44519 2.07482 6.59785 1.91852 6.82512C1.76448 7.04911 1.62909 7.39682 1.6265 7.95235C1.62392 8.50581 1.75665 8.87027 1.91786 9.11724C2.08178 9.36837 2.30566 9.54425 2.55131 9.66909C2.80016 9.79557 3.05834 9.86259 3.26065 9.89681C3.36003 9.91362 3.44121 9.92172 3.49458 9.92559C3.52113 9.92751 3.5404 9.92836 3.55114 9.92872L3.5604 9.92897C3.97261 9.93132 4.30603 10.2662 4.30603 10.679C4.30603 11.0932 3.97025 11.429 3.55603 11.429V10.679C3.55603 11.429 3.55565 11.429 3.55526 11.429L3.55442 11.429L3.55255 11.429L3.54805 11.4289L3.53604 11.4288C3.52673 11.4286 3.51482 11.4284 3.50046 11.4279C3.47177 11.4269 3.43321 11.4251 3.38617 11.4217C3.29235 11.4149 3.1633 11.4016 3.01049 11.3758C2.7084 11.3247 2.29431 11.2211 1.87169 11.0063C1.44586 10.7899 0.999067 10.4539 0.661777 9.93715C0.321768 9.41628 0.122735 8.75695 0.126518 7.94535C0.130291 7.13583 0.333022 6.48345 0.682583 5.97515C1.02989 5.47012 1.48698 5.15829 1.91915 4.96825C2.3471 4.78008 2.7636 4.70503 3.06493 4.67507C3.21766 4.65988 3.34643 4.65573 3.4399 4.65554C3.48679 4.65545 3.52521 4.65635 3.55379 4.6574C3.56217 4.65771 3.56973 4.65804 3.57641 4.65836H6.5873C6.37581 4.36522 6.40198 3.95371 6.66582 3.68988Z" fill="#ABC0DC"/>
<path fill-rule="evenodd" clip-rule="evenodd" d="M6.66582 3.68988C6.95872 3.39699 7.4336 3.39699 7.72649 3.68989L8.9146 4.87803C9.20748 5.17093 9.20748 5.6458 8.91459 5.93869L7.72648 7.1268C7.43359 7.41969 6.95871 7.41969 6.66582 7.1268C6.40199 6.86297 6.37581 6.45149 6.58727 6.15836H3.55603C3.53978 6.15836 3.52354 6.15783 3.50732 6.15677L3.49837 6.15638C3.48788 6.15599 3.469 6.15549 3.44294 6.15554C3.39052 6.15564 3.31085 6.15801 3.21336 6.16771C3.01427 6.1875 2.76328 6.23569 2.52294 6.34137C2.28682 6.44519 2.07482 6.59785 1.91852 6.82512C1.76448 7.04911 1.62909 7.39682 1.6265 7.95235C1.62392 8.50581 1.75665 8.87027 1.91786 9.11724C2.08178 9.36837 2.30566 9.54425 2.55131 9.66909C2.80016 9.79557 3.05834 9.86259 3.26065 9.89681C3.36003 9.91362 3.44121 9.92172 3.49458 9.92559C3.52113 9.92751 3.5404 9.92836 3.55114 9.92872L3.5604 9.92897C3.97261 9.93132 4.30603 10.2662 4.30603 10.679C4.30603 11.0932 3.97025 11.429 3.55603 11.429V10.679C3.55603 11.429 3.55565 11.429 3.55526 11.429L3.55442 11.429L3.55255 11.429L3.54805 11.4289L3.53604 11.4288C3.52673 11.4286 3.51482 11.4284 3.50046 11.4279C3.47177 11.4269 3.43321 11.4251 3.38617 11.4217C3.29235 11.4149 3.1633 11.4016 3.01049 11.3758C2.7084 11.3247 2.29431 11.2211 1.87169 11.0063C1.44586 10.7899 0.999067 10.4539 0.661777 9.93715C0.321768 9.41628 0.122735 8.75695 0.126518 7.94535C0.130291 7.13583 0.333022 6.48345 0.682583 5.97515C1.02989 5.47012 1.48698 5.15829 1.91915 4.96825C2.3471 4.78008 2.7636 4.70503 3.06493 4.67507C3.21766 4.65988 3.34643 4.65573 3.4399 4.65554C3.48679 4.65545 3.52521 4.65635 3.55379 4.6574C3.56217 4.65771 3.56973 4.65804 3.57641 4.65836H6.5873C6.37581 4.36522 6.40198 3.95371 6.66582 3.68988Z" fill="#7D9BC3"/>
<path fill-rule="evenodd" clip-rule="evenodd" d="M9.41328 12.3826C9.12038 12.6755 8.64551 12.6755 8.35262 12.3826L7.16451 11.1945C6.87162 10.9016 6.87162 10.4267 7.16451 10.1338L8.35262 8.94571C8.64552 8.65282 9.12039 8.65282 9.41328 8.94571C9.67711 9.20954 9.70329 9.62102 9.49183 9.91415H12.5231C12.5393 9.91415 12.5556 9.91468 12.5718 9.91574L12.5807 9.91613C12.5912 9.91652 12.6101 9.91702 12.6362 9.91697C12.6886 9.91687 12.7683 9.9145 12.8657 9.9048C13.0648 9.88501 13.3158 9.83682 13.5562 9.73114C13.7923 9.62732 14.0043 9.47466 14.1606 9.24739C14.3146 9.0234 14.45 8.67569 14.4526 8.12016C14.4552 7.5667 14.3225 7.20224 14.1612 6.95527C13.9973 6.70414 13.7734 6.52826 13.5278 6.40342C13.2789 6.27694 13.0208 6.20992 12.8185 6.1757C12.7191 6.15889 12.6379 6.15079 12.5845 6.14692C12.558 6.145 12.5387 6.14415 12.528 6.14379L12.5187 6.14354C12.1065 6.14119 11.7731 5.80631 11.7731 5.39355C11.7731 4.97934 12.1089 4.64355 12.5231 4.64355V5.39355C12.5231 4.64355 12.5235 4.64355 12.5238 4.64355L12.5247 4.64355L12.5266 4.64356L12.5311 4.64358L12.5431 4.64373C12.5524 4.64389 12.5643 4.64416 12.5786 4.64464C12.6073 4.64561 12.6459 4.64743 12.6929 4.65084C12.7867 4.65764 12.9158 4.67086 13.0686 4.69671C13.3707 4.74781 13.7848 4.85142 14.2074 5.06621C14.6332 5.28263 15.08 5.61864 15.4173 6.13536C15.7573 6.65623 15.9564 7.31556 15.9526 8.12716C15.9488 8.93668 15.7461 9.58906 15.3965 10.0974C15.0492 10.6024 14.5921 10.9142 14.16 11.1043C13.732 11.2924 13.3155 11.3675 13.0142 11.3974C12.8614 11.4126 12.7327 11.4168 12.6392 11.417C12.5923 11.4171 12.5539 11.4162 12.5253 11.4151C12.5169 11.4148 12.5094 11.4145 12.5027 11.4142H9.49181C9.7033 11.7073 9.67712 12.1188 9.41328 12.3826Z" fill="#ABC0DC"/>
<path fill-rule="evenodd" clip-rule="evenodd" d="M9.41328 12.3826C9.12038 12.6755 8.64551 12.6755 8.35262 12.3826L7.16451 11.1945C6.87162 10.9016 6.87162 10.4267 7.16451 10.1338L8.35262 8.94571C8.64552 8.65282 9.12039 8.65282 9.41328 8.94571C9.67711 9.20954 9.70329 9.62102 9.49183 9.91415H12.5231C12.5393 9.91415 12.5556 9.91468 12.5718 9.91574L12.5807 9.91613C12.5912 9.91652 12.6101 9.91702 12.6362 9.91697C12.6886 9.91687 12.7683 9.9145 12.8657 9.9048C13.0648 9.88501 13.3158 9.83682 13.5562 9.73114C13.7923 9.62732 14.0043 9.47466 14.1606 9.24739C14.3146 9.0234 14.45 8.67569 14.4526 8.12016C14.4552 7.5667 14.3225 7.20224 14.1612 6.95527C13.9973 6.70414 13.7734 6.52826 13.5278 6.40342C13.2789 6.27694 13.0208 6.20992 12.8185 6.1757C12.7191 6.15889 12.6379 6.15079 12.5845 6.14692C12.558 6.145 12.5387 6.14415 12.528 6.14379L12.5187 6.14354C12.1065 6.14119 11.7731 5.80631 11.7731 5.39355C11.7731 4.97934 12.1089 4.64355 12.5231 4.64355V5.39355C12.5231 4.64355 12.5235 4.64355 12.5238 4.64355L12.5247 4.64355L12.5266 4.64356L12.5311 4.64358L12.5431 4.64373C12.5524 4.64389 12.5643 4.64416 12.5786 4.64464C12.6073 4.64561 12.6459 4.64743 12.6929 4.65084C12.7867 4.65764 12.9158 4.67086 13.0686 4.69671C13.3707 4.74781 13.7848 4.85142 14.2074 5.06621C14.6332 5.28263 15.08 5.61864 15.4173 6.13536C15.7573 6.65623 15.9564 7.31556 15.9526 8.12716C15.9488 8.93668 15.7461 9.58906 15.3965 10.0974C15.0492 10.6024 14.5921 10.9142 14.16 11.1043C13.732 11.2924 13.3155 11.3675 13.0142 11.3974C12.8614 11.4126 12.7327 11.4168 12.6392 11.417C12.5923 11.4171 12.5539 11.4162 12.5253 11.4151C12.5169 11.4148 12.5094 11.4145 12.5027 11.4142H9.49181C9.7033 11.7073 9.67712 12.1188 9.41328 12.3826Z" fill="#7D9BC3"/>
</svg>
