<svg width="16" height="16" viewBox="0 0 16 16" fill="none" xmlns="http://www.w3.org/2000/svg">
<path fill-rule="evenodd" clip-rule="evenodd" d="M7.47811 1.20867C7.81442 1.34797 8.03369 1.67615 8.03369 2.04016V4.69387C9.13337 4.82722 10.7119 5.20804 12.172 6.09679C14.1637 7.3091 15.9124 9.46286 15.9124 13.0551C15.9124 13.4348 15.674 13.7737 15.3166 13.9021C14.9593 14.0304 14.5598 13.9207 14.3181 13.6278C12.4448 11.3571 9.84938 11.2961 8.03369 11.3986V14.3044C8.03369 14.6684 7.81442 14.9966 7.47811 15.1359C7.1418 15.2752 6.7547 15.1982 6.4973 14.9408L0.365166 8.80869C0.0136945 8.45722 0.0136945 7.88737 0.365166 7.5359L6.4973 1.40377C6.7547 1.14637 7.1418 1.06937 7.47811 1.20867ZM2.27435 8.17229L6.23369 12.1316V10.5563C6.23369 10.0823 6.60141 9.68948 7.07443 9.65827C7.16606 9.65222 7.26642 9.64472 7.37474 9.63662C8.74833 9.53392 11.4025 9.33548 13.7828 10.7975C13.2909 9.27174 12.3072 8.28633 11.2361 7.63435C9.65215 6.67019 7.8555 6.43333 7.13369 6.43333C6.63664 6.43333 6.23369 6.03038 6.23369 5.53333V4.21296L2.27435 8.17229Z" fill="#445576"/>
</svg>
