<svg width="16" height="16" viewBox="0 0 16 16" fill="none" xmlns="http://www.w3.org/2000/svg">
<path fill-rule="evenodd" clip-rule="evenodd" d="M3.34735 3.50093C2.77377 3.50093 2.30879 3.96591 2.30879 4.53949V13.0077C2.30879 13.6152 2.80128 14.1077 3.40879 14.1077H12.591C13.1985 14.1077 13.691 13.6152 13.691 13.0077V4.60093C13.691 3.99341 13.1985 3.50093 12.591 3.50093H12.546V1.70093H12.591C14.1926 1.70093 15.491 2.9993 15.491 4.60093V13.0077C15.491 14.6094 14.1926 15.9077 12.591 15.9077H3.40879C1.80717 15.9077 0.508789 14.6094 0.508789 13.0077V4.53949C0.508789 2.9718 1.77966 1.70093 3.34735 1.70093V3.50093ZM8.99266 3.50093H6.99241V1.70093H8.99266V3.50093Z" fill="#445576"/>
<path fill-rule="evenodd" clip-rule="evenodd" d="M14.5909 7.86274H1.40869V6.06274H14.5909V7.86274Z" fill="#445576"/>
<path fill-rule="evenodd" clip-rule="evenodd" d="M5.28613 0.0500488C5.83842 0.0500488 6.28613 0.497764 6.28613 1.05005L6.28613 4.15175C6.28613 4.70404 5.83842 5.15175 5.28613 5.15175C4.73385 5.15175 4.28613 4.70404 4.28613 4.15175L4.28613 1.05005C4.28613 0.497764 4.73385 0.0500488 5.28613 0.0500488Z" fill="#445576"/>
<path fill-rule="evenodd" clip-rule="evenodd" d="M10.7139 0.0500488C11.2662 0.0500488 11.7139 0.497764 11.7139 1.05005L11.7139 4.15175C11.7139 4.70404 11.2662 5.15175 10.7139 5.15175C10.1616 5.15175 9.71387 4.70404 9.71387 4.15175L9.71387 1.05005C9.71387 0.497764 10.1616 0.0500488 10.7139 0.0500488Z" fill="#445576"/>
</svg>
