<svg width="16" height="16" viewBox="0 0 16 16" fill="none" xmlns="http://www.w3.org/2000/svg">
<path fill-rule="evenodd" clip-rule="evenodd" d="M6.939 13.9425C10.7713 13.9425 13.878 10.8214 13.878 6.97125C13.878 3.12113 10.7713 0 6.939 0C3.1067 0 0 3.12113 0 6.97125C0 10.8214 3.1067 13.9425 6.939 13.9425ZM6.93901 11.8107C9.59938 11.8107 11.756 9.64399 11.756 6.97126C11.756 4.29853 9.59938 2.13185 6.93901 2.13185C4.27864 2.13185 2.12199 4.29853 2.12199 6.97126C2.12199 9.64399 4.27864 11.8107 6.93901 11.8107Z" fill="white"/>
<path fill-rule="evenodd" clip-rule="evenodd" d="M11.1643 11.1418C11.4911 10.8135 12.021 10.8135 12.3478 11.1418L15.7549 14.5647C16.0817 14.8931 16.0817 15.4254 15.7549 15.7538C15.4281 16.0821 14.8982 16.0821 14.5714 15.7538L11.1643 12.3308C10.8375 12.0025 10.8375 11.4701 11.1643 11.1418Z" fill="white"/>
</svg>
