<svg width="16" height="16" viewBox="0 0 16 16" fill="none" xmlns="http://www.w3.org/2000/svg">
<path fill-rule="evenodd" clip-rule="evenodd" d="M7.99998 1.86128C6.83181 1.86128 5.80378 2.87475 5.80378 4.22761V7.15369H4.00378V4.22761C4.00378 1.97257 5.74819 0.0612793 7.99998 0.0612793C10.2518 0.0612793 11.9962 1.97257 11.9962 4.22761V7.15369H10.1962V4.22761C10.1962 2.87475 9.16816 1.86128 7.99998 1.86128Z" fill="#ABC0DC"/>
<path fill-rule="evenodd" clip-rule="evenodd" d="M7.99998 1.86128C6.83181 1.86128 5.80378 2.87475 5.80378 4.22761V7.15369H4.00378V4.22761C4.00378 1.97257 5.74819 0.0612793 7.99998 0.0612793C10.2518 0.0612793 11.9962 1.97257 11.9962 4.22761V7.15369H10.1962V4.22761C10.1962 2.87475 9.16816 1.86128 7.99998 1.86128Z" fill="#7D9BC3"/>
<path fill-rule="evenodd" clip-rule="evenodd" d="M7.99997 8.46527C8.49703 8.46527 8.89997 8.86821 8.89997 9.36527V12.4615C8.89997 12.9585 8.49703 13.3615 7.99997 13.3615C7.50291 13.3615 7.09997 12.9585 7.09997 12.4615V9.36527C7.09997 8.86821 7.50291 8.46527 7.99997 8.46527Z" fill="#ABC0DC"/>
<path fill-rule="evenodd" clip-rule="evenodd" d="M7.99997 8.46527C8.49703 8.46527 8.89997 8.86821 8.89997 9.36527V12.4615C8.89997 12.9585 8.49703 13.3615 7.99997 13.3615C7.50291 13.3615 7.09997 12.9585 7.09997 12.4615V9.36527C7.09997 8.86821 7.50291 8.46527 7.99997 8.46527Z" fill="#7D9BC3"/>
<path fill-rule="evenodd" clip-rule="evenodd" d="M10.6347 8.06908H5.36523C4.15021 8.06908 3.16523 9.05405 3.16523 10.2691V12C3.16523 13.215 4.15021 14.2 5.36523 14.2H10.6347C11.8497 14.2 12.8347 13.215 12.8347 12V10.2691C12.8347 9.05405 11.8497 8.06908 10.6347 8.06908ZM5.36523 6.26908C3.1561 6.26908 1.36523 8.05994 1.36523 10.2691V12C1.36523 14.2092 3.15609 16 5.36523 16H10.6347C12.8438 16 14.6347 14.2091 14.6347 12V10.2691C14.6347 8.05994 12.8438 6.26908 10.6347 6.26908H5.36523Z" fill="#ABC0DC"/>
<path fill-rule="evenodd" clip-rule="evenodd" d="M10.6347 8.06908H5.36523C4.15021 8.06908 3.16523 9.05405 3.16523 10.2691V12C3.16523 13.215 4.15021 14.2 5.36523 14.2H10.6347C11.8497 14.2 12.8347 13.215 12.8347 12V10.2691C12.8347 9.05405 11.8497 8.06908 10.6347 8.06908ZM5.36523 6.26908C3.1561 6.26908 1.36523 8.05994 1.36523 10.2691V12C1.36523 14.2092 3.15609 16 5.36523 16H10.6347C12.8438 16 14.6347 14.2091 14.6347 12V10.2691C14.6347 8.05994 12.8438 6.26908 10.6347 6.26908H5.36523Z" fill="#7D9BC3"/>
</svg>
