<svg width="16" height="16" viewBox="0 0 16 16" fill="none" xmlns="http://www.w3.org/2000/svg">
<path fill-rule="evenodd" clip-rule="evenodd" d="M8.00015 1.92622C6.83935 1.92622 5.8173 2.93339 5.8173 4.27846V7.19192H4.0173V4.27846C4.0173 2.03121 5.75573 0.126221 8.00015 0.126221C8.49721 0.126221 8.90015 0.529164 8.90015 1.02622C8.90015 1.52328 8.49721 1.92622 8.00015 1.92622Z" fill="white"/>
<path fill-rule="evenodd" clip-rule="evenodd" d="M9.72649 9.20905C10.078 9.56052 10.078 10.1304 9.72649 10.4818L7.54659 12.6617C7.19512 13.0132 6.62527 13.0132 6.2738 12.6617C5.92232 12.3103 5.92232 11.7404 6.2738 11.389L8.4537 9.20905C8.80517 8.85758 9.37502 8.85758 9.72649 9.20905Z" fill="white"/>
<path fill-rule="evenodd" clip-rule="evenodd" d="M6.27379 9.20905C6.62526 8.85757 7.19511 8.85757 7.54658 9.20905L9.72648 11.389C10.078 11.7404 10.078 12.3103 9.72648 12.6617C9.37501 13.0132 8.80516 13.0132 8.45369 12.6617L6.27379 10.4818C5.92231 10.1304 5.92231 9.56052 6.27379 9.20905Z" fill="white"/>
<path fill-rule="evenodd" clip-rule="evenodd" d="M10.6063 8.11111H5.39404C4.17902 8.11111 3.19404 9.09608 3.19404 10.3111V12.0001C3.19404 13.2151 4.17902 14.2001 5.39404 14.2001H10.6063C11.8213 14.2001 12.8063 13.2151 12.8063 12.0001V10.3111C12.8063 9.09608 11.8213 8.11111 10.6063 8.11111ZM5.39404 6.31111C3.1849 6.31111 1.39404 8.10197 1.39404 10.3111V12.0001C1.39404 14.2092 3.1849 16.0001 5.39404 16.0001H10.6063C12.8154 16.0001 14.6063 14.2092 14.6063 12.0001V10.3111C14.6063 8.10197 12.8154 6.31111 10.6063 6.31111H5.39404Z" fill="white"/>
</svg>
