<svg width="16" height="16" viewBox="0 0 16 16" fill="none" xmlns="http://www.w3.org/2000/svg">
<path fill-rule="evenodd" clip-rule="evenodd" d="M6.09539 6.36627C6.19442 6.76847 5.94864 7.1748 5.54644 7.27382C4.64913 7.49474 3.93532 8.36542 3.93532 9.45466C3.93532 9.86887 3.59954 10.2047 3.18532 10.2047C2.77111 10.2047 2.43532 9.86887 2.43532 9.45466C2.43532 7.71261 3.58451 6.21206 5.18784 5.81731C5.59005 5.71829 5.99637 5.96406 6.09539 6.36627Z" fill="#ABC0DC"/>
<path fill-rule="evenodd" clip-rule="evenodd" d="M6.09539 6.36627C6.19442 6.76847 5.94864 7.1748 5.54644 7.27382C4.64913 7.49474 3.93532 8.36542 3.93532 9.45466C3.93532 9.86887 3.59954 10.2047 3.18532 10.2047C2.77111 10.2047 2.43532 9.86887 2.43532 9.45466C2.43532 7.71261 3.58451 6.21206 5.18784 5.81731C5.59005 5.71829 5.99637 5.96406 6.09539 6.36627Z" fill="#7D9BC3"/>
<path fill-rule="evenodd" clip-rule="evenodd" d="M13.7066 3.95894C13.5637 4.19522 13.2563 4.27091 13.02 4.12799C12.5021 3.81471 11.7677 3.88716 11.2626 4.39225C11.0673 4.58751 10.7508 4.58751 10.5555 4.39225C10.3602 4.19699 10.3602 3.8804 10.5555 3.68514C11.3683 2.87232 12.6049 2.70819 13.5376 3.27234C13.7738 3.41526 13.8495 3.72266 13.7066 3.95894Z" fill="#ABC0DC"/>
<path fill-rule="evenodd" clip-rule="evenodd" d="M13.7066 3.95894C13.5637 4.19522 13.2563 4.27091 13.02 4.12799C12.5021 3.81471 11.7677 3.88716 11.2626 4.39225C11.0673 4.58751 10.7508 4.58751 10.5555 4.39225C10.3602 4.19699 10.3602 3.8804 10.5555 3.68514C11.3683 2.87232 12.6049 2.70819 13.5376 3.27234C13.7738 3.41526 13.8495 3.72266 13.7066 3.95894Z" fill="#7D9BC3"/>
<path fill-rule="evenodd" clip-rule="evenodd" d="M13.0909 0.588379C13.2918 0.588379 13.4546 0.751184 13.4546 0.952015V1.67929C13.4546 1.88012 13.2918 2.04292 13.0909 2.04292C12.8901 2.04292 12.7273 1.88012 12.7273 1.67929V0.952015C12.7273 0.751184 12.8901 0.588379 13.0909 0.588379Z" fill="#ABC0DC"/>
<path fill-rule="evenodd" clip-rule="evenodd" d="M13.0909 0.588379C13.2918 0.588379 13.4546 0.751184 13.4546 0.952015V1.67929C13.4546 1.88012 13.2918 2.04292 13.0909 2.04292C12.8901 2.04292 12.7273 1.88012 12.7273 1.67929V0.952015C12.7273 0.751184 12.8901 0.588379 13.0909 0.588379Z" fill="#7D9BC3"/>
<path fill-rule="evenodd" clip-rule="evenodd" d="M15.3168 1.70017C15.4588 1.84217 15.4588 2.07242 15.3168 2.21442L14.8026 2.72868C14.6606 2.87069 14.4303 2.87069 14.2883 2.72868C14.1463 2.58668 14.1463 2.35643 14.2883 2.21442L14.8026 1.70017C14.9446 1.55816 15.1748 1.55816 15.3168 1.70017Z" fill="#ABC0DC"/>
<path fill-rule="evenodd" clip-rule="evenodd" d="M15.3168 1.70017C15.4588 1.84217 15.4588 2.07242 15.3168 2.21442L14.8026 2.72868C14.6606 2.87069 14.4303 2.87069 14.2883 2.72868C14.1463 2.58668 14.1463 2.35643 14.2883 2.21442L14.8026 1.70017C14.9446 1.55816 15.1748 1.55816 15.3168 1.70017Z" fill="#7D9BC3"/>
<path fill-rule="evenodd" clip-rule="evenodd" d="M15.9888 4.13912C15.9888 4.33995 15.826 4.50275 15.6251 4.50275L14.8978 4.50275C14.697 4.50275 14.5342 4.33995 14.5342 4.13912C14.5342 3.93829 14.697 3.77548 14.8978 3.77548H15.6251C15.826 3.77548 15.9888 3.93829 15.9888 4.13912Z" fill="#ABC0DC"/>
<path fill-rule="evenodd" clip-rule="evenodd" d="M15.9888 4.13912C15.9888 4.33995 15.826 4.50275 15.6251 4.50275L14.8978 4.50275C14.697 4.50275 14.5342 4.33995 14.5342 4.13912C14.5342 3.93829 14.697 3.77548 14.8978 3.77548H15.6251C15.826 3.77548 15.9888 3.93829 15.9888 4.13912Z" fill="#7D9BC3"/>
<path fill-rule="evenodd" clip-rule="evenodd" d="M15.3168 6.36503C15.1748 6.50704 14.9446 6.50704 14.8026 6.36503L14.2883 5.85077C14.1463 5.70876 14.1463 5.47852 14.2883 5.33651C14.4303 5.1945 14.6606 5.1945 14.8026 5.33651L15.3168 5.85077C15.4588 5.99278 15.4588 6.22302 15.3168 6.36503Z" fill="#ABC0DC"/>
<path fill-rule="evenodd" clip-rule="evenodd" d="M15.3168 6.36503C15.1748 6.50704 14.9446 6.50704 14.8026 6.36503L14.2883 5.85077C14.1463 5.70876 14.1463 5.47852 14.2883 5.33651C14.4303 5.1945 14.6606 5.1945 14.8026 5.33651L15.3168 5.85077C15.4588 5.99278 15.4588 6.22302 15.3168 6.36503Z" fill="#7D9BC3"/>
<path fill-rule="evenodd" clip-rule="evenodd" d="M13.0909 7.41184C12.8901 7.41184 12.7273 7.24904 12.7273 7.04821V6.32093C12.7273 6.1201 12.8901 5.9573 13.0909 5.9573C13.2918 5.9573 13.4546 6.1201 13.4546 6.32093V7.04821C13.4546 7.24904 13.2918 7.41184 13.0909 7.41184Z" fill="#ABC0DC"/>
<path fill-rule="evenodd" clip-rule="evenodd" d="M13.0909 7.41184C12.8901 7.41184 12.7273 7.24904 12.7273 7.04821V6.32093C12.7273 6.1201 12.8901 5.9573 13.0909 5.9573C13.2918 5.9573 13.4546 6.1201 13.4546 6.32093V7.04821C13.4546 7.24904 13.2918 7.41184 13.0909 7.41184Z" fill="#7D9BC3"/>
<path fill-rule="evenodd" clip-rule="evenodd" d="M5.81818 13.4482C8.14782 13.4482 10.0364 11.5597 10.0364 9.23004C10.0364 6.9004 8.14782 5.01185 5.81818 5.01185C3.48854 5.01185 1.6 6.9004 1.6 9.23004C1.6 11.5597 3.48854 13.4482 5.81818 13.4482ZM5.81818 15.0482C9.03148 15.0482 11.6364 12.4433 11.6364 9.23004C11.6364 6.01674 9.03148 3.41185 5.81818 3.41185C2.60489 3.41185 0 6.01674 0 9.23004C0 12.4433 2.60489 15.0482 5.81818 15.0482Z" fill="#ABC0DC"/>
<path fill-rule="evenodd" clip-rule="evenodd" d="M5.81818 13.4482C8.14782 13.4482 10.0364 11.5597 10.0364 9.23004C10.0364 6.9004 8.14782 5.01185 5.81818 5.01185C3.48854 5.01185 1.6 6.9004 1.6 9.23004C1.6 11.5597 3.48854 13.4482 5.81818 13.4482ZM5.81818 15.0482C9.03148 15.0482 11.6364 12.4433 11.6364 9.23004C11.6364 6.01674 9.03148 3.41185 5.81818 3.41185C2.60489 3.41185 0 6.01674 0 9.23004C0 12.4433 2.60489 15.0482 5.81818 15.0482Z" fill="#7D9BC3"/>
<path fill-rule="evenodd" clip-rule="evenodd" d="M9.46465 3.0583C9.65991 2.86304 9.9765 2.86304 10.1718 3.0583L11.9899 4.87648C12.1852 5.07174 12.1852 5.38833 11.9899 5.58359L10.899 6.6745C10.7038 6.86976 10.3872 6.86976 10.1919 6.6745C9.99666 6.47924 9.99666 6.16265 10.1919 5.96739L10.9293 5.23004L9.8182 4.11896L9.08085 4.85632C8.88559 5.05158 8.569 5.05158 8.37374 4.85632C8.17848 4.66105 8.17848 4.34447 8.37374 4.14921L9.46465 3.0583Z" fill="#ABC0DC"/>
<path fill-rule="evenodd" clip-rule="evenodd" d="M9.46465 3.0583C9.65991 2.86304 9.9765 2.86304 10.1718 3.0583L11.9899 4.87648C12.1852 5.07174 12.1852 5.38833 11.9899 5.58359L10.899 6.6745C10.7038 6.86976 10.3872 6.86976 10.1919 6.6745C9.99666 6.47924 9.99666 6.16265 10.1919 5.96739L10.9293 5.23004L9.8182 4.11896L9.08085 4.85632C8.88559 5.05158 8.569 5.05158 8.37374 4.85632C8.17848 4.66105 8.17848 4.34447 8.37374 4.14921L9.46465 3.0583Z" fill="#7D9BC3"/>
</svg>
