<svg width="16" height="16" viewBox="0 0 16 16" fill="none" xmlns="http://www.w3.org/2000/svg">
<path fill-rule="evenodd" clip-rule="evenodd" d="M0.100098 3C0.100098 2.50294 0.503041 2.1 1.0001 2.1H2.5001C2.99715 2.1 3.4001 2.50294 3.4001 3C3.4001 3.49706 2.99715 3.9 2.5001 3.9H1.0001C0.503041 3.9 0.100098 3.49706 0.100098 3ZM6.6001 3C6.6001 2.50294 7.00304 2.1 7.5001 2.1H15.0001C15.4972 2.1 15.9001 2.50294 15.9001 3C15.9001 3.49706 15.4972 3.9 15.0001 3.9H7.5001C7.00304 3.9 6.6001 3.49706 6.6001 3ZM0.100098 8C0.100098 7.50294 0.503041 7.1 1.0001 7.1H9.5001C9.99715 7.1 10.4001 7.50294 10.4001 8C10.4001 8.49706 9.99715 8.9 9.5001 8.9H1.0001C0.503041 8.9 0.100098 8.49706 0.100098 8ZM13.6001 8C13.6001 7.50294 14.003 7.1 14.5001 7.1H15.0001C15.4972 7.1 15.9001 7.50294 15.9001 8C15.9001 8.49706 15.4972 8.9 15.0001 8.9H14.5001C14.003 8.9 13.6001 8.49706 13.6001 8ZM0.100098 13C0.100098 12.5029 0.503041 12.1 1.0001 12.1H4.5001C4.99715 12.1 5.4001 12.5029 5.4001 13C5.4001 13.4971 4.99715 13.9 4.5001 13.9H1.0001C0.503041 13.9 0.100098 13.4971 0.100098 13ZM8.6001 13C8.6001 12.5029 9.00304 12.1 9.5001 12.1H15.0001C15.4972 12.1 15.9001 12.5029 15.9001 13C15.9001 13.4971 15.4972 13.9 15.0001 13.9H9.5001C9.00304 13.9 8.6001 13.4971 8.6001 13Z" fill="#ABC0DC"/>
<path fill-rule="evenodd" clip-rule="evenodd" d="M0.100098 3C0.100098 2.50294 0.503041 2.1 1.0001 2.1H2.5001C2.99715 2.1 3.4001 2.50294 3.4001 3C3.4001 3.49706 2.99715 3.9 2.5001 3.9H1.0001C0.503041 3.9 0.100098 3.49706 0.100098 3ZM6.6001 3C6.6001 2.50294 7.00304 2.1 7.5001 2.1H15.0001C15.4972 2.1 15.9001 2.50294 15.9001 3C15.9001 3.49706 15.4972 3.9 15.0001 3.9H7.5001C7.00304 3.9 6.6001 3.49706 6.6001 3ZM0.100098 8C0.100098 7.50294 0.503041 7.1 1.0001 7.1H9.5001C9.99715 7.1 10.4001 7.50294 10.4001 8C10.4001 8.49706 9.99715 8.9 9.5001 8.9H1.0001C0.503041 8.9 0.100098 8.49706 0.100098 8ZM13.6001 8C13.6001 7.50294 14.003 7.1 14.5001 7.1H15.0001C15.4972 7.1 15.9001 7.50294 15.9001 8C15.9001 8.49706 15.4972 8.9 15.0001 8.9H14.5001C14.003 8.9 13.6001 8.49706 13.6001 8ZM0.100098 13C0.100098 12.5029 0.503041 12.1 1.0001 12.1H4.5001C4.99715 12.1 5.4001 12.5029 5.4001 13C5.4001 13.4971 4.99715 13.9 4.5001 13.9H1.0001C0.503041 13.9 0.100098 13.4971 0.100098 13ZM8.6001 13C8.6001 12.5029 9.00304 12.1 9.5001 12.1H15.0001C15.4972 12.1 15.9001 12.5029 15.9001 13C15.9001 13.4971 15.4972 13.9 15.0001 13.9H9.5001C9.00304 13.9 8.6001 13.4971 8.6001 13Z" fill="#7D9BC3"/>
<path fill-rule="evenodd" clip-rule="evenodd" d="M5.0001 4.2C5.66284 4.2 6.2001 3.66274 6.2001 3C6.2001 2.33726 5.66284 1.8 5.0001 1.8C4.33736 1.8 3.8001 2.33726 3.8001 3C3.8001 3.66274 4.33736 4.2 5.0001 4.2ZM5.0001 6C6.65695 6 8.0001 4.65685 8.0001 3C8.0001 1.34315 6.65695 0 5.0001 0C3.34324 0 2.0001 1.34315 2.0001 3C2.0001 4.65685 3.34324 6 5.0001 6Z" fill="#ABC0DC"/>
<path fill-rule="evenodd" clip-rule="evenodd" d="M5.0001 4.2C5.66284 4.2 6.2001 3.66274 6.2001 3C6.2001 2.33726 5.66284 1.8 5.0001 1.8C4.33736 1.8 3.8001 2.33726 3.8001 3C3.8001 3.66274 4.33736 4.2 5.0001 4.2ZM5.0001 6C6.65695 6 8.0001 4.65685 8.0001 3C8.0001 1.34315 6.65695 0 5.0001 0C3.34324 0 2.0001 1.34315 2.0001 3C2.0001 4.65685 3.34324 6 5.0001 6Z" fill="#7D9BC3"/>
<path fill-rule="evenodd" clip-rule="evenodd" d="M12.0001 9.2C12.6628 9.2 13.2001 8.66274 13.2001 8C13.2001 7.33726 12.6628 6.8 12.0001 6.8C11.3374 6.8 10.8001 7.33726 10.8001 8C10.8001 8.66274 11.3374 9.2 12.0001 9.2ZM12.0001 11C13.657 11 15.0001 9.65685 15.0001 8C15.0001 6.34315 13.657 5 12.0001 5C10.3432 5 9.0001 6.34315 9.0001 8C9.0001 9.65685 10.3432 11 12.0001 11Z" fill="#ABC0DC"/>
<path fill-rule="evenodd" clip-rule="evenodd" d="M12.0001 9.2C12.6628 9.2 13.2001 8.66274 13.2001 8C13.2001 7.33726 12.6628 6.8 12.0001 6.8C11.3374 6.8 10.8001 7.33726 10.8001 8C10.8001 8.66274 11.3374 9.2 12.0001 9.2ZM12.0001 11C13.657 11 15.0001 9.65685 15.0001 8C15.0001 6.34315 13.657 5 12.0001 5C10.3432 5 9.0001 6.34315 9.0001 8C9.0001 9.65685 10.3432 11 12.0001 11Z" fill="#7D9BC3"/>
<path fill-rule="evenodd" clip-rule="evenodd" d="M7.0001 14.2C7.66284 14.2 8.2001 13.6627 8.2001 13C8.2001 12.3373 7.66284 11.8 7.0001 11.8C6.33736 11.8 5.8001 12.3373 5.8001 13C5.8001 13.6627 6.33736 14.2 7.0001 14.2ZM7.0001 16C8.65695 16 10.0001 14.6569 10.0001 13C10.0001 11.3431 8.65695 10 7.0001 10C5.34324 10 4.0001 11.3431 4.0001 13C4.0001 14.6569 5.34324 16 7.0001 16Z" fill="#ABC0DC"/>
<path fill-rule="evenodd" clip-rule="evenodd" d="M7.0001 14.2C7.66284 14.2 8.2001 13.6627 8.2001 13C8.2001 12.3373 7.66284 11.8 7.0001 11.8C6.33736 11.8 5.8001 12.3373 5.8001 13C5.8001 13.6627 6.33736 14.2 7.0001 14.2ZM7.0001 16C8.65695 16 10.0001 14.6569 10.0001 13C10.0001 11.3431 8.65695 10 7.0001 10C5.34324 10 4.0001 11.3431 4.0001 13C4.0001 14.6569 5.34324 16 7.0001 16Z" fill="#7D9BC3"/>
</svg>
