<svg width="16" height="16" viewBox="0 0 16 16" fill="none" xmlns="http://www.w3.org/2000/svg">
<path d="M10 13.9153L9.94331 14C9.52336 13.9661 8.87454 13.9492 7.99685 13.9492C7.12336 13.9492 6.47664 13.9661 6.05669 14L6 13.9153V13.3479L6.06299 13.2632C6.49134 13.2294 6.73701 13.2011 6.8 13.1785C6.92178 13.1334 6.99318 13.0289 7.01417 12.8652C7.06877 12.4587 7.09606 11.5836 7.09606 10.2399V5.76006C7.09606 4.41637 7.06877 3.54128 7.01417 3.13479C6.99318 2.97107 6.92178 2.86662 6.8 2.82145C6.73701 2.79887 6.49134 2.77064 6.06299 2.73677L6 2.65208V2.07622L6.06299 2C6.46614 2.03387 7.11286 2.05081 8.00315 2.05081C8.88924 2.05081 9.53386 2.03387 9.93701 2L10 2.07622V2.65208L9.93701 2.73677C9.50866 2.77064 9.26299 2.79887 9.2 2.82145C9.07822 2.86662 9.00682 2.97107 8.98583 3.13479C8.93123 3.54128 8.90394 4.41637 8.90394 5.76006V10.2399C8.90394 11.5836 8.93123 12.4587 8.98583 12.8652C9.00682 13.0289 9.07822 13.1334 9.2 13.1785C9.26299 13.2011 9.50866 13.2294 9.93701 13.2632L10 13.3479V13.9153Z" fill="#445576"/>
</svg>
