<svg width="16" height="16" viewBox="0 0 16 16" fill="none" xmlns="http://www.w3.org/2000/svg">
<path d="M0.00313565 5.2099C0.0125426 5.19108 0.0250852 5.1754 0.0313565 5.15345C0.163054 4.63294 0.50484 4.357 1.04417 4.357C1.9786 4.35386 2.91615 4.35386 3.85058 4.35386C5.27103 4.35386 6.69461 4.35386 8.11506 4.35386C8.27498 4.35386 8.44431 4.34759 8.59795 4.38835C9.32229 4.57022 9.57628 5.45448 9.0683 6.02516C8.54778 6.61153 8.01786 7.18849 7.4942 7.77172C6.13647 9.27683 4.77873 10.7819 3.41786 12.2871C3.39591 12.3121 3.37396 12.3404 3.33006 12.3968C3.41786 12.3968 3.47744 12.3968 3.53701 12.3968C5.12679 12.3968 6.71343 12.3968 8.3032 12.3968C8.78609 12.3968 9.16864 12.6665 9.27839 13.0804C9.44771 13.7106 8.98677 14.3221 8.32202 14.3284C7.45971 14.3378 6.59741 14.3315 5.7351 14.3315C4.20804 14.3315 2.68412 14.3284 1.15705 14.3315C0.705521 14.3315 0.357464 14.1559 0.178732 13.7357C0 13.3218 0.0940695 12.9455 0.398228 12.61C2.25767 10.5719 4.11397 8.53368 5.97341 6.49238C6.02045 6.43907 6.06748 6.38576 6.13333 6.30737C6.04867 6.30424 5.99536 6.29797 5.94206 6.29797C4.36483 6.29797 2.78446 6.3011 1.20723 6.29483C0.994001 6.29483 0.768234 6.2572 0.567553 6.18195C0.244581 6.06279 0.0815269 5.78686 0 5.46075C0.00313565 5.37608 0.00313565 5.29456 0.00313565 5.2099Z" fill="white"/>
<path d="M10.8587 8.38307C10.9465 8.38307 10.9967 8.38307 11.0469 8.38307C12.4516 8.38307 13.8595 8.38307 15.2643 8.38307C15.6061 8.38307 15.8475 8.53671 15.9322 8.80011C16.0451 9.15757 15.8131 9.55267 15.4431 9.62792C15.3709 9.6436 15.2988 9.64673 15.2267 9.64673C13.2983 9.64673 11.3698 9.64987 9.44142 9.64673C8.93658 9.64673 8.60733 9.26732 8.72962 8.81579C8.76098 8.69977 8.83624 8.58688 8.91463 8.49595C10.5138 6.70236 12.1161 4.90877 13.7153 3.11831C13.7529 3.07755 13.7874 3.03365 13.8501 2.96466C13.7623 2.96153 13.7059 2.95526 13.6526 2.95526C12.2949 2.95526 10.934 2.95526 9.57625 2.95526C9.51981 2.95526 9.46023 2.95526 9.40379 2.95526C8.98988 2.94898 8.69513 2.67305 8.69827 2.29677C8.7014 1.95185 9.0087 1.67591 9.41006 1.67278C10.1156 1.66964 10.8211 1.66964 11.5266 1.66964C12.7589 1.66964 13.9944 1.67278 15.2267 1.6665C15.5308 1.6665 15.8068 1.7104 15.9416 2.0271C16.0765 2.34067 15.9636 2.59466 15.7472 2.83924C14.148 4.6391 12.5551 6.44837 10.9591 8.25137C10.9309 8.28586 10.9089 8.31722 10.8587 8.38307Z" fill="white"/>
</svg>
