<svg width="16" height="16" viewBox="0 0 16 16" fill="none" xmlns="http://www.w3.org/2000/svg">
<path fill-rule="evenodd" clip-rule="evenodd" d="M13.1071 13.2101C13.1419 13.176 13.1763 13.1416 13.2103 13.1069C13.4237 12.8892 13.6235 12.6583 13.8085 12.4154C14.7417 11.1896 15.2958 9.65948 15.2958 7.99997C15.2958 3.97071 12.0295 0.704346 8.00021 0.704346C6.3407 0.704346 4.8106 1.25843 3.58482 2.19169C3.3419 2.37664 3.11093 2.57648 2.89328 2.78985C2.85854 2.8239 2.82415 2.85829 2.7901 2.89303C2.61099 3.07573 2.44142 3.26781 2.28219 3.46846C1.29451 4.71308 0.70459 6.28763 0.70459 7.99997C0.70459 12.0292 3.97095 15.2956 8.00021 15.2956C9.71255 15.2956 11.2871 14.7057 12.5317 13.718C12.7324 13.5588 12.9245 13.3892 13.1071 13.2101ZM3.58321 4.76948C2.91907 5.67536 2.5285 6.79103 2.5285 7.99997C2.5285 11.0219 4.97827 13.4717 8.00021 13.4717C9.20915 13.4717 10.3248 13.0811 11.2307 12.417L3.58321 4.76948ZM4.89023 3.49711L12.5031 11.1099C13.1149 10.2265 13.4719 9.15603 13.4719 7.99997C13.4719 4.97802 11.0222 2.52825 8.00021 2.52825C6.84415 2.52825 5.77368 2.88532 4.89023 3.49711Z" fill="white"/>
</svg>
