<svg width="16" height="16" viewBox="0 0 16 16" fill="none" xmlns="http://www.w3.org/2000/svg">
<path d="M3.70374 7.15332L2.31037 10.8132C1.55987 12.7805 1.12575 13.8542 1.00803 14.0344C0.895206 14.2147 0.586176 14.3203 0.0809365 14.3512L0 14.4284V14.9305L0.0735786 15C0.868227 14.9691 1.36611 14.9537 1.56722 14.9537C1.8272 14.9537 2.41093 14.9691 3.31839 15L3.39197 14.9228V14.4284L3.31839 14.3512C2.9456 14.3306 2.69543 14.31 2.56789 14.2894C2.33735 14.2533 2.22207 14.1374 2.22207 13.9418C2.22207 13.7615 2.3447 13.3135 2.58997 12.5977L2.91371 11.6552C3.66912 11.6449 4.23813 11.6398 4.62074 11.6398C5.32709 11.6398 6.01873 11.6449 6.69565 11.6552L7.29164 13.2852C7.42899 13.6611 7.49766 13.9031 7.49766 14.0113C7.49766 14.1967 7.36276 14.2971 7.09298 14.3125L6.45284 14.3512L6.37926 14.4361V14.9228L6.44549 15C7.22051 14.9691 8.05931 14.9537 8.96187 14.9537C9.18751 14.9537 9.84482 14.9691 10.9338 15L11 14.9228V14.4284L10.9338 14.3434C10.6297 14.3434 10.3967 14.3125 10.2348 14.2507C10.1122 14.2044 9.9748 13.9984 9.82274 13.6328L8.33099 9.94791C7.57399 10.1048 6.75897 9.90772 6.14797 9.35689L5.59145 8.85516L6.33512 10.7669C5.9476 10.7823 5.44236 10.7901 4.8194 10.7901C4.17681 10.7901 3.6544 10.7823 3.25217 10.7669L4.37368 7.75729L3.70374 7.15332Z" fill="#445576"/>
<path fill-rule="evenodd" clip-rule="evenodd" d="M14.7439 1.33168C15.113 1.7425 15.0792 2.37476 14.6683 2.74387L7.99028 8.74387C7.60969 9.08582 7.03237 9.08533 6.65235 8.74273L3.33041 5.74788C2.92022 5.37807 2.88747 4.74576 3.25728 4.33556C3.62709 3.92536 4.25941 3.89262 4.6696 4.26243L7.32309 6.65465L13.3317 1.25615C13.7425 0.887037 14.3748 0.920852 14.7439 1.33168Z" fill="#445576"/>
</svg>
