<svg width="16" height="16" viewBox="0 0 16 16" fill="none" xmlns="http://www.w3.org/2000/svg">
<path fill-rule="evenodd" clip-rule="evenodd" d="M4.51426 7.2566C4.51426 5.30127 6.09937 3.71617 8.0547 3.71617C10.01 3.71617 11.5951 5.30127 11.5951 7.2566C11.5951 8.55262 10.8984 9.68457 9.86337 10.3006C9.86044 10.306 9.8573 10.3119 9.85396 10.3183C9.8125 10.3981 9.78203 10.471 9.7385 10.5751C9.71223 10.6379 9.68122 10.7121 9.64017 10.806C9.55588 10.9989 9.41765 11.3 9.19678 11.5552C8.9479 11.8428 8.55292 12.1163 8.0065 12.1163C7.40274 12.1163 7.0285 11.7326 6.85238 11.4994C6.6736 11.2627 6.54684 10.9832 6.46535 10.7987C6.43717 10.7349 6.41272 10.6786 6.39071 10.6279C6.3338 10.4967 6.2932 10.4031 6.24643 10.3154C6.24223 10.3075 6.23831 10.3003 6.23467 10.2938C5.20591 9.67628 4.51426 8.54787 4.51426 7.2566ZM9.27915 9.48302C10.0637 9.05065 10.5951 8.21569 10.5951 7.2566C10.5951 5.85356 9.45774 4.71617 8.0547 4.71617C6.65165 4.71617 5.51426 5.85356 5.51426 7.2566C5.51426 8.21569 6.04574 9.05065 6.83025 9.48302C7.03295 9.59473 7.17638 9.92562 7.3216 10.2606C7.50563 10.6851 7.69252 11.1163 8.0065 11.1163C8.42639 11.1163 8.61477 10.6677 8.79711 10.2334C8.93118 9.91419 9.06198 9.6027 9.27915 9.48302Z" fill="white"/>
<path fill-rule="evenodd" clip-rule="evenodd" d="M3.25538 2.45729C3.45065 2.26203 3.76723 2.26203 3.96249 2.45729L5.23271 3.72751C5.42797 3.92277 5.42797 4.23935 5.23271 4.43461C5.03744 4.62988 4.72086 4.62988 4.5256 4.43461L3.25538 3.1644C3.06012 2.96913 3.06012 2.65255 3.25538 2.45729Z" fill="white"/>
<path fill-rule="evenodd" clip-rule="evenodd" d="M3.25538 12.0559C3.06012 11.8607 3.06012 11.5441 3.25538 11.3488L4.5256 10.0786C4.72086 9.88333 5.03744 9.88333 5.23271 10.0786C5.42797 10.2739 5.42797 10.5904 5.23271 10.7857L3.96249 12.0559C3.76723 12.2512 3.45065 12.2512 3.25538 12.0559Z" fill="white"/>
<path fill-rule="evenodd" clip-rule="evenodd" d="M8.0547 0.405518C8.33084 0.405518 8.5547 0.629375 8.5547 0.905518V2.70188C8.5547 2.97802 8.33084 3.20188 8.0547 3.20188C7.77855 3.20188 7.5547 2.97802 7.5547 2.70188V0.905518C7.5547 0.629375 7.77855 0.405518 8.0547 0.405518Z" fill="white"/>
<path fill-rule="evenodd" clip-rule="evenodd" d="M14.7968 6.88456C14.7968 7.16071 14.573 7.38456 14.2968 7.38456L12.5005 7.38456C12.2243 7.38456 12.0005 7.16071 12.0005 6.88456C12.0005 6.60842 12.2243 6.38456 12.5005 6.38456H14.2968C14.573 6.38456 14.7968 6.60842 14.7968 6.88456Z" fill="white"/>
<path fill-rule="evenodd" clip-rule="evenodd" d="M3.99997 6.88456C3.99997 7.16071 3.77611 7.38456 3.49997 7.38456L1.70361 7.38456C1.42747 7.38456 1.20361 7.16071 1.20361 6.88456C1.20361 6.60842 1.42747 6.38456 1.70361 6.38456H3.49997C3.77611 6.38456 3.99997 6.60842 3.99997 6.88456Z" fill="white"/>
<path fill-rule="evenodd" clip-rule="evenodd" d="M9.45288 12.8429C9.45288 13.1191 9.22902 13.3429 8.95288 13.3429H7.15652C6.88037 13.3429 6.65652 13.1191 6.65652 12.8429C6.65652 12.5668 6.88037 12.3429 7.15652 12.3429H8.95288C9.22902 12.3429 9.45288 12.5668 9.45288 12.8429Z" fill="white"/>
<path fill-rule="evenodd" clip-rule="evenodd" d="M9.45288 14.1963C9.45288 14.4724 9.22902 14.6963 8.95288 14.6963H7.15652C6.88037 14.6963 6.65652 14.4724 6.65652 14.1963C6.65652 13.9202 6.88037 13.6963 7.15652 13.6963H8.95288C9.22902 13.6963 9.45288 13.9202 9.45288 14.1963Z" fill="white"/>
<path fill-rule="evenodd" clip-rule="evenodd" d="M9.01336 14.6148C9.01336 14.891 8.78951 15.1148 8.51336 15.1148H7.59602C7.31988 15.1148 7.09602 14.891 7.09602 14.6148C7.09602 14.3387 7.31988 14.1148 7.59602 14.1148H8.51336C8.78951 14.1148 9.01336 14.3387 9.01336 14.6148Z" fill="white"/>
<path fill-rule="evenodd" clip-rule="evenodd" d="M12.854 2.45729C13.0493 2.65255 13.0493 2.96913 12.854 3.1644L11.5838 4.43461C11.3885 4.62987 11.0719 4.62988 10.8767 4.43461C10.6814 4.23935 10.6814 3.92277 10.8767 3.72751L12.1469 2.45729C12.3422 2.26203 12.6587 2.26203 12.854 2.45729Z" fill="white"/>
<path fill-rule="evenodd" clip-rule="evenodd" d="M12.854 12.0559C12.6587 12.2512 12.3422 12.2512 12.1469 12.0559L10.8767 10.7857C10.6814 10.5904 10.6814 10.2739 10.8767 10.0786C11.0719 9.88333 11.3885 9.88333 11.5838 10.0786L12.854 11.3488C13.0493 11.5441 13.0493 11.8607 12.854 12.0559Z" fill="white"/>
</svg>
