<svg width="16" height="18" viewBox="0 0 16 18" fill="none" xmlns="http://www.w3.org/2000/svg">
<path fill-rule="evenodd" clip-rule="evenodd" d="M7.19259 3.79017C6.97572 3.34293 7.16247 2.80455 7.60971 2.58767C9.79113 1.52986 12.417 2.44072 13.4749 4.62213C14.5327 6.80355 13.6218 9.42946 11.4404 10.4873C10.5668 10.9109 9.61938 11.0189 8.73144 10.8551C8.24263 10.7649 7.91947 10.2955 8.00964 9.80674C8.09981 9.31793 8.56916 8.99477 9.05797 9.08494C9.58149 9.18151 10.1381 9.11831 10.655 8.86765C11.9419 8.2436 12.4793 6.69444 11.8552 5.40752C11.2312 4.1206 9.68202 3.58324 8.3951 4.20729C7.94785 4.42417 7.40947 4.23742 7.19259 3.79017Z" fill="#445576"/>
<path fill-rule="evenodd" clip-rule="evenodd" d="M3.54479 12.4196L7.65704 15.4813L11.0391 10.9388L10.1311 7.86584L6.92681 7.87708L3.54479 12.4196ZM6.02051 6.08025L11.4748 6.06112L13.0203 11.2918L8.02588 18L1.02606 12.7884L6.02051 6.08025Z" fill="#445576"/>
</svg>
