<svg width="16" height="16" viewBox="0 0 16 16" fill="none" xmlns="http://www.w3.org/2000/svg">
<path fill-rule="evenodd" clip-rule="evenodd" d="M7.19259 1.79017C6.97572 1.34293 7.16247 0.804549 7.60971 0.58767C9.79113 -0.470141 12.417 0.440719 13.4749 2.62213C14.5327 4.80355 13.6218 7.42946 11.4404 8.48727C10.5668 8.91088 9.61938 9.01887 8.73144 8.85507C8.24263 8.7649 7.91947 8.29555 8.00964 7.80674C8.09981 7.31793 8.56916 6.99477 9.05797 7.08494C9.58149 7.18151 10.1381 7.11831 10.655 6.86765C11.9419 6.2436 12.4793 4.69444 11.8552 3.40752C11.2312 2.1206 9.68202 1.58324 8.3951 2.20729C7.94785 2.42417 7.40947 2.23742 7.19259 1.79017Z" fill="#ABC0DC"/>
<path fill-rule="evenodd" clip-rule="evenodd" d="M7.19259 1.79017C6.97572 1.34293 7.16247 0.804549 7.60971 0.58767C9.79113 -0.470141 12.417 0.440719 13.4749 2.62213C14.5327 4.80355 13.6218 7.42946 11.4404 8.48727C10.5668 8.91088 9.61938 9.01887 8.73144 8.85507C8.24263 8.7649 7.91947 8.29555 8.00964 7.80674C8.09981 7.31793 8.56916 6.99477 9.05797 7.08494C9.58149 7.18151 10.1381 7.11831 10.655 6.86765C11.9419 6.2436 12.4793 4.69444 11.8552 3.40752C11.2312 2.1206 9.68202 1.58324 8.3951 2.20729C7.94785 2.42417 7.40947 2.23742 7.19259 1.79017Z" fill="#7D9BC3"/>
<path fill-rule="evenodd" clip-rule="evenodd" d="M3.54479 10.4196L7.65704 13.4813L11.0391 8.93879L10.1311 5.86584L6.92681 5.87708L3.54479 10.4196ZM6.02051 4.08025L11.4748 4.06112L13.0203 9.29184L8.02588 16L1.02606 10.7884L6.02051 4.08025Z" fill="#ABC0DC"/>
<path fill-rule="evenodd" clip-rule="evenodd" d="M3.54479 10.4196L7.65704 13.4813L11.0391 8.93879L10.1311 5.86584L6.92681 5.87708L3.54479 10.4196ZM6.02051 4.08025L11.4748 4.06112L13.0203 9.29184L8.02588 16L1.02606 10.7884L6.02051 4.08025Z" fill="#7D9BC3"/>
</svg>
