<svg width="16" height="16" viewBox="0 0 16 16" fill="none" xmlns="http://www.w3.org/2000/svg">
<path fill-rule="evenodd" clip-rule="evenodd" d="M7.99065 11.5224C9.91316 11.5224 11.4717 9.96392 11.4717 8.04141C11.4717 6.1189 9.91316 4.56039 7.99065 4.56039C6.06814 4.56039 4.50963 6.1189 4.50963 8.04141C4.50963 9.96392 6.06814 11.5224 7.99065 11.5224ZM7.99065 13.3224C10.9073 13.3224 13.2717 10.958 13.2717 8.04141C13.2717 5.12478 10.9073 2.76039 7.99065 2.76039C5.07402 2.76039 2.70963 5.12478 2.70963 8.04141C2.70963 10.958 5.07402 13.3224 7.99065 13.3224Z" fill="white"/>
<path fill-rule="evenodd" clip-rule="evenodd" d="M15.932 8.04141C15.932 8.53846 15.529 8.94141 15.032 8.94141L10.2035 8.94142C9.70646 8.94142 9.30351 8.53848 9.30351 8.04143C9.30351 7.54437 9.70646 7.14142 10.2035 7.14142L15.032 7.14141C15.529 7.14141 15.932 7.54435 15.932 8.04141ZM7.99063 0.100098C8.48769 0.100098 8.89064 0.503041 8.89064 1.0001V5.82855C8.89064 6.3256 8.48769 6.72855 7.99064 6.72855C7.49358 6.72855 7.09064 6.3256 7.09064 5.82855V1.0001C7.09064 0.503041 7.49358 0.100098 7.99063 0.100098ZM6.67776 8.04143C6.67776 8.53848 6.27481 8.94142 5.77776 8.94142L0.949314 8.94141C0.452258 8.94141 0.0493152 8.53847 0.0493164 8.04141C0.0493177 7.54435 0.452262 7.14141 0.949318 7.14141L5.77776 7.14142C6.27482 7.14142 6.67776 7.54437 6.67776 8.04143ZM7.99064 9.3543C8.4877 9.3543 8.89064 9.75725 8.89064 10.2543L8.89062 15.0828C8.89062 15.5798 8.48767 15.9828 7.99061 15.9828C7.49356 15.9828 7.09062 15.5798 7.09062 15.0828L7.09064 10.2543C7.09064 9.75724 7.49358 9.3543 7.99064 9.3543Z" fill="white"/>
</svg>
