<svg width="16" height="16" viewBox="0 0 16 16" fill="none" xmlns="http://www.w3.org/2000/svg">
<path d="M15 14.9298L14.9398 15C13.9498 14.9719 13.3523 14.9579 13.1472 14.9579C12.3266 14.9579 11.5641 14.9719 10.8595 15L10.7993 14.9298V14.4874L10.8662 14.4101L11.4482 14.375C11.6934 14.361 11.8161 14.2697 11.8161 14.1011C11.8161 14.0028 11.7536 13.7828 11.6288 13.441L11.087 11.9593C10.4716 11.9499 9.84281 11.9452 9.20067 11.9452C8.85284 11.9452 8.33556 11.9499 7.64883 11.9593L7.35452 12.816C7.13155 13.4668 7.02007 13.8741 7.02007 14.0379C7.02007 14.2158 7.12486 14.3212 7.33445 14.3539C7.45039 14.3727 7.67781 14.3914 8.01672 14.4101L8.08361 14.4803V14.9298L8.01672 15C7.19175 14.9719 6.66109 14.9579 6.42475 14.9579C6.24192 14.9579 5.7893 14.9719 5.06689 15L5 14.9368V14.4803L5.07358 14.4101C5.53289 14.382 5.81382 14.286 5.91639 14.1222C6.02341 13.9583 6.41806 12.9822 7.10033 11.1938L8.84615 6.60815C8.97547 6.25234 9.17168 5.71629 9.43478 5H10.3846L13.9298 13.757C14.068 14.0894 14.1929 14.2767 14.3043 14.3188C14.4515 14.375 14.6633 14.4031 14.9398 14.4031L15 14.4803V14.9298ZM10.7592 11.1517L9.32776 7.47191L7.95652 11.1517C8.32219 11.1657 8.7971 11.1728 9.38127 11.1728C9.9476 11.1728 10.4069 11.1657 10.7592 11.1517Z" fill="#ABC0DC"/>
<path d="M15 14.9298L14.9398 15C13.9498 14.9719 13.3523 14.9579 13.1472 14.9579C12.3266 14.9579 11.5641 14.9719 10.8595 15L10.7993 14.9298V14.4874L10.8662 14.4101L11.4482 14.375C11.6934 14.361 11.8161 14.2697 11.8161 14.1011C11.8161 14.0028 11.7536 13.7828 11.6288 13.441L11.087 11.9593C10.4716 11.9499 9.84281 11.9452 9.20067 11.9452C8.85284 11.9452 8.33556 11.9499 7.64883 11.9593L7.35452 12.816C7.13155 13.4668 7.02007 13.8741 7.02007 14.0379C7.02007 14.2158 7.12486 14.3212 7.33445 14.3539C7.45039 14.3727 7.67781 14.3914 8.01672 14.4101L8.08361 14.4803V14.9298L8.01672 15C7.19175 14.9719 6.66109 14.9579 6.42475 14.9579C6.24192 14.9579 5.7893 14.9719 5.06689 15L5 14.9368V14.4803L5.07358 14.4101C5.53289 14.382 5.81382 14.286 5.91639 14.1222C6.02341 13.9583 6.41806 12.9822 7.10033 11.1938L8.84615 6.60815C8.97547 6.25234 9.17168 5.71629 9.43478 5H10.3846L13.9298 13.757C14.068 14.0894 14.1929 14.2767 14.3043 14.3188C14.4515 14.375 14.6633 14.4031 14.9398 14.4031L15 14.4803V14.9298ZM10.7592 11.1517L9.32776 7.47191L7.95652 11.1517C8.32219 11.1657 8.7971 11.1728 9.38127 11.1728C9.9476 11.1728 10.4069 11.1657 10.7592 11.1517Z" fill="#7D9BC3"/>
<path d="M3.07447 2.28208C3.07447 1.66164 3.0701 1.07245 3.07447 0.487725C3.07885 0.166348 3.27127 -0.0166584 3.5774 0.00119583C3.83979 0.0145865 4.0016 0.184202 4.0016 0.465407C4.00597 0.947473 4.00597 1.434 4.00597 1.91607C4.00597 1.99641 4.00597 2.07676 4.00597 2.18834C4.10218 2.18834 4.1809 2.18834 4.25525 2.18834C5.01182 2.18834 5.77276 2.18834 6.52934 2.18834C6.72176 2.18834 6.87482 2.26423 6.94917 2.4517C7.02351 2.6347 7.02788 2.8311 6.88357 2.97393C6.79173 3.05874 6.64741 3.12123 6.52059 3.13016C6.22321 3.15248 5.92583 3.13909 5.60221 3.13909C5.48413 4.37103 4.9987 5.4289 4.20277 6.37517C4.60073 6.6296 5.02057 6.8126 5.46226 6.91526C5.77276 6.98668 6.09201 7.01793 6.41126 7.04917C6.7305 7.08042 6.89669 7.22772 6.89231 7.52677C6.88794 7.82583 6.71738 7.99545 6.40251 7.99545C5.40978 7.99099 4.49578 7.70085 3.65174 7.17415C3.50305 7.08042 3.40247 7.07149 3.2494 7.16969C2.41411 7.69639 1.50885 7.98652 0.520498 7.99991C0.183758 8.00438 0.00445527 7.83922 8.2024e-05 7.54016C-0.00429122 7.23664 0.166265 7.06256 0.498632 7.05364C1.28144 7.03132 1.99865 6.79475 2.64152 6.41535C2.33977 5.89311 1.98991 5.40658 1.75375 4.86649C1.52197 4.33086 1.39952 3.74167 1.22022 3.14355C1.03654 3.14355 0.796012 3.14355 0.559857 3.14355C0.26685 3.14355 0.100667 3.00518 0.0962934 2.75968C0.0875469 2.47401 0.26685 2.28654 0.564231 2.28654C1.3208 2.28208 2.08175 2.28208 2.83832 2.28208C2.90829 2.28208 2.97826 2.28208 3.07447 2.28208ZM3.4462 5.81276C4.15466 5.04949 4.55263 4.1791 4.65759 3.15248C3.83979 3.15248 3.05261 3.15248 2.23481 3.15248C2.34414 4.1791 2.73773 5.05396 3.4462 5.81276Z" fill="#ABC0DC"/>
<path d="M3.07447 2.28208C3.07447 1.66164 3.0701 1.07245 3.07447 0.487725C3.07885 0.166348 3.27127 -0.0166584 3.5774 0.00119583C3.83979 0.0145865 4.0016 0.184202 4.0016 0.465407C4.00597 0.947473 4.00597 1.434 4.00597 1.91607C4.00597 1.99641 4.00597 2.07676 4.00597 2.18834C4.10218 2.18834 4.1809 2.18834 4.25525 2.18834C5.01182 2.18834 5.77276 2.18834 6.52934 2.18834C6.72176 2.18834 6.87482 2.26423 6.94917 2.4517C7.02351 2.6347 7.02788 2.8311 6.88357 2.97393C6.79173 3.05874 6.64741 3.12123 6.52059 3.13016C6.22321 3.15248 5.92583 3.13909 5.60221 3.13909C5.48413 4.37103 4.9987 5.4289 4.20277 6.37517C4.60073 6.6296 5.02057 6.8126 5.46226 6.91526C5.77276 6.98668 6.09201 7.01793 6.41126 7.04917C6.7305 7.08042 6.89669 7.22772 6.89231 7.52677C6.88794 7.82583 6.71738 7.99545 6.40251 7.99545C5.40978 7.99099 4.49578 7.70085 3.65174 7.17415C3.50305 7.08042 3.40247 7.07149 3.2494 7.16969C2.41411 7.69639 1.50885 7.98652 0.520498 7.99991C0.183758 8.00438 0.00445527 7.83922 8.2024e-05 7.54016C-0.00429122 7.23664 0.166265 7.06256 0.498632 7.05364C1.28144 7.03132 1.99865 6.79475 2.64152 6.41535C2.33977 5.89311 1.98991 5.40658 1.75375 4.86649C1.52197 4.33086 1.39952 3.74167 1.22022 3.14355C1.03654 3.14355 0.796012 3.14355 0.559857 3.14355C0.26685 3.14355 0.100667 3.00518 0.0962934 2.75968C0.0875469 2.47401 0.26685 2.28654 0.564231 2.28654C1.3208 2.28208 2.08175 2.28208 2.83832 2.28208C2.90829 2.28208 2.97826 2.28208 3.07447 2.28208ZM3.4462 5.81276C4.15466 5.04949 4.55263 4.1791 4.65759 3.15248C3.83979 3.15248 3.05261 3.15248 2.23481 3.15248C2.34414 4.1791 2.73773 5.05396 3.4462 5.81276Z" fill="#7D9BC3"/>
</svg>
