<svg width="18" height="16" viewBox="0 0 18 16" fill="none" xmlns="http://www.w3.org/2000/svg">
<path fill-rule="evenodd" clip-rule="evenodd" d="M5.83944 1.01953C5.83944 0.467246 6.28716 0.0195312 6.83944 0.0195312H11.1607C11.713 0.0195312 12.1607 0.467246 12.1607 1.01953C12.1607 1.57182 11.713 2.01953 11.1607 2.01953H6.83944C6.28716 2.01953 5.83944 1.57182 5.83944 1.01953ZM0.978027 4.3485C0.978027 3.79622 1.42574 3.3485 1.97803 3.3485H16.0221C16.5744 3.3485 17.0221 3.79622 17.0221 4.3485C17.0221 4.90079 16.5744 5.3485 16.0221 5.3485H1.97803C1.42574 5.3485 0.978027 4.90079 0.978027 4.3485ZM4.13866 6.79703C4.69094 6.79703 5.13866 7.24475 5.13866 7.79703V13.9772H12.8615V7.79703C12.8615 7.24475 13.3092 6.79703 13.8615 6.79703C14.4138 6.79703 14.8615 7.24475 14.8615 7.79703V14.9772C14.8615 15.5295 14.4138 15.9772 13.8615 15.9772H4.13866C3.58637 15.9772 3.13866 15.5295 3.13866 14.9772V7.79703C3.13866 7.24475 3.58637 6.79703 4.13866 6.79703Z" fill="#445576"/>
</svg>
