<svg width="16" height="16" viewBox="0 0 16 16" fill="none" xmlns="http://www.w3.org/2000/svg">
<path fill-rule="evenodd" clip-rule="evenodd" d="M8.00004 1.95737C6.77664 1.95737 5.78488 2.94914 5.78488 4.17254C5.78488 5.39594 6.77664 6.3877 8.00004 6.3877C9.22344 6.3877 10.2152 5.39594 10.2152 4.17254C10.2152 2.94914 9.22344 1.95737 8.00004 1.95737ZM3.88488 4.17254C3.88488 1.89979 5.7273 0.057373 8.00004 0.057373C10.2728 0.057373 12.1152 1.89979 12.1152 4.17254C12.1152 6.44528 10.2728 8.2877 8.00004 8.2877C5.7273 8.2877 3.88488 6.44528 3.88488 4.17254ZM8.00004 10.6664C5.1713 10.6664 3.07188 12.6845 3.07187 14.9486C3.07187 15.4732 2.64655 15.8986 2.12187 15.8986C1.5972 15.8986 1.17187 15.4732 1.17188 14.9486C1.17188 11.4333 4.33594 8.76637 8.00004 8.76637C11.6641 8.76637 14.8282 11.4333 14.8282 14.9486C14.8282 15.4733 14.4029 15.8986 13.8782 15.8986C13.3535 15.8986 12.9282 15.4733 12.9282 14.9486C12.9282 12.6845 10.8288 10.6664 8.00004 10.6664Z" fill="white"/>
</svg>
