<svg width="16" height="16" viewBox="0 0 16 16" fill="none" xmlns="http://www.w3.org/2000/svg">
<path fill-rule="evenodd" clip-rule="evenodd" d="M0.00683594 5.00705C0.00683594 3.3502 1.34998 2.00705 3.00684 2.00705H8.35534C8.90763 2.00705 9.35534 2.45476 9.35534 3.00705C9.35534 3.55933 8.90763 4.00705 8.35534 4.00705H3.00684C2.45455 4.00705 2.00684 4.45476 2.00684 5.00705V12.9967C2.00684 13.549 2.45455 13.9967 3.00684 13.9967H10.6097C11.162 13.9967 11.6097 13.549 11.6097 12.9967V9.19527C11.6097 8.64298 12.0575 8.19527 12.6097 8.19527C13.162 8.19527 13.6097 8.64298 13.6097 9.19527V12.9967C13.6097 14.6536 12.2666 15.9967 10.6097 15.9967H3.00684C1.34998 15.9967 0.00683594 14.6536 0.00683594 12.9967V5.00705Z" fill="white"/>
<path d="M6.12148 9.76471C5.81451 9.45774 5.81451 8.96004 6.12148 8.65307L14.2186 0.555912C14.5256 0.24894 15.0233 0.248941 15.3303 0.555913C15.6373 0.862884 15.6373 1.36058 15.3303 1.66755L7.23312 9.76471C6.92615 10.0717 6.42845 10.0717 6.12148 9.76471Z" fill="white"/>
</svg>
